<svg xmlns="http://www.w3.org/2000/svg" width="11.431" height="12" viewBox="0 0 11.431 12">
  <path id="user-md" d="M10.017,8.271h0c-.036-.015-.072-.033-.108-.048a3.443,3.443,0,0,0,1.319-2.708,3.041,3.041,0,0,0-.026-.363.544.544,0,0,0,.022-.07L11.383,3.7a1.728,1.728,0,0,0-1.4-1.9l-.454-.083a9.735,9.735,0,0,0-3.5,0l-.455.083a1.728,1.728,0,0,0-1.4,1.9l.162,1.378a.544.544,0,0,0,.022.07,3.041,3.041,0,0,0-.026.362A3.443,3.443,0,0,0,5.644,8.222c-.037.015-.072.032-.108.048h0a5.72,5.72,0,0,0-3.47,4.656.575.575,0,0,0,1.143.125A4.57,4.57,0,0,1,5.63,9.5l1.738,1.738a.575.575,0,0,0,.813,0L9.92,9.5a4.57,4.57,0,0,1,2.424,3.556.575.575,0,0,0,.571.513.6.6,0,0,0,.063,0,.575.575,0,0,0,.509-.634,5.72,5.72,0,0,0-3.47-4.656ZM5.31,3.569a.576.576,0,0,1,.468-.633l.455-.083a8.584,8.584,0,0,1,3.086,0l.454.083a.576.576,0,0,1,.468.633l-.1.871H5.412Zm2.466,6.445-.949-.949a4.514,4.514,0,0,1,1.9,0Zm0-2.2a2.3,2.3,0,0,1-2.3-2.225h4.6a2.3,2.3,0,0,1-2.3,2.225Z" transform="translate(-2.06 -1.564)" fill="#343434"/>
</svg>
