<svg xmlns="http://www.w3.org/2000/svg" width="220" height="35.499" viewBox="0 0 284.015 35.499">
  <g id="merge_logo" transform="translate(-992 -193.001)">
    <line id="Line_138" data-name="Line 138" y2="35" transform="translate(1128.5 193.5)" fill="none" stroke="#cecece" stroke-width="1"/>
    <g id="logo" transform="translate(1144.002 194.001)">
      <path id="Path_13555" data-name="Path 13555" d="M8.638,24.382H33.087V33H0V0H8.638ZM8.638,0,33.087,24.382V0H8.639Z" fill="#fff200"/>
      <path id="Path_13556" data-name="Path 13556" d="M55.568,23.711h8.2v2.206h-10.7V9.133h2.5Zm31.239-10.07a4.136,4.136,0,0,0-3.941,2.469c-.481-1.582-1.947-2.469-3.919-2.469a3.657,3.657,0,0,0-3.581,2.349V13.833H73.022v6.546a3.338,3.338,0,0,1-3.246,3.644c-1.707,0-2.837-1.3-2.837-3.214V13.833H64.607v7.436c0,2.872,1.78,4.843,4.521,4.843a3.981,3.981,0,0,0,3.894-2.326V25.92h2.343V18.9a2.885,2.885,0,0,1,2.956-3.212c1.586,0,2.548,1.294,2.548,3.212v7.026H83.2V18.9a2.885,2.885,0,0,1,2.956-3.212c1.61,0,2.572,1.294,2.572,3.212v7.026h2.332V18.244c0-2.805-1.635-4.6-4.256-4.6Zm14.832.191h2.331V25.917h-2.331V24.286a4.447,4.447,0,0,1-3.823,1.823c-3.727,0-5.818-2.637-5.818-6.233s2.091-6.234,5.794-6.234a4.813,4.813,0,0,1,3.846,1.8V13.832Zm.172,6.043c0-2.517-1.466-4.2-3.727-4.2-2.234,0-3.7,1.679-3.7,4.2s1.468,4.2,3.7,4.2C100.34,24.071,101.81,22.392,101.81,19.876Zm9.731-6.234a3.98,3.98,0,0,0-3.894,2.325V13.833h-2.331V25.917h2.331V19.371a3.338,3.338,0,0,1,3.246-3.644c1.706,0,2.837,1.3,2.837,3.213v6.978h2.332V18.484c0-2.878-1.783-4.843-4.524-4.843h0ZM117.21,11.7h2.6V8.78h-2.6V11.7Zm.144,14.218h2.331V13.833h-2.33V25.918Zm8.461-15.873h-2.33v3.787h-2.77v2.015h2.772v6.12a3.7,3.7,0,0,0,4.014,3.956h1.9V23.9h-1.709a1.775,1.775,0,0,1-1.879-2.015V15.847H129.4V13.833h-3.579l0-3.788Zm13.072,3.787-3.195,9.059-3.173-9.059h-2.405l4.5,12.206-1.638,4.771h2.236l1.827-5.323L141.3,13.833h-2.408Z" transform="translate(-9.283 -1.536)" fill="#041d2b"/>
    </g>
    <g id="logo-primary-contrast" transform="translate(992 193.001)">
      <path id="Path_13553" data-name="Path 13553" d="M7.619,47.994a16.918,16.918,0,0,1-4.882-4.882A17.108,17.108,0,0,1,0,33.866a16.866,16.866,0,1,1,30.107,10.5,18.434,18.434,0,0,1-3.995,3.551V38.082h1.7v6.731a20.4,20.4,0,0,0,2.441-3.4,15.673,15.673,0,0,0,1.923-7.545,15.422,15.422,0,0,0-15.312-15.46A15.391,15.391,0,0,0,1.553,33.94,15.966,15.966,0,0,0,5.918,44.814V38.082h1.7Zm3.329,1.7c-.3-.074-1.036-.444-1.7-.74V38.082h1.7ZM21.082,25.877l-4.216-3.255-4.216,3.255-.888-1.184L16.94,20.7l5.178,3.995-1.036,1.184ZM14.277,50.583a4.043,4.043,0,0,1-.888-.148,2.856,2.856,0,0,1-.814-.148V27.134h1.7V50.583Zm3.4.074H16.052V27.134h1.7V50.657Zm3.4-.518c-.518.148-.962.3-1.7.444V27.134h1.7Zm3.4-1.258a16.018,16.018,0,0,0-1.7.814V38.082h1.7ZM46.085,24.4c1.479-.74,2.145-1.627,2.145-2.811,0-1.775-1.332-2.959-3.329-2.959-.888,0-1.775.074-2.663.074H40.093v.74l1.184.222V30.019l-1.184.222v.74h4.882a3.964,3.964,0,0,0,2.885-.814A3.235,3.235,0,0,0,48.9,27.726,3.323,3.323,0,0,0,46.085,24.4Zm-3.033-4.808a3.651,3.651,0,0,1,1.11-.222c1.332,0,2,.814,2,2.219,0,1.775-.592,2.515-2.219,2.515h-.888Zm1.11,10.652a1.783,1.783,0,0,1-1.11-.3V24.989h.814c2.071,0,3.033.814,3.033,2.589a2.544,2.544,0,0,1-2.737,2.663ZM54,22.03c-2.145,0-3.551,1.923-3.551,4.66,0,2.589,1.405,4.364,3.4,4.364,2.145,0,3.551-1.849,3.551-4.66.074-2.589-1.332-4.364-3.4-4.364Zm-.074,8.211c-.962,0-1.553-1.258-1.553-3.551,0-2.441.592-3.773,1.627-3.773.962,0,1.627,1.332,1.627,3.4-.074,2.367-.74,3.921-1.7,3.921Zm8.8-.37c-1.258,0-1.849-.962-2-3.4h4.512a6.32,6.32,0,0,0-.222-2.071A2.7,2.7,0,0,0,62.285,22.1c-2.071,0-3.329,1.775-3.329,4.66,0,2.737,1.184,4.364,3.329,4.364,1.405,0,2.071-.518,2.959-2.071l-.814-.3C63.838,29.5,63.394,29.871,62.729,29.871Zm-.592-6.953c.814,0,1.184.74,1.258,2.663H60.731C60.879,23.731,61.323,22.918,62.137,22.918Zm19.085.37c0,.37-.074.518-.666,1.036l-.888-.518a1.883,1.883,0,0,0-1.11,1.627v4.512l1.258.148v.74H75.9v-.74l.962-.222V23.436l-.962-.148V22.7l2.145-.592h.518v1.627c.74-1.184,1.11-1.553,1.775-1.553a1.207,1.207,0,0,1,.888,1.11m1.036,7.619v-.666l.888-.222V23.584l-.888-.222V22.77l2.219-.518h.444v7.767l.962.148v.74ZM85.068,19a1.138,1.138,0,0,1-1.11,1.11,1.168,1.168,0,0,1-1.184-1.184,1.109,1.109,0,0,1,1.184-1.11A1.264,1.264,0,0,1,85.068,19ZM91.8,30.907v-.74l.888-.148v-5.1c0-1.11-.3-1.553-.962-1.553a2.7,2.7,0,0,0-1.7.814v5.77l.888.222v.74H87.287v-.74l1.036-.222V23.51l-1.036-.148v-.74l2.219-.592h.518v1.036a3.418,3.418,0,0,1,2.293-1.036c1.405,0,2.145.814,2.145,2.515v5.326l.888.222v.74c0,.074-3.551.074-3.551.074Zm12.058-7.619v-.962H102.3a3.565,3.565,0,0,1-.888,0,11.222,11.222,0,0,0-1.553-.222A2.877,2.877,0,0,0,96.9,25.063,2.52,2.52,0,0,0,98.383,27.5c-1.11.74-1.627,1.258-1.627,1.849,0,.518.3.888.962,1.11-.962.592-1.405,1.11-1.405,1.849,0,1.11,1.258,1.775,3.181,1.775,2.589,0,4.216-1.184,4.216-3.107,0-1.332-.814-1.923-2.441-2l-2.293-.074c-.37,0-.592-.148-.592-.37,0-.148.222-.444.666-.74a3.748,3.748,0,0,0,.962.148,2.845,2.845,0,0,0,2.959-2.811,2.673,2.673,0,0,0-.666-1.775h1.553v-.074Zm-5.178,7.323c3.551.222,3.773.3,3.773,1.036,0,.888-1.036,1.479-2.589,1.479-1.184,0-1.849-.444-1.849-1.258A1.653,1.653,0,0,1,98.679,30.611Zm1.258-3.551c-.814,0-1.184-.666-1.184-2.145s.37-2.145,1.11-2.145c.888,0,1.258.74,1.258,2.293.074,1.405-.37,2-1.184,2Zm8.877,2.811c-1.258,0-1.849-.962-2-3.4h4.512a6.321,6.321,0,0,0-.222-2.071A2.7,2.7,0,0,0,108.37,22.1c-2.071,0-3.329,1.775-3.329,4.66,0,2.737,1.184,4.364,3.329,4.364,1.405,0,2.071-.518,2.959-2.071l-.814-.3C109.923,29.5,109.479,29.871,108.813,29.871Zm-.592-6.953c.814,0,1.184.74,1.258,2.663h-2.663c.148-1.849.592-2.663,1.405-2.663Zm7.4.888c.74-1.184,1.11-1.553,1.775-1.553a1.011,1.011,0,0,1,1.036,1.036c0,.37-.074.518-.666,1.036l-.888-.518a1.883,1.883,0,0,0-1.11,1.627v4.512l1.258.148v.74H113.1v-.74l.962-.222V23.436l-.962-.148V22.7l2.145-.592h.518ZM40.167,49.03v-.666l1.11-.222V37.786l-1.11-.222v-.74h4.068v.74l-1.036.222V48.068l.962.222v.74Zm9.838,0v-.74l.888-.148v-5.1c0-1.11-.3-1.553-.962-1.553a2.7,2.7,0,0,0-1.7.814v5.77l.888.222v.74H45.493v-.74l1.036-.222V41.633l-1.036-.148v-.74l2.219-.592h.518v1.036a3.418,3.418,0,0,1,2.293-1.036c1.405,0,2.145.814,2.145,2.515v5.4l.888.222v.74H50.005Zm10.652-7.545a2.674,2.674,0,0,1,.666,1.775,2.8,2.8,0,0,1-2.959,2.811,2.03,2.03,0,0,1-.962-.148c-.444.3-.666.592-.666.814,0,.148.222.3.592.37l2.293.074c1.7.074,2.441.74,2.441,2,0,1.849-1.7,3.107-4.216,3.107-1.923,0-3.181-.74-3.181-1.775,0-.74.37-1.184,1.405-1.849-.74-.3-.962-.592-.962-1.11,0-.592.444-1.184,1.627-1.849a2.64,2.64,0,0,1-1.479-2.441A2.877,2.877,0,0,1,58.216,40.3a11.223,11.223,0,0,1,1.553.222,3.564,3.564,0,0,0,.888,0h1.553v1.036l-1.553-.074Zm-4.364,8.581c0,.814.74,1.258,1.849,1.258,1.479,0,2.589-.592,2.589-1.479,0-.814-.222-.888-3.773-1.11A1.791,1.791,0,0,0,56.293,50.066Zm.74-6.953c0,1.479.37,2.145,1.184,2.145s1.184-.666,1.184-2c0-1.553-.444-2.293-1.258-2.293-.74,0-1.11.666-1.11,2.145Zm9.986,4.882c-1.258,0-1.849-.962-2-3.4h4.512a6.32,6.32,0,0,0-.222-2.071,2.7,2.7,0,0,0-2.737-2.293c-2.071,0-3.329,1.775-3.329,4.66,0,2.737,1.184,4.364,3.329,4.364,1.405,0,2.071-.518,2.959-2.071l-.814-.3c-.592.814-1.036,1.11-1.7,1.11Zm-.592-6.953c.814,0,1.184.74,1.258,2.663H65.022C65.17,41.855,65.614,41.041,66.427,41.041Zm4.29,7.989v-.666l1.036-.222V37.194l-.962-.074v-.666l2.219-.444h.444V48.068l.962.222v.74Zm9.542,0v-.74l.888-.148V43.334c0-1.258-.222-1.775-.962-1.775a2.253,2.253,0,0,0-1.7.814v5.7l.888.148v.74H75.822v-.74l1.036-.222V37.342L75.9,37.12v-.592l2.219-.444h.444v5.326a3.438,3.438,0,0,1,2.367-1.036c1.405,0,2.071.814,2.071,2.589v5.178l.888.148v.74H80.26Zm8.729-1.036c-1.258,0-1.849-.962-2-3.4H91.5a6.32,6.32,0,0,0-.222-2.071,2.7,2.7,0,0,0-2.737-2.293c-2.071,0-3.329,1.775-3.329,4.66,0,2.737,1.184,4.364,3.329,4.364,1.405,0,2.071-.518,2.959-2.071l-.814-.3a1.925,1.925,0,0,1-1.7,1.11ZM88.4,41.041c.814,0,1.184.74,1.258,2.663H86.992C87.139,41.855,87.583,41.041,88.4,41.041Zm4.66,7.989v-.666l.888-.222V41.781l-.888-.222v-.592l2.219-.592h.444v7.767l.962.148v.74Zm2.811-11.836a1.138,1.138,0,0,1-1.11,1.11,1.168,1.168,0,0,1-1.184-1.184,1.109,1.109,0,0,1,1.184-1.11A1.154,1.154,0,0,1,95.868,37.194ZM107.112,49.03v-.74l.888-.222v-5.1c0-.962-.37-1.479-1.036-1.479-.518,0-.888.148-1.627.888v5.7l.888.222v.74h-3.551v-.74l.962-.222v-5.1c0-.962-.37-1.479-1.11-1.479a2.279,2.279,0,0,0-1.627.814v5.77l.814.222v.74H98.161v-.74l1.036-.222v-6.51l-1.036-.148v-.592l2.219-.592h.444v1.184a3.519,3.519,0,0,1,2.367-1.036,2.18,2.18,0,0,1,2,1.11A3.189,3.189,0,0,1,107.63,40.3a2.015,2.015,0,0,1,2.219,2.293v5.474l.962.222v.74h-3.7Z" transform="translate(0 -17)" fill="#113d6a"/>
      <path id="Path_13554" data-name="Path 13554" d="M104.594,23.6c0,.37-.074.518-.666,1.036l-.888-.518a1.883,1.883,0,0,0-1.11,1.627v4.512l1.258.148v.74H99.268v-.74l.962-.222V23.748l-.962-.148v-.592l2.145-.592h.518v1.627c.74-1.184,1.11-1.553,1.775-1.553a1.207,1.207,0,0,1,.888,1.11M94.238,31.219v-.74l.888-.148V25.523c0-1.258-.222-1.775-.962-1.775a2.253,2.253,0,0,0-1.7.814v5.7l.888.148v.74H89.8v-.74l1.036-.222V19.458l-.962-.222v-.592l2.219-.444h.444v5.326A3.438,3.438,0,0,1,94.9,22.49c1.405,0,2.071.814,2.071,2.589v5.178l.888.148v.74l-3.625.074Z" transform="translate(-23.373 -17.312)" fill="#113d6a"/>
    </g>
  </g>
</svg>
