<svg xmlns="http://www.w3.org/2000/svg" width="135.86" height="39.02" viewBox="0 0 135.86 39.02">
  <defs>
    <style>
      .a {
        fill: #fff;
      }

      .b {
        fill: #f1ad0f;
      }
    </style>
  </defs>
  <g>
    <g>
      <path class="a" d="M65.4,27.22v5.34H63.78V19.66h3.46a12.46,12.46,0,0,1,1.49.06,7.32,7.32,0,0,1,1.12.2A4,4,0,0,1,72,21.17a3.37,3.37,0,0,1,.74,2.2,3.74,3.74,0,0,1-.26,1.4,3.28,3.28,0,0,1-.73,1.07,4,4,0,0,1-1.12.74,6.19,6.19,0,0,1-1.45.43v0l3.94,5.52H71.48l-4.11-5.34Zm0-6.15V25.8H67c.5,0,.92,0,1.28-.05a4.21,4.21,0,0,0,.94-.17,2.59,2.59,0,0,0,1.31-.8A2.2,2.2,0,0,0,71,23.34,2,2,0,0,0,70.56,22a2.33,2.33,0,0,0-1.19-.72,4.9,4.9,0,0,0-.85-.16c-.34,0-.76-.05-1.27-.05Z"/>
      <path class="a" d="M77.92,32.56l5.44-12.9h1.41l5.43,12.9H88.44l-1.6-3.88H81.26l-1.59,3.88Zm6.13-10.9q-.9,2.41-1.71,4.38l-.5,1.22h4.43l-.51-1.21c-.55-1.34-1.1-2.81-1.67-4.39Z"/>
      <path class="a" d="M99.05,30.56c.48-1.41,1-2.83,1.56-4.27l2.56-6.63h1.62L99.74,32.57H98.32L93.26,19.66h1.62l2.56,6.63c.56,1.44,1.09,2.86,1.57,4.27Z"/>
      <path class="a" d="M112,31.15h6.84v1.41h-8.47V19.66h8.1v1.41H112v4.17h5.75v1.42H112Z"/>
      <path class="a" d="M131.87,26.85c.82,1.14,1.62,2.31,2.42,3.51h.06c-.09-1.25-.13-2.53-.13-3.83V19.66h1.64V32.57h-1.63L129,25.37c-.91-1.26-1.72-2.43-2.43-3.52h-.06c.09,1.18.13,2.55.13,4.12v6.59H125V19.66h1.62Z"/>
    </g>
    <g>
      <path class="a" d="M55.85,20.19S45.6,25.65,38.77,29.64c-5.23,3-13.76,8.6-13.76,8.6s-4.27,2.3-9.84-1S7,30.36,6,29.71A5.41,5.41,0,0,0,3,29l-.12,0-.79,0H2c-.24,0-.47,0-.71,0l-.36,0s0,0,0-.05l.08-.13a8.44,8.44,0,0,1,1.63-1.8c1.06-.85,2.27-2.29,3.6-2.41,2.4-.2,4.59,2.33,6.53,3.51,1.78,1.09,3.2,2.18,5.43,2.18a15.22,15.22,0,0,0,6.26-1.13l3.42-1.71c5.54-2.81,5.19-2.76,6.83-3.42a24.23,24.23,0,0,1,2.28-1.14l18.74-2.64s0,0,.05,0"/>
      <path class="a" d="M2,29a6.38,6.38,0,0,1,1.24-.16c0-.23.08-.47.13-.71a1.91,1.91,0,0,1,0-.21,2.93,2.93,0,0,0-.15-.6A.68.68,0,0,0,2.9,27l-.12-.06-.68.22a.64.64,0,0,0,0,.07.14.14,0,0,1-.09.14l-.07.05-.35.18-.24.13-.49.37,0,0-.37.33a2.65,2.65,0,0,0-.33.34A.23.23,0,0,0,0,29S0,29,0,29v0s0,0,.05,0l.07,0A.49.49,0,0,1,.29,29H.51a1.47,1.47,0,0,0,.21,0H1.5a.54.54,0,0,1,.18,0H2"/>
      <path class="b" d="M33,9.76l0,12.91-5.94,3.24V9.76Z"/>
      <path class="b" d="M42.75,20.4,37.06,21,37,0h5.91Z"/>
      <path class="b" d="M17.29,17.09l5.91-.43.2,11.14s-1.71,1.14-5.7.57Z"/>
      <path class="b" d="M36.12,34.24,48.81,26.5,37.17,34.63Z"/>
      <path class="b" d="M41.17,31.49l-4,2.82-.36-.14,4.4-2.68m9.24-6.1a4.39,4.39,0,0,0-1.25.56c-.26.14-13.68,8.34-13.68,8.34l1.73.66L49.44,26.4s1.29-1,1-1"/>
    </g>
  </g>
</svg>