<svg xmlns="http://www.w3.org/2000/svg" width="59.332" height="59.333" viewBox="0 0 59.332 59.333">
  <g id="calendar" transform="translate(-75.055 -75.002)">
    <path id="Path_13211" data-name="Path 13211" d="M831.1,480.82h-6.524a1.059,1.059,0,0,0-1.06,1.06v5.76a1.06,1.06,0,0,0,1.06,1.06H831.1a1.06,1.06,0,0,0,1.06-1.06v-5.76A1.06,1.06,0,0,0,831.1,480.82Zm-1.06,5.76h-4.405v-3.641h4.405Z" transform="translate(-706.172 -382.888)"/>
    <path id="Path_13212" data-name="Path 13212" d="M831.1,684.98h-6.524a1.059,1.059,0,0,0-1.06,1.06v5.76h0a1.059,1.059,0,0,0,1.06,1.06H831.1a1.059,1.059,0,0,0,1.06-1.06v-5.76a1.059,1.059,0,0,0-1.06-1.06Zm-1.06,5.76h-4.405V687.1h4.405Z" transform="translate(-706.172 -575.511)"/>
    <path id="Path_13213" data-name="Path 13213" d="M831.1,889.12h-6.524a1.06,1.06,0,0,0-1.06,1.06v5.76a1.059,1.059,0,0,0,1.06,1.059H831.1a1.059,1.059,0,0,0,1.06-1.059v-5.76A1.06,1.06,0,0,0,831.1,889.12Zm-1.06,5.76h-4.405v-3.641h4.405Z" transform="translate(-706.172 -768.116)"/>
    <path id="Path_13214" data-name="Path 13214" d="M231.1,480.82h-6.524a1.059,1.059,0,0,0-1.059,1.06v5.76a1.06,1.06,0,0,0,1.059,1.06H231.1a1.06,1.06,0,0,0,1.059-1.06v-5.76A1.059,1.059,0,0,0,231.1,480.82Zm-1.06,5.76h-4.4v-3.641h4.4Z" transform="translate(-140.076 -382.888)"/>
    <path id="Path_13215" data-name="Path 13215" d="M231.1,684.98h-6.524a1.059,1.059,0,0,0-1.059,1.06v5.76h0a1.059,1.059,0,0,0,1.059,1.06H231.1a1.059,1.059,0,0,0,1.059-1.06v-5.76A1.059,1.059,0,0,0,231.1,684.98Zm-1.06,5.76h-4.4V687.1h4.4Z" transform="translate(-140.076 -575.511)"/>
    <path id="Path_13216" data-name="Path 13216" d="M231.1,889.12h-6.524a1.06,1.06,0,0,0-1.059,1.06v5.76a1.059,1.059,0,0,0,1.062,1.06H231.1a1.059,1.059,0,0,0,1.059-1.059v-5.76a1.06,1.06,0,0,0-1.059-1.06Zm-1.06,5.76h-4.4v-3.641h4.4Z" transform="translate(-140.076 -768.116)"/>
    <path id="Path_13217" data-name="Path 13217" d="M531.1,480.82h-6.524a1.06,1.06,0,0,0-1.06,1.06v5.76a1.06,1.06,0,0,0,1.06,1.06H531.1a1.06,1.06,0,0,0,1.06-1.06v-5.76a1.06,1.06,0,0,0-1.06-1.06Zm-1.06,5.76h-4.405v-3.641h4.405Z" transform="translate(-423.123 -382.888)"/>
    <path id="Path_13218" data-name="Path 13218" d="M531.1,684.98h-6.524a1.059,1.059,0,0,0-1.06,1.06v5.76h0a1.059,1.059,0,0,0,1.06,1.06H531.1a1.059,1.059,0,0,0,1.06-1.06v-5.76a1.059,1.059,0,0,0-1.06-1.06Zm-1.06,5.76h-4.405V687.1h4.405Z" transform="translate(-423.123 -575.511)"/>
    <path id="Path_13219" data-name="Path 13219" d="M531.1,889.12h-6.524a1.06,1.06,0,0,0-1.06,1.06v5.76a1.059,1.059,0,0,0,1.06,1.059H531.1a1.059,1.059,0,0,0,1.06-1.059v-5.76a1.06,1.06,0,0,0-1.06-1.06Zm-1.06,5.76h-4.405v-3.641h4.405Z" transform="translate(-423.123 -768.116)"/>
    <path id="Path_13220" data-name="Path 13220" d="M131.208,80.3h-4.344V79.24a4.238,4.238,0,1,0-8.476,0V80.3h-8.476V79.24a4.238,4.238,0,1,0-8.476,0V80.3H92.96V79.24a4.238,4.238,0,0,0-8.476,0V80.3h-6.25a3.179,3.179,0,0,0-3.179,3.179v47.678a3.179,3.179,0,0,0,3.179,3.178h52.975a3.179,3.179,0,0,0,3.178-3.178V83.477a3.179,3.179,0,0,0-3.178-3.179Zm-10.7-1.06a2.119,2.119,0,1,1,4.238,0v4.238a2.119,2.119,0,0,1-4.238,0Zm-16.952,0a2.119,2.119,0,0,1,4.238,0v4.238a2.119,2.119,0,1,1-4.238,0Zm-16.952,0a2.119,2.119,0,1,1,4.238,0v4.238a2.119,2.119,0,0,1-4.238,0Zm-8.37,3.178h6.251v1.06a4.238,4.238,0,0,0,8.476,0v-1.06h8.476v1.06a4.238,4.238,0,1,0,8.476,0v-1.06h8.476v1.06a4.238,4.238,0,1,0,8.476,0v-1.06h4.344a1.06,1.06,0,0,1,1.06,1.06v9.006H77.174V83.477a1.06,1.06,0,0,1,1.06-1.06Zm52.975,49.8H78.233a1.06,1.06,0,0,1-1.06-1.06V94.6h55.094v36.553a1.06,1.06,0,0,1-1.06,1.06Z"/>
  </g>
</svg>
