<svg xmlns="http://www.w3.org/2000/svg" width="17.037" height="13.631" viewBox="0 0 17.037 13.631">
  <path id="Icon_awesome-user-edit" data-name="Icon awesome-user-edit" d="M5.963,6.815A3.408,3.408,0,1,0,2.556,3.408,3.407,3.407,0,0,0,5.963,6.815Zm2.385.852H7.9a4.634,4.634,0,0,1-3.882,0H3.578A3.579,3.579,0,0,0,0,11.245v1.107a1.278,1.278,0,0,0,1.278,1.278H8.6a1.278,1.278,0,0,1-.069-.567l.181-1.621.032-.3.21-.21,2.058-2.058a3.542,3.542,0,0,0-2.66-1.211Zm1.206,3.868-.181,1.624a.424.424,0,0,0,.469.469l1.621-.181,3.671-3.671L13.226,7.867Zm7.3-4.377L15.843,6.15a.638.638,0,0,0-.9,0L13.937,7.156l-.109.109,1.911,1.909,1.113-1.113a.641.641,0,0,0,0-.9Z" fill="#848484"/>
</svg>
