<svg id="Financial_Logo" xmlns="http://www.w3.org/2000/svg" xmlns:xlink="http://www.w3.org/1999/xlink" width="139.184" height="166.058" viewBox="0 0 139.184 166.058">
  <defs>
    <clipPath id="clip-path">
      <rect id="Rectangle_30092" data-name="Rectangle 30092" width="139.184" height="166.058" fill="none"/>
    </clipPath>
  </defs>
  <g id="Group_1862" data-name="Group 1862" clip-path="url(#clip-path)">
    <path id="Path_17770" data-name="Path 17770" d="M120.244,60.126a60.14,60.14,0,1,1-.281-5.793c.19,1.9.281,3.838.281,5.793" fill="#0e4566"/>
    <path id="Path_17771" data-name="Path 17771" d="M3.682,101.2c28.167,2.122,74.019-.867,112.251-33.614l6.76,13.3,16.491-35.037L103.044,40.3l7.077,15.416S75.757,96.175,3.748,98.129a1.54,1.54,0,0,0-.066,3.075" fill="#94b734"/>
    <path id="Path_17772" data-name="Path 17772" d="M39.421,53.036V86.489a89.16,89.16,0,0,1-14,3.774V53.036c0-2.227,1.3-4.028,2.9-4.028h8.2c1.6,0,2.9,1.8,2.9,4.028" fill="#daeaa2"/>
    <path id="Path_17773" data-name="Path 17773" d="M65.959,37.495V77.021a92.674,92.674,0,0,1-14,7.467V37.495c0-2.227,1.3-4.028,2.9-4.028h8.2c1.6,0,2.9,1.8,2.9,4.028" fill="#daeaa2"/>
    <path id="Path_17774" data-name="Path 17774" d="M92.5,23.466V60.8a98.294,98.294,0,0,1-14,12.68V23.466c0-2.218,1.3-4.028,2.9-4.028h8.2c1.6,0,2.9,1.81,2.9,4.028" fill="#daeaa2"/>
  </g>
</svg>
