<svg xmlns="http://www.w3.org/2000/svg" width="100" height="100" viewBox="0 0 100 100">
  <path id="globe" d="M246.25,196.72a50,50,0,1,1-50-50A50.146,50.146,0,0,1,246.25,196.72Zm-62.5,44.642L180.177,236l-3.571-8.929-3.571-1.786-5.358-5.357-1.786-3.571,1.786-3.572v-3.571L165.89,211l-3.571-1.785-1.786-3.572-1.784,0-1.785-1.786h-1.785l-3.571-3.571V198.5l-1.786-2.678v.893a46.435,46.435,0,0,0,33.929,44.642Zm12.5,1.786a45.652,45.652,0,0,0,25-7.322v-1.607l3.571-5.357v-1.785l1.786-3.571h1.785v-5.357l-1.785-1.786,1.785-3.572L226.608,211l-3.571,1.786h-3.571L215.893,211l-1.786-3.571-1.786-1.786v-1.785l1.786-1.785v-3.571l1.786-5.357h1.785l1.785-3.571,1.786-1.786h3.571l1.786-1.786h3.571l1.786,3.571,1.786,1.785h1.786l1.785-1.785,1.785,1.785h1.784l-1.786-3.571h-1.785l-1.785-3.571-1.786,3.571-1.785-1.786,1.786-1.785-5.358-3.571h-3.571l1.786,1.786h-1.786v3.57h-1.786l-1.786,1.786v-1.786h-3.571v-3.571l1.785-1.786h3.571v-1.786l-1.786-1.786-1.786-1.785h1.786l1.786-3.571h1.786v-3.571h-1.786l-1.786-3.571,1.786-1.786-1.786-3.571.536-1.25a46.1,46.1,0,0,0-18.929-7.322l-1.25,1.429,3.571,1.786-1.786,1.786v3.571l-3.571,1.786h-3.571l-1.786,3.571-1.786,1.786-3.571-1.786-1.786-5.357,1.786-3.571-1.786-1.786h-3.571l0-1.786c-.893.178-1.785.536-2.5.714l-1.072,1.071h-1.786a49.16,49.16,0,0,0-6.786,3.571h1.428l1.785-1.786h5.358l1.786,1.786-1.786,1.786h1.786l1.785,1.786-1.785,1.786-1.786,1.786h-1.786l-1.786-1.786h-1.785l3.571-1.786L176.6,159.22l-3.571,1.786v1.786h-3.571l-5.357,3.571v1.786l1.785,1.786h1.786v3.571h1.786v-1.785l3.571-3.571-1.786-1.786,1.786-1.786h3.571v1.786l1.786,1.786,1.786-1.786,1.786,3.571,3.571,1.786-1.786,3.571v-1.786l-1.785,1.786h-3.571l-1.786,1.785h1.786l1.786,1.786-5.358,1.786h-1.785v1.786l-3.571,1.786-1.786,3.571-3.571,3.571,1.785,3.571-1.785,1.786-3.572-3.572h-3.571l-1.785,3.571v3.571l1.785,1.786,1.785-1.786,3.571-1.786-1.786,1.786v3.571h1.786v1.786l1.786,3.572h1.785l1.786-1.786,3.571-1.786,1.786,1.786h5.357L181.964,211h3.571l3.571,3.571,5.357,1.786,3.571,1.786,1.786,3.571L196.25,223.5v5.357l-3.571,1.786h-1.785v3.571l-3.571,3.571v1.786l-1.786,1.786.715.714a46.386,46.386,0,0,0,10,1.071Z" transform="translate(-146.25 -146.72)"/>
</svg>
