<svg xmlns="http://www.w3.org/2000/svg" width="72" height="72" viewBox="0 0 72 72">
  <g id="_728979_info_communication_data_help_information_icon" data-name="728979_info_communication_data_help_information_icon" transform="translate(0 0)">
    <g id="Group_3815" data-name="Group 3815" transform="translate(0 0)">
      <g id="Group_3814" data-name="Group 3814">
        <path id="Path_11939" data-name="Path 11939" d="M36,0A36,36,0,1,0,72,36,36,36,0,0,0,36,0Zm0,67.5A31.5,31.5,0,1,1,67.5,36,31.538,31.538,0,0,1,36,67.5Z" fill="#ffb488"/>
      </g>
    </g>
    <g id="Group_3817" data-name="Group 3817" transform="translate(39 52.47) rotate(180)">
      <g id="Group_3816" data-name="Group 3816">
        <path id="Path_11940" data-name="Path 11940" d="M3.337,10.01A3.339,3.339,0,0,0,0,13.347V30.031a3.337,3.337,0,1,0,6.673,0V13.347A3.339,3.339,0,0,0,3.337,10.01Zm0-3.337A3.337,3.337,0,1,0,0,3.337,3.339,3.339,0,0,0,3.337,6.673Z" fill="#ff7322"/>
      </g>
    </g>
  </g>
</svg>
