<svg id="line_chart" xmlns="http://www.w3.org/2000/svg" width="16" height="15" viewBox="0 0 16 15">
  <path id="Path_17758" data-name="Path 17758" d="M87.125,29.634c5.3.033,10.7,0,16,0V28.86H87.991V14.649h-.866Z" transform="translate(-87.125 -14.649)" fill="#bebebe"/>
  <path id="Path_17759" data-name="Path 17759" d="M159.351,177.3l-3.949,2.718-4.082-4.663-3.816,2.759v.375l3.817-2.686,4.082,4.678,3.949-2.743m-.806-.295a.78.78,0,1,0,.78-.773.777.777,0,0,0-.78.773m-3.989,2.781a.829.829,0,1,0,.829-.821.825.825,0,0,0-.829.821m-4.082-4.772a.829.829,0,1,0,.829-.821.825.825,0,0,0-.829.821m-3.806,2.815a.829.829,0,1,0,.829-.821A.825.825,0,0,0,146.668,178.27Z" transform="translate(-144.881 -169.832)" fill="#bebebe"/>
  <path id="Path_17760" data-name="Path 17760" d="M159.071,54.914l-3.949,2.015-4.082-2.555-3.816,1.354V56.1l3.817-1.28,4.082,2.5,3.949-2.041m-.806-.22a.78.78,0,1,0,.78-.773.777.777,0,0,0-.78.773m-3.989,2.078a.829.829,0,1,0,.829-.821.825.825,0,0,0-.829.821m-4.082-2.664a.829.829,0,1,0,.829-.821.825.825,0,0,0-.829.821m-3.806,1.41a.829.829,0,1,0,.829-.821A.825.825,0,0,0,146.388,55.881Z" transform="translate(-144.609 -52.48)" fill="#bebebe"/>
</svg>
