<svg xmlns="http://www.w3.org/2000/svg" width="817.826" height="900" viewBox="0 0 817.826 900">
  <g id="Login_bg" transform="translate(-622.174 0)">
    <path id="Path_13154" data-name="Path 13154" d="M0-230,408.913,220V670L0,220Z" transform="translate(1031.087 230)" fill="#0d0d0d"/>
    <path id="Path_13153" data-name="Path 13153" d="M0-230,408.913,220V670L0,220Z" transform="translate(622.174 230)" fill="#0d0d0d"/>
    <path id="Path_13191" data-name="Path 13191" d="M129.263,9.473c.089-.428.538-.345.758-.585.46.455.46.455.967.533.324-.1-.063-.439.172-.543.392-.178.4.267.617.418.1-.115.2-.23.3-.35.308-.047.219.329.418.4.5.162.5.162,1.651-.084.4.465.167.93,0,1.4.183.282.366.564.575.894a4.464,4.464,0,0,0-.12,3.276,10.072,10.072,0,0,1-.475,2.127,4.911,4.911,0,0,0-.476,2.294,5.353,5.353,0,0,1-.3,1.829c-.35,1.129-.653,2.278-.92,3.428a9.012,9.012,0,0,1-.836,2.388,2.019,2.019,0,0,0-.293.789,8.213,8.213,0,0,1-.878,2.911,1.813,1.813,0,0,0-.141.308,12.012,12.012,0,0,1-.559,2.289,7.355,7.355,0,0,0-.9,2.174,3.515,3.515,0,0,1-.4.93,5.672,5.672,0,0,0-.606,1.578,1.316,1.316,0,0,1-.24.622,19.769,19.769,0,0,0-1.651,3.162c-.653,1.312-1.448,2.55-1.975,3.93a9.688,9.688,0,0,1-.982,1.583c-.183.287-.392.559-.57.847A19.984,19.984,0,0,1,121,50.7a21.027,21.027,0,0,0-1.589,2.6c-.178.287-.387.554-.585.831a3.523,3.523,0,0,0-.491.685c-.648,1.714-1.928,3.036-2.8,4.609a7.688,7.688,0,0,0-1.04,2.487,2.433,2.433,0,0,1-.46,1.082c-.418.538-.93.988-.92,1.761,0,.183-.2.4-.366.549a3.648,3.648,0,0,0-1.2,2.179c.131.408.434.261.784.209a8.815,8.815,0,0,1,1.505-1.74,22.634,22.634,0,0,0,3.229-3.48c.058-.094.136-.219.23-.24.862-.267,1.087-1.113,1.547-1.724a7.781,7.781,0,0,1,1.495-1.8,3.718,3.718,0,0,0,1.139-1.442c.371-.831,1.285-1.312,1.406-2.278a.272.272,0,0,1,.089-.141c1.39-1.338,2.237-3.1,3.574-4.494a18.944,18.944,0,0,0,2.6-3.538,11.386,11.386,0,0,1,1.714-2.3,16.393,16.393,0,0,0,1.406-1.484,11.216,11.216,0,0,0,.946-1.583,1.983,1.983,0,0,1,.9-.972c.679-.329,1.045-1.029,1.51-1.578.69-.815,1.489-1.547,2.116-2.388a50.359,50.359,0,0,1,3.715-3.961c.387-.418.533-.993,1.009-1.348A3,3,0,0,0,143.4,30a3.153,3.153,0,0,1,.674-.758,7.972,7.972,0,0,0,1.667-1.913,11.293,11.293,0,0,1,2.618-1.819l-.047-.042a.4.4,0,0,0,.35.3c.089-.052.219-.1.251-.178.141-.355.115-.831.559-.988a2.565,2.565,0,0,1,1.829-.016,3.617,3.617,0,0,1,1.62,1.249c.549,1.035.387,2.116.831,3.047a.21.21,0,0,1,.016.167c-.517.962.3,1.991-.146,2.952a10.444,10.444,0,0,1-.434,2.973,12.414,12.414,0,0,0-.366,2.514,8.08,8.08,0,0,1-.564,2.639c-.1.261-.152.543-.23.815a19.011,19.011,0,0,1-.915,3.433c.068,1.176-.732,2.143-.784,3.287a.823.823,0,0,1-.11.324,36.022,36.022,0,0,0-2.237,6.219,11.183,11.183,0,0,1-1.322,3.282.461.461,0,0,0,.094.617,3.565,3.565,0,0,0,1.7-.517,10.438,10.438,0,0,0,.993-.648,3.732,3.732,0,0,1,2.19-.82,9.229,9.229,0,0,1,2.623-1.871,2.467,2.467,0,0,0,.575-.355c1.338-1.228,2.827-2.278,4.081-3.606a5.717,5.717,0,0,1,1.515-1.359,1.426,1.426,0,0,0,.366-.345,14.356,14.356,0,0,1,5.236-3.919,3.268,3.268,0,0,1,1.928,1.364c-.047.246-.193.543-.125.773.235.8.324,1.636.59,2.409a5.544,5.544,0,0,1,.434,2.942.6.6,0,0,0,.016.334c.554,1.317.178,2.7.225,4.039a2.078,2.078,0,0,1-.131.658,15.122,15.122,0,0,0-.674,4.045,7.431,7.431,0,0,1-.716,3.245,19.753,19.753,0,0,0-.935,2.184,20.163,20.163,0,0,1-1.672,3.125c-.862,1.4-1.662,2.827-2.519,4.222-.6.967-1.238,1.9-1.871,2.832a1.621,1.621,0,0,0-.455,1.045,10.125,10.125,0,0,0,1.1.418,6.622,6.622,0,0,1,4.254,3.642,7.093,7.093,0,0,1,.941,3.736c-.063,1.933-.016,3.867-.005,5.8a12.346,12.346,0,0,1-.512,3.862,4.15,4.15,0,0,0-.214,1.51,2.245,2.245,0,0,1-1.134,2.143,3.481,3.481,0,0,0-1.495,1.787.905.905,0,0,0,.01.225c.7.559,1.364-.449,2.064-.063a5.043,5.043,0,0,1,1.918,2.3,14.79,14.79,0,0,1,1.693,6.344,1.933,1.933,0,0,1-.016.674,11.036,11.036,0,0,0-.293,3.2,10.226,10.226,0,0,1-.235,1.672c-.34,1.421-.564,2.874-.8,4.154-.622.873-1.144,1.61-1.667,2.341a21.439,21.439,0,0,1,2.77,6.381c.23.758.387,1.542.632,2.289a16.462,16.462,0,0,0,.909,2.372,4.788,4.788,0,0,1,.366,2.989,6.441,6.441,0,0,0-.34,2.127,6.233,6.233,0,0,1-.272,2.007c-.157,1.338-.517,2.655-.8,3.977a4.6,4.6,0,0,1-1.421,2.467,1.149,1.149,0,0,0-.481.794,15.608,15.608,0,0,0,1.39,1.787,9.323,9.323,0,0,1,1.7,2.32,19.02,19.02,0,0,0,2.717,3.9,6.874,6.874,0,0,1,1.735,3.8,16.791,16.791,0,0,1,.272,3.026.783.783,0,0,0,.272.653,1.439,1.439,0,0,0,.428-.11c1.688-1.139,3.365-2.289,5-3.512.5-.371,1.066-.653,1.594-.982q1.952-1.2,3.9-2.4c.141-.089.345-.152.408-.282.434-.9,1.353-1.171,2.085-1.688,1.709-1.2,3.454-2.346,5.1-3.637a16.694,16.694,0,0,1,1.892-1.124c1.071-.643,1.991-1.489,3.041-2.132,1.406-.857,2.655-1.939,4.123-2.7,1.2-.627,2.289-1.489,3.512-2.059,1.7-.779,3.135-2.064,4.975-2.566,1.745-1.124,3.789-1.463,5.712-2.111a13.069,13.069,0,0,1,1.468-.3,5.5,5.5,0,0,1,4.05-2.216,11.561,11.561,0,0,1,1.7-.089c1.019,0,2.033-.089,3.047-.188,1.526-.146,3.062-.084,4.593-.11a34.391,34.391,0,0,0,4.928-.115c1.51-.235,3.031-.35,4.541-.507q3.034-.306,6.057-.669c1.291-.162,2.592-.235,3.883-.376a34.651,34.651,0,0,0,5.027-.711c1.944.052,3.757-.857,5.706-.763a2.78,2.78,0,0,0,.82-.188,23.391,23.391,0,0,1,4.165-.768,33.973,33.973,0,0,0,4.337-.779,28.574,28.574,0,0,1,3.329-.643,25.44,25.44,0,0,0,3.141-.711,4.04,4.04,0,0,1,.982-.246,8.941,8.941,0,0,0,2.832-.5c.935-.277,1.9-.225,2.848-.428a30.394,30.394,0,0,1,5.362-.8,1.625,1.625,0,0,0,.507-.057,25.781,25.781,0,0,1,5.492-.988c.773-.1,1.547-.293,2.336-.4,1.85-.251,3.668-.664,5.5-1,2.393-.434,4.719-1.176,7.117-1.526,1.808-.261,3.486-.982,5.283-1.238,1.124-.157,2.179-.622,3.276-.857,1.165-.246,2.325-.486,3.475-.794.653-.178,1.3-.408,1.954-.591a8.157,8.157,0,0,1,2.163-.434,4.452,4.452,0,0,0,1-.178c1.479-.371,2.947-.8,4.442-1.124,1.771-.387,3.5-.925,5.236-1.411.381-.11.768-.193,1.155-.282.11-.026.23,0,.34-.037,1.134-.334,2.284-.648,3.4-1.024.428-.146.873-.24,1.286-.4,1.96-.758,4.086-.92,6-1.808.507-.23,1.1-.277,1.625-.481,1.9-.726,3.794-1.489,5.691-2.231a6.175,6.175,0,0,1,1.594-.57,1.453,1.453,0,0,0,.638-.219c1.285-.873,2.822-1.155,4.2-1.824,1.322-.643,2.7-1.176,4.039-1.782.826-.376,1.625-.8,2.435-1.2,2.294-1.1,4.682-2.033,6.919-3.261.894-.491,1.761-1.035,2.639-1.557.2-.115.376-.261.575-.355a29.486,29.486,0,0,0,4.306-2.707,8.4,8.4,0,0,0,1.563-1.306c.873-.972,1.782-1.9,2.587-2.937,2.022-2.592,4.144-5.105,6.2-7.671.779-.977,1.51-1.991,2.226-3.01.878-1.249,1.719-2.529,2.6-3.789a12.852,12.852,0,0,1,1.05-1.338,20.155,20.155,0,0,0,2.519-3.219c.455-.408.758-.042,1.076-.063a5,5,0,0,0,.841-.183,3.08,3.08,0,0,1,.073,2.179,34.354,34.354,0,0,1-1.839,5.456c-1.087,2.5-2.284,4.949-3.553,7.358a57.75,57.75,0,0,1-6.083,9.411c-2.242,2.775-4.5,5.55-6.5,8.513a9.664,9.664,0,0,1-1.965,2.629c0,.528.246.6.559.523a1.348,1.348,0,0,0,.46-.2c1.364-.92,2.838-1.651,4.165-2.644,1.27-.951,2.66-1.73,3.951-2.644,2.033-1.442,4.024-2.942,6.036-4.41.413-.3.831-.6,1.27-.867a59.507,59.507,0,0,0,5.053-3.715,3.856,3.856,0,0,1,.381-.34,29.549,29.549,0,0,0,5.268-4.264,36.811,36.811,0,0,0,2.968-3.282c1.4-1.641,2.743-3.318,4.008-5.058.7-.967,1.343-1.96,2.022-2.942a5.407,5.407,0,0,1,.523-.664.827.827,0,0,1,1.4.225,2.78,2.78,0,0,1,.172.643c.172.021.324.037.543.068a2.751,2.751,0,0,1-.366,2.09,1.165,1.165,0,0,0-.225.622,11.744,11.744,0,0,1-1.191,3.7c-.664,1.442-1.374,2.874-2.137,4.264-.517.935-1.165,1.8-1.751,2.7-.46.11-.141.6-.413.831a2.951,2.951,0,0,0-.632.8,48.05,48.05,0,0,1-3.621,5.132,69.122,69.122,0,0,1-6.976,8.115c-1.317,1.322-2.743,2.534-4.018,3.909-.653.705-1.568,1.134-2.116,1.96-.517.773-1.406,1.144-1.986,1.834-.481.57-1.239.81-1.646,1.453.089.214.24.172.381.094a45.873,45.873,0,0,1,5.32-2.958c2.038-.862,4.008-1.86,6.01-2.8a4.1,4.1,0,0,1,.768-.361,11.642,11.642,0,0,0,3.841-2.085c.481-.35.894-.878,1.6-.92a1.3,1.3,0,0,0,.7-.449A10.988,10.988,0,0,1,418,104.387a6.312,6.312,0,0,0,.711-.455c1.035-.773,2.069-1.552,3.094-2.346a1.883,1.883,0,0,1,.758-.361c.157-.037.382-.1.444-.219.549-1.009,1.62-1.385,2.456-2.022a43.487,43.487,0,0,0,4.917-4.693,27.98,27.98,0,0,1,2.644-2.472,1.872,1.872,0,0,1,1.134-1.772,3.342,3.342,0,0,0,1.756-1.677,1.973,1.973,0,0,1,.449-.695c.716-.491.617-1.432,1.165-1.991a.539.539,0,0,1,.193-.737,2.345,2.345,0,0,0,.685-1.124,1.329,1.329,0,0,1,1.871-.914,5.553,5.553,0,0,1,2.832,1.766,3.307,3.307,0,0,1,.888,1.8,9.463,9.463,0,0,1,.052,3c-.131.47-.172.977-.272,1.458a15.862,15.862,0,0,1-.611,2.561,13.779,13.779,0,0,0-.664,2.6,15.411,15.411,0,0,1-1.28,3.491,2.923,2.923,0,0,1-.747,1.056,9.368,9.368,0,0,1-1.881,4.557,5.8,5.8,0,0,0-.653.977c-.057.152-.23.272-.057.528.078.037.251.193.355.157,1.777-.6,3.611-.925,5.414-1.432.705-.2,1.421-.355,2.111-.606q2.234-.807,4.426-1.709c.23-.094.371-.408.643-.716a2.771,2.771,0,0,1,1.62-.329c.465.1.946-.282,1.291-.685a1.18,1.18,0,0,1,1.04-.47,1,1,0,0,0,.758-.329,1.257,1.257,0,0,1,.418-.282c.465-.141.951-.12,1.333-.6.246-.3.794-.381,1.223-.533a10.174,10.174,0,0,0,2.111-1.406,32.687,32.687,0,0,0,4.531-3.533c1.176-1.134,2.534-2.08,3.715-3.235a1.425,1.425,0,0,1,1.254-.319,2.15,2.15,0,0,1,1.118,1.3c-.026,2.143-1.087,3.8-2.069,5.44a33.488,33.488,0,0,1-3.423,4.651,40.793,40.793,0,0,0-2.953,3.7c-1,1.484-2.205,2.832-3.067,4.421-.2.371-.7.57-.763,1.16.2.287.449.653.706,1.019a11.486,11.486,0,0,0,2.263.334c.46.037.58-.178.773-.429.131.136.246.256.371.392.23-.136.46-.277.753-.449.653.329,1.489.11,2.163.7.345.3.93.084,1.411-.031a2.365,2.365,0,0,1,.914.737,1.292,1.292,0,0,1,.235,1.568,6.545,6.545,0,0,1-1.165,1.866c-.935.988-1.907,1.944-2.77,3a11.445,11.445,0,0,1-2.122,1.949c-.9.674-1.657,1.542-2.6,2.179-.564.387-1.092.82-1.667,1.186-1.484.935-2.979,1.85-4.468,2.77a14.978,14.978,0,0,1-1.8.93,26.109,26.109,0,0,0-5.105,2.676,4.25,4.25,0,0,0-2.132,1.4c-.293.057-.632.1-.956.193-.486.141-.967.319-1.448.476-.575-.387-1.066.167-1.615.141-.512-.021-1.024.031-1.536.037a5.782,5.782,0,0,0-1.991.3c-.444.162-.941.481-1.458.141a2.85,2.85,0,0,1-1.338.157,28.679,28.679,0,0,0-5.382.6,10.167,10.167,0,0,1-1.693.115,25.2,25.2,0,0,0-4.207.392.405.405,0,0,0-.361.3c.125.449.58.523.915.643a28.453,28.453,0,0,1,3.987,1.85,7.993,7.993,0,0,0,1.73.679,41.138,41.138,0,0,1,4.165,1.416c1.306.528,2.7.826,4.06,1.223a11.227,11.227,0,0,0,1.144.308,1.79,1.79,0,0,1,1.2.878,5.035,5.035,0,0,1-.894,2.461,1.32,1.32,0,0,0,.3,1.144,2.063,2.063,0,0,1-.209,2.665,22.868,22.868,0,0,1-2.054,2.033,10.7,10.7,0,0,0-.909.753c-.768.941-1.907,1.416-2.749,2.263-1.792.967-3.444,2.169-5.3,3.015a11.786,11.786,0,0,1-1.077.5,12.209,12.209,0,0,1-3.81.716,26.115,26.115,0,0,0-5.534.747c-2.153.476-4.3.988-6.438,1.479a3.686,3.686,0,0,1-.674.1,79.973,79.973,0,0,1-8.147.371c-.789-.047-1.589.005-2.388.005a2.615,2.615,0,0,0-1.583.543.792.792,0,0,0-.334.909,3.475,3.475,0,0,0,1.463.758c.376.674,1.082.491,1.735.627a4.213,4.213,0,0,0,1.8,1.087,4.311,4.311,0,0,1,1.369.664c.324.2.575.559,1.03.287.073-.042.225.016.324.068a11.743,11.743,0,0,0,3.585.878,37.984,37.984,0,0,1,6.344,1.238,8.311,8.311,0,0,1,.037,2.163,2.293,2.293,0,0,1-.4,1.1c-.46.622-.685,1.463-1.515,1.771a.545.545,0,0,0-.246.23c-.554.852-1.16,1.677-1.641,2.571a15.161,15.161,0,0,1-2.216,3.193c-.653.711-1.249,1.468-1.892,2.19a23.223,23.223,0,0,1-4.144,3.491,13.841,13.841,0,0,0-1.223.92,9.284,9.284,0,0,1-1.411,1.207,13.365,13.365,0,0,1-3.491,1.609c-1.751.4-3.449,1.009-5.226,1.312-.57.1-1.259-.157-1.724.413-.784-.34-1.531.12-2.31.115-2.043-.021-4.092.058-6.135-.042a8.108,8.108,0,0,1-3.757-.9,2.154,2.154,0,0,0-.946-.361c-1.887-.037-3.6-.93-5.466-1.092a15.064,15.064,0,0,1-2.942-.737c-1.9-.564-3.778-1.2-5.675-1.74-2.325-.669-4.672-1.291-7-1.928-.068-.047.021-.329-.209-.141.089.031.172.068.256.1a.645.645,0,0,0,.366.538,58.766,58.766,0,0,0,6.2,3.867c.308.141.585.34.883.5,2.221,1.244,4.342,2.681,6.684,3.71.052.021.1.063.146.084a3.8,3.8,0,0,1,2.362,3.585,2.291,2.291,0,0,1-.533,1.751c-.737.867-1.249,1.886-1.913,2.8a12.273,12.273,0,0,1-2.352,2.446,18.864,18.864,0,0,0-1.8,1.542,16.875,16.875,0,0,1-3.768,2.587,4.1,4.1,0,0,1-1.453.449,8.346,8.346,0,0,1-2.163.376,3.581,3.581,0,0,1-1.15-.188,4.815,4.815,0,0,1-2.869.883,11.665,11.665,0,0,0-3.214.24,2.827,2.827,0,0,1-1.353-.021,25.273,25.273,0,0,0-5.053-.59,26.8,26.8,0,0,1-3.872-.449,7.043,7.043,0,0,0-1.677-.2,12.512,12.512,0,0,1-2.686-.376,29.758,29.758,0,0,1-5.116-.956c-.267.178-.314.4-.136.591a6.12,6.12,0,0,0,1.118,1.029,10.084,10.084,0,0,1,1.171.977,1.6,1.6,0,0,1,.732,1.427,7.265,7.265,0,0,1,2.216,1.327c.5.611.894,1.306,1.38,2.033v1.16c-.256.439-.543.925-.847,1.432a1.343,1.343,0,0,1-.115,1.583,3.076,3.076,0,0,0-.768,1.839c-1.077,2.048-1.86,4.275-3.663,5.879a2.312,2.312,0,0,0-.575.622c-.5.962-1.479,1.39-2.242,2.048a3.449,3.449,0,0,1-1.249.5c-.319.1-.711.037-.982.2-.444.261-.747-.11-1.123-.131-.491.089-.611.653-1.035.873a7.3,7.3,0,0,1-1,.12,7.493,7.493,0,0,0-2.331.34,12.2,12.2,0,0,1-3.846.319,2.8,2.8,0,0,1-1.39-.6,13.793,13.793,0,0,1-2.456-2.09,8.357,8.357,0,0,0-3.674-2.362,4.464,4.464,0,0,1-1.259-.841.7.7,0,0,0-.977-.026,9.57,9.57,0,0,1,1.97,2.733,5.5,5.5,0,0,0,1.672,1.657c-.063.256-.11.47-.162.69.157.136.324.287.543.475a6.609,6.609,0,0,0-.4,2.242,6.276,6.276,0,0,1-.611.679,12.277,12.277,0,0,0-2.958,3.674,2.325,2.325,0,0,1-.888.993,22.1,22.1,0,0,0-2.885,2.346,7.682,7.682,0,0,1-5.774,2,4.651,4.651,0,0,1-.841-.235,1.746,1.746,0,0,0-.418.235.937.937,0,0,1-1.369.089c-.172-.136-.366-.24-.554-.366-.653.308-1.27.6-1.876.878a12.132,12.132,0,0,0-1.756.047c-.564.068-1.076.5-1.641.34s-1.129.11-1.651.01a6.4,6.4,0,0,1-2.555-.794,4.065,4.065,0,0,0-1.479-.794.951.951,0,0,0-.6.549c-.784,1.317-1.589,2.623-2.331,3.961-.575,1.045-1.1,2.116-1.6,3.193a18.763,18.763,0,0,1-4.625,6.041,4.458,4.458,0,0,1-1.745,1.04,19.294,19.294,0,0,1-3.271.9,22.18,22.18,0,0,0-3.486.674,9.612,9.612,0,0,1-2.7.246,12.9,12.9,0,0,0-3.083.225c-.131-.183-.256-.361-.376-.543a1.471,1.471,0,0,0-.768-.627,14.677,14.677,0,0,1-4.269-2.4,29.569,29.569,0,0,0-2.984-1.949c-.078-.047-.209-.01-.308-.01-.052.11-.162.225-.136.293a5.492,5.492,0,0,1,.246,1.672c.016.726.152,1.447.11,2.174a13.2,13.2,0,0,1-2.179,6.511c-.857,1.338-1.756,2.639-2.555,4.008a7.533,7.533,0,0,1-1.16,1.458c-.815.852-1.594,1.74-2.352,2.644a6.914,6.914,0,0,1-2.21,1.845c-.559.277-1.077.632-1.62.941a1.077,1.077,0,0,1-1.2-.089,3.736,3.736,0,0,1-2.294,1.223l-.465-.214a.9.9,0,0,0-.324.052,8.168,8.168,0,0,1-4.123,1.275c-.8.052-1.468.617-2.174.345a1.079,1.079,0,0,0-.23,1.124,4.357,4.357,0,0,1,.235,1.672,4.532,4.532,0,0,0,.188,1.343,3.747,3.747,0,0,1,.131,1,19.584,19.584,0,0,0,2.425,8.753A20.159,20.159,0,0,0,235.871,294a5.365,5.365,0,0,1,1.082,1.918c-.852.329-1.353-.549-2.075-.533-.058.094-.162.183-.167.282a1.045,1.045,0,0,0,.073.491,59.908,59.908,0,0,0,3.193,6.37,16.231,16.231,0,0,1,1.479,2.806c-.052.784-.648.92-1.249,1.165-.685-.993-1.63-1.829-1.939-3.135-.334-.24-.7-.5-1.066-.763-.052.11-.141.219-.12.308.261,1.609.878,3.146,1,4.792a2.332,2.332,0,0,0,1.228,1.939c.585.319,1.1.852,1.85.784a20.057,20.057,0,0,0,2.937,1.28,2.252,2.252,0,0,0,.962.319,6.092,6.092,0,0,1,2.608.674,16.515,16.515,0,0,0,2.942.705,46.621,46.621,0,0,0,5.189.732,5.228,5.228,0,0,1,3.041.967,20.758,20.758,0,0,1,5.691.69c1.155.246,2.31.533,3.486.664a13.994,13.994,0,0,1,1.986.439,16,16,0,0,0,1.991.334,9.446,9.446,0,0,1,2.958.653,3.567,3.567,0,0,0,1.306.329,9.341,9.341,0,0,1,2.79.638,4.55,4.55,0,0,0,2.158.355,3.978,3.978,0,0,1,1.834.293c.941.376,1.954.523,2.9.925a24.871,24.871,0,0,1,2.43.685c.068.037.214-.058.319-.094a1.585,1.585,0,0,1,1.312.157,4.489,4.489,0,0,0,2.122.47,20.722,20.722,0,0,1,2.519.361.679.679,0,0,1,.314.12c.9.716,2.022.643,3.062.8a15.414,15.414,0,0,1,2,.371,26.946,26.946,0,0,0,5.309,1.029,14.754,14.754,0,0,1,2.472.575,12.6,12.6,0,0,0,4.134.826c1.573.491,3.276.267,4.818.915a.355.355,0,0,0,.167.031c1.557-.146,2.989.507,4.484.747,1.448.23,2.869.627,4.3.941a1.694,1.694,0,0,0,.643.1,15.891,15.891,0,0,1,3.982.706,12.225,12.225,0,0,0,3.825.679.8.8,0,0,1,.857.423c.6.084,1.2.172,1.8.24a14.15,14.15,0,0,1,2.184.261,17.493,17.493,0,0,1,3.088,1.306,15.817,15.817,0,0,1,1.563,1c.23.34.058.648-.073.982l1.087.679c-.136.235-.449.24-.46.533.183.449.476-.11.815.162.031.058.225.246.225.434a17.985,17.985,0,0,1-.136,1.839c-.517.82-1.458.711-1.923,1.238a4.042,4.042,0,0,1-1.719,1.024,3.875,3.875,0,0,0-1.322.59,2.455,2.455,0,0,1-1.589.476c-.512-.016-1.019-.005-1.547-.005a2.559,2.559,0,0,1-1.85.763.359.359,0,0,0-.167.01c-1.453.784-3.146.815-4.646,1.442-.047.016-.073.078-.11.11a.3.3,0,0,0,.225.392,12.483,12.483,0,0,1,3.219,1.531,8.8,8.8,0,0,0,2.284,1.087c.622.172,1.087.622,1.646.826a30.646,30.646,0,0,1,2.869,1.442,12.51,12.51,0,0,1,1.886,1.129,5.05,5.05,0,0,1,1.2,1.207c1.087,1.589,2.122,3.219,3.2,4.865a9.6,9.6,0,0,0-.371,2.184,20.578,20.578,0,0,1-1.756,4.6c-.429.8-.81,1.63-1.238,2.43a5.732,5.732,0,0,1-.82,1.286c-.951.977-1.934,1.934-2.963,2.817a6.711,6.711,0,0,1-3.324,1.191,17.171,17.171,0,0,0-2.67.465,4.268,4.268,0,0,1-3.13-.3,7.633,7.633,0,0,1-2.294-1.066,3.4,3.4,0,0,0-1.1-.418c-.162-.052-.335-.052-.5-.11a10.329,10.329,0,0,0-2.477-1.019,12.873,12.873,0,0,1-2.524-.935c-.794-.266-1.625-.46-2.446-.653a.91.91,0,0,0-.852.146,24.354,24.354,0,0,0,2.89,3.7,10.471,10.471,0,0,0,1.683,1.411,5.767,5.767,0,0,1,1.918,1.876,22.224,22.224,0,0,0,1.918,2.587c.622.716,1.16,1.51,1.834,2.205a5.438,5.438,0,0,1,.8,1.489A11.879,11.879,0,0,0,328.8,382.2a6.832,6.832,0,0,1,1.348,3.088,5.885,5.885,0,0,1-.716,3.757,20.4,20.4,0,0,1-2.022,3,8.858,8.858,0,0,0-2.075,1.359,12.751,12.751,0,0,1-3.1,2.184c-.784.172-1.866.026-2.932.261a5.821,5.821,0,0,1-2.352-.125,16.515,16.515,0,0,0-3.057-.131,10.725,10.725,0,0,1-2.205,0,4,4,0,0,0-2.148-.047,1.173,1.173,0,0,1-.669-.042,8.046,8.046,0,0,0-3.543-.131,2.5,2.5,0,0,1-1.892-.428,2.649,2.649,0,0,0-1.411-.538c-1.129-.084-2.226-.34-3.344-.46a.94.94,0,0,0-.324.089.811.811,0,0,0-.209.935c.476,1.165.444,2.446.878,3.621a2.634,2.634,0,0,1,.078.841,4.835,4.835,0,0,0,.23,1.845,3.055,3.055,0,0,1,.115,1.009,9.71,9.71,0,0,0,.219,1.677,12.6,12.6,0,0,1,.021,4.405,10.833,10.833,0,0,1-1.332,4.186,1.21,1.21,0,0,0-.162.3,4.577,4.577,0,0,1-2.148,2.937,12.42,12.42,0,0,1-2.242,2.043,6.732,6.732,0,0,1-3.4,1.808,4.8,4.8,0,0,1-2.341-.005c-.8-.24-1.641-.376-2.461-.564a3.033,3.033,0,0,1-.486-.131,32.953,32.953,0,0,1-6.72-3.527,11.538,11.538,0,0,0-2.817-1.432,29.894,29.894,0,0,1-4.8-2.493,1.588,1.588,0,0,1-.737-.674.936.936,0,0,0-.664-.486,3.588,3.588,0,0,1-1.761-1.212,3.525,3.525,0,0,0-2.174-1.181c-.084-.01-.188.1-.308.162a7.245,7.245,0,0,0,.272,1.787,4.526,4.526,0,0,1-.355,3.616,20.007,20.007,0,0,1-1.672,2.942,2.581,2.581,0,0,1-.982.93c-.962.465-1.839,1.082-2.832,1.495a10.118,10.118,0,0,0-1.186.653,6.221,6.221,0,0,1-3.376.982,11.808,11.808,0,0,1-3.71-.329,5.491,5.491,0,0,1-.648-.2,5.246,5.246,0,0,0-1.96-.46,10.965,10.965,0,0,1-2.467-.57c-1.442-.486-2.874-1.035-4.29-1.6a12.665,12.665,0,0,1-1.97-1,6.35,6.35,0,0,0-1.949-1.009,1.038,1.038,0,0,1-.429-.267c-1.254-1.233-2.905-1.98-4.071-3.334a7.7,7.7,0,0,0-1.442-1.061c-.392-.021-.575.209-.81.361a17.2,17.2,0,0,1-5.482,2.221A4.927,4.927,0,0,1,222,412.7a9.361,9.361,0,0,1-2.446-1.766,7.4,7.4,0,0,0-1.573-1.265,4.237,4.237,0,0,1-1.15-1,8.658,8.658,0,0,0-1.667-1.662,16.521,16.521,0,0,0-1.8-1.552,1.889,1.889,0,0,1-.549-.627,9.133,9.133,0,0,0-2.1-2.142c-.12.2-.209.334-.293.476a4.815,4.815,0,0,1-4.557,2.686c-.794-.016-1.589,0-2.31,0-.355-.24-.627-.434-.914-.627-.225.089-.434.172-.643.251a8.429,8.429,0,0,1-3.836-1.677,11.5,11.5,0,0,1-.93-.737c-1.636-1.484-3.177-3.073-4.667-4.708a12.408,12.408,0,0,1-1.866-2.618,12.964,12.964,0,0,0-1.991-2.952,4.011,4.011,0,0,1-.81-1.479,26.49,26.49,0,0,0-1.735-4.243q-1.191-2.163-2.5-4.254c-.5-.8-.585-.8-1.636-1.254a4.451,4.451,0,0,0-1.772,1.4,4.314,4.314,0,0,1-2.681,1.7,32.837,32.837,0,0,0-4.959,1.751c-2.587,1.014-5.137,2.111-7.729,3.13-2.372.93-4.781,1.771-7.159,2.7-2.064.8-4.107,1.636-6.109,2.587-1.223.58-2.529,1-3.8,1.495a10.058,10.058,0,0,0-4.343,3.172,5.892,5.892,0,0,1-1.489,1.39,4.2,4.2,0,0,0-.784.648,1.2,1.2,0,0,0-.261,1.557,3.586,3.586,0,0,1,.381,2.785,2.989,2.989,0,0,0-.01,1.343,6.772,6.772,0,0,1,.146,2.2,11.91,11.91,0,0,0,.449,4.379,7.767,7.767,0,0,1,.152,3.71c-.115.732-.178,1.463-.24,2.19-.052.622-.141,1.233-.225,1.85a10.611,10.611,0,0,0,.225,4.363c-.24,1.16-1.16,1.735-2.012,2.409a10.41,10.41,0,0,1-2.717,1.646,2.957,2.957,0,0,0-.69,1.562,22.178,22.178,0,0,0-.3,4.87c.329.632.721,1.369,1.129,2.153-.267.12-.517.235-.784.366-.5-.152-.982-.3-1.479-.444-.627-.669-1.249-1.327-1.892-2.007-.037-.517-.089-1.024-.1-1.531a10.436,10.436,0,0,0-.3-3.031,2.318,2.318,0,0,1,.256-1.975,6.275,6.275,0,0,0,.392-.873c-.34-.763-1.212-.732-1.573-1.416a8.859,8.859,0,0,1-2.618,1.578,11.38,11.38,0,0,0-.632,9.469.8.8,0,0,1-1.2.172,7.326,7.326,0,0,1-1.771-1.818,1.621,1.621,0,0,1-.324-.773c-.057-1.74-.705-3.459-.125-5.226a10.616,10.616,0,0,0,.345-2,5.744,5.744,0,0,0-.564-3.715,8.006,8.006,0,0,1,1.071-2.853,8.114,8.114,0,0,0,2.237-2.174c.24-.752-.287-1.306-.366-2.012-1.134.444-2.289.152-3.3.345a3.073,3.073,0,0,0-.784,1.792,2.861,2.861,0,0,1-.951,1.85,11.76,11.76,0,0,0,.287,3.778l.047-.047c-.188-.115-.444-.188-.559-.35-.831-1.223-1.667-2.461-1.526-4.05a2.8,2.8,0,0,0-.773-2.352c-.465-.455-.449-1.171-1-1.651-.962-.324-2.08.084-3.109-.3a1.1,1.1,0,0,0-.591.789,13.272,13.272,0,0,0-.716,2.435,1.248,1.248,0,0,1-.361.747,6.724,6.724,0,0,0-.773,1.683c-.314.658.261,1.343-.125,1.981a3.383,3.383,0,0,0,.711,1.338,3.5,3.5,0,0,1,.867,1.254,3.272,3.272,0,0,0,1.165,1.432,15.457,15.457,0,0,0,2.806,1.913,2.842,2.842,0,0,1,1.484,1.113,1.645,1.645,0,0,1-1.73.3,18.99,18.99,0,0,0-1.97-.476,2.739,2.739,0,0,1-.648-.2c-2.169-1.181-4.154-2.566-5.241-4.912a5.8,5.8,0,0,1-.585-1.589A17.719,17.719,0,0,0,110,423.34c-.366-.282-.815-.617-1.275-.967-.35-.371-.251-.993-.7-1.348-1.542-.606-1.521-.606-1.432-2.31a15.041,15.041,0,0,0-.078-2c-.042-.564-.125-1.118-.2-1.7a9.051,9.051,0,0,1-1.453-6.767c.068-.559.1-1.129.152-1.688a15.066,15.066,0,0,1,.267-2.362,9.658,9.658,0,0,0,.1-2.205c.021-1.646.016-1.646,1.129-2.937.078-.617.125-1.28.251-1.928a2.1,2.1,0,0,1,1.181-1.547c1.761-.909,3.486-1.892,5.226-2.843,1.144-.622,2.257-1.306,3.433-1.85,2.508-1.171,4.928-2.519,7.426-3.715,1.374-.658,2.817-1.181,4.191-1.829.967-.46,1.881-1.035,2.817-1.557a2.569,2.569,0,0,1,.742-.381c1.207-.172,2.148-1,3.3-1.306a2.485,2.485,0,0,1,1.531-.658,9.275,9.275,0,0,0,5.32-3.987c.1-.136.2-.272.308-.408a2.827,2.827,0,0,0,.611-2.555,13.344,13.344,0,0,1-.293-3.553,5.087,5.087,0,0,0-.867-2.884q-1.184-1.866-2.294-3.778a7.174,7.174,0,0,1-.449-1.239c-.308-.115-.434.037-.481.282a1.55,1.55,0,0,0,.157.988,2.2,2.2,0,0,1,.12,1.171c-.183-.057-.345-.063-.361-.115-.178-.648-.721-1.087-.962-1.693-.251-.632-.5-1.265-.726-1.9s-.455-1.28-.632-1.933c-.6-2.184-1.139-4.379-1.756-6.558a10.551,10.551,0,0,0-1.672-3.135c-.554-.789-1.139-1.557-1.709-2.336-1.62-2.195-2.885-4.619-4.337-6.919-1.118-1.766-2.257-3.527-3.36-5.315-.59-.956-1.165-1.923-1.808-2.848a3.764,3.764,0,0,1-.773-1.86,5.111,5.111,0,0,0-.35-1.129,6.992,6.992,0,0,0-.267-.81c-.538-1.1-.146-2.362-.648-3.491a8.174,8.174,0,0,1-.387-3.36c.01-2.446-.005-4.891-.01-7.332a6.273,6.273,0,0,0-1.876-4.761,6.784,6.784,0,0,1-1.625-2.116.877.877,0,0,0-.439-.5c-.517-.193-.789-.632-1.165-.972-1.176-1.066-2.362-2.116-3.512-3.2a18.754,18.754,0,0,1-1.38-1.495,9.2,9.2,0,0,0-2.174-2.116c-.413-.246-.638-.779-.972-1.16a39.472,39.472,0,0,1-2.7-3.057c-.7-.961-1.468-1.866-2.205-2.8-.982-1.249-1.954-2.5-2.937-3.742-.528-.664-1.071-1.317-1.61-1.97a5.435,5.435,0,0,1-.82-1.886c-.24-.225-.632-.554-1-.914a9.513,9.513,0,0,1-2.31-2.916,5.589,5.589,0,0,0-.5-.685C89.338,276.7,86.841,273,84.332,269.3c-.888-1.306-1.9-2.54-2.811-3.836-1.071-1.536-2.09-3.1-3.125-4.661-1.191-1.792-2.252-3.668-3.506-5.424a46.711,46.711,0,0,1-2.545-4.228c-.982-1.724-1.96-3.454-2.864-5.22-.622-1.207-1.118-2.477-1.677-3.715-.47-1.029-.962-2.048-1.406-2.994a5.619,5.619,0,0,0-2.257-.512,4.422,4.422,0,0,1-1.009-.136c-1.761-.413-3.522-.826-5.278-1.265-1.427-.361-2.838-.763-4.264-1.134-.763-.2-1.531-.4-2.31-.533a23.006,23.006,0,0,1-6.689-2.419,3.868,3.868,0,0,0-3.073-.413,17.538,17.538,0,0,1-3.172.5,19.572,19.572,0,0,0-5.957,1.233,14.766,14.766,0,0,1-2.759.826,9.255,9.255,0,0,0-2.581.831,7.145,7.145,0,0,1-1.28.449q-2.179.713-4.358,1.416c-1.019.324-2.038.664-3.067.972-.873.256-1.719.57-2.561.909a30.154,30.154,0,0,1-3.031,1.066,24.31,24.31,0,0,0-3.182,1.15A5.6,5.6,0,0,0,7.452,243.8a10.6,10.6,0,0,1-.752.915.613.613,0,0,1-.784.042.8.8,0,0,1-.2-.622,2.827,2.827,0,0,0-.042-1.014,3.851,3.851,0,0,1,.225-3.109,50.53,50.53,0,0,1,3.156-6.4c1.228-2.169,2.555-4.28,3.841-6.417.115-.193.23-.392.361-.575,1.819-2.529,3.475-5.173,5.4-7.624a35.147,35.147,0,0,1,2.759-3.015c1.4-1.416,2.822-2.806,4.217-4.228.319-.324.559-.721.883-1.029a2.314,2.314,0,0,0,.632-2.5,8.338,8.338,0,0,1-.037-3.522,20.42,20.42,0,0,1,1.129-4.254,3.48,3.48,0,0,1,.439-.909c.753-1.066,1.521-2.116,2.231-3.2.993-1.521,1.933-3.067,2.911-4.588,1.045-1.625,2.1-3.24,3.167-4.844a7.517,7.517,0,0,1,.82-.867c.4-.4.831-.784,1.191-1.218a26.473,26.473,0,0,1,6.48-5.45c1.583-.993,3.146-2.033,4.719-3.041a5.446,5.446,0,0,1,1.04-.57,1.459,1.459,0,0,1,1.5.1c-.1.742-.962.946-1.171,1.6.12.157.277.136.439.094,2.122-.611,4.275-1.087,6.375-1.777a37.492,37.492,0,0,1,3.81-.847,1.018,1.018,0,0,0,.784-.611c-.428-1.2-.867-2.425-1.3-3.648a3.479,3.479,0,0,1-.334-1.484,2.837,2.837,0,0,0-.381-1.636c-.554-1.009-.57-2.184-1.134-3.177a2.089,2.089,0,0,1-.214-1.16,8.229,8.229,0,0,0-.361-2.341,28.264,28.264,0,0,1-.737-5.017,14.078,14.078,0,0,0-.758-4.489,10.085,10.085,0,0,1-.361-1.651c-.167-.768-.345-1.536-.523-2.3a10.267,10.267,0,0,1-.366-2.848,3.408,3.408,0,0,0-.261-.972,23.812,23.812,0,0,1-.737-3.308,4.547,4.547,0,0,0-.857-2.357,3.318,3.318,0,0,1-.81-2.195.918.918,0,0,0-.078-.5c-.93-1.495-1.118-3.318-2.247-4.74a9.809,9.809,0,0,1-1.359-2.54,3.751,3.751,0,0,0-1.04-1.521,4.773,4.773,0,0,1-1.411-1.892,2.65,2.65,0,0,0-.449-.705c-.617-.742-1.259-1.458-1.876-2.2a25.839,25.839,0,0,1-2.1-3.3,4.237,4.237,0,0,0-.413-.742c-1.338-1.4-1.766-3.282-2.649-4.923-.345-.638-.387-1.447-.768-2.054-.685-1.087-.653-2.383-1.223-3.5a7.56,7.56,0,0,1-.444-1.975,1.7,1.7,0,0,1,.24-1.04,3.747,3.747,0,0,1-1.286-2.811,6.386,6.386,0,0,0-.2-.815c-.042-.219-.146-.5-.063-.658.4-.758.146-1.573.308-2.446a3.731,3.731,0,0,0,1.719-1.144,6.3,6.3,0,0,1,3.36.355,13.156,13.156,0,0,1,2.759,1.228c.094.068.314-.026.559-.052a10.349,10.349,0,0,0,.026-3.543c-.157-.737.057-1.442-.11-2.148a21.458,21.458,0,0,0,.136-4.41A1.888,1.888,0,0,0,45.161,87a6.075,6.075,0,0,1-.214-2.19c-.005-.679-.016-1.364-.01-2.043a2.791,2.791,0,0,1,.089-1.009,6.926,6.926,0,0,0,.277-2.012c.172-1.573.376-3.141.392-4.734a7.721,7.721,0,0,1,.434-2.325,21.457,21.457,0,0,0,.826-3.794,2.388,2.388,0,0,1,.9-1.583,2.226,2.226,0,0,1-.042-1.782c.308-.726.679-1.421.982-2.148.324-.779.591-1.578.878-2.372a2.111,2.111,0,0,1,.089-.324,15.428,15.428,0,0,0,1.562-3.543,1.161,1.161,0,0,1,.225-.455c.857-.81,1.061-1.981,1.641-2.937a7.524,7.524,0,0,1,1.437-2.289.458.458,0,0,0,.1-.141A18.108,18.108,0,0,1,56.5,48.237a15.817,15.817,0,0,0,1.9-3,18.024,18.024,0,0,1,1.86-2.806c.1-.136.225-.256.314-.4a50.122,50.122,0,0,1,4.175-6.14,7.449,7.449,0,0,1,1.552-1.51,2.38,2.38,0,0,0,.951-1.124,3.187,3.187,0,0,1,1.4-1.453,9.6,9.6,0,0,0,1.306-1.076A6.052,6.052,0,0,1,74.4,28.949c.225.005.455-.016.679-.021a3.178,3.178,0,0,1,2.764,1,1.606,1.606,0,0,0,.732.392c.742.272.758.4.81,1.092a5.064,5.064,0,0,1-.538,2.3A26.191,26.191,0,0,0,77.612,37.4a10.278,10.278,0,0,1-.57,1.416c-.669,1.62-1.15,3.308-1.928,4.891a15.805,15.805,0,0,0-.862,2.571,37.3,37.3,0,0,1-1.6,3.9,3.6,3.6,0,0,0-.324.784A21.754,21.754,0,0,1,70.4,56.2a15.282,15.282,0,0,0-1.38,3.627,4.691,4.691,0,0,1-.434,1.28,4.2,4.2,0,0,0-.486,1.96,2.554,2.554,0,0,1-.11.841c-.282.8-.418,1.646-.7,2.435a14.526,14.526,0,0,0-.69,3.606,4.975,4.975,0,0,0,1.5-2.127c.157-.423.267-.867.434-1.291a4.038,4.038,0,0,1,.507-1.071A21.152,21.152,0,0,0,71.89,59.88a2.118,2.118,0,0,1,.267-.617,8.824,8.824,0,0,0,1.594-3.334,17.887,17.887,0,0,1,1.218-2.6c.4-.8.721-1.651,1.16-2.44.658-1.186,1.39-2.331,2.085-3.5.345-.58.7-1.165,1.024-1.761a18.976,18.976,0,0,1,1.144-1.866c.9-1.291,1.636-2.691,2.414-4.06.611-1.082,1.176-2.184,1.766-3.276a1.088,1.088,0,0,1,.162-.3,8.5,8.5,0,0,0,1.965-2.916c.486-1.009,1.291-1.86,1.85-2.838.533-.925,1.045-1.86,1.505-2.832.664-1.432,1.51-2.78,2.273-4.165a13.141,13.141,0,0,1,1.155-1.813c.4-.528.512-1.254,1.1-1.683.078-.057-.052-.408-.073-.554.157-.585.9-.559.977-1.186.063-.528.7-.685.873-1.212a8.828,8.828,0,0,1,.779-1.3c.251-.439.434-.925.946-1.15a.514.514,0,0,0,.246-.225,3.89,3.89,0,0,1,1.333-1.688,5.182,5.182,0,0,0,1.286-1.542c.052-.073.2-.078.308-.11.476.068.319.737.82.8.366-.188,0-.434-.005-.726.444-.157.9-.324,1.385-.491.632.209,1.113.517,1.056,1.28.465.152.5.575.575.956a2.253,2.253,0,0,0,.648,1.442.686.686,0,0,1,.235.6c-.3.789.193,1.547.031,2.315s-.057,1.536-.272,2.3c-.193.7.089,1.474-.261,2.179.314.58-.042,1.129-.188,1.641-.376,1.374-.308,2.8-.564,4.175a.98.98,0,0,0,0,.507,4.045,4.045,0,0,1-.188,2.649,4.441,4.441,0,0,0-.23,1.155,11.145,11.145,0,0,1-.58,3.5,2.87,2.87,0,0,0-.125.836,3.45,3.45,0,0,1-.455,1.62,3.156,3.156,0,0,0-.57,1.74,1.67,1.67,0,0,1-.2.638c-.517,1.374-1.035,2.749-1.568,4.123-.24.638-.523,1.254-.779,1.881s-.528,1.259-.747,1.9a.971.971,0,0,0,.1,1c.193-.078.392-.162.664-.272a3.956,3.956,0,0,1,1.745-2.461,5.658,5.658,0,0,1,1.677-2.587,17.1,17.1,0,0,0,1.62-2.158c.721-1.082,1.542-2.09,2.289-3.156,1.04-1.479,1.96-3.047,3.1-4.447,1.082-1.322,1.808-2.853,2.827-4.212a46.643,46.643,0,0,0,3-4.515.99.99,0,0,1,.178-.287,7.141,7.141,0,0,0,1.609-2.357,11.947,11.947,0,0,1,1.552-2.221c.638-.705,1.024-1.615,1.625-2.378a11.758,11.758,0,0,1,1.087-1.3A17.36,17.36,0,0,0,124.7,13.7a7.675,7.675,0,0,1,1.6-1.73,1.232,1.232,0,0,0,.559-.779c.016-.1.115-.251.188-.256.784-.089,1.066-1,1.839-1.087l-.047-.042c.1.214.251.355.5.256.214-.084.162-.287-.141-.611Zm-1.6,391.611a7.688,7.688,0,0,0,2.226-2.393,4.7,4.7,0,0,1,.794-.888c1.1-1.144,2.268-2.205,3.449-3.256a9.251,9.251,0,0,1,3.386-2.163,5.493,5.493,0,0,0,.915-.449,31.431,31.431,0,0,1,3.235-1.515c1.468-.585,2.9-1.286,4.337-1.949,1.954-.9,3.9-1.824,5.853-2.733l.46-.22q4.891-2.195,9.762-4.4c.246-.11.554-.183.585-.638a31.1,31.1,0,0,1-1.777-3.757,6.991,6.991,0,0,1-.564-2.467,32.566,32.566,0,0,0-.287-5.09,5.383,5.383,0,0,1,.031-1.531q.243-2.273.533-4.546c.162-1.291.361-2.576.523-3.872.178-1.4.413-2.8.481-4.207.1-2.043.078-4.086.1-6.13a12.782,12.782,0,0,0-1.6-6.72,6.147,6.147,0,0,0-1.609-.711,1.356,1.356,0,0,0-.277,1.029,31.757,31.757,0,0,0,.533,5.4c.115.784.324,1.547.465,2.325.131.69-.209,1.066-.946,1.05a6.5,6.5,0,0,1-1-.125c-.209-.037-.418-.214-.658.141-.005.131-.026.35-.026.57a12.211,12.211,0,0,0,.026,2.55,16.157,16.157,0,0,1-.042,2.665,7.242,7.242,0,0,0,.277,2.676c-.031,1.479.219,2.932.308,4.389.172,2.937.486,5.879.439,8.826a5.119,5.119,0,0,0,.026,1.359c.2.768-.1,1.542.188,2.331.293.8-.559,1.447-.585,2.252a.924.924,0,0,1-.026.167,3.552,3.552,0,0,1-1.531,2.362,19.456,19.456,0,0,1-3.8,2.242c-1.876.8-3.757,1.583-5.628,2.393-.831.355-1.615.81-2.456,1.134-2.263.878-4.531,1.745-6.757,2.712-.935.408-1.876.789-2.817,1.2a36.32,36.32,0,0,1-5.267,1.881c-1.745.465-3.475,1.009-5.179,1.594-1.124.381-2.179.962-3.3,1.332a9.363,9.363,0,0,0-2.132,1.035c-.993.648-1.944,1.374-2.9,2.075-.078.063-.1.193-.172.329a50.691,50.691,0,0,1,2.205,5.111,8.589,8.589,0,0,1,.5,3.156,4.217,4.217,0,0,0,.016.679c.016.167.057.329.1.538.246.34.517.705.789,1.076a6.488,6.488,0,0,0,1.139.355,4.615,4.615,0,0,1,3.475,2.174c.047.073.183.094.261.131a2.252,2.252,0,0,0,1.63-2c.146-.773.34-1.536.5-2.3a38.83,38.83,0,0,1,1.625-6.4C127.549,401.643,127.58,401.419,127.658,401.084ZM52.613,210.405a5.929,5.929,0,0,0,4.212-1.96,3.6,3.6,0,0,0,.752-1.866,2.118,2.118,0,0,0-1.38-2.289,5.309,5.309,0,0,0-2.5-.355,1.66,1.66,0,0,0-1.275.732,17.452,17.452,0,0,0-1.447,2.5,3.541,3.541,0,0,0-.251,1.991,1.425,1.425,0,0,0,1.238,1.218C52.189,210.4,52.419,210.395,52.613,210.405ZM132,426.068c.1.11.136.178.183.183.1.005.246.026.3-.031a9.483,9.483,0,0,0,2.618-6.067,12.275,12.275,0,0,1,.167-1.505,15.554,15.554,0,0,0,.073-4.567c-.016-.146-.131-.319-.46-.246-.664,1.28-1.369,2.628-2.059,3.977a1.731,1.731,0,0,0-.141.486c-.219,1.155-.434,2.3-.638,3.391.287.585.758.967.841,1.557A12.59,12.59,0,0,1,132,426.068ZM59.406,206.444A21.257,21.257,0,0,1,57.8,209.36c-.7.925-1.792,1.364-2.571,2.247a3.323,3.323,0,0,0,2.169-.8A5.379,5.379,0,0,0,59.406,206.444ZM98.692,50.239a.5.5,0,0,0,.6.094.3.3,0,0,0,.167-.392.307.307,0,0,0-.4-.167A.536.536,0,0,0,98.692,50.239Zm4.8-39.307-.057.078.089.01Z" transform="translate(830.457 256.781) rotate(-7)" fill-rule="evenodd"/>
    <path id="Path_13307" data-name="Path 13307" d="M2.5-.481c2.15.142,3.409.6,3.279,2.57S3.73,5.48,2.37,5.889c-1.108.519-3.036.745-3.148-1.211A4.7,4.7,0,0,1-.28,2.09S.35-.623,2.5-.481Z" transform="translate(907 453)" fill="#21ed21"/>
  </g>
</svg>
