<svg xmlns="http://www.w3.org/2000/svg" width="9.6" height="12" viewBox="0 0 9.6 12">
  <path id="signout" d="M4,8a.6.6,0,0,0,.6.6H9.154L7.774,9.974a.6.6,0,1,0,.852.852l2.4-2.4a.62.62,0,0,0,0-.852l-2.4-2.4a.6.6,0,0,0-.852.852L9.154,7.4H4.6A.6.6,0,0,0,4,8Zm7.8-6h-6A1.8,1.8,0,0,0,4,3.8V5.6a.6.6,0,0,0,1.2,0V3.8a.6.6,0,0,1,.6-.6h6a.6.6,0,0,1,.6.6v8.4a.6.6,0,0,1-.6.6h-6a.6.6,0,0,1-.6-.6V10.4a.6.6,0,1,0-1.2,0v1.8A1.8,1.8,0,0,0,5.8,14h6a1.8,1.8,0,0,0,1.8-1.8V3.8A1.8,1.8,0,0,0,11.8,2Z" transform="translate(-4 -2)" fill="#343434"/>
</svg>
