<svg xmlns="http://www.w3.org/2000/svg" width="102.753" height="68.442" viewBox="0 0 102.753 68.442">
  <g id="map" transform="translate(-162.893 -233.918)">
    <path id="Path_3" data-name="Path 3" d="M173.662,284.379a4.021,4.021,0,0,1,.725.361l.211.132.4.266.774.536.287.188.24.146a1.536,1.536,0,0,0,.557.221l.086.006H178.8a.288.288,0,0,1,.281.222l.008.067v9.6l.156.023a1.981,1.981,0,0,1,1,.492l.134.133.129.147.32.419a.8.8,0,0,0,.156.155l.042.025,0-.012.047-.138a.7.7,0,0,1,.53-.519c.265-.058.51.078.871.477l.125.143.23.283.263.341.825,1.108.2.248.109.127.166.178a.838.838,0,0,0,.331.231l.164.048.063.025a1.132,1.132,0,0,1,.51.552c.467.826.209,1.479-.458,1.479a.665.665,0,0,1-.382-.133l-.108-.075-.17-.126-.02.062a.753.753,0,0,1-1.151.421.873.873,0,0,1-.443-.627l-.1-.367-.069-.2a.249.249,0,0,0-.092-.1l-.059-.039-.171-.091-.324-.152c-.317-.156-.473-.28-.539-.491l-.022-.1a3.812,3.812,0,0,0-.957-1.43,3.751,3.751,0,0,1-.468-.36l-.211-.19-.486-.46a2.141,2.141,0,0,0-1.025-.32l-.212-.029-.489-.056a1.889,1.889,0,0,1-1.413-.828l-.137-.17-.072-.084c-.041-.039-.066-.044-.072-.008l0,.034.02.118.051.188c.141.465.032.849-.322.951a.671.671,0,0,1-.719-.309l-.093-.158c-.094-.122-.245-.108-.392.083l-.133.2c-.449.618-1.3.7-1.447-.058-.07-.363.121-.676.588-1.147l.148-.147.473-.452-.106,0-.107.011a1.06,1.06,0,0,0-.938.665,3.965,3.965,0,0,1-.169.524l-.112.257-.259.515-.053.111.066.025a1.129,1.129,0,0,1,.595,1.306l-.029.173-.04.167a.969.969,0,0,1-1.109.65c-.491-.049-.89-.351-.744-.765l.063-.138a.046.046,0,0,0-.008-.051l-.027-.021-.044-.024c-.01-.007-.011-.013,0-.027a6.83,6.83,0,0,1-3.373,1.522,7.836,7.836,0,0,1-1.762.21c-.618-.017-1.017-.186-1-.624a.292.292,0,0,1,.139-.235l.067-.029.84-.254.921-.286.445-.149a4.957,4.957,0,0,0,2.4-1.437l.11-.144.038-.064-.466.013-.229-.011-.146-.021a.287.287,0,0,1-.218-.19l-.02-.1c-.016-.055-.075-.093-.257-.15l-.586-.169c-.092-.029-.178-.061-.264-.1a.291.291,0,0,1-.172-.2.426.426,0,0,1,.016-.332l.043-.094.116-.231a.881.881,0,0,0,.128-.406c0-.02-.081-.075-.28-.142l-.525-.154a.7.7,0,0,1-.253-.134l0,.008-.008.008-.14.056-.188.068a.775.775,0,0,1-.21.03c-.432,0-1.215-.448-1.215-.869a.566.566,0,0,1,.426-.572l.308-.125.039-.021.176-.041.361.032.147.008c.092,0,.132-.013.158-.049l.017-.029.029-.069c.1-.91.59-1.852,1.275-2a.94.94,0,0,1,.185-.023l.1,0,.2.023.47.077.2.023c.424.035.634-.069.705-.475l.017-.136-.369-.03c-.328-.03-.619-.064-.882-.1l-.255-.041-.2-.038-.179-.116a3.524,3.524,0,0,1-.6-1.85.287.287,0,0,1,.169-.244,3.84,3.84,0,0,1,1.821-.206l.283.018.2.1.068.083.153.206.241.344,0-.069a1.531,1.531,0,0,0-.281-.853l-.1-.135-.117-.127-.364-.363-.158-.169c-.045-.05-.082-.1-.114-.14l-.046-.065-.08-.133a.634.634,0,0,1,.262-.933l.159-.076.211-.11,1.009-.552L171,285l.19-.094.363-.169a2.991,2.991,0,0,1,2.109-.357Zm-1.875.884-.346.162-.182.09-.286.148-.867.477-.53.282-.126.056c-.08.036-.091.055-.067.11l.026.05.067.106.044.057.052.064.144.155.344.342.137.145a1.892,1.892,0,0,1,.4,2.012.288.288,0,0,1-.353.137l-.094-.035-.155-.07a.9.9,0,0,1-.265-.2l-.057-.071-.257-.369-.082-.108-.128-.008a5.172,5.172,0,0,0-1.17.034l-.145.031-.08.023.014.1a3.468,3.468,0,0,0,.283.856l.1.2.03.048.072.014c.234.041.494.076.789.108l.638.059.3.024a.287.287,0,0,1,.266.288c0,1.109-.5,1.51-1.351,1.449l-.154-.015-.087-.011-.54-.087a.637.637,0,0,0-.211,0c-.366.078-.747.809-.836,1.56a.724.724,0,0,1-.848.584l-.15,0-.239-.017-.061.029-.292.113-.045.022-.009.012.029.022.186.107.189.091a.717.717,0,0,0,.234.072.252.252,0,0,0,.068-.013l.24-.089a.54.54,0,0,1,.533.013l.081.062.092.033.51.149c.426.145.654.325.654.682a1.23,1.23,0,0,1-.122.525l-.141.285.609.177a1.045,1.045,0,0,1,.5.292l.055.081.029.064.091,0,.485-.014a.625.625,0,0,1,.405.1c.274.178.244.468.015.86a5.229,5.229,0,0,1-2.787,1.806l-.31.107-.327.107-.806.247.236-.01c.214-.014.453-.044.707-.086l.258-.047.266-.054a7.2,7.2,0,0,0,2.956-1.224l.162-.17a.663.663,0,0,1,.948.874l.013-.014.02,0,.134.021.082.01c.258.026.453-.066.5-.225.141-.525.064-.835-.184-.958l-.184-.072a.456.456,0,0,1-.254-.549l.03-.1.062-.14.284-.567a3.57,3.57,0,0,0,.244-.675,1.6,1.6,0,0,1,1.416-1.1,1.338,1.338,0,0,1,.737.067.431.431,0,0,1,.176.67l-.066.081-.082.086-.673.65c-.323.327-.461.538-.442.639.024.12.208.107.389-.132l.148-.222a.8.8,0,0,1,1.362-.066l.064.112.029.048.031.033.024.017-.09-.346c-.193-.892.553-1.367,1.114-.647.386.5.61.686,1.016.759l.143.021.307.034.42.054a2.767,2.767,0,0,1,1.239.393l.091.076.341.324.335.307a3.267,3.267,0,0,0,.4.308,4.1,4.1,0,0,1,1.222,1.824.074.074,0,0,0,.029.037l.036.027.12.07.121.061.288.135c.331.163.486.287.579.519l.036.1.033.1.035.122.044.165.058.2c.045.133.084.19.132.215.222.112.3.087.379-.2a.467.467,0,0,1,.56-.393.62.62,0,0,1,.162.059l.088.054.233.169.108.074.04.022c.155,0,.215-.115.022-.495l-.1-.172-.028-.046-.088-.13a.35.35,0,0,0-.065-.066l-.027-.015-.178-.054a1.373,1.373,0,0,1-.557-.37l-.109-.113-.12-.133-.168-.2-.932-1.244-.227-.292-.2-.248-.248-.285-.123-.128-.085-.078c-.021-.017-.035-.025-.042-.024-.034.008-.057.029-.088.1l-.1.246a.5.5,0,0,1-.74.292.925.925,0,0,1-.322-.23l-.1-.117-.318-.415a1.533,1.533,0,0,0-1.269-.607.288.288,0,0,1-.268-.213l-.01-.075V286.81h-1.576a1.652,1.652,0,0,1-.856-.258l-.157-.091-.365-.233-1.084-.747a4.815,4.815,0,0,0-1.011-.56,2.624,2.624,0,0,0-1.679.342Zm27.127,11.359c.446,0,1.452,1.109,1.832,1.753a1.051,1.051,0,0,1-.7,1.364l-.1-.008-.023,0-.153.048-.32.116-.019,0c-.1.261-.549.737-.822.737-.3,0-.672-.515-.733-.878l-.01-.1-.318-.421a1.933,1.933,0,0,1-.172-.275,1.015,1.015,0,0,1-.088-.239,1.225,1.225,0,0,1,.269-1.056l.206-.283a1.936,1.936,0,0,0,.143-.248l.045-.111.117-.15a1.554,1.554,0,0,1,.85-.262Zm0,.577a.915.915,0,0,0-.4.1l-.063.034-.017.048a2.134,2.134,0,0,1-.116.219l-.071.112-.21.29a.708.708,0,0,0-.186.609.476.476,0,0,0,.04.1l.033.061.1.143.289.382.08.118a.385.385,0,0,1,.048.11l.007.051,0,.092.006.029.035.084.11.218.018.048.244-.294.031-.049a1.49,1.49,0,0,1,1.2-.536c-.006,0,0-.013.006-.032l.127-.268c.034-.085.057-.163.035-.2l-.085-.132-.053-.074-.187-.245-.217-.261-.226-.253-.214-.224-.081-.079-.14-.125A.309.309,0,0,0,198.913,297.2Zm-.779-1.743.1.374a.468.468,0,0,1,.009.214.478.478,0,0,1-.292.366l-.209.079-.049.063a.714.714,0,0,1-.194.159.8.8,0,0,1-.577.115.466.466,0,0,1-.35-.59.847.847,0,0,0,.02-.289l-.015-.077-.07-.238.389-.18C197.59,295.147,198,295.09,198.134,295.455Zm-1.746.5a.657.657,0,0,0-.1.232l-.013.181a.5.5,0,0,1-.528.44l-.117,0h-.248a.557.557,0,0,1-.613-.513.486.486,0,0,1,.341-.585l.1-.023.017,0,.068-.119a1,1,0,0,1,.365-.364l.108-.046.114-.028C196.311,295.066,196.5,295.394,196.388,295.951Zm-24.342-62.022c3.569.97,6.983,1.8,10.22,2.505a.239.239,0,0,1,.11,0,.275.275,0,0,1,.119.052l1.415.3,1.39.286,1.366.273,1.343.257,1.317.244,1.292.23,1.889.32,1.829.292,1.186.179,1.158.167,1.129.156,1.641.213,1.575.19,1.013.114.983.1,1.416.14,1.346.122,1.681.134,1.55.106,1.073.063,1.311.065,1.439.052,1.211.028.8.009h.595l.807-.014.132-.9a.286.286,0,0,1,.491-.154l.049.071.395.716.278.486.113.188.085.134.194.065.214.06.3.073.3.067.26.051a1.347,1.347,0,0,0,.238.029l.641-.059a4.051,4.051,0,0,1,.615-.012.616.616,0,0,1,.3.1l.054.046c.039.029.1.069.173.117l.268.16.16.09.352.186.369.177c.122.054.242.1.354.147a1.984,1.984,0,0,0,.207.061l.221.044a1.029,1.029,0,0,1,.6-.152,1.707,1.707,0,0,1,.321.046l.142.04.21,0,.309.011a3.317,3.317,0,0,1,.782.111.437.437,0,0,1,.337.394.443.443,0,0,1-.068.222,1.1,1.1,0,0,1-.289.278,2.71,2.71,0,0,1-.245.155l-.269.147-.43.221a.538.538,0,0,0-.051.031l-.375.31-1.928,1.678a1.038,1.038,0,0,0,.291.025,1.474,1.474,0,0,0,.464-.157l.128-.06a3.287,3.287,0,0,1,.718-.288.4.4,0,0,1,.412.155.435.435,0,0,1,.057.333l-.024.1a.325.325,0,0,0-.01.059l.034.013a.433.433,0,0,0,.1.013.852.852,0,0,0,.355-.072l.082-.044a.155.155,0,0,0,.029-.027,1.926,1.926,0,0,1,.562-.407l.292-.147.442-.2.492-.2,2.126-1.364a.285.285,0,0,1,.428.322l-.041.084-.595.959-.158.266c.131.007.276.021.423.043a3.144,3.144,0,0,1,.783.2.8.8,0,0,1,.264.184l.063.027a.416.416,0,0,0,.045.015,1.628,1.628,0,0,0,.331.046,2.252,2.252,0,0,0,.7-.074.507.507,0,0,0,.222-.1,1.716,1.716,0,0,1,.663-.35c.226-.075.492-.146.75-.2l.375-.08.329-.059.248-.034c.032,0,.061-.006.083-.007a.337.337,0,0,1,.339.188l.01.027a.686.686,0,0,0,.2.372c.03.035.088.029.146.036.131.012.282.007.419.012a.824.824,0,0,1,.667.277,2.574,2.574,0,0,1,.406.834.393.393,0,0,1-.1.339.359.359,0,0,1-.265.106l-.128-.007-.374-.042-.133-.008a1.247,1.247,0,0,1-.342.211.466.466,0,0,1-.523-.122.213.213,0,0,0-.085-.047l-.128-.035a1.294,1.294,0,0,0-.209-.036l-.2-.015-.059,0-.1.093-.077.061-.111.076-.159.1-.219.119-.291.147-.683.317-.124.049-.022.006a.311.311,0,0,1-.163,0,.243.243,0,0,1-.066-.031l-.079,0-.031.01-.077.044a2.476,2.476,0,0,0-.418.346,7.458,7.458,0,0,0-1.465,2.142l.254-.305.956-1.2a.345.345,0,0,1,.315-.141l.036.006a.279.279,0,0,1,.153.125.285.285,0,0,1,.041.137l-.007.069s0,.016-.01.035l-.041.078a1.292,1.292,0,0,0-.142.368l-.068.27-.084.381-.3,1.614c-.008.04-.016.075-.024.107l-.139.513-.1.4c-.049.211-.1.433-.134.637l-.05.306-.023.183a.364.364,0,0,0,.006.122,2.917,2.917,0,0,1,.168.837l.016.35c0,.047.008.1.013.152.1.975.606,1.519,1.091,1.6a.483.483,0,0,0,.562-.314,5.423,5.423,0,0,0,.45-3.2l-.055-.185-.062-.161-.1-.206-.03-.06a1.622,1.622,0,0,1-.171-.415,1.159,1.159,0,0,1,.015-.508l.069-.277.037-.175.035-.216a6.312,6.312,0,0,0,.037-1,1.447,1.447,0,0,1,.334-.913,1.136,1.136,0,0,1,.457-.356.491.491,0,0,1,.51.069l.011-.075v-.074a.625.625,0,0,1,.254-.569,2.476,2.476,0,0,1,.469-.257c-.013-.048-.034-.119-.052-.163a1.43,1.43,0,0,1-.1-.32.344.344,0,0,1,.029-.175.306.306,0,0,1,.108-.127.512.512,0,0,1,.267-.073,7.317,7.317,0,0,1,1.354.165,4.672,4.672,0,0,1,1.32.619,1.1,1.1,0,0,1,.265.265.473.473,0,0,1,.085.292,1.08,1.08,0,0,0,.064.337l.061.186.125.36c.018.056.034.108.047.156a1.719,1.719,0,0,1-.446,1.366l-.129.159a2.854,2.854,0,0,0-.245.322l-.058.1.189-.034a.84.84,0,0,0,.588-.346l.16-.2c.025-.03.049-.058.074-.083a.669.669,0,0,1,.672-.222.851.851,0,0,1,.534.5,3.553,3.553,0,0,1,.21.566l.16.577c.016.057.032.109.048.157l.047.126a2.629,2.629,0,0,1,.185,1.01,1.369,1.369,0,0,1-.139.634l-.329.562a4.12,4.12,0,0,0-.373.777l-.1.4a5.054,5.054,0,0,0-.129.682l.162.042a2.075,2.075,0,0,0,.332.051c.1,0,.2,0,.292,0,.071,0,.148-.01.223-.02l.29-.048.088-.018a1.251,1.251,0,0,1,.433-.188l.382-.081a1.437,1.437,0,0,0,.171-.048,2.01,2.01,0,0,0,.446-.262l.28-.213.146-.12.293-.256a2.247,2.247,0,0,1,.879-.5l.156-.039,1.822-1.539.567-.491a.4.4,0,0,0,.159-.251.456.456,0,0,0-.14-.33,1.359,1.359,0,0,0-.172-.17l-.083-.063a.283.283,0,0,1,0-.419l.067-.047.46-.247.371-.189.256-.125a2.3,2.3,0,0,1,.579-.143c.505-.073,1.228-.113,1.746-.186l.194-.036.263-.066a2.085,2.085,0,0,1,.2-.2l.41-.339c.046-.038.09-.077.132-.115l.069-.067.109-.125a.763.763,0,0,0-.063-.093l-.244-.284a1.125,1.125,0,0,1-.188-.3.478.478,0,0,1-.022-.308.966.966,0,0,1,.257-.382,4.052,4.052,0,0,1,.447-.366l.032-.572a.289.289,0,0,1,.08-.184l.791-.8.253-.242c.021-.019.039-.034.054-.047a.864.864,0,0,1,.521-.155h.3a.91.91,0,0,0,.281-.034l.185-.055.43-.12,1.22-.324.731-.152.636-.146.441-.109c.144-.037.282-.075.409-.113l.124-.04.32-.123.063-.026a1.492,1.492,0,0,1,.939-.924l.157-.024a.51.51,0,0,0,.5-.492l-.056-2.226-.009-.894a2.311,2.311,0,0,1,.661-1.737.489.489,0,0,1,.571-.092l.054.039a.588.588,0,0,0,.789,0,2.191,2.191,0,0,0,.179-.138l.168-.152a.179.179,0,0,1,.024-.019.345.345,0,0,1,.218-.038l.069.013.2.06c.079.027.168.061.261.1a2.657,2.657,0,0,1,.714.442.817.817,0,0,1,.254.427l.009.11a1.168,1.168,0,0,0,.051.294l.081.265.1.3.506,1.349.066.2.069,0a.622.622,0,0,1,.177.027c.149.049.34.166.41.62l.021.167.042.01a.655.655,0,0,0,.149,0l.351-.047a.793.793,0,0,1,.088-.007.375.375,0,0,1,.319.132.317.317,0,0,1,.067.228.439.439,0,0,0,.185.434l.046.03c.052.034.1.065.128.09a.363.363,0,0,1,.124.209.317.317,0,0,1-.036.223c-.1.177-.267.338-.762.548a2.552,2.552,0,0,0-.718.593l-.26.281-.113.119a.725.725,0,0,1-.779.1,2.612,2.612,0,0,0-.31-.093l-.045-.009.053.058.2.2c.032.031.062.061.087.089.233.262.185.5,0,.627a.993.993,0,0,1-.328.119l-.285.056a1.446,1.446,0,0,0-.186.046l-.072.033a2.867,2.867,0,0,1-.376.594.861.861,0,0,1-.53.3c-.1.01-.185.017-.261.029l-.085.021v.017a5.419,5.419,0,0,1-.578,1.52l-.1.185a.348.348,0,0,0-.064.2.157.157,0,0,0,.051.092l.087.072a1.319,1.319,0,0,1,.263.293.661.661,0,0,1,.043.593l-.1.234a.416.416,0,0,0-.052.2.155.155,0,0,0,.053.088.772.772,0,0,0,.117.1,1.735,1.735,0,0,0,.2.11l.151.069c.426.187.689.187.853.093a.448.448,0,0,0,.2-.237.33.33,0,0,1,.109-.147l.046-.028a.266.266,0,0,1,.3.044.993.993,0,0,1,.378.873.8.8,0,0,1-.866.735l-.12-.017a1.344,1.344,0,0,0-.812.16l-.124.083a.551.551,0,0,1-.631.13.592.592,0,0,1-.124-.079l0,.117a.87.87,0,0,1-.033.307.768.768,0,0,1-.291.3,3.222,3.222,0,0,1-1.025.422l-.082.018-.164.044c-.029.009-.056.017-.085.028l-.183.071-.212.1-.4.2-.866.479a2.579,2.579,0,0,0,.535-.179l1.192-.572a.286.286,0,0,1,.375.395l-.106.172-.126.185a3.285,3.285,0,0,1-1.326,1.178,1.682,1.682,0,0,1-.3.065l-.3.036c-.165.016-.343.028-.512.031a2.842,2.842,0,0,1-.706-.049h-.013l-.027.015a.283.283,0,0,0-.035.027l-.026.039.043.024a1.253,1.253,0,0,1,.723.788.908.908,0,0,1-.017.616l-.075.176a2.22,2.22,0,0,0-.144.736,2.572,2.572,0,0,1-.4,1.055,1.829,1.829,0,0,1-.439.5.394.394,0,0,1-.509,0l-.2-.179a.983.983,0,0,0-.114-.08,4.145,4.145,0,0,0,.533.984,1.126,1.126,0,0,1,.259.676,1.65,1.65,0,0,1-.232.934.741.741,0,0,0-.075.217l-.044.207c-.043.219-.077.467-.1.683l-.056.54-.009.053-.026.063-.069.131a2.384,2.384,0,0,1-.352.5.451.451,0,0,1-.331.136.346.346,0,0,1-.278-.17,1.087,1.087,0,0,1-.1-.6l.006-.084.05-.55c0-.054.009-.11.011-.166l.008-.166a1.356,1.356,0,0,0-.038-.5.357.357,0,0,0-.167-.153l-.154-.075c-.1-.048-.2-.094-.3-.142a1.683,1.683,0,0,0,.068-.477,1.727,1.727,0,0,0-.76-1.433,1.91,1.91,0,0,1,.025-.286l.033-.189a.91.91,0,0,0-.172.407,1.673,1.673,0,0,0-.54-.2,1.32,1.32,0,0,1,.386-.69.648.648,0,0,1,.364-.166.476.476,0,0,1,.506.335.654.654,0,0,1,.03.32l-.054.326a1.625,1.625,0,0,0-.008.311.245.245,0,0,0,.092.2l.06.043a.478.478,0,0,1,.18.321.836.836,0,0,1-.02.316l-.027.109a.964.964,0,0,0-.028.115l-.01.036a.019.019,0,0,0,.007.016l.048.038.13.066c.113.054.24.108.356.169a1.02,1.02,0,0,1,.471.446,1.523,1.523,0,0,1,.091.556c0,.126,0,.263-.012.4l-.032.386c-.006.059-.011.115-.016.166l.01-.019.046-.437.039-.31.023-.164.055-.32a2.582,2.582,0,0,1,.155-.541l.043-.082a.984.984,0,0,0,.134-.381l-.947.1a.286.286,0,0,1-.311-.229l-.5-2.522-6.612,1.145.019.565a3.977,3.977,0,0,1,1.889-.73,2.632,2.632,0,0,0,.521-.115,1.184,1.184,0,0,1,.4-.057.465.465,0,0,1,.156.042l.047.02.051.04.124.1.15.118.192.139c.1.071.221.146.344.213a1.68,1.68,0,0,0-.362.436c-.128-.073-.249-.152-.357-.226l-.039.08a.534.534,0,0,1-.047.07.759.759,0,0,1-.434.27l-.436.086a.242.242,0,0,0-.218.22.8.8,0,0,1-.458.626l-.265.138a.645.645,0,0,0-.364.491l-.015.135c-.02.421-.265.444-.388.428a.532.532,0,0,1-.241-.124l-.049-.041-.057-.043a.22.22,0,0,0-.042-.025,1.532,1.532,0,0,0-.128.187,6.808,6.808,0,0,0-.446,1.222l-.083.322-.091.4a.93.93,0,0,1-.791.824,1.516,1.516,0,0,0-.38.16l-.354.206a1.227,1.227,0,0,1-1.039.147.441.441,0,0,0-.25.014l-.267.069a.64.64,0,0,1-.472-.052l-.041-.027-.039-.032-.1.052a7.86,7.86,0,0,0-1.639,1.221l2.659-.356a.279.279,0,0,1,.123.01c.322-.031.666-.073,1.028-.124l.742-.112.383-.064.787-.14.8-.154.806-.165,1.188-.256,1.13-.257,1.35-.322,1.3-.324.194-.05a.616.616,0,0,1,0-.176l.025-.106a3.561,3.561,0,0,0,.049-1.345,1.746,1.746,0,0,0-.086-.359l-.033-.082a.12.12,0,0,0-.02-.028l-.148-.024-.151-.016-.2-.008a1.74,1.74,0,0,0,.541-.525.706.706,0,0,1,.278.1,1.043,1.043,0,0,1,.335.607,4.251,4.251,0,0,1,0,1.787,2.069,2.069,0,0,0,.227-.027l.338-.067c.052-.009.1-.016.147-.02a.7.7,0,0,1,.232.014.524.524,0,0,1,.324.31,2.437,2.437,0,0,1,.151.945,1.422,1.422,0,0,1-.116.587.393.393,0,0,1-.273.213l-.093.013-.1,0a.6.6,0,0,0-.28.055,1.232,1.232,0,0,0-.346.291,1.389,1.389,0,0,0,.165-.089l.064-.047a.383.383,0,0,1,.459-.074.458.458,0,0,1,.184.193l.048.1a1.139,1.139,0,0,1,.483-.211.414.414,0,0,1,.326.106.547.547,0,0,1,.163.422,1.292,1.292,0,0,1-.22.893,1.1,1.1,0,0,1-.878.324c-.125,0-.239,0-.34.008a.516.516,0,0,1,.044.226.565.565,0,0,1-.123.329l-.079.091.2-.038a.6.6,0,0,1,.072-.008.318.318,0,0,1,.317.168.3.3,0,0,1,.028.188.568.568,0,0,1-.155.27,4.952,4.952,0,0,1-1.442.97.892.892,0,0,0-.375.286,2.823,2.823,0,0,0-.482.842,1.547,1.547,0,0,1-.615.68,5.8,5.8,0,0,1-.765.41l-.311.141a.608.608,0,0,0-.279.318l-.538,1.075-.215.4-.126.228a2.415,2.415,0,0,1-1.9,1.308l-.456.056c-.049.007-.1.014-.139.023l-.086.026-.027.01a.092.092,0,0,0,.018.091.568.568,0,0,0,.077.1,1.222,1.222,0,0,0,.135.116l.161.1a.288.288,0,0,1,.113.209.283.283,0,0,1-.085.222l-.041.019-.07.046a2.544,2.544,0,0,0-.5.533,6.5,6.5,0,0,0-.74,2.132,3.493,3.493,0,0,0-.063.909.668.668,0,0,0,.09.315,8.379,8.379,0,0,1,.678,1.33l.5,1.167c.075.169.146.319.208.437a5.27,5.27,0,0,0,.727.834,2.153,2.153,0,0,1,.591,1.455,1.931,1.931,0,0,0,.329.8c.061.1.126.2.194.305l.21.3.318.422.282.348.278.325a.289.289,0,0,1,.06.1l.013.072.121,1.457.066,1.021.018.391.01.359c0,.112,0,.216,0,.31a1.986,1.986,0,0,1-.061.539.361.361,0,0,1-.112.162l-.145.1-.228.14-.287.157a3.342,3.342,0,0,1-1.088.387.649.649,0,0,1-.536-.167.558.558,0,0,1-.153-.4,1.081,1.081,0,0,0-.058-.409.25.25,0,0,0-.069-.089l-.039-.031a1.3,1.3,0,0,1-.113-.1.984.984,0,0,1-.265-.489.042.042,0,0,0-.032-.03l-.12-.029-.1-.011a1.534,1.534,0,0,1-.505-.108.752.752,0,0,1-.33-.492c-.027-.1-.049-.2-.086-.3a.285.285,0,0,0-.086-.136,1.888,1.888,0,0,1-.646-.992l-.038-.16a.468.468,0,0,0-.026-.083l-.159.021a.566.566,0,0,1-.462-.109,2.214,2.214,0,0,1-.71-1.985.506.506,0,0,1-.264-.068c-.157-.088-.348-.319-.437-.88-.015-.1-.026-.222-.034-.363l-.033-.706c-.012-.244-.029-.482-.057-.673l-.015-.074-.033-.128-.243-.1a4.73,4.73,0,0,1-1.4-.943l-.154-.175a1.4,1.4,0,0,0-1.236-.531l-.247.011a1.507,1.507,0,0,0-.486.177l-.342.178-.573.313a3.94,3.94,0,0,1-.465.222.656.656,0,0,1-.35.045.356.356,0,0,1-.211-.137l-.189-.292a1.1,1.1,0,0,0-.752-.442l-.309-.06a1.5,1.5,0,0,1-.933-.683l-.1.022-.051.015-.194.084-.416.2a2.321,2.321,0,0,1-.394.15.485.485,0,0,1-.43-.051.349.349,0,0,1-.141-.219l-.356.25c-.128.089-.265.179-.408.26a.5.5,0,0,1-.493.05.529.529,0,0,1-.252-.322l-.054-.194-.032-.1c-.019-.054-.039-.113-.113-.119a.277.277,0,0,0-.175.024.143.143,0,0,0-.057.075l-.026.091c-.017.056-.033.111-.051.16a.449.449,0,0,1-.461.34l-.543-.029-.28-.01a2.078,2.078,0,0,0-.627.087l-.37.112a1.773,1.773,0,0,1-1.162.047,1.614,1.614,0,0,0-.755-.123c-.129.023-.185.1-.187.182a.312.312,0,0,0,.011.081,1.731,1.731,0,0,1,1.083.051l.138.082.162-.053a1.391,1.391,0,0,1,.72-.1.378.378,0,0,1,.337.246.387.387,0,0,1-.088.37l-.072.079-.2.192c-.036.035-.071.073-.106.111-.069.078-.147.159-.132.255l.066.057a.944.944,0,0,0,.1.075,8.033,8.033,0,0,1,.745.45.547.547,0,0,1,.206.7.6.6,0,0,1-.728.294,3.537,3.537,0,0,1-1.017-.509L227.6,287l-.021-.01-.023.029-.028.049-.033.088a.284.284,0,0,1-.145.167,2.9,2.9,0,0,1-3.156-.268c-.137-.094-.263-.19-.378-.282l-.312-.248a.937.937,0,0,0-.228-.151.166.166,0,0,0-.081-.016l-.01.011-.026.079-.013.058-.01.1v.039a.285.285,0,0,1-.113.191.289.289,0,0,1-.14.055l-.091,0-.723-.134-.31-.066-.311-.074c-.151-.038-.293-.079-.412-.12a1.644,1.644,0,0,0-.623-.006l-.235.029-.473.067a5.378,5.378,0,0,1-.608.06,2.736,2.736,0,0,0-.786.2l-.321.127-.42.178a.312.312,0,0,1-.28-.015l-.049-.036a.269.269,0,0,1-.081-.273,1.088,1.088,0,0,0,.033-.467.152.152,0,0,0-.082-.118l-.055-.009-.007.034a1.141,1.141,0,0,0-.008.168l.007.21.014.245a2.366,2.366,0,0,1-1.9,2.607c-.482.067-.81-.143-.87-.438l-.029-.019A.276.276,0,0,0,214.2,289a.749.749,0,0,0-.378.027c.011.045.032.117.048.159a.879.879,0,0,1,.082.283.277.277,0,0,1-.171.262.319.319,0,0,1-.295-.018,1.512,1.512,0,0,0-.1.13,2.055,2.055,0,0,1-.215.308.846.846,0,0,1-.392.194l-.126.03a.593.593,0,0,1,.079.128.4.4,0,0,1-.1.487.852.852,0,0,1-.434.222l-.1.016.112.752a.287.287,0,0,1-.259.326l-.186.015a1.252,1.252,0,0,1,.1.533l-.011.176a2.862,2.862,0,0,0,.173,1.078l.1.305.1.271.092.217.089.2a.286.286,0,0,1-.27.407l-.083-.015-.816-.219-.5-.124-.3-.067-.231-.044-.318-.047a1.643,1.643,0,0,1-.856-.342.538.538,0,0,0-.41-.088l-.11.025-.039.013a.281.281,0,0,1-.265-.04,5.022,5.022,0,0,1-1.716-2.921l-.053-.258a.4.4,0,0,0-.23-.3l-.2-.1a.632.632,0,0,1-.32-.355l-.059-.186a1.471,1.471,0,0,0-.529-.756,2.3,2.3,0,0,1-.6-.881l-.108-.257-.3-.779c-.063-.162-.123-.31-.183-.433a4.067,4.067,0,0,0-.807-.958l-.289-.262-.207-.178-1.792-.075-.332-.007h-.072l-.126.171-.155.235-.424.687-.33.559a.286.286,0,0,1-.3.139l-1.031-.182a.287.287,0,0,1-.1-.04l-.053-.043-.589-.546-.5-.446-.4-.337-.131-.1a1.783,1.783,0,0,1-.718-1.349c-.029-.284-.027-.592-.066-.932a1.752,1.752,0,0,0-.624-.969l-.183-.168-.355-.313a3.516,3.516,0,0,1-.414-.41,1.457,1.457,0,0,0-.339-.323l-.072-.049a1.591,1.591,0,0,1-.4-.364l-.086-.121a3.773,3.773,0,0,0-.419-.52l-.168-.168-3.039-.343-.047.714a.286.286,0,0,1-.1.2.279.279,0,0,1-.211.067l-1.809-.169-4.017-.6-.054-.014-.082-.042-3.364-2.04-3.31-2.032-.5-.318a4.909,4.909,0,0,0-2.6-.551l-.942.015a3.986,3.986,0,0,1-.783-.042.7.7,0,0,1-.276-.116.643.643,0,0,1-.239-.374,1.947,1.947,0,0,1-.021-.6,6.007,6.007,0,0,0,.044-.757,1.119,1.119,0,0,0-.178-.617,2.905,2.905,0,0,0-.763-.742l-.208-.136a1.591,1.591,0,0,1-.331-.261,1.085,1.085,0,0,1-.177-.369l-.043-.148a1.365,1.365,0,0,0-.054-.167l-.022-.046-.01-.011a1.04,1.04,0,0,1-.664-.269,4.079,4.079,0,0,1-.375-.342l-.235-.248c-.037-.04-.072-.08-.106-.118l-.289-.338-.057-.04-.134-.079-.857-.454a3.445,3.445,0,0,1-.764-.508.663.663,0,0,1-.129-.7l.069-.158.17-.306a.847.847,0,0,0,.061-.142l-.126-.094a.712.712,0,0,1-.153-.175,1.432,1.432,0,0,1-.166-1.007l-.387-.681-.3-.552-.187-.36-.07-.144-.118-.259-.081-.208a.637.637,0,0,1-.035-.139.771.771,0,0,1,.216-.579l.168-.2a.338.338,0,0,0,.09-.2c0-.091-.08-.165-.154-.234a1.775,1.775,0,0,0-.237-.182l-.123-.072-.049-.026a.419.419,0,0,1-.057-.051,1.041,1.041,0,0,1-.159-.349,3.427,3.427,0,0,1-.107-1.04.975.975,0,0,1,.108-.414.43.43,0,0,1,.171-.167.4.4,0,0,1,.3-.04.423.423,0,0,1,.276.254l.035.09.068.218.061-.033.026-.02-.038-.093-.025-.049a1.941,1.941,0,0,1-.089-.18.406.406,0,0,1,.019-.372.452.452,0,0,1,.35-.2c.021,0,.029-.021.032-.04l0-.029c0-.04,0-.091-.031-.106-.015-.007-.034,0-.057.011a.511.511,0,0,0-.1.055l-.056.043a1.009,1.009,0,0,1-.678.291.6.6,0,0,1-.53-.462,2.166,2.166,0,0,1-.078-.675l.009-.222.011-.13a.555.555,0,0,0-.079-.279c-.069-.139-.166-.283-.258-.456l-.048-.09-.09-.2a3.822,3.822,0,0,1,.146-2.837l-.016-.057a.241.241,0,0,0-.012-.034l-.049-.1-.127-.223a1.719,1.719,0,0,1-.3-.974,1.686,1.686,0,0,1,.387-.826,3.031,3.031,0,0,1,.275-.3l.221-.2.047-.038c.019-.061.041-.149.065-.259l.305-1.526c.048-.222.1-.423.141-.577a2.808,2.808,0,0,0,.063-.77l-.006-.453c0-.151,0-.3.011-.44a1.305,1.305,0,0,1,.428-1l.1-.059a.937.937,0,0,0,.406-.44,2.111,2.111,0,0,0,.128-.312l.049-.173.034-.167,1.328-2.928.487-1.1.267-.63c.016-.039.029-.074.042-.106l.046-.133a.575.575,0,0,1,.558-.419,1.06,1.06,0,0,1-.34-.112.406.406,0,0,1-.206-.349.676.676,0,0,1,.192-.545.637.637,0,0,1,.283-.145c-.031-.079-.069-.168-.1-.264a1.863,1.863,0,0,1-.113-.663l.021-.163a2.613,2.613,0,0,0,.032-.424v-.4l-.01-.438-.045-.977-.007-.049a1.1,1.1,0,0,1,.639-1.115.451.451,0,0,1,.481.086l.053.062a.449.449,0,0,0,.08.076l.236.176.208.148.476.324.883.576a1.317,1.317,0,0,1,.4.332.465.465,0,0,1,.063.376l-.023.074-.083.191-.057.126.494-.465-.01-.1a.5.5,0,0,0-.01-.058l-.035-.142-.127-.413a1.339,1.339,0,0,1-.048-.206.375.375,0,0,1,.088-.3.345.345,0,0,1,.089-.069l-.033-.179a.417.417,0,0,1-.2-.344,1.513,1.513,0,0,1,.128-.595.438.438,0,0,1,.122-.171.274.274,0,0,1,.245-.047Zm24.961,60.2.092.069.064.052.043.006a.53.53,0,0,1,.4.5l-.007.093-.023.08a.978.978,0,0,1-.811.426.4.4,0,0,1-.4-.229l-.023-.072-.008-.063-.08-.052c-.266-.192-.343-.446-.134-.67l.081-.074.091-.064a.6.6,0,0,1,.711,0Zm-2.218-.5.1.061.094.073.081.071.014.017v.008H195c.295,0,.539.447.456.746l-.084.2-.039.122-.006.032c0,.258-.142.308-.36.32a1.235,1.235,0,0,1-.251-.014c-.292-.043-.476-.109-.54-.322,0,.006,0,.009-.007.008l-.274-.154-.158-.085.007-.179a1.2,1.2,0,0,1,.187-.681A.654.654,0,0,1,194.788,293.625Zm6.452-23.679-.9,10.349a.281.281,0,0,1-.1.2.285.285,0,0,1-.213.062l-7.181-.838.194.308.019.04a4.6,4.6,0,0,1,.342.407l.11.159a.976.976,0,0,0,.266.281l.066.045a2.1,2.1,0,0,1,.539.491,2.235,2.235,0,0,0,.251.26l.511.451c.121.108.24.222.35.342a2.022,2.022,0,0,1,.582,1.1c.039.343.035.652.065.937a1.268,1.268,0,0,0,.505.96l.324.265.165.139.472.415.275.249.374.349.753.131.3-.508.374-.6c.081-.126.157-.239.221-.328a1.459,1.459,0,0,1,.207-.245.367.367,0,0,1,.139-.067l.043,0h.191l.668.015,1.6.06a.261.261,0,0,1,.117.03l.064.043.247.215.324.3.243.24.242.257a3.077,3.077,0,0,1,.459.63c.06.124.122.274.186.438l.3.789c.035.088.072.175.11.26a1.747,1.747,0,0,0,.42.658,1.975,1.975,0,0,1,.673.882l.081.228c.012.036.023.07.033.1l.055.038.187.1a.929.929,0,0,1,.531.7l.048.236a4.486,4.486,0,0,0,1.393,2.5,1.188,1.188,0,0,1,.933.172,1.1,1.1,0,0,0,.526.228l.39.055.122.021.315.067.56.138.366.1a5.5,5.5,0,0,1-.4-1.62l.008-.206c.046-.405-.126-.551-.2-.59l-.03-.012a.286.286,0,0,1,.052-.559l.5-.042-.116-.774a.287.287,0,0,1,.3-.328l.09.008h.06a.676.676,0,0,0,.2-.026.72.72,0,0,1-.11-.187.4.4,0,0,1,.051-.349.68.68,0,0,1,.4-.273l.261-.067a.09.09,0,0,0,.029-.018l.035-.044.073-.121a1.622,1.622,0,0,1,.212-.289.624.624,0,0,1,.178-.13.781.781,0,0,1-.025-.155.472.472,0,0,1,.335-.5,1.3,1.3,0,0,1,.889-.022.609.609,0,0,1,.391.419l.073.016a.344.344,0,0,0,.043,0,1.08,1.08,0,0,0,.374-.073,1.848,1.848,0,0,0,1.151-1.94,3.439,3.439,0,0,1,0-.819.563.563,0,0,1,.2-.337.576.576,0,0,1,.384-.109.708.708,0,0,1,.7.788,8.116,8.116,0,0,1,.918-.307,1.174,1.174,0,0,1,.115-.389.573.573,0,0,1,.258-.256l.029-.134c0-.027.009-.053.011-.078l.016-.221.019-.463a2.751,2.751,0,0,1,.04-.393l.034-.14.1-.351a3.043,3.043,0,0,0,.079-.412.915.915,0,0,0-.217-.8,2.621,2.621,0,0,1-.683-1.089l-.045-.16-.028-.157-.018-2.5a.3.3,0,0,1-.018-.1.286.286,0,0,1,.016-.1l0-.855-.64-.049-.057-.01-.063-.026-.014-.01a.191.191,0,0,1-.04-.029l-.046-.058a2.024,2.024,0,0,0-.627-.542.484.484,0,0,0-.484-.01l-.081.061a.581.581,0,0,1-.547.084l-.319-.094c-.057-.017-.117-.033-.177-.046a.571.571,0,0,0-.367.016,2.207,2.207,0,0,1-1.125.128,2.779,2.779,0,0,1-.8-.2,2.339,2.339,0,0,1-.258.214.6.6,0,0,1-.38.108.667.667,0,0,1-.421-.208,2.18,2.18,0,0,0-.374-.31c-.059-.035-.1-.049-.135-.032a.853.853,0,0,1-.631.1.456.456,0,0,1-.263-.252l-.028-.068-.027-.075c-.014-.035-.023-.08-.075-.1a.74.74,0,0,0-.236-.036l-.1,0c-.275-.007-.614.009-.919,0a2.252,2.252,0,0,1-.616-.1.758.758,0,0,1-.353-.243.7.7,0,0,0-.411-.315l-.189-.041-.261-.049a1.15,1.15,0,0,1-.624-.268.7.7,0,0,1-.192-.4l-.013-.121-.014-.3,0-.092,0-.955.049-2.823Zm-6.777,24.185-.029.021-.034.04a.3.3,0,0,0-.041.1l-.02.094.082.05a.957.957,0,0,1,.236.2l.046.07.03.073c-.017-.056-.008-.078.01-.086l.02,0,.043,0,.02-.065.046-.119.03-.066.044-.007.058,0-.04-.007-.047-.017a1.235,1.235,0,0,1-.192-.119l-.171-.136-.03-.016A.068.068,0,0,0,194.464,294.131Zm50.419-11.87-.372.009-.075.79a.289.289,0,0,1-.149.226.284.284,0,0,1-.269,0l-.656-.348-5.184.232a.291.291,0,0,1-.191-.062l-.078-.069a1.9,1.9,0,0,1-.374-.506l-.333.037-.559.048-.931.068-2.541.158-.44.026a2.222,2.222,0,0,1,.11.207,1.674,1.674,0,0,1,.132.451l.079-.052a.814.814,0,0,1,.406-.137.337.337,0,0,1,.334.3.5.5,0,0,1,0,.092l.189-.083.388-.187a1.9,1.9,0,0,1,.35-.133.534.534,0,0,1,.608.18,1.091,1.091,0,0,0,.69.516l.257.046a1.511,1.511,0,0,1,1.029.6l.152.234.158-.067.2-.1.678-.371c.077-.041.153-.081.228-.119a2.283,2.283,0,0,1,.747-.257,2.084,2.084,0,0,1,1.834.581l.132.151a3.883,3.883,0,0,0,1.451,1l.17.068a.557.557,0,0,1,.3.4,5.468,5.468,0,0,1,.1.986l.027.547c.01.169.021.319.039.43a1.354,1.354,0,0,0,.118.422l.026.037a.82.82,0,0,0,.089-.048l.114-.08a.337.337,0,0,1,.215-.06.3.3,0,0,1,.272.272.576.576,0,0,1-.033.2l-.03.088a1.638,1.638,0,0,0,.422,1.734l.226-.029a.542.542,0,0,1,.4.1.612.612,0,0,1,.2.312l.034.132a1.445,1.445,0,0,0,.343.7l.115.1a.969.969,0,0,1,.325.521l.034.124c.017.065.032.127.053.184l.029.063a.354.354,0,0,0,.112.024l.065.007a2.733,2.733,0,0,1,.369.051.624.624,0,0,1,.458.349l.036.106a.463.463,0,0,0,.158.266l.087.069.091.088a1.02,1.02,0,0,1,.221.657l.007.17a.63.63,0,0,0,.1,0,1.036,1.036,0,0,0,.158-.032,4.693,4.693,0,0,0,1.186-.579l.012-.133.009-.176v-.186l-.011-.435-.023-.49-.049-.769-.1-1.28-.022-.238-.328-.392-.23-.288-.247-.328c-.167-.228-.335-.472-.477-.709a2.9,2.9,0,0,1-.4-.955l-.011-.127a1.657,1.657,0,0,0-.511-1.156l-.388-.405a2.279,2.279,0,0,1-.351-.468c-.062-.115-.13-.262-.2-.427L245.71,284a8.077,8.077,0,0,0-.662-1.3,1.115,1.115,0,0,1-.165-.437ZM191.94,292.15l.1.011a.677.677,0,0,1,.491.439l.024.089.008.088.14.184.107.13.121.11c.152.157.128.3,0,.536l-.109.192-.06.126a.934.934,0,0,1-1.2.081l-.113-.111-.043-.036-.237-.167a.693.693,0,0,1-.266-.383.49.49,0,0,1,.039-.408l.063-.084.124-.13a.4.4,0,0,0,.048-.081l.07-.182a.576.576,0,0,1,.536-.4Zm-.14.575a.027.027,0,0,0-.028.017l-.043.128a1.025,1.025,0,0,1-.151.291l-.049.06-.076.078a.193.193,0,0,0,.046.054l.04.031.22.155a.969.969,0,0,1,.153.146.134.134,0,0,0,.063.029l.049.01.158.023a.192.192,0,0,1,.066.018l.007.011.04-.1.031-.06.061-.1a.018.018,0,0,1,.02-.009l.013.008.058.049-.068-.061a1.755,1.755,0,0,1-.411-.644l-.013-.088-.053-.048Zm-1.578-.787a1.142,1.142,0,0,1,.234.767,1.192,1.192,0,0,1-.406.735c-.366.284-1.139.161-1.24-.3l0-.038-.1-.051a.507.507,0,0,1-.25-.473.622.622,0,0,1,.3-.554l.107-.07.092-.057.044-.033.068-.078a.8.8,0,0,1,1.159.149Zm-.765.273a.674.674,0,0,1-.174.161l-.217.141a.088.088,0,0,0-.031.043l0,.022.11.055a.424.424,0,0,1,.233.407c0-.01.012-.017.032-.02l.035,0,.139,0a.223.223,0,0,0,.114-.029.617.617,0,0,0,.19-.358.61.61,0,0,0-.139-.361A.223.223,0,0,0,189.458,292.211Zm29.519-13.453.015,2.282.015.073.038.13a2.081,2.081,0,0,0,.529.832,1.364,1.364,0,0,1,.4,1.024,3.109,3.109,0,0,1-.117.765l-.085.315c-.012.046-.023.089-.031.128a2.481,2.481,0,0,0-.037.368l-.015.437a3.007,3.007,0,0,1-.038.394.6.6,0,0,1-.328.487l-.025.056.243-.029.539-.076c.092-.012.184-.025.272-.034a2.263,2.263,0,0,1,.872.033,10.939,10.939,0,0,0,1.392.324.769.769,0,0,1,.044-.118.6.6,0,0,1,.373-.344.689.689,0,0,1,.434.024,1.589,1.589,0,0,1,.377.234l.377.295a2.509,2.509,0,0,0,2.778.5.956.956,0,0,1,.149-.244.556.556,0,0,1,.421-.2.624.624,0,0,1,.336.1l.391.264a3.839,3.839,0,0,0,.68.381l.089.031.108.024-.008-.009a1.5,1.5,0,0,0-.177-.119l-.381-.213a1.975,1.975,0,0,1-.35-.24.609.609,0,0,1-.194-.312.8.8,0,0,1,.164-.653l.072-.09c-.049.019-.1.037-.136.049a.5.5,0,0,1-.423-.034l-.073-.044c-.131-.073-.333-.129-.923-.019a.372.372,0,0,1-.285-.061.669.669,0,0,1-.245-.4.762.762,0,0,1,.3-.819,1.29,1.29,0,0,1,1.025-.088.849.849,0,0,1-.117-.59l.039-.207-3.717.066a.284.284,0,0,1-.264-.405l.161-.356.111-.267a3.852,3.852,0,0,0,.217-.667l.012-.1a1.616,1.616,0,0,1,.363-.775,4.009,4.009,0,0,1,.617-.644,1.8,1.8,0,0,1-.266-.193.593.593,0,0,1-.217-.57,1.594,1.594,0,0,0-.038-.689Zm11.275-5.179-3.57.117c-.024.031-.049.062-.076.091l-.2.187a1.057,1.057,0,0,0-.147.177,2.092,2.092,0,0,0-.194.642.866.866,0,0,1-.4.536,1.286,1.286,0,0,0-.37.446,3.578,3.578,0,0,0-.42,1.074,3.9,3.9,0,0,0-.025,1.078l.035.252.031.167.01.022.03.1.047.173a2.265,2.265,0,0,1,.048.917l.043.049a1.082,1.082,0,0,0,.1.08l.322.2a.573.573,0,0,1,.146.14.33.33,0,0,1-.086.469l-.085.047a2.538,2.538,0,0,0-.683.661,1.068,1.068,0,0,0-.248.457,2.938,2.938,0,0,1-.191.715l-.124.324c-.021.051-.041.1-.061.149l3.63-.066a.291.291,0,0,1,.224.1.3.3,0,0,1,.067.174l-.009.08-.1.535a.389.389,0,0,0,.136.315,1.643,1.643,0,0,0,.347.285l.235-.066a3.533,3.533,0,0,1,1.181-.224l.5.019Zm4.985-.305-4.415.278.124,9.91a.806.806,0,0,1,.555-.126.638.638,0,0,1,.567.39,1.382,1.382,0,0,1,.078.215l.035.122.2-.125.01-.043a.812.812,0,0,0-.067-.581,1.856,1.856,0,0,0-.341-.5l-.039-.039a.284.284,0,0,1-.023-.289.288.288,0,0,1,.241-.16l2.522-.147,1.639-.111.745-.061.277-.029a6.749,6.749,0,0,1-.163-1.616l.025-.217a2.581,2.581,0,0,0-.266-1.53l-.092-.177-.1-.151a.277.277,0,0,1-.04-.083Zm4.7-.49-4.129.4,1.44,4.817.114.194a3.382,3.382,0,0,1,.432,1.849l-.025.2a4.347,4.347,0,0,0,.073,1.328l.061.306c.01.044.019.083.027.116l.013.027a1.418,1.418,0,0,0,.329.572l5.144-.231a.294.294,0,0,1,.147.033l.346.184.058-.617a.285.285,0,0,1,.277-.258l.608-.016.011-.178a8.369,8.369,0,0,1,.587-2.222,2.852,2.852,0,0,1-.3-.406,1.386,1.386,0,0,1-.169-.566l-.021-.2-.017-.1a1.26,1.26,0,0,1-.632-.862.235.235,0,0,0-.092-.108l-.082-.057-.091-.056a2.367,2.367,0,0,1-.594-.429,1.86,1.86,0,0,1-.275-.473l-.069-.164a.352.352,0,0,0-.166-.185l-.2-.106-.133-.076-.309-.188a6.752,6.752,0,0,1-.807-.589,1.441,1.441,0,0,1-.454-.609c-.021-.078-.1-.108-.169-.143-.1-.044-.2-.076-.3-.111a1.117,1.117,0,0,1-.595-.379.776.776,0,0,1-.03-.7Zm-50.293-5.446-2.129,12.835,1.287.122.049-.72a.282.282,0,0,1,.1-.2.291.291,0,0,1,.215-.066l2.953.335-.082-.13a.284.284,0,0,1,0-.3.288.288,0,0,1,.275-.131l7.483.874,1-11.471-1.137-.066-1.3-.088-1.43-.11-1.01-.088-1.043-.1-1.066-.113c-1.254-.141-2.536-.309-3.776-.512Zm-9.549-1.458a5.547,5.547,0,0,1-.059.692,2.015,2.015,0,0,1-.334.917.62.62,0,0,1-.654.236.359.359,0,0,1-.225-.157.551.551,0,0,1-.074-.214l-.01.011a.62.62,0,0,1-.285.149l-.318.072a3.232,3.232,0,0,1-.018.654l-.022.176-.053.371-.2,1.13.046.755a.887.887,0,0,1,.566.863,1.017,1.017,0,0,1-.443.786l-.167.121-.208.137-.03.145a1.708,1.708,0,0,1-.746,1.059l.019.1c0,.018.01.036.015.052.069.207.176.433.21.594a.761.761,0,0,1-.387.778,1.7,1.7,0,0,1-.169.1l1.786,1.1,5.025,3.052,3.592.536,2.1-12.672Zm64.246,5.92-.268.009-.514.037-.753.079-.9.114-1.259.641a1.4,1.4,0,0,0-.171.3c-.027.068-.064.138-.027.2a.34.34,0,0,0,.176.1l.419.15a.829.829,0,0,1,.545.544.485.485,0,0,0,.13.186l.151.139a7.326,7.326,0,0,0,1.319.873.9.9,0,0,1,.409.418,2.652,2.652,0,0,0,.287.546,2.538,2.538,0,0,0,.569.383.9.9,0,0,1,.405.484,1.239,1.239,0,0,0,.157.359.385.385,0,0,0,.1.106l.06.03a.479.479,0,0,1,.324.38l.019.1.026.235a.835.835,0,0,0,.091.367l.1.151.041-.062a3.784,3.784,0,0,1,.393-.453,1.146,1.146,0,0,1-.162-.177.643.643,0,0,1-.053-.785.584.584,0,0,1,.275-.216,1.413,1.413,0,0,1,.314-.078L247,276.9a1.9,1.9,0,0,0,1.524-1.029l.237-.437.193-.371.388-.784.091-.17a1.812,1.812,0,0,1,.15-.226l-2.137-1.66-2.033.2a.64.64,0,0,1-.691-.277l-.053-.1-.077-.2c-.007-.015-.01-.035-.03-.042l-.029-.006Zm-18.229-1.444-8.276.147.212,6.419.657.051a.284.284,0,0,1,.264.282l0,.932,5.329.009a4.626,4.626,0,0,1,0-1.443,4.175,4.175,0,0,1,.49-1.267,1.873,1.873,0,0,1,.571-.648.357.357,0,0,0,.167-.258l.03-.158a1.612,1.612,0,0,1,.215-.585,1.725,1.725,0,0,1,.285-.323c.071-.066.145-.108.178-.2a.523.523,0,0,0,.012-.227,1.557,1.557,0,0,1,.282-.9l.346-.561a2.052,2.052,0,0,0,.1-.186l-.481-.013-.455-.026a1.512,1.512,0,0,1-.193-.025.306.306,0,0,1-.256-.378.336.336,0,0,1,.275-.23.207.207,0,0,0,.124-.112l.054-.117a1.489,1.489,0,0,0,.067-.186Zm-24.742-1.846-.077.866,5.564.436a.285.285,0,0,1,.255.218l.008.089-.057,3.277v.814l.008.213.008.09a.223.223,0,0,0,.037.14.434.434,0,0,0,.215.088l.429.084a1.15,1.15,0,0,1,.893.559.27.27,0,0,0,.144.066,1.873,1.873,0,0,0,.4.05c.3.013.635,0,.907,0a1.674,1.674,0,0,1,.539.08.636.636,0,0,1,.3.245,1.218,1.218,0,0,1,.107.222l.106-.035.06-.025c.233-.1.5-.123,1.009.33l.132.124a.185.185,0,0,0,.068.048l.046-.031.2-.18a.445.445,0,0,1,.488-.113l.078.045a1.746,1.746,0,0,0,.642.157,2,2,0,0,0,.677-.023l.137-.049a1.236,1.236,0,0,1,.852-.033l.468.126a1,1,0,0,1,1.16-.1,1.867,1.867,0,0,1,.3.188l-.2-6.077a.285.285,0,0,1-.058-.167.288.288,0,0,1,.047-.163l-.027-.82-14.457-.677Zm-36.544-18.847-.048.2-.1.47-.184.94-.077.356a.973.973,0,0,1-.147.361l-.2.165-.081.073-.175.179c-.029.033-.059.068-.088.1a1.1,1.1,0,0,0-.264.535.647.647,0,0,0,.078.334l.074.152.163.289a1.677,1.677,0,0,1,.172.387.582.582,0,0,1,0,.334,3.2,3.2,0,0,0-.093,2.592l.089.171.089.154a1.682,1.682,0,0,1,.266.668l0,.117-.013.121-.01.18a2.015,2.015,0,0,0,.03.443.827.827,0,0,0,.058.156l.073-.027a.837.837,0,0,0,.125-.078l.07-.054a.758.758,0,0,1,.8-.194.678.678,0,0,1,.378.662.622.622,0,0,1-.363.558,1.2,1.2,0,0,1,.087.206.56.56,0,0,1-.012.382.8.8,0,0,1-.548.424.443.443,0,0,1-.291,0,.416.416,0,0,1-.16-.1,2.934,2.934,0,0,0,.068.414l.016.054.034.1.149.092a2.2,2.2,0,0,1,.276.216.937.937,0,0,1,.335.641.921.921,0,0,1-.239.6l-.172.208c-.032.042-.073.076-.068.126a.889.889,0,0,0,.078.214l.242.484.322.6.522.922a.28.28,0,0,1,.039.15l-.012.078a.053.053,0,0,1,0,.01l-.019.088a.832.832,0,0,0,.1.572.354.354,0,0,0,.124.1.759.759,0,0,1,.125.106.479.479,0,0,1,.092.515,1.185,1.185,0,0,1-.1.223l-.132.239a.9.9,0,0,0-.086.193.115.115,0,0,0,.019.112,2.014,2.014,0,0,0,.457.31l.322.17.326.167a3.462,3.462,0,0,1,.708.432l.25.3.193.216c.1.112.217.228.33.332a2.328,2.328,0,0,0,.2.167l.1.066c.046.028.083.057.117.053a.556.556,0,0,1,.6.378l.046.119.075.257a.474.474,0,0,0,.07.183.63.63,0,0,0,.137.111l.2.125a3.5,3.5,0,0,1,1,.947,2.018,2.018,0,0,1,.275,1.33l-.013.168c-.011.135-.026.265-.03.383v.168c0,.071,0,.136.041.17a.249.249,0,0,0,.122.029l.089.006c.1.008.209.01.333.01l.631-.01a6.9,6.9,0,0,1,3.128.485,1.769,1.769,0,0,0,.449-.207.5.5,0,0,0,.12-.1.1.1,0,0,0,.03-.085l-.043-.147-.128-.341a1.41,1.41,0,0,1-.088-.328.5.5,0,0,1,.219-.5,1.189,1.189,0,0,0,.549-.756l.033-.177a.4.4,0,0,1,.09-.178.747.747,0,0,1,.13-.112l.092-.063a2.1,2.1,0,0,0,.347-.251.381.381,0,0,0,.135-.267.357.357,0,0,0-.284-.355l-.039-.01a.284.284,0,0,1-.228-.263l-.062-1-7.892-11.4a.285.285,0,0,1-.038-.245l1.96-6.6-1.16-.335-1.281-.383-1.4-.435-1.533-.49Zm89.161,16.595-.041-.18-.132.027c-.139.026-.294.062-.438.083l-.54.145-1.8.447-1.23.291-1.084.246-1.136.245-.617.127c-1.365.275-2.729.513-3.846.632a2.212,2.212,0,0,1-.088.737,1.158,1.158,0,0,1-.891.838,2.284,2.284,0,0,0-1.49.929,1.536,1.536,0,0,1-.54.434,5.921,5.921,0,0,1-.965.364.873.873,0,0,0-.444.405,1.519,1.519,0,0,0-.151.321l1.844-.183,1.29-.657.044-.018.624-.087.657-.076.706-.068.166-.012.3-.013a2.05,2.05,0,0,1,.59.044.6.6,0,0,1,.35.352l.06.155c.009.023.011.049.03.063a.124.124,0,0,0,.087.015l2.209-.215a.283.283,0,0,1,.2.06l2.372,1.841a6.013,6.013,0,0,0,.859-.444.969.969,0,0,0,.4-.4,3.445,3.445,0,0,1,.588-1.019,1.608,1.608,0,0,1,.5-.405l.133-.052a3.073,3.073,0,0,0,.712-.413l-.036-.009a.373.373,0,0,1-.285-.262.41.41,0,0,1,.012-.259,1.432,1.432,0,0,1,.341-.465l.026-.031-.121-.117a.5.5,0,0,1-.147-.189.309.309,0,0,1,.007-.239.364.364,0,0,1,.29-.2l.117-.016.286-.018.442-.009a.584.584,0,0,0,.452-.128.364.364,0,0,0,.072-.193,1.734,1.734,0,0,0,.008-.221,1.958,1.958,0,0,0-.167.114.5.5,0,0,1-.318.115.4.4,0,0,1-.3-.151.932.932,0,0,1-.1-.171,2.091,2.091,0,0,1-.682.267.517.517,0,0,1-.459-.115.372.372,0,0,1-.093-.353,1.061,1.061,0,0,1,.226-.416,2.052,2.052,0,0,1,.661-.595,1.04,1.04,0,0,1,.405-.111l.1,0a1.7,1.7,0,0,0,.033-.263,2.535,2.535,0,0,0-.067-.512Zm-11.429,2.112-.116.008-3.161.423a.284.284,0,0,1-.121-.01l-8.629.768.007.154a.285.285,0,0,1-.246.295l-.429.047-.461.037-.456.028-.528.019-.589.008-.022,0a1.488,1.488,0,0,0-.1.26,2.658,2.658,0,0,0-.087.492l-.011.185v.166a2.112,2.112,0,0,1-.373.9l-.1.156a3.55,3.55,0,0,0-.246.434.594.594,0,0,0-.07.3l0,.086,3.7-.121,4.778-.3a.27.27,0,0,1,.128-.045l2.519-.247a2.02,2.02,0,0,1,.265-.678,1.465,1.465,0,0,1,.762-.651,5.449,5.449,0,0,0,.869-.324.952.952,0,0,0,.342-.263,2.814,2.814,0,0,1,1.834-1.152.682.682,0,0,0,.509-.634,1.988,1.988,0,0,0,.025-.332ZM222.7,260.729l-7,.013.3.647.11.251a3.472,3.472,0,0,1,.785.364.645.645,0,0,1,.33.565.6.6,0,0,1-.245.426l-.112.082.161.17.36.324c.056.051.108.1.153.15a.76.76,0,0,1,.216.43l.018.392.016.737.007.842-.017,2.739.035,1.07,8.637-.153a.285.285,0,0,1,.217.093.272.272,0,0,1,.069.143l0,.091-.016.109a2.672,2.672,0,0,1-.109.432l-.049.123q-.016.037-.034.074l.518.021a3.22,3.22,0,0,1,.107-.619,1.331,1.331,0,0,1,.577-.835c.123-.067.2-.128.211-.2l-.026-.12a.516.516,0,0,0-.145-.143,1.2,1.2,0,0,1-.333-.5,4.154,4.154,0,0,1-.147-.429l-.07-.265-.045-.193-.286-.169-.285-.177-.31-.206c-.1-.07-.2-.142-.291-.211a2.209,2.209,0,0,1-.568-.6.8.8,0,0,1-.11-.544l.173-.927-.311-.108c-.05-.018-.1-.036-.135-.052a.7.7,0,0,1-.2-.12l-.02-.027-.1-.184-.1-.187a1.471,1.471,0,0,0-.516-.618,2.174,2.174,0,0,1-1.126-2.373Zm13.955,2.64-.423.03a1.462,1.462,0,0,1-.028.237.991.991,0,0,1-.31.568.948.948,0,0,1-.807.18l-.05.207a1.771,1.771,0,0,1-.29.642l-.371.459a.909.909,0,0,1-.484.3,1.038,1.038,0,0,1-.616-.077c-.055-.023-.093-.038-.124-.026l-.028.019-.041.057a1.946,1.946,0,0,1-.146.2.522.522,0,0,1-.241.159.478.478,0,0,1-.242,0l-.1-.032c-.046-.019-.1-.034-.131-.045l-.123.188a.557.557,0,0,1-.49.253.965.965,0,0,1-.579-.218.212.212,0,0,0-.216-.02,1.016,1.016,0,0,0-.2.082l-.152.089a.311.311,0,0,1-.08.034l-.027.186-.03.283-.01.181c0,.026,0,.049,0,.069l.008.053a.456.456,0,0,1-.213.511.99.99,0,0,1-.3.121,1.435,1.435,0,0,1,.024.276.576.576,0,0,1-.177.434c-.116.1-.338.177-.7-.006l-.125-.07a1.329,1.329,0,0,0-.286-.144l-.086-.016-.014.121a.958.958,0,0,0,0,.146c.006.055.013.106.021.147a.687.687,0,0,1,.032.348.7.7,0,0,1-.1.262l.493-.018.224-.011.392-.027.44-.039-.008-.16a.286.286,0,0,1,.26-.3l9.026-.806.061-.068.169-.183.229-.23.286-.265a8.111,8.111,0,0,1,1.62-1.136.926.926,0,0,0-.7-.639.887.887,0,0,1-.774-.458.947.947,0,0,1,.047-.8c.027-.057-.018-.094-.076-.117l-.045-.015a.89.89,0,0,1-.419-.247.629.629,0,0,1-.519.277,2.235,2.235,0,0,1-.574-.089l-.348-.1-.519-.156-.294-.078a.606.606,0,0,1-.419-.181,2.609,2.609,0,0,1-.306-.358Zm-64.806-11.55-1.925,6.474,7.488,10.815c.052-.3.107-.639.139-.933.013-.111.023-.215.027-.305l0-.163-.006-.054a.438.438,0,0,1,0-.322.448.448,0,0,1,.2-.219,1.072,1.072,0,0,1,.309-.1l.17-.034.093-.023.1-.127.4-.528.069-.082a.268.268,0,0,1,.351-.043.278.278,0,0,1,.144.226v.039l-.014.136-.042.261-.018.164a2.053,2.053,0,0,0,.137-.516c.019-.123.031-.255.038-.38l.011-.329V265.6l-.008-.063.01-.083,2.3-11.477-4.861-.958-.038-.012-.677-.118-.822-.17-.636-.144-.746-.181-.861-.219Zm37.526,10.143-5.565-.245-.044.7-.395,5.608,13.834.649.01-.078.014-1.569v-1l-.009-.881-.013-.517c0-.159-.01-.3-.018-.424l-.1-.125c-.016-.018-.032-.035-.048-.049l-.344-.313a2.635,2.635,0,0,1-.317-.333.545.545,0,0,1-.131-.359.442.442,0,0,1,.156-.314l.071-.055.115-.079.048-.037a1.278,1.278,0,0,0-.188-.136,3.037,3.037,0,0,0-.373-.167l-.2-.069-1.071-.015-2.482-.074Zm20.02-6.076-3.913.177a1.263,1.263,0,0,1,.346.88,1.554,1.554,0,0,1-.392,1.037,1.658,1.658,0,0,1-.707.405l-.255.08c-.041.013-.08.028-.117.042a.347.347,0,0,0-.159.1c-.046.062-.022.134,0,.209.046.157.128.32.182.474a.709.709,0,0,1-.111.795l-.093.079a1.719,1.719,0,0,0-.474.579l0,.01a1.606,1.606,0,0,0,.551,2.086l.141.086a2.157,2.157,0,0,1,.753.868l.126.237.653.231a.286.286,0,0,1,.2.256l-.006.079-.106.531-.116.625c-.018.108.062.207.157.313a3.082,3.082,0,0,0,.567.468l.162.107.312.191.37.224c.031.02.058.038.081.054a.515.515,0,0,1,.152.166l.02.049.067.294.058.218c.011.039.023.078.035.118l.039.118c.021.062.043.122.067.178a.534.534,0,0,1,.207-.211.856.856,0,0,1,.821.1l.139.081a1.047,1.047,0,0,0,.125.065l-.016-.13-.048-.2-.015-.048a.282.282,0,0,1,.044-.234.288.288,0,0,1,.206-.121l.113-.011.065-.013.144-.042a2.8,2.8,0,0,1,.011-.517,7.393,7.393,0,0,1,.349-1.612l.071-.169a2.676,2.676,0,0,0,.242-1.4l-.03-.185a1.185,1.185,0,0,1,.2-.988l-.36-5.241a2.378,2.378,0,0,1-.855-1.5Zm-38.408,2.1-1.27,8.788.52.088.793.123.8.114.8.106.8.1,1.191.131,1.165.116,1.491.129,1.053.08,1.881.123,1.272.068L202.8,268l.383-5.427.167-2.616.024-.537-2.591-.311Zm-8.6-3.9-2.248,11.225,8.99,1.556,1.3-8.954-2.89-.38a.265.265,0,0,1-.207-.146l-.024-.054-.013-.069-.029-.328-.027-.347-.024-.2a2.2,2.2,0,0,1-.029-.414.745.745,0,0,1,.251-.51.532.532,0,0,0,.137-.3l.011-.068,0-.131-1.073-.175Zm61.15,6.39a6.875,6.875,0,0,1-.317.906.7.7,0,0,1-.471.4.548.548,0,0,0-.509.351.912.912,0,0,0-.061.226l-.017.11a1.473,1.473,0,0,1-.068.294.558.558,0,0,1-.2.264.538.538,0,0,1-.247.1l-.109.006a.243.243,0,0,0-.175.048.443.443,0,0,0-.1.33.715.715,0,0,1-.2.5l-.141.166a1.184,1.184,0,0,0-.192.393l-.044.108a.391.391,0,0,0-.048.318c.031.068.109.1.225.123l.094.013a1.47,1.47,0,0,1,1.2,1.065l.027.048.037.133c0,.011.009.022.011.03l.166-.033a1.445,1.445,0,0,1,.57-.071l.144.033a.7.7,0,0,0,.581-.109l.333-.189a2.645,2.645,0,0,1,.35-.17l.186-.06a.491.491,0,0,0,.272-.137.566.566,0,0,0,.1-.248l.087-.415.091-.35a7.5,7.5,0,0,1,.491-1.33,1.238,1.238,0,0,1,.3-.394.471.471,0,0,1,.237-.1.64.64,0,0,1,.336.058,1.126,1.126,0,0,1,.653-.815c.1-.052.2-.1.283-.149a.242.242,0,0,0,.132-.179.806.806,0,0,1,.2-.46.944.944,0,0,1,.532-.262l.3-.053.1-.024a.131.131,0,0,0,.073-.054.216.216,0,0,0,.028-.1l-.174.042a2.659,2.659,0,0,1-.553.111,3.171,3.171,0,0,0-1.45.525l-.226.152-.093.069-.142.111-.086.072a.286.286,0,0,1-.3.05.283.283,0,0,1-.172-.253l-.035-1.035-1.653.286a.282.282,0,0,1-.216-.049.3.3,0,0,1-.116-.189Zm-8.567-3.319L232,257.23a1,1,0,0,1-.715.459,1.188,1.188,0,0,1-.442-.023l.344,5.034a.291.291,0,0,1-.046.176l-.045.053a.622.622,0,0,0-.13.56,3.193,3.193,0,0,1-.156,1.713l-.1.233a3.085,3.085,0,0,0-.177.521,1.174,1.174,0,0,1,.264-.075.727.727,0,0,1,.62.177.338.338,0,0,0,.162.067h.05l.13-.2a.688.688,0,0,1,.056-.072.486.486,0,0,1,.257-.162.769.769,0,0,1,.462.068l.042-.06a1.565,1.565,0,0,1,.115-.158.633.633,0,0,1,.328-.2.7.7,0,0,1,.356.014l.112.038a.341.341,0,0,0,.492-.114c.078-.092.148-.194.227-.282a1.215,1.215,0,0,0,.28-.562l.021-.092a1.418,1.418,0,0,1,.081-.28.443.443,0,0,1,.211-.221.45.45,0,0,1,.22-.041l.1.013a.465.465,0,0,0,.408-.041.411.411,0,0,0,.119-.243,1.114,1.114,0,0,0,.019-.185l0-.138-.006-.029Zm7.887-1.45a1.71,1.71,0,0,0-.615.358,5.449,5.449,0,0,1-1.358.968l-.158.045-.353.076a1.227,1.227,0,0,0-.258.075l-.068.042a1.066,1.066,0,0,1-.429.148,3.859,3.859,0,0,1-1.314-.015.906.906,0,0,1-.419-.2.471.471,0,0,1-.1-.138l-2.243.075.649,5.7.586-.046a.285.285,0,0,1,.251.113l.067.1.1.134q.029.036.06.071l.049.052.089.083a2.064,2.064,0,0,1,.435.092l.5.158.345.1a1.576,1.576,0,0,0,.42.066.111.111,0,0,0,.1-.072l.053-.112a.43.43,0,0,1,.13-.171.311.311,0,0,1,.2-.066.36.36,0,0,1,.232.092c.075.065.134.13.2.192a.406.406,0,0,0,.2.127.862.862,0,0,1,.249.11l.065-.084.144-.163a.194.194,0,0,0,.038-.116,1,1,0,0,1,.285-.747.755.755,0,0,1,.429-.19l.147-.007.011-.035.02-.1a2.013,2.013,0,0,1,.127-.523,1.025,1.025,0,0,1,.923-.679l.043-.051a.979.979,0,0,0,.089-.176l.063-.169.167-.529a1.827,1.827,0,0,1,.11-.28,1.065,1.065,0,0,0,.06-.362l.013-.27,0-.3,0-.3-.028-.659Zm-40.749-1.25-1.29-.127-.419,4.163,3.253.392.068.011.049.015.051.027a.269.269,0,0,1,.123.176l.009.144-.008.317-.076,1.33c0,.08-.01.162-.015.245l5.691.25,3.938.146,1.079.03.916.019-.384-.808c-.1-.2-.182-.392-.23-.524a3.552,3.552,0,0,1-.141-.654l-.108-.829a6.036,6.036,0,0,0-.148-.776l-.244-.841-.224-.747a1.481,1.481,0,0,1-.3-.193l-.1-.081a4.231,4.231,0,0,0-1.154-.739.791.791,0,0,0-.383-.07l-.392.088a2,2,0,0,1-.3.038.775.775,0,0,1-.82-.5.58.58,0,0,0-.367-.1,11.43,11.43,0,0,1-1.273.046l-.648-.012-.7-.027-1.126-.06-1.161-.078-1.143-.089Zm51.143,4.6.489,2.495.625-.068-.064-.082a4.589,4.589,0,0,1-.673-1.458.627.627,0,0,1,.01-.239,2.327,2.327,0,0,1-.387-.649Zm-38.924-5.233-.041.049a.379.379,0,0,0-.056.305,1.589,1.589,0,0,1-.016.619l-.051.269-.025.182a.054.054,0,0,0,.008.03l.054.085.127.23a1.637,1.637,0,0,1,.176.461v.057l.462,1.557c.017.063.034.123.05.178a5.841,5.841,0,0,1,.143.762l.1.813a3.376,3.376,0,0,0,.136.641l.043.109,7.386-.013a.287.287,0,0,1,.211.093l.179.2a2.288,2.288,0,0,1,.621-.746c.061-.045.036-.109.017-.176l-.042-.119-.1-.246a.9.9,0,0,1,.023-.89,1.148,1.148,0,0,1,.616-.366l.241-.074a.962.962,0,0,0,.454-.271,1.057,1.057,0,0,0,.211-.65.9.9,0,0,0-.4-.667,4.288,4.288,0,0,0-.618-.431l-.494-.281a.681.681,0,0,1-.069-.045.537.537,0,0,1-.151-.178,1.865,1.865,0,0,1-.162-.479,8.956,8.956,0,0,1-.153-1l-1,.066-.989.05-.875.032-.636.016-1.013.012h-.351l-.716-.006-.731-.017c-.246-.008-.492-.016-.739-.029l-.739-.042c-.369-.024-.736-.054-1.1-.09Zm38.249.366-.331.02-.187.017-.551.066-.646.088-1.091.161-1.56.247-2.374.4-1.4.244a.287.287,0,0,1-.335-.261l-.022-.315-.684.576.241,1.9.452,2.985,8.475-1.465.152-.14a2.375,2.375,0,0,1,.31-.232.8.8,0,0,1,.428-.135l.067-.036a.42.42,0,0,0,.04-.026,1.443,1.443,0,0,0,.3-.3l.036-.055.059-.111-.1-.086-.055-.044-.334-.241a3.172,3.172,0,0,1-.312-.257.7.7,0,0,1-.254-.6c.012-.068.035-.16.065-.269l.107-.363c.061-.194.13-.4.2-.584l.067-.175c.019-.046.037-.088.055-.129a2.239,2.239,0,0,1-.28-.108.948.948,0,0,1-.462-.452.88.88,0,0,1-.073-.315Zm1.36,1.06-.069.156-.06.157-.122.347-.11.349c-.05.167-.089.313-.109.411l.048.068a1.988,1.988,0,0,0,.293.25l.28.2c.089.065.171.126.234.182a.741.741,0,0,1,.176.216.468.468,0,0,1,.038.271,1.077,1.077,0,0,1-.217.465,1.919,1.919,0,0,1-.555.5,1.459,1.459,0,0,0,.378.58l.108.078.087.039a1.636,1.636,0,0,1,.507.334.942.942,0,0,0,.089-.1,2.133,2.133,0,0,0,.439-.965,2.642,2.642,0,0,1,.184-.913l.083-.189a.335.335,0,0,0-.008-.221.675.675,0,0,0-.277-.364l-.12-.064a.589.589,0,0,1-.4-.45.686.686,0,0,1,.283-.617l-.031-.038a1.779,1.779,0,0,0-.361-.292,5.343,5.343,0,0,0-.79-.4Zm-19.583-7.3.039.119a.5.5,0,0,1-.193.615l-.107.055-.245.116a.6.6,0,0,0-.133.086.073.073,0,0,0-.03.06,1.075,1.075,0,0,1-.285.814.4.4,0,0,1-.394.083.474.474,0,0,1-.245-.2.717.717,0,0,0-.108.079.892.892,0,0,0-.278.616,6.507,6.507,0,0,1-.06,1.236l-.041.214-.063.252a.782.782,0,0,0-.038.389.572.572,0,0,0,.065.164l.158.31.073.167.069.191a5.235,5.235,0,0,1-.3,3.346l2.9-.073,2.654-.1c.029-.166.065-.326.1-.48l.11-.431a4.569,4.569,0,0,1,.4-.86l.359-.623a.791.791,0,0,0,.061-.358,2.128,2.128,0,0,0-.087-.638l-.05-.135a2.635,2.635,0,0,1-.092-.275l-.155-.564c-.038-.132-.08-.264-.127-.385a1.371,1.371,0,0,0-.15-.3l-.042-.055a.053.053,0,0,0-.025-.013.142.142,0,0,0-.143.05l-.245.289a1.671,1.671,0,0,1-.487.39,1.978,1.978,0,0,1-.761.184.6.6,0,0,1-.418-.151.463.463,0,0,1-.111-.469,1.731,1.731,0,0,1,.351-.619l.118-.143a2.359,2.359,0,0,0,.4-.62.639.639,0,0,0,.058-.391l-.045-.151-.122-.347c-.021-.06-.041-.121-.06-.181a1.763,1.763,0,0,1-.088-.491l-.056-.057a1.561,1.561,0,0,0-.2-.147,4.212,4.212,0,0,0-.967-.427l-.122-.025-.318-.054-.353-.047-.167-.016Zm19.639-1.587-1.1.3-.237.069-.079.025a1.666,1.666,0,0,1-.47.059l-.261,0-.089.006c-.037,0-.072,0-.094.018l-.163.15-.814.817-.034.6a.286.286,0,0,1-.112.211l-.169.119-.16.125-.164.144-.093.1.1.135c.02.027.041.051.059.072a3.3,3.3,0,0,1,.26.319.668.668,0,0,1,.115.309.725.725,0,0,1-.249.514,3.016,3.016,0,0,1-.245.221l-.4.324c-.04.034-.076.067-.108.1l-.081.087a.544.544,0,0,1-.216.153,1.647,1.647,0,0,1-.31.088l-.28.048c-.178.025-.381.046-.59.066l-.633.059-.3.031a2.562,2.562,0,0,0-.638.123c-.245.115-.511.253-.716.362l.013.015a1.039,1.039,0,0,1,.269.757.954.954,0,0,1-.347.618l-.881.757-.16.136.029.416,2.425-.414,1.841-.3,1.1-.17,1.012-.146.591-.078.5-.057.39-.032.148-.006a1.1,1.1,0,0,1,.251.017.365.365,0,0,1,.156.077.28.28,0,0,1,.1.23l-.009.065a.44.44,0,0,0,0,.266.4.4,0,0,0,.227.2l.123.049.346.1.226.089.263.113a4.666,4.666,0,0,1,.937.543,1.345,1.345,0,0,1,.418.524l-.035-.007a1.01,1.01,0,0,0,.269.028l.26,0,.286-.012.272-.021a1.744,1.744,0,0,0,.371-.062,1.772,1.772,0,0,0,.557-.363l-.123.057a3.473,3.473,0,0,1-1.109.289l-.2.012h-.213l-.038,0a.38.38,0,0,1-.331-.294v-.1l-.342-2.464,0-.046,0-.03.029-1.377a2.269,2.269,0,0,0-.123-.913l-.079-.193a.871.871,0,0,1-.048-.144l-.01-.062a.557.557,0,0,0-.249-.41l-.118-.091a.473.473,0,0,1-.191-.427.692.692,0,0,0-.035-.229,3.261,3.261,0,0,0-.2-.527.756.756,0,0,1-.02-.484l.082-.3a.46.46,0,0,0-.051-.419,1.8,1.8,0,0,1-.322-.922Zm-30.462-.232-.526.24a2.019,2.019,0,0,1-.618.19,1.564,1.564,0,0,1-.579-.072c-.016.177-.04.388-.069.572a1.717,1.717,0,0,1-.134.495.787.787,0,0,1-.158.187l-.092.079-.343.265a1.837,1.837,0,0,0-.2.181l-.067.094a.113.113,0,0,0,.048.057l.162.11a.574.574,0,0,1,.243.537.7.7,0,0,1-.114.38l-.029.038-.067.077a.54.54,0,0,0-.1.315l-.016.259a.635.635,0,0,0,.236.6,1.563,1.563,0,0,0,.468.238l.357.133a1.1,1.1,0,0,1,.584.45.488.488,0,0,0,.142.136c.159.122.366.249.548.384a1.162,1.162,0,0,1,.506.68c.022.159.033.3.039.42l0,.2c0,.028,0,.052,0,.074l.034.366.042.348c.026.184.056.374.094.54l.049.167.063.168.158.1.363.206.285.176,4.013-.172.485-.027-.009-.263a2.706,2.706,0,0,0-.148-.7,1.825,1.825,0,0,1,.015-.672l.035-.206.089-.443.1-.439.14-.533.054-.2.072-.37.159-.9.037-.2-.424.512c-.046.054-.091.108-.136.16l-.253.285a3.707,3.707,0,0,1-.3.3.549.549,0,0,1-.271.137.305.305,0,0,1-.182-.037.319.319,0,0,1-.147-.39,6.841,6.841,0,0,1,.769-1.855l.066-.11.025-.073a.714.714,0,0,0-.052-.718,3.275,3.275,0,0,0-.556-.628,1.275,1.275,0,0,0-.863-.4l-.456-.027a3.191,3.191,0,0,1-.972-.2l-.436-.183-.265-.1-.915-.318a.308.308,0,0,1-.086-.046,1.214,1.214,0,0,1-.43-.016.626.626,0,0,1-.388-.266.551.551,0,0,1-.083-.307Zm-22.02,1.373-.638,6.26,2.2.212,1.8.151,1.146.083.758.048.734.037.7.027.64.012a11.17,11.17,0,0,0,1.257-.045.926.926,0,0,1,.959.449.246.246,0,0,0,.276.149,1.629,1.629,0,0,0,.325-.049l.279-.066a1.34,1.34,0,0,1,.688.1,4.127,4.127,0,0,1,.958.55,1.125,1.125,0,0,1,0-.437l.056-.268a.946.946,0,0,0,.019-.4.939.939,0,0,1,.194-.829l.065-3.975a1.848,1.848,0,0,1-.4-.237.857.857,0,0,1-.363-.715,1.333,1.333,0,0,1,.11-.465Zm56.726,5.094-2.3.521.239,1.747.2-.125.118-.069.553-.308.505-.27.267-.133.226-.1.2-.078.089-.031.169-.049.083-.02Zm-69.8-3.6a1.555,1.555,0,0,0-.95-.187l-.167.008-.313.025-.375.037-.089.006h-.067a2.57,2.57,0,0,0-.273,0l-.543.024c-.118,0-.224.006-.3,0a.458.458,0,0,1-.335-.138l-.052-.089-.087-.169-.156-.341c-.017-.041-.034-.081-.05-.121a2.978,2.978,0,0,1-.158-.477l-.01-.071a.729.729,0,0,0-.039-.171l-.114-.341a1.448,1.448,0,0,1-.088-.462l.023-.282a2.959,2.959,0,0,0,0-.4l-.011-.1-.029-.124-.11,0a.552.552,0,0,0-.06.007l-.164.031-.46.106a.983.983,0,0,1-.111.015.384.384,0,0,1-.322-.12.315.315,0,0,1-.075-.231,3.483,3.483,0,0,1,.418-1.33l.286-.538c.033-.062.063-.121.089-.175l.032-.078a.559.559,0,0,0,.021-.064,11.107,11.107,0,0,1-1.493-1.757,1.839,1.839,0,0,1-.325-.671,2.888,2.888,0,0,0-.043-.3l-.2-1.018c-.011-.063-.021-.122-.029-.176a3.041,3.041,0,0,1,.023-.567l.049-.408.062-.436.154-.956-.781-.17-.31.967-.206.682-.183.636-.161.591-.14.546-.174.736-.136.639-.071.373-.1.619-.049.358-.022.188h.009l.022.114.044.154a3.17,3.17,0,0,0,.284.618.851.851,0,0,1,.077.661,2.411,2.411,0,0,1-.512.869l-.206.234-.645.677c-.067.071-.129.141-.186.208a1.958,1.958,0,0,0-.2.273l-.042.081a.1.1,0,0,0-.008.036.277.277,0,0,0,.064.155,1.049,1.049,0,0,1,.1.738l-.033.21-.055.258-.08.312c-.016.057-.032.117-.05.179l-.125.405-.157.477a9.589,9.589,0,0,0-.264.976l-.106.516-.088.488-.068.428-.048.332,4.81.946,5.313.9.505-2.492.124-.638.115-.631.1-.6.079-.524.009-.12.006-.183Zm70.769,3.326-.419.12.338,1.047.215-.107.216-.119Zm-42.376-11.783-.037.256a.269.269,0,0,1-.064.172.264.264,0,0,1-.163.1l-.292.018-.558.012-.587,0-.743,0-.894-.015.071-.1a1.388,1.388,0,0,0-.154,1.335l.212.791a3.862,3.862,0,0,1,.151,1.1l0,.348a6.5,6.5,0,0,0,.21,1.648l.072.2a2.3,2.3,0,0,1,.142,1.2l-.029.169-.037.148a.286.286,0,0,1-.151.172l.009-.01a.7.7,0,0,0-.241.5.3.3,0,0,0,.15.236,1.269,1.269,0,0,0,.265.161l.139.057.056.019a.285.285,0,0,1,.153.258l-.065,3.943.512.046.716.051.72.037.717.024.708.014.694,0,1-.01.93-.023,1.1-.044,1.077-.06.565-.04a4,4,0,0,0-.036-.431.31.31,0,0,0-.107-.15,1.669,1.669,0,0,0-.207-.172l-.442-.307c-.05-.036-.1-.072-.141-.108a.9.9,0,0,1-.249-.3.144.144,0,0,0-.064-.056l-.146-.076-.231-.1a3,3,0,0,1-.827-.406c-.427-.37-.465-.642-.416-1.332a1.1,1.1,0,0,1,.136-.5l.069-.1.033-.04a.211.211,0,0,0,.07-.155c0-.052-.034-.067-.065-.086-.053-.036-.109-.072-.161-.115a.63.63,0,0,1-.223-.391.677.677,0,0,1,.213-.563,2.429,2.429,0,0,1,.265-.238l.287-.222a.722.722,0,0,0,.166-.146.437.437,0,0,0,.038-.123l.032-.183.036-.273.029-.27.033-.407a.308.308,0,0,1,.1-.209l2.159-1.876.427-.363.091-.071.126-.069.333-.17.26-.141.17-.1c-.119-.015-.249-.026-.374-.032l-.338-.01h-.211l-.042-.006-.052-.02a1.244,1.244,0,0,0-.325-.062.554.554,0,0,0-.214.029l-.065.036a.509.509,0,0,1-.292.09,1.921,1.921,0,0,1-.638-.143,10.124,10.124,0,0,1-1.432-.705l-.281-.173-.107-.077-.041-.033-.108-.007-.144,0-.279.014-.657.063h-.054l-.186-.023-.264-.045-.306-.061-.317-.071-.295-.075-.21-.063-.152-.056a.525.525,0,0,1-.144-.089l-.055-.067-.086-.125-.05-.08-.287-.495c-.035-.061-.069-.124-.1-.186Zm42.887,9.515a3.937,3.937,0,0,1-1.368.844,8.806,8.806,0,0,1-1.607.434l-.544.089-.267.04v.04l-.007.041-.019,1,2.38-.543,1.015-.293a.285.285,0,0,1,.347.175l.206.551a.483.483,0,0,1,.16-.029.534.534,0,0,1,.294.08l.068.046.1.083.059-.039a2.006,2.006,0,0,1,1.33-.367l.077.012a.245.245,0,0,0,.3-.221.422.422,0,0,0,0-.078.952.952,0,0,1-.184.134,1.368,1.368,0,0,1-1.185,0l-.178-.071a2.4,2.4,0,0,1-.545-.308.792.792,0,0,1-.313-.523.9.9,0,0,1,.062-.388l.089-.216.032-.09a.1.1,0,0,0,0-.09l-.07-.088-.169-.153Zm-90.727-9.481a.841.841,0,0,1-.382.106l-.216.011-.113.019-.069.185-.123.3-.263.608-1.033,2.315-.684,1.5-.03.14a2.79,2.79,0,0,1-.221.6,1.517,1.517,0,0,1-.674.7.252.252,0,0,0-.12.155,1.462,1.462,0,0,0-.083.429c-.029.378-.007.816-.017,1.2l-.017.27,1.3.423,1.288.412,1.2.372,1.8.539.964.277.879.245,1.047.279,1.113.28,1.061.246.55.115.677.127.057-.387.082-.494a13.9,13.9,0,0,1,.455-1.935l.146-.439.116-.37.123-.442.053-.228.033-.184c0-.028.008-.052.01-.077l.009-.128c0-.019,0-.036,0-.052l-.01-.087c0-.013-.006-.025-.009-.036l-.033-.087-.04-.073a.668.668,0,0,1-.087-.343.914.914,0,0,1,.181-.5,4.248,4.248,0,0,1,.42-.505l.54-.566a4,4,0,0,0,.588-.747c.088-.162.147-.311.071-.442a4.3,4.3,0,0,1-.274-.55l-.442-.081-.426-.088-.269-.063c-.082-.022-.155-.042-.213-.062l-.074-.029a2.168,2.168,0,0,0-.375-.093l-.383-.066-.619-.089-.59-.074-.217-.014-.548-.015-1.115-.008-.532,0-.119,0a3.022,3.022,0,0,1-1.07-.175,1.212,1.212,0,0,1-.559-.38l-.18-.034-.19-.026-.1-.007-.2,0-.614-.008a2.513,2.513,0,0,1-.632-.066.727.727,0,0,1-.489-.559c-.067-.255-.039-.584-.087-.834a.837.837,0,0,0-.134-.288ZM257,245.6l-.041.016c-.187.069-.435.142-.7.212l-.552.138-.537.123-.62.133a1.388,1.388,0,0,0,.144.59l.079.126a1.036,1.036,0,0,1,.134.935l-.068.248-.01.045-.01.071a2.742,2.742,0,0,1,.293,1l.148.126a1.065,1.065,0,0,1,.409.755l.009.032.039.082.079.2a2.282,2.282,0,0,1,.108.454l.292-.043.364-.059-.029-.294a7.942,7.942,0,0,1,.026-1.786,10.088,10.088,0,0,0-.084-1.164.84.84,0,0,1,.459-.832c.106-.049.168-.09.188-.151a.257.257,0,0,0,0-.137l-.015-.071a3.043,3.043,0,0,1-.068-.374Zm.66-.711.037-.046a1.2,1.2,0,0,0-.184.294l.052.391.029.266c0,.045.009.09.012.134l.022.147.058.281a.769.769,0,0,1-.067.473.891.891,0,0,1-.446.394.227.227,0,0,0-.121.186,1.263,1.263,0,0,0,0,.307,5.249,5.249,0,0,1,.069,1.073,6.4,6.4,0,0,0-.052,1.167l.024.4.029.313a7.432,7.432,0,0,0,1.018-.307,2.764,2.764,0,0,0,1.458-1.085,3.346,3.346,0,0,1-.922-1.25,13.431,13.431,0,0,1-.774-2.178l-.141-.543Zm-75.112-7.81-.131.767-.081.544-.039.309-.025.267a1.541,1.541,0,0,0,0,.277l.065.378.128.638c.04.2.072.386.082.5l.076.146.1.169c.018.03.037.059.056.088a9.935,9.935,0,0,0,1.436,1.679c.171.145.216.4.058.755l-.071.147-.291.531a3.563,3.563,0,0,0-.343.869l.294-.063a2.72,2.72,0,0,1,.274-.041.656.656,0,0,1,.483.12.805.805,0,0,1,.226.474,2.6,2.6,0,0,1,.024.46l-.014.28-.015.19a.466.466,0,0,0,.029.153l.069.2a4.426,4.426,0,0,1,.133.465l.01.081a.441.441,0,0,0,.028.111l.062.161.093.222.17.367.648-.02c.123,0,.24,0,.329,0l.112,0a1.053,1.053,0,0,0,.163-.007l.395-.041a4.81,4.81,0,0,1,.675-.027,2.212,2.212,0,0,1,.768.156l.048-.561a.335.335,0,0,1,.114-.2.307.307,0,0,1,.149-.056l.041,0,2.361.4.779.123,1.291.191.81.113,1.056.139c.553.069,1.119.136,1.688.2l1.513.146.93.07.857.05.62.024.893-8.786-1.337-.154-1.386-.171-1.436-.189-1.483-.208-1.531-.227-1.577-.247-1.622-.269q-.821-.14-1.665-.291l-1.709-.314q-2.6-.49-5.377-1.089Zm78.61,1.816a2.3,2.3,0,0,1-.461.336,1.065,1.065,0,0,1-1.2-.073,1.1,1.1,0,0,0-.167.2,2.1,2.1,0,0,0-.275,1.081l.007.727.028,1.242.031,1.021,0,.14-.017.143a1.015,1.015,0,0,1-.917.9l.1.437.1.387.118.44.141.475a10.989,10.989,0,0,0,.55,1.437,2.927,2.927,0,0,0,.671.988l.153-.322a3.45,3.45,0,0,0,.247-.68l.012-.092a.574.574,0,0,1,.153-.382.617.617,0,0,1,.314-.169l.115-.021.271-.032c.1-.009.161-.1.226-.184a3.021,3.021,0,0,0,.245-.421.774.774,0,0,1,.522-.336c.083-.019.17-.034.255-.049l-.1-.091a1.469,1.469,0,0,1-.235-.281.418.418,0,0,1,0-.465.671.671,0,0,1,.805-.262c.119.029.24.075.356.109a.657.657,0,0,0,.106.026l.047,0,.435-.451a3.1,3.1,0,0,1,.835-.662l.27-.123c.024-.011.045-.023.064-.034a1.056,1.056,0,0,1-.352-.617l-.182.023c-.383.04-.741-.045-.831-.433l-.018-.113a1.249,1.249,0,0,0-.026-.163l-.03-.108-.123,0-.06-.007a.452.452,0,0,1-.382-.311l-.064-.2-.15-.409-.282-.736-.139-.384c-.022-.063-.042-.124-.062-.184a2.84,2.84,0,0,1-.167-.759l-.006-.021-.032-.04a.919.919,0,0,0-.2-.17,3.531,3.531,0,0,0-.692-.319Zm-33.3,5.952-1.09.7-.051.027-.322.131-.273.117-.3.138-.295.148-.19.106a1.041,1.041,0,0,0-.142.1l-.055.057.363.128.359.133c.055.022.108.042.154.062l.125.053a2.527,2.527,0,0,0,.888.234l.439.025a1.833,1.833,0,0,1,1.355.57l.256.252a2.748,2.748,0,0,1,.391.49,1.729,1.729,0,0,1,.12.242,6.423,6.423,0,0,1,.552-.624,1.86,1.86,0,0,1,.864-.56.871.871,0,0,1,.306.01l.472-.218.324-.158.242-.127.171-.1.118-.078.108-.087.069-.066.024-.02a.717.717,0,0,1,.438-.1,2.326,2.326,0,0,1,.708.148.878.878,0,0,1,.219.126l.19-.134a.558.558,0,0,1,.348-.089l.186.015.1.012c-.062-.12-.137-.261-.2-.347l-.035-.014-.073-.013-.13-.01-.276,0a.93.93,0,0,1-.677-.236,1.5,1.5,0,0,1-.26-.378,9.764,9.764,0,0,0-1.255.272l-.212.066a1.172,1.172,0,0,0-.42.188,1.049,1.049,0,0,1-.486.272,2.887,2.887,0,0,1-.879.1,1.894,1.894,0,0,1-.54-.09.71.71,0,0,1-.305-.192.178.178,0,0,0-.076-.043l-.054-.02a2.9,2.9,0,0,0-.565-.128l-.106-.012-.218-.014-.271,0-.087,0a.274.274,0,0,1-.232.01l-.038-.018a.286.286,0,0,1-.14-.344.772.772,0,0,1,.034-.1l.069-.146.11-.2ZM202.238,240.3l-.675,6.626,12.06.6a1.762,1.762,0,0,0-.048-.761l-.054-.148a7.066,7.066,0,0,1-.324-2.44,3.446,3.446,0,0,0-.147-1.006l-.138-.487c-.022-.08-.044-.159-.063-.238a2.277,2.277,0,0,1,0-1.387l-1.062-.037-1.189-.053-1.313-.072-.943-.061-1.512-.11-1.072-.088-1.124-.1-1.172-.113Zm-30.081-5.754-.028.1a.579.579,0,0,1,.134.171,1.061,1.061,0,0,1,.091.653.454.454,0,0,1-.134.236l.083.276a3.17,3.17,0,0,1,.1.441.593.593,0,0,1-.143.521l-.446.422c-.117.108-.242.217-.357.308a1.55,1.55,0,0,1-.418.257.376.376,0,0,1-.306-.018.328.328,0,0,1-.167-.213.756.756,0,0,1,.06-.442l.161-.395.146-.323-.116-.086-.726-.47-.5-.334c-.163-.111-.317-.219-.448-.315l-.206-.159c-.061-.049-.111-.093-.152-.131l-.085.108a.724.724,0,0,0-.138.375l.006.049.041,1.033.009.373v.526a3.16,3.16,0,0,1-.037.489,1.018,1.018,0,0,0,.074.522l.049.133.126.33a.528.528,0,0,1,.021.077.339.339,0,0,1-.041.251.343.343,0,0,1-.171.145.711.711,0,0,1-.173.042l-.092.011a.128.128,0,0,0-.044.019l-.011.012.1.022c.1.017.217.033.318.059a.874.874,0,0,1,.233.1l.108.084.159.171.153.184a1.861,1.861,0,0,1,.381.71c.04.207.028.47.06.7l.023.128a.167.167,0,0,0,.11.128.8.8,0,0,0,.2.033l.266.009.551,0c.187,0,.368.007.524.022a1.444,1.444,0,0,1,.408.089.53.53,0,0,1,.247.2.613.613,0,0,0,.3.18,2.381,2.381,0,0,0,.85.139l.466-.006,1.382.01.332.008.265.01.172.012.575.076.615.092.4.069c.187.034.348.069.454.1l.087.03a2.525,2.525,0,0,0,.369.106l.337.069.323.06.048-.405.061-.413.088-.508.121-.605.1-.459.118-.5.138-.548.159-.593.18-.639.2-.685.23-.733c.04-.127.082-.254.125-.384q-4.073-.923-8.491-2.111Z" transform="translate(0)" fill-rule="evenodd"/>
    <path id="Path_4" data-name="Path 4" d="M519.805,342.85a1.73,1.73,0,1,1-1.731,1.73A1.73,1.73,0,0,1,519.805,342.85Zm0,.577a1.154,1.154,0,1,0,1.153,1.153A1.153,1.153,0,0,0,519.805,343.427Z" transform="translate(-268.661 -82.397)"/>
    <path id="Path_5" data-name="Path 5" d="M521.763,346.945l-.678.357.129-.756-.549-.535.758-.11.339-.687.34.687.757.11-.548.535.129.756Z" transform="translate(-270.621 -84.185)" fill-rule="evenodd"/>
    <path id="Path_6" data-name="Path 6" d="M411.842,486.292c.01.012.015.013.018,0l-.008-.166a.889.889,0,0,0-.081-.361.479.479,0,0,0-.3-.25l-.166-.049c-.029-.008-.037-.011,0,.054l-.025-.045-.075-.1-.084-.1.127-.052a4.141,4.141,0,0,0,.616-.37c.157-.051.251-.254.251-.511a.867.867,0,0,0-.024-.207l-.055-.187.14-.041a2.089,2.089,0,0,1,.4-.069l.108,0a5,5,0,0,1,1.07.336.785.785,0,0,0,.579.015l.178-.046a.629.629,0,0,1,.323-.042l.071.031a1.16,1.16,0,0,0,1.174.03,3.878,3.878,0,0,1,1.707.228c.265.093.465.049.56-.153l.044-.127.029-.02a1.075,1.075,0,0,1,.372,0l.321.039c.059.008.119.017.18.027l.379.065.19.036.361.077c.17.04.32.08.432.118l.1.037a1.282,1.282,0,0,0,.588.106l.13-.009.122-.022.561-.169a4.025,4.025,0,0,1,1.915.675l.143.07a1.789,1.789,0,0,0,.941.179l.256-.019-.043.184-.037.175a1.451,1.451,0,0,0,.028.745l.027.073-.168.058-.327.093c-.118.032-.243.063-.362.089l-.171.034c-.173.032-.292.133-.463.4l-.139.229-.463.831-.08.13-.063.089-.029.034a.548.548,0,0,1-.377.1l-.185-.006-.456-.055-.109,0a.152.152,0,0,0-.058.014l-.2.1a.253.253,0,0,1-.134.046l-.035-.007a1.178,1.178,0,0,0-.775.131l-.27.123-.368.177c.038-.015.016-.046-.04-.1l-.2-.161a1.263,1.263,0,0,0-.524-.324.591.591,0,0,0-.56.166l-.168.152-.141-.143a1.2,1.2,0,0,0-.579-.31,1.693,1.693,0,0,0-.691.027c-.092.019-.187.043-.288.072l-.272.085-.307.1a.115.115,0,0,1-.051,0l-.064-.018-.126-.058-.085-.043a1.527,1.527,0,0,0-.442-.166.676.676,0,0,0-.7.181l-.1.125H414.8l-.231.088-.648.216-.065.025c-.094.038-.218-.023-.412-.2a1.178,1.178,0,0,0-.853-.241l-.119.011a.669.669,0,0,0-.38.243l-.031.035-.029-.007a.824.824,0,0,0-.253.006l-.23.036a.312.312,0,0,1-.127,0c.009,0,.014-.033.019-.088l.014-.358a.125.125,0,0,1,0-.03.486.486,0,0,0,.1-.395l-.03-.239.028-.021c.169-.139.243-.228.243-.417l0-.076c0-.1,0-.125.034-.158l.035-.029a.449.449,0,0,0,.2-.46.431.431,0,0,0-.114-.214Zm-.619.872v.142l0-.012-.01,0-.038.03a.458.458,0,0,0-.224.39v.041l.034.282c0,.021.011.026.032,0-.23.276-.225,1.231.209,1.388a.83.83,0,0,0,.387.034l.315-.045a.41.41,0,0,0,.491-.1l.152-.164.019-.011c.264,0,.4.03.467.093a.96.96,0,0,0,.89.345l.814-.272a1.3,1.3,0,0,0,.453-.225l.085-.1c.039-.051.048-.068.1-.063l.109.018a.832.832,0,0,1,.2.069l.3.147.08.031.045.014a.72.72,0,0,0,.408.012l.442-.143.27-.078.121-.028a1.183,1.183,0,0,1,.455-.027.643.643,0,0,1,.308.172l.162.159a.584.584,0,0,0,.261.163l.065.012.042,0a.479.479,0,0,0,.305-.12l.1-.085.114-.107.079-.065a.236.236,0,0,1,.069.037l.129.1.338.277c.258.2.366.226.572.144l.452-.216.192-.086.1-.039.161-.052a.358.358,0,0,1,.128-.021.729.729,0,0,0,.618-.087l.041-.023a.052.052,0,0,0,.026-.022l.188.028a3,3,0,0,0,.48.034,1.027,1.027,0,0,0,.8-.295l.08-.1.085-.126.1-.176.338-.608.3-.5c0-.006,0-.009,0-.009.743-.137,1.372-.324,1.533-.612l.077-.138-.075-.139a.887.887,0,0,1-.1-.669l.047-.208a2.266,2.266,0,0,0,.086-.58v-.328l-.325.043a1.935,1.935,0,0,1-1.26-.074l-.564-.285-.412-.192a2.283,2.283,0,0,0-1.486-.289l-.464.143-.111.025-.1.007a.711.711,0,0,1-.33-.06,6.582,6.582,0,0,0-2.825-.378.675.675,0,0,0-.213.171l-.048.066.088.029a3.645,3.645,0,0,0-2.179-.188.544.544,0,0,1-.534,0l-.206-.086a.822.822,0,0,0-.55-.022l-.36.089-.1.016a.129.129,0,0,1-.053-.006,5.333,5.333,0,0,0-1.257-.384c-.439-.055-1.114.153-1.241.463a.52.52,0,0,0-.036.254l.009.067.043.146a.643.643,0,0,1,.025.1l0,.041c0,.022,0,.029.01.027l.046-.02-.155.1-.264.16a1.4,1.4,0,0,1-.344.153l-.049.006a.354.354,0,0,0-.36.468.79.79,0,0,0,.115.223l.109.145.139.173a.388.388,0,0,0,.283.225l.177.049a.023.023,0,0,0,.021,0l.009.051.017.243a.476.476,0,0,0,.107.313l.034.037-.078.089a.639.639,0,0,0-.127.383Z" transform="translate(-187.215 -188.603)"/>
  </g>
</svg>
