<svg xmlns="http://www.w3.org/2000/svg" width="93.344" height="62.512" viewBox="0 0 93.344 62.512">
  <g id="map" transform="translate(-84.079 -111.501)">
    <path id="Path_13187" data-name="Path 13187" d="M107.844,157.35a3.6,3.6,0,0,1,.652.325l.19.119.356.239.7.482.258.169.215.13a1.392,1.392,0,0,0,.5.2l.077,0h1.676a.26.26,0,0,1,.252.2l.007.06v8.631l.14.02a1.776,1.776,0,0,1,.9.442l.121.119.135.156.268.351a.7.7,0,0,0,.14.14l.038.022v-.011l.042-.124a.633.633,0,0,1,.476-.466c.239-.051.458.071.783.429l.112.128.207.254.236.307.742,1,.174.223.1.114.15.16a.736.736,0,0,0,.3.208l.147.044.057.022a1.023,1.023,0,0,1,.458.5c.42.741.188,1.328-.411,1.328a.6.6,0,0,1-.344-.119l-.1-.068-.154-.114-.017.055a.676.676,0,0,1-1.035.378.783.783,0,0,1-.4-.563l-.09-.33-.061-.184a.22.22,0,0,0-.083-.087l-.054-.035-.153-.082-.291-.137c-.285-.14-.425-.251-.484-.44l-.02-.087a3.42,3.42,0,0,0-.86-1.285,3.3,3.3,0,0,1-.421-.323l-.189-.171-.438-.414a1.922,1.922,0,0,0-.921-.287l-.191-.026-.439-.051a1.7,1.7,0,0,1-1.271-.744L109.9,168l-.065-.075c-.036-.035-.059-.04-.065-.007v.031l.018.106.046.169c.127.419.03.762-.289.854a.6.6,0,0,1-.647-.278l-.051-.088-.033-.054c-.085-.109-.221-.1-.352.074l-.119.18c-.4.556-1.169.626-1.3-.052-.063-.326.108-.607.529-1.031l.134-.132.425-.406-.1,0-.1.01a.95.95,0,0,0-.843.6,3.614,3.614,0,0,1-.153.471l-.1.231-.232.462-.048.1.059.022a1.014,1.014,0,0,1,.534,1.173l-.026.156-.035.149a.871.871,0,0,1-1,.584c-.441-.044-.8-.316-.668-.687l.056-.124a.041.041,0,0,0-.007-.046l-.024-.018-.04-.022c-.008-.006-.01-.012,0-.024a6.135,6.135,0,0,1-3.032,1.368,6.968,6.968,0,0,1-1.584.189c-.556-.015-.914-.166-.9-.56a.259.259,0,0,1,.125-.212l.059-.026.755-.228.827-.257.4-.135a4.461,4.461,0,0,0,2.153-1.292l.1-.129.034-.057-.419.012-.207-.01-.13-.019a.261.261,0,0,1-.2-.171l-.018-.094c-.014-.05-.067-.084-.231-.135l-.526-.153c-.083-.027-.161-.054-.237-.085a.261.261,0,0,1-.155-.179.379.379,0,0,1,.015-.3l.038-.085.1-.208a.79.79,0,0,0,.114-.364c0-.018-.073-.067-.252-.127l-.472-.139a.644.644,0,0,1-.227-.12l0,.007-.007.007-.125.051-.17.061a.689.689,0,0,1-.189.027c-.388,0-1.092-.4-1.092-.781a.509.509,0,0,1,.383-.514l.278-.111.035-.02.158-.036.323.029.132.007c.083,0,.119-.012.142-.043l.015-.027.025-.062c.09-.817.531-1.664,1.146-1.8a.811.811,0,0,1,.166-.02l.093,0,.176.02.423.069.178.021c.382.032.57-.062.634-.427l.014-.106v-.016l-.331-.028c-.3-.027-.556-.057-.793-.092l-.229-.037-.181-.034-.161-.1a3.167,3.167,0,0,1-.542-1.663.259.259,0,0,1,.152-.218,3.454,3.454,0,0,1,1.637-.185l.255.017.179.091.06.074.138.185.216.309.005-.062a1.372,1.372,0,0,0-.252-.766l-.092-.122-.106-.114-.328-.325-.142-.153-.055-.065-.088-.119-.072-.12a.569.569,0,0,1,.235-.837l.143-.069.189-.1.906-.5.412-.218c.174-.088.338-.167.5-.237a2.692,2.692,0,0,1,1.895-.321Zm-1.685.795-.311.145-.163.081-.257.134-.779.428-.477.253-.113.051c-.072.033-.082.049-.06.1l.023.045.06.1.039.051.047.056.129.14.309.307.123.13a1.7,1.7,0,0,1,.359,1.807.26.26,0,0,1-.317.123l-.085-.032-.14-.063a.8.8,0,0,1-.238-.181l-.051-.064-.231-.332-.074-.1-.116-.007a4.625,4.625,0,0,0-1.052.032l-.13.028-.072.02.013.093a3.154,3.154,0,0,0,.255.769l.093.176.028.043.064.013c.211.036.444.068.709.1l.574.053.268.021a.26.26,0,0,1,.24.26c0,1-.446,1.357-1.214,1.3l-.216-.025-.486-.077a.562.562,0,0,0-.189,0c-.33.07-.671.727-.752,1.4-.137.4-.3.527-.762.525l-.135,0-.215-.014-.055.026-.263.1-.04.019-.007.012.026.02.167.1.17.082a.663.663,0,0,0,.21.065.234.234,0,0,0,.061-.013l.216-.08a.487.487,0,0,1,.479.012l.072.056.082.03.459.135c.383.129.587.292.587.613a1.106,1.106,0,0,1-.108.472l-.062.129-.064.128.547.16a.936.936,0,0,1,.446.262l.049.072.027.058.082,0,.436-.012a.566.566,0,0,1,.364.085c.246.16.218.421.013.773a4.7,4.7,0,0,1-2.5,1.624l-.278.1-.294.1-.725.223.213-.009c.192-.013.406-.039.635-.077l.232-.042.239-.049a6.454,6.454,0,0,0,2.656-1.1l.145-.153a.6.6,0,0,1,.852.785l.012-.012.017,0,.121.019.074.009c.231.023.406-.059.445-.2.127-.472.057-.751-.165-.861l-.166-.065a.41.41,0,0,1-.228-.493l.027-.095.056-.125.255-.509a3.244,3.244,0,0,0,.219-.607,1.439,1.439,0,0,1,1.273-.986,1.2,1.2,0,0,1,.662.06.387.387,0,0,1,.159.6l-.059.073-.074.077-.6.584c-.29.294-.414.483-.4.575.021.108.187.1.349-.119l.132-.2a.719.719,0,0,1,1.224-.059l.058.1.027.043.027.03.022.015-.03-.122-.051-.189c-.173-.8.5-1.229,1-.581.347.446.547.617.913.683l.129.018.276.031.378.049a2.477,2.477,0,0,1,1.113.353l.083.069.305.291.3.276a2.925,2.925,0,0,0,.358.277,3.683,3.683,0,0,1,1.1,1.639c0,.008.009.019.026.033l.033.024.108.063.175.086.193.09c.3.147.437.259.52.466l.033.087.03.093.071.257.052.179c.04.119.075.171.119.192.2.1.269.078.341-.176a.42.42,0,0,1,.5-.353.564.564,0,0,1,.145.053l.078.048.209.153.1.067.036.02c.14,0,.193-.1.019-.445l-.11-.2-.08-.117a.3.3,0,0,0-.058-.059l-.024-.014-.161-.05a1.226,1.226,0,0,1-.5-.333l-.1-.1-.108-.119-.151-.184-.837-1.117-.2-.263-.182-.223-.223-.257-.111-.116-.076-.069c-.019-.015-.032-.022-.038-.021-.03.007-.051.025-.078.087l-.086.221a.449.449,0,0,1-.665.263.826.826,0,0,1-.289-.207l-.092-.1-.286-.374a1.378,1.378,0,0,0-1.14-.545.258.258,0,0,1-.242-.192l-.009-.067v-8.611h-1.416a1.482,1.482,0,0,1-.769-.232l-.141-.082-.329-.209-.973-.672-.159-.1-.283-.174a2.841,2.841,0,0,0-.466-.226,2.36,2.36,0,0,0-1.509.307Zm24.378,10.208c.4,0,1.305,1,1.647,1.575a.945.945,0,0,1-.633,1.226l-.09-.007-.021,0-.137.044-.286.1-.017,0c-.087.234-.494.661-.739.661-.273,0-.6-.462-.659-.788l-.008-.085-.286-.378a1.745,1.745,0,0,1-.155-.247.94.94,0,0,1-.079-.214,1.1,1.1,0,0,1,.242-.95l.184-.255a1.685,1.685,0,0,0,.129-.223l.04-.1.106-.136a1.4,1.4,0,0,1,.764-.235Zm0,.519a.828.828,0,0,0-.363.085l-.056.031-.014.043a2.074,2.074,0,0,1-.1.2l-.064.1-.189.261a.638.638,0,0,0-.167.547.43.43,0,0,0,.036.094l.03.055.086.128.26.343.072.106a.346.346,0,0,1,.043.1l.007.046v.084a.186.186,0,0,0,.017.06l.019.04.1.2.015.043.219-.264.029-.045a1.34,1.34,0,0,1,1.074-.482c-.005,0,0-.012.005-.029l.114-.241c.031-.076.051-.146.033-.179l-.077-.119-.047-.067-.169-.22-.2-.234-.2-.227-.193-.2-.072-.071-.126-.112a.277.277,0,0,0-.118-.069Zm-.7-1.566.094.336a.412.412,0,0,1,.008.192.462.462,0,0,1-.357.366l-.094.035-.043.056a.658.658,0,0,1-.175.143.715.715,0,0,1-.518.1.419.419,0,0,1-.315-.53.774.774,0,0,0,.018-.26l-.014-.069-.062-.214.349-.161c.62-.273.989-.325,1.109,0Zm-1.569.445a.6.6,0,0,0-.086.208l-.012.163a.454.454,0,0,1-.475.395l-.1,0h-.223a.5.5,0,0,1-.551-.461.436.436,0,0,1,.307-.525l.088-.021h.015l.061-.107a.91.91,0,0,1,.328-.328l.1-.041.1-.024c.387-.057.557.238.456.738Zm-22.051-55.738c3.207.871,6.276,1.616,9.184,2.251a.242.242,0,0,1,.1,0,.259.259,0,0,1,.106.048l1.271.271,1.25.258,1.229.245,1.206.231,1.183.219,1.161.206,1.7.288,1.644.262,1.065.161,1.041.15,1.015.14,1.475.192,1.416.171.91.1.883.094,1.273.126,1.21.109,1.511.121,1.393.1.965.056,1.178.057,1.294.048,1.088.025.719.007h.534l.725-.012.119-.808a.257.257,0,0,1,.442-.138l.043.064.355.644.249.438.1.168.077.121.174.059.192.054.266.066.267.06.234.046a1.246,1.246,0,0,0,.214.026l.576-.054a3.759,3.759,0,0,1,.552-.012.549.549,0,0,1,.272.095l.048.04c.035.027.088.063.156.106l.241.144.144.081.316.166.331.159c.11.049.218.095.319.132a1.72,1.72,0,0,0,.187.055l.2.04a.917.917,0,0,1,.543-.137,1.482,1.482,0,0,1,.288.041l.128.036.189,0,.278.011a3.008,3.008,0,0,1,.7.1.359.359,0,0,1,.242.553,1.015,1.015,0,0,1-.26.25c-.066.046-.141.093-.221.14l-.242.132-.386.2-.047.027-.336.28-1.733,1.508a.992.992,0,0,0,.262.021,1.318,1.318,0,0,0,.418-.14l.115-.054a3.012,3.012,0,0,1,.646-.259.354.354,0,0,1,.37.14.394.394,0,0,1,.052.3l-.022.093a.28.28,0,0,0-.009.054l.03.012a.363.363,0,0,0,.085.011.75.75,0,0,0,.319-.064l.074-.04a.119.119,0,0,0,.026-.024,1.712,1.712,0,0,1,.5-.365l.263-.132.4-.182.442-.183,1.91-1.226a.256.256,0,0,1,.385.289l-.036.075-.535.863-.142.239c.118.006.249.018.381.038a2.822,2.822,0,0,1,.7.179.729.729,0,0,1,.237.164l.056.025.04.014a1.51,1.51,0,0,0,.3.041,2.031,2.031,0,0,0,.625-.067.447.447,0,0,0,.2-.094,1.537,1.537,0,0,1,.6-.315c.2-.068.443-.13.674-.183l.337-.072.3-.053.223-.031.074-.007a.3.3,0,0,1,.3.17l.009.023a.61.61,0,0,0,.181.335c.027.032.079.027.131.033.119.012.253.007.376.012a.738.738,0,0,1,.6.249,2.31,2.31,0,0,1,.365.749.351.351,0,0,1-.093.3.322.322,0,0,1-.238.1l-.116-.006-.336-.038-.12-.007a1.122,1.122,0,0,1-.307.19.418.418,0,0,1-.47-.11.182.182,0,0,0-.077-.041l-.114-.033a1.236,1.236,0,0,0-.188-.033l-.176-.014-.053,0-.09.084-.069.055-.1.068-.142.086-.2.106-.263.132-.613.286-.111.043-.02.006a.275.275,0,0,1-.147,0,.224.224,0,0,1-.059-.027l-.071,0-.028.009-.069.04a2.17,2.17,0,0,0-.375.311,6.7,6.7,0,0,0-1.318,1.924l.229-.274.86-1.08a.314.314,0,0,1,.283-.127l.032.006a.259.259,0,0,1,.174.235l-.006.061s0,.014-.009.032l-.037.069a1.184,1.184,0,0,0-.127.332l-.061.242-.075.342-.268,1.451c-.007.035-.014.068-.021.1l-.125.46-.088.358c-.044.189-.088.389-.121.572l-.046.275-.02.165a.313.313,0,0,0,.005.109,2.632,2.632,0,0,1,.152.753l.014.315c0,.042.007.087.012.137.089.877.545,1.365.981,1.436a.435.435,0,0,0,.5-.283,4.875,4.875,0,0,0,.4-2.877l-.05-.166-.055-.145-.086-.184-.027-.054a1.5,1.5,0,0,1-.154-.374,1.043,1.043,0,0,1,.014-.456l.062-.249.034-.157.031-.195a5.709,5.709,0,0,0,.034-.9,1.3,1.3,0,0,1,.3-.821,1.035,1.035,0,0,1,.411-.32.435.435,0,0,1,.458.062l.01-.068V125.6a.563.563,0,0,1,.228-.511,2.225,2.225,0,0,1,.422-.231c-.012-.043-.031-.106-.048-.147a1.253,1.253,0,0,1-.092-.287.3.3,0,0,1,.025-.157.281.281,0,0,1,.1-.114.476.476,0,0,1,.24-.066,6.662,6.662,0,0,1,1.217.148,4.188,4.188,0,0,1,1.186.556,1.017,1.017,0,0,1,.239.237.431.431,0,0,1,.076.263.951.951,0,0,0,.057.3l.054.168.112.323c.017.05.031.1.042.14a1.54,1.54,0,0,1-.4,1.227l-.116.143a2.684,2.684,0,0,0-.221.289l-.052.088.171-.031a1.026,1.026,0,0,0,.216-.059,1.052,1.052,0,0,0,.312-.252l.144-.175a1,1,0,0,1,.067-.075.6.6,0,0,1,.6-.2.762.762,0,0,1,.479.445,3.084,3.084,0,0,1,.189.508l.145.519c.014.051.028.1.043.141l.042.113a2.362,2.362,0,0,1,.166.908,1.232,1.232,0,0,1-.124.569l-.3.506a3.637,3.637,0,0,0-.335.7l-.093.362a4.49,4.49,0,0,0-.116.613l.145.037a1.809,1.809,0,0,0,.3.046c.086,0,.175,0,.263,0,.064,0,.133-.009.2-.017l.26-.043.079-.017a1.118,1.118,0,0,1,.389-.169l.344-.073a1.452,1.452,0,0,0,.153-.042,1.837,1.837,0,0,0,.4-.236l.251-.192c.043-.035.087-.071.131-.108l.263-.23a2.026,2.026,0,0,1,.79-.445l.14-.035,1.637-1.383.511-.44a.368.368,0,0,0,.142-.226.41.41,0,0,0-.127-.3,1.17,1.17,0,0,0-.155-.153l-.074-.056a.257.257,0,0,1,0-.378l.06-.041.413-.222.333-.171.23-.111a2.059,2.059,0,0,1,.52-.129c.454-.066,1.1-.1,1.569-.167l.174-.032.236-.06a1.7,1.7,0,0,1,.184-.174l.368-.305c.041-.035.081-.069.119-.1l.061-.059.1-.112a.679.679,0,0,0-.056-.084l-.219-.255a1.038,1.038,0,0,1-.17-.267.443.443,0,0,1-.02-.278.871.871,0,0,1,.231-.343,3.554,3.554,0,0,1,.4-.329l.029-.514a.253.253,0,0,1,.072-.164l.711-.717.228-.217.048-.042a.783.783,0,0,1,.469-.14h.267a.85.85,0,0,0,.252-.031l.166-.05.387-.108,1.1-.291.657-.137.572-.131.4-.1c.129-.033.253-.068.367-.1l.111-.036.288-.11.056-.023a1.341,1.341,0,0,1,.844-.83l.141-.022a.457.457,0,0,0,.448-.442l-.05-2-.008-.8a2.083,2.083,0,0,1,.594-1.561.44.44,0,0,1,.513-.082l.048.035a.529.529,0,0,0,.709,0,1.888,1.888,0,0,0,.161-.124l.151-.137a.167.167,0,0,1,.022-.017.314.314,0,0,1,.2-.034l.061.012.182.054c.071.025.151.055.234.092a2.394,2.394,0,0,1,.641.4.737.737,0,0,1,.229.384l.008.1a1.034,1.034,0,0,0,.046.265l.073.239.093.269.456,1.213.059.181h.061a.54.54,0,0,1,.159.025c.134.043.305.148.369.557l.019.15.038.008a.558.558,0,0,0,.135,0l.315-.042c.03,0,.056-.006.079-.007a.339.339,0,0,1,.286.119.283.283,0,0,1,.059.205.4.4,0,0,0,.166.39l.041.028a1.1,1.1,0,0,1,.115.081.327.327,0,0,1,.112.188.283.283,0,0,1-.033.2c-.089.159-.24.3-.684.493a2.272,2.272,0,0,0-.646.532l-.234.252-.1.107a.651.651,0,0,1-.7.086,2.494,2.494,0,0,0-.279-.084l-.041-.007.048.052.184.175c.028.028.055.055.078.081.209.235.165.451,0,.563a.9.9,0,0,1-.3.107l-.256.05a1.344,1.344,0,0,0-.167.041l-.064.03a2.65,2.65,0,0,1-.338.534.775.775,0,0,1-.477.271c-.086.009-.166.015-.235.027l-.076.019v.015a4.861,4.861,0,0,1-.518,1.366l-.087.166a.316.316,0,0,0-.058.177.142.142,0,0,0,.047.083l.077.065a1.214,1.214,0,0,1,.236.263.6.6,0,0,1,.038.533l-.086.21a.371.371,0,0,0-.047.179.14.14,0,0,0,.048.079.71.71,0,0,0,.1.085,1.535,1.535,0,0,0,.177.1l.136.061c.383.169.619.168.767.085a.4.4,0,0,0,.176-.213.3.3,0,0,1,.1-.132l.041-.024a.239.239,0,0,1,.274.039.893.893,0,0,1,.339.784.72.72,0,0,1-.778.66l-.108-.015a1.213,1.213,0,0,0-.73.143l-.111.075a.5.5,0,0,1-.566.117.628.628,0,0,1-.111-.071l0,.1a.77.77,0,0,1-.03.276.68.68,0,0,1-.262.274,2.909,2.909,0,0,1-.921.38l-.074.015-.148.04-.076.025-.164.064-.19.087-.358.184-.778.43a2.316,2.316,0,0,0,.48-.161l1.072-.513a.256.256,0,0,1,.336.354l-.095.155-.113.166a2.951,2.951,0,0,1-1.193,1.058,1.531,1.531,0,0,1-.271.058l-.274.033c-.148.014-.307.024-.459.028a2.556,2.556,0,0,1-.636-.045h-.012l-.024.014a.194.194,0,0,0-.031.023l-.024.035.039.021a1.128,1.128,0,0,1,.649.709.812.812,0,0,1-.015.553l-.068.158a1.991,1.991,0,0,0-.129.661,2.308,2.308,0,0,1-.362.948,1.64,1.64,0,0,1-.394.453.353.353,0,0,1-.458,0l-.18-.161a.931.931,0,0,0-.1-.072,3.7,3.7,0,0,0,.479.884,1.009,1.009,0,0,1,.232.607,1.478,1.478,0,0,1-.208.84.688.688,0,0,0-.068.2l-.039.187c-.038.2-.069.42-.093.614l-.05.485-.009.048-.022.056-.063.118a2.075,2.075,0,0,1-.316.451.405.405,0,0,1-.3.122.311.311,0,0,1-.25-.153.974.974,0,0,1-.088-.538l0-.075.046-.495c0-.049.008-.1.011-.148l.007-.149a1.207,1.207,0,0,0-.035-.453.319.319,0,0,0-.15-.139l-.139-.067c-.091-.043-.183-.085-.265-.128a1.528,1.528,0,0,0,.061-.428,1.554,1.554,0,0,0-.683-1.288,1.755,1.755,0,0,1,.022-.257l.03-.17a.8.8,0,0,0-.155.365,1.5,1.5,0,0,0-.485-.179,1.182,1.182,0,0,1,.346-.62.574.574,0,0,1,.328-.149.427.427,0,0,1,.455.3.594.594,0,0,1,.027.287l-.049.293a1.507,1.507,0,0,0-.007.28.221.221,0,0,0,.083.182l.054.038a.428.428,0,0,1,.162.289.766.766,0,0,1-.018.284l-.024.1a.893.893,0,0,0-.025.1l-.009.033a.018.018,0,0,0,.005.015l.043.033.118.06c.1.048.216.1.32.152a.913.913,0,0,1,.422.4,1.351,1.351,0,0,1,.082.5c0,.113,0,.236-.011.357l-.029.347c-.005.054-.01.1-.014.149l.009-.017.04-.392.035-.279c.007-.048.014-.1.022-.147l.048-.288a2.347,2.347,0,0,1,.14-.487l.039-.074a.894.894,0,0,0,.12-.342l-.851.091a.257.257,0,0,1-.279-.205l-.445-2.266-5.942,1.028.017.508a3.59,3.59,0,0,1,1.7-.656,2.286,2.286,0,0,0,.468-.1,1.066,1.066,0,0,1,.36-.051.426.426,0,0,1,.141.038l.042.019.046.035.111.094.135.106.173.124c.094.064.2.131.309.192a1.517,1.517,0,0,0-.325.392c-.114-.067-.223-.137-.32-.2l-.035.072a.578.578,0,0,1-.041.064.686.686,0,0,1-.39.242l-.393.077a.218.218,0,0,0-.2.2.718.718,0,0,1-.411.562l-.237.124a.58.58,0,0,0-.328.441l-.013.121c-.019.378-.238.4-.349.385a.485.485,0,0,1-.216-.112l-.044-.037-.051-.038a.2.2,0,0,0-.038-.022,1.381,1.381,0,0,0-.115.169,6.076,6.076,0,0,0-.4,1.1l-.074.289-.082.359a.837.837,0,0,1-.711.741,1.352,1.352,0,0,0-.341.144l-.317.184a1.1,1.1,0,0,1-.934.132.392.392,0,0,0-.225.013l-.24.063a.575.575,0,0,1-.424-.047l-.037-.025-.035-.029-.092.047a7.027,7.027,0,0,0-1.474,1.1l2.389-.32a.258.258,0,0,1,.111.009c.289-.028.6-.066.923-.111l.667-.1.346-.058.707-.126.72-.138.724-.148,1.068-.231,1.016-.231,1.214-.289,1.172-.291.175-.045a.518.518,0,0,1,0-.159l.021-.094a3.186,3.186,0,0,0,.046-1.208,1.64,1.64,0,0,0-.077-.323l-.03-.073a.1.1,0,0,0-.018-.025l-.134-.022-.135-.014-.179-.007a1.572,1.572,0,0,0,.487-.472.649.649,0,0,1,.25.09.937.937,0,0,1,.3.545,3.828,3.828,0,0,1,0,1.606,1.964,1.964,0,0,0,.2-.023l.3-.06c.047-.009.092-.014.132-.018a.619.619,0,0,1,.208.012.472.472,0,0,1,.292.279,2.2,2.2,0,0,1,.136.849,1.279,1.279,0,0,1-.1.527.357.357,0,0,1-.246.192l-.083.012-.086,0a.532.532,0,0,0-.252.049,1.1,1.1,0,0,0-.311.262,1.234,1.234,0,0,0,.148-.081l.057-.041a.342.342,0,0,1,.411-.067.4.4,0,0,1,.166.173l.043.093a1.013,1.013,0,0,1,.435-.189.376.376,0,0,1,.294.094.491.491,0,0,1,.145.379,1.164,1.164,0,0,1-.2.8.992.992,0,0,1-.79.291c-.111,0-.214,0-.306.007a.452.452,0,0,1,.041.2.52.52,0,0,1-.111.3l-.071.081.18-.033a.52.52,0,0,1,.065-.007.286.286,0,0,1,.285.152.266.266,0,0,1,.025.169.5.5,0,0,1-.14.242,4.422,4.422,0,0,1-1.3.871.8.8,0,0,0-.336.257,2.538,2.538,0,0,0-.435.756,1.381,1.381,0,0,1-.553.612,5.086,5.086,0,0,1-.688.369l-.279.127a.549.549,0,0,0-.25.286l-.483.966-.194.364-.112.205a2.17,2.17,0,0,1-1.707,1.175l-.409.051c-.045.007-.087.013-.125.021l-.077.023-.023.009a.082.082,0,0,0,.017.082.433.433,0,0,0,.069.086,1.2,1.2,0,0,0,.122.1l.144.093a.255.255,0,0,1,.1.188.252.252,0,0,1-.076.2l-.036.017-.064.041a2.292,2.292,0,0,0-.451.478,5.83,5.83,0,0,0-.665,1.917,3.092,3.092,0,0,0-.056.817.592.592,0,0,0,.081.283,7.556,7.556,0,0,1,.61,1.195l.448,1.049c.067.152.13.286.187.392a4.723,4.723,0,0,0,.652.749,1.937,1.937,0,0,1,.532,1.308,1.732,1.732,0,0,0,.3.718c.055.09.114.183.175.275l.189.271.286.378.253.314.249.292a.254.254,0,0,1,.054.094l.012.065.108,1.309.059.918.016.351.01.322c0,.1,0,.195,0,.279a1.775,1.775,0,0,1-.054.485.324.324,0,0,1-.1.145l-.13.092-.206.126-.257.141a3.016,3.016,0,0,1-.978.348.588.588,0,0,1-.482-.149.5.5,0,0,1-.137-.359.981.981,0,0,0-.052-.367.232.232,0,0,0-.063-.08l-.035-.028c-.034-.027-.068-.054-.1-.087a.885.885,0,0,1-.238-.44.038.038,0,0,0-.029-.027l-.108-.025-.093-.011a1.348,1.348,0,0,1-.455-.1.674.674,0,0,1-.3-.441c-.024-.088-.044-.184-.077-.272a.245.245,0,0,0-.077-.122,1.7,1.7,0,0,1-.58-.892l-.035-.143a.463.463,0,0,0-.023-.075l-.142.02a.509.509,0,0,1-.414-.1,1.991,1.991,0,0,1-.639-1.784.45.45,0,0,1-.237-.061c-.142-.079-.313-.286-.393-.791-.014-.087-.023-.2-.03-.326l-.03-.634c-.011-.219-.025-.433-.051-.6l-.014-.067-.03-.116-.218-.093a4.276,4.276,0,0,1-1.263-.848l-.138-.157a1.253,1.253,0,0,0-1.111-.477l-.222.011a1.342,1.342,0,0,0-.438.158l-.307.16-.515.281a3.447,3.447,0,0,1-.419.2.594.594,0,0,1-.314.04.318.318,0,0,1-.19-.124l-.17-.263a.989.989,0,0,0-.675-.4l-.278-.054a1.352,1.352,0,0,1-.838-.614l-.087.02a.431.431,0,0,0-.046.014l-.175.074-.373.179a2.067,2.067,0,0,1-.354.135.437.437,0,0,1-.387-.046.318.318,0,0,1-.127-.2l-.32.225c-.115.08-.239.161-.367.234a.45.45,0,0,1-.443.046.476.476,0,0,1-.226-.29l-.049-.174-.029-.093c-.017-.048-.035-.1-.1-.106a.259.259,0,0,0-.158.021.131.131,0,0,0-.051.068l-.023.082c-.015.05-.03.1-.046.143a.4.4,0,0,1-.414.305l-.489-.025-.252-.009a1.858,1.858,0,0,0-.563.079l-.333.1a1.6,1.6,0,0,1-1.044.042,1.447,1.447,0,0,0-.678-.111.178.178,0,0,0-.168.163.267.267,0,0,0,.011.073,1.554,1.554,0,0,1,.973.046l.124.074.146-.048a1.252,1.252,0,0,1,.647-.086.339.339,0,0,1,.3.222.346.346,0,0,1-.08.332l-.065.071-.179.173c-.033.032-.064.066-.1.1-.061.069-.131.142-.119.229l.059.051a.884.884,0,0,0,.092.068,7.231,7.231,0,0,1,.67.4.491.491,0,0,1,.184.633.535.535,0,0,1-.654.265,3.175,3.175,0,0,1-.914-.458l-.349-.231a.114.114,0,0,0-.019-.009l-.02.025-.025.045-.03.079a.259.259,0,0,1-.131.15,2.608,2.608,0,0,1-2.835-.242c-.124-.085-.236-.171-.34-.253l-.281-.223a.836.836,0,0,0-.205-.137.149.149,0,0,0-.072-.014l-.009.011-.024.07-.011.053-.009.086v.035a.257.257,0,0,1-.1.172.251.251,0,0,1-.125.049l-.082,0-.649-.12-.279-.06-.28-.066c-.136-.035-.263-.072-.37-.108a1.493,1.493,0,0,0-.56-.005l-.211.026-.425.059a4.793,4.793,0,0,1-.547.054,2.44,2.44,0,0,0-.706.177l-.289.114-.377.16a.281.281,0,0,1-.251-.013l-.045-.033a.24.24,0,0,1-.072-.245,1,1,0,0,0,.03-.419.134.134,0,0,0-.074-.106l-.049-.009-.006.03a1.2,1.2,0,0,0-.007.152l.007.189.013.221a2.127,2.127,0,0,1-1.7,2.342c-.432.06-.728-.129-.782-.393l-.025-.017a.251.251,0,0,0-.066-.022.68.68,0,0,0-.34.023c.011.04.029.106.043.143a.784.784,0,0,1,.073.255.25.25,0,0,1-.154.235.287.287,0,0,1-.265-.017,1.3,1.3,0,0,0-.088.117,1.869,1.869,0,0,1-.193.277.756.756,0,0,1-.352.174l-.113.028a.588.588,0,0,1,.071.114.357.357,0,0,1-.093.438.762.762,0,0,1-.39.2l-.087.014.1.675a.255.255,0,0,1-.052.2.258.258,0,0,1-.179.1l-.168.013a1.117,1.117,0,0,1,.087.479l-.01.158a2.588,2.588,0,0,0,.155.969l.094.275.095.244.082.195.08.176a.257.257,0,0,1-.242.366l-.074-.014-.734-.2-.445-.111-.266-.061-.208-.039-.286-.041a1.472,1.472,0,0,1-.769-.309.487.487,0,0,0-.369-.078l-.1.022-.035.012a.253.253,0,0,1-.238-.035,4.52,4.52,0,0,1-1.542-2.626l-.047-.231a.358.358,0,0,0-.208-.27l-.183-.093a.565.565,0,0,1-.287-.318l-.053-.167a1.328,1.328,0,0,0-.476-.679,2.07,2.07,0,0,1-.538-.792l-.1-.231-.267-.7c-.056-.145-.11-.278-.164-.389a3.673,3.673,0,0,0-.725-.861l-.26-.236-.187-.16-1.611-.067-.3-.007h-.065l-.113.155-.14.21-.381.618-.3.5a.259.259,0,0,1-.267.124l-.927-.163a.266.266,0,0,1-.093-.035l-.048-.039-.529-.491-.452-.4-.361-.3-.118-.095a1.6,1.6,0,0,1-.646-1.212c-.027-.255-.023-.532-.059-.838a1.574,1.574,0,0,0-.561-.87l-.163-.151-.32-.281a3.2,3.2,0,0,1-.372-.368,1.327,1.327,0,0,0-.3-.291l-.065-.044a1.428,1.428,0,0,1-.362-.328l-.077-.108a3.4,3.4,0,0,0-.377-.467l-.151-.151-2.731-.309-.042.641a.258.258,0,0,1-.09.179.249.249,0,0,1-.19.059l-1.626-.152-3.61-.539-.048-.012-.074-.038-3.023-1.833-2.975-1.825-.453-.286a4.412,4.412,0,0,0-2.336-.5l-.848.014a3.531,3.531,0,0,1-.7-.038.631.631,0,0,1-.248-.1.583.583,0,0,1-.215-.336,1.756,1.756,0,0,1-.019-.538,5.379,5.379,0,0,0,.039-.681,1,1,0,0,0-.16-.555,2.614,2.614,0,0,0-.686-.667l-.187-.122a1.4,1.4,0,0,1-.3-.234.959.959,0,0,1-.159-.332l-.039-.133a1.253,1.253,0,0,0-.048-.15l-.02-.041-.009-.01a.933.933,0,0,1-.6-.242,3.611,3.611,0,0,1-.338-.307l-.21-.223-.1-.106-.26-.3-.051-.035-.121-.072-.77-.408a3.117,3.117,0,0,1-.687-.457.594.594,0,0,1-.116-.626l.061-.142.153-.276a.818.818,0,0,0,.055-.127l-.114-.085a.656.656,0,0,1-.137-.158,1.292,1.292,0,0,1-.149-.9l-.348-.613-.27-.5-.169-.324-.064-.129-.106-.233-.072-.187a.6.6,0,0,1-.032-.125.7.7,0,0,1,.194-.521l.152-.184a.3.3,0,0,0,.081-.182c0-.082-.072-.148-.138-.21a1.475,1.475,0,0,0-.213-.163l-.11-.065-.044-.023a.284.284,0,0,1-.051-.046.921.921,0,0,1-.143-.314,3.1,3.1,0,0,1-.1-.934.881.881,0,0,1,.1-.372.385.385,0,0,1,.154-.15.353.353,0,0,1,.267-.036.379.379,0,0,1,.248.228l.031.081.061.2.054-.03.024-.018-.035-.084-.022-.045a1.577,1.577,0,0,1-.08-.161.365.365,0,0,1,.017-.335.4.4,0,0,1,.314-.181.037.037,0,0,0,.03-.035l0-.026c0-.036,0-.082-.027-.1-.014-.007-.03,0-.051.01a.442.442,0,0,0-.09.05l-.05.038a.913.913,0,0,1-.609.262.538.538,0,0,1-.477-.414,1.968,1.968,0,0,1-.07-.607l.008-.2.01-.116a.5.5,0,0,0-.071-.251c-.063-.125-.149-.255-.232-.409l-.042-.082-.082-.178a3.434,3.434,0,0,1,.131-2.549l-.014-.051c0-.011-.007-.022-.011-.03l-.045-.093-.114-.2a1.542,1.542,0,0,1-.27-.875,1.522,1.522,0,0,1,.348-.743,2.83,2.83,0,0,1,.247-.267l.2-.177.041-.035c.017-.054.037-.134.059-.232l.275-1.372c.043-.2.085-.38.127-.517a2.535,2.535,0,0,0,.056-.693l-.006-.406c0-.136,0-.27.011-.4a1.171,1.171,0,0,1,.385-.9l.093-.053a.843.843,0,0,0,.366-.4,2.02,2.02,0,0,0,.116-.28l.044-.156.031-.149,1.193-2.632.438-.989.24-.566.038-.095.04-.119a.517.517,0,0,1,.5-.377.938.938,0,0,1-.3-.1.366.366,0,0,1-.185-.315.606.606,0,0,1,.173-.49.579.579,0,0,1,.255-.13c-.029-.071-.063-.151-.093-.237a1.633,1.633,0,0,1-.1-.6l.019-.146a2.431,2.431,0,0,0,.029-.381v-.363l-.009-.393-.04-.877-.006-.046a.992.992,0,0,1,.573-1,.406.406,0,0,1,.432.077l.047.056a.4.4,0,0,0,.072.068l.212.159.188.133.427.292.793.517a1.175,1.175,0,0,1,.357.3.414.414,0,0,1,.056.338l-.02.066-.074.173-.051.112.443-.418-.008-.093a.391.391,0,0,0-.009-.054l-.032-.127-.114-.372a1.168,1.168,0,0,1-.043-.184.341.341,0,0,1,.08-.273.313.313,0,0,1,.079-.061l-.03-.161a.374.374,0,0,1-.183-.308,1.372,1.372,0,0,1,.115-.534.406.406,0,0,1,.11-.154.245.245,0,0,1,.221-.042Zm22.607,54.1.082.061.057.048.039.005a.476.476,0,0,1,.359.451l-.006.084-.02.072a.881.881,0,0,1-.728.383.36.36,0,0,1-.359-.207l-.02-.065-.007-.056-.072-.047c-.239-.172-.309-.4-.121-.6l.072-.066.083-.058A.538.538,0,0,1,128.823,166.114Zm-1.994-.453.092.055.084.066.073.064.013.015v.007h-.068c.29,0,.524.478.382.74l-.024.051-.024.061-.034.111-.006.028c0,.232-.128.278-.323.288a1.192,1.192,0,0,1-.226-.013c-.263-.038-.427-.1-.485-.289,0,.006,0,.008-.007.007l-.011,0-.235-.134-.142-.077.006-.161a1.082,1.082,0,0,1,.168-.612.587.587,0,0,1,.767-.2Zm5.624-21.281-.814,9.3a.256.256,0,0,1-.285.232l-6.454-.754.174.277.017.036a4.053,4.053,0,0,1,.307.366l.1.143a.877.877,0,0,0,.239.252l.059.04a1.883,1.883,0,0,1,.484.442,2.073,2.073,0,0,0,.226.234l.46.4c.108.1.215.2.314.307a1.817,1.817,0,0,1,.524.986c.035.308.032.585.059.842a1.141,1.141,0,0,0,.453.863l.292.238.148.125.424.372.247.225.336.313.676.118.273-.456.336-.54c.072-.112.14-.214.2-.294a1.253,1.253,0,0,1,.187-.22.319.319,0,0,1,.124-.059l.039,0h.171l.6.014,1.437.054a.251.251,0,0,1,.1.027l.057.039.223.193.291.268.218.215.217.231a2.773,2.773,0,0,1,.412.566c.054.111.109.247.166.393l.271.709c.033.08.065.158.1.234a1.561,1.561,0,0,0,.378.592,1.77,1.77,0,0,1,.6.793l.073.205.03.093.049.034.169.086a.834.834,0,0,1,.477.634l.043.211a4.037,4.037,0,0,0,1.252,2.251,1.065,1.065,0,0,1,.839.155.991.991,0,0,0,.472.205l.351.049.11.019.282.06.5.124.33.086a4.953,4.953,0,0,1-.357-1.456l.007-.186c.041-.364-.113-.495-.182-.53l-.028-.011a.257.257,0,0,1,.048-.5l.447-.038-.1-.695a.256.256,0,0,1,.266-.294l.08.006h.054a.567.567,0,0,0,.182-.022.669.669,0,0,1-.1-.169.355.355,0,0,1,.046-.314.611.611,0,0,1,.361-.245l.234-.061a.071.071,0,0,0,.025-.016l.031-.04.067-.108a1.416,1.416,0,0,1,.191-.26.557.557,0,0,1,.16-.117.678.678,0,0,1-.022-.14.424.424,0,0,1,.3-.451,1.163,1.163,0,0,1,.8-.02.548.548,0,0,1,.352.377l.065.014a.249.249,0,0,0,.038,0,.974.974,0,0,0,.337-.066,1.662,1.662,0,0,0,1.035-1.744,3.1,3.1,0,0,1,0-.736.509.509,0,0,1,.179-.3.521.521,0,0,1,.346-.1.637.637,0,0,1,.625.708,7.362,7.362,0,0,1,.825-.276,1.058,1.058,0,0,1,.1-.35.513.513,0,0,1,.232-.23l.026-.121c0-.024.008-.048.01-.07l.014-.2.017-.417a2.481,2.481,0,0,1,.035-.354l.031-.126.087-.315a2.883,2.883,0,0,0,.07-.37.818.818,0,0,0-.2-.722,2.372,2.372,0,0,1-.614-.979l-.04-.143-.025-.141-.016-2.251a.251.251,0,0,1-.017-.09.255.255,0,0,1,.014-.085l0-.769-.576-.044-.051-.009-.056-.024-.012-.008a.25.25,0,0,1-.036-.025l-.041-.053a1.842,1.842,0,0,0-.563-.487.435.435,0,0,0-.435-.009l-.072.055a.523.523,0,0,1-.492.075l-.286-.085c-.052-.014-.106-.029-.159-.04a.516.516,0,0,0-.33.014,1.985,1.985,0,0,1-1.01.115,2.5,2.5,0,0,1-.72-.177,2.083,2.083,0,0,1-.232.193.543.543,0,0,1-.341.1.6.6,0,0,1-.378-.188,1.9,1.9,0,0,0-.337-.278c-.052-.032-.086-.046-.121-.03a.763.763,0,0,1-.567.088.407.407,0,0,1-.236-.226l-.025-.061-.025-.067c-.012-.032-.02-.072-.067-.09a.681.681,0,0,0-.212-.032l-.091,0c-.247-.006-.553.009-.827,0a2.034,2.034,0,0,1-.553-.09.687.687,0,0,1-.317-.218.633.633,0,0,0-.37-.283l-.17-.037-.234-.043a1.042,1.042,0,0,1-.562-.242.632.632,0,0,1-.172-.363l-.012-.109-.012-.269,0-.082,0-.858.045-2.538Zm-5.916,21.737-.027.019-.03.036a.257.257,0,0,0-.038.085l-.017.085.073.045a.879.879,0,0,1,.213.18l.04.063.027.067c-.015-.051-.007-.071.009-.077l.017,0,.038.005.018-.059.041-.107.027-.059.039-.007.052,0-.035-.006-.042-.016a1.087,1.087,0,0,1-.173-.106l-.154-.122-.027-.015A.06.06,0,0,0,126.538,166.117Zm45.136-10.668-.334.008-.068.71a.259.259,0,0,1-.133.2.255.255,0,0,1-.242,0l-.589-.313-4.659.209a.255.255,0,0,1-.171-.056l-.07-.062a1.73,1.73,0,0,1-.336-.455l-.3.033-.5.043-.837.061-2.283.142-.395.022c.034.058.068.12.1.187a1.487,1.487,0,0,1,.119.4l.071-.046a.727.727,0,0,1,.366-.123.3.3,0,0,1,.206.082.3.3,0,0,1,.093.191.4.4,0,0,1,0,.083l.171-.074.349-.168a1.767,1.767,0,0,1,.315-.12.48.48,0,0,1,.546.161.978.978,0,0,0,.62.464l.231.041a1.358,1.358,0,0,1,.924.54l.137.21.141-.059.178-.091.61-.333c.069-.037.138-.073.205-.106a2.029,2.029,0,0,1,.671-.231,1.872,1.872,0,0,1,1.648.522l.119.136a3.49,3.49,0,0,0,1.3.9l.154.061a.5.5,0,0,1,.27.36,4.938,4.938,0,0,1,.094.886l.024.492c.009.152.019.287.035.387a1.226,1.226,0,0,0,.107.38l.022.033a.792.792,0,0,0,.08-.043l.1-.072a.308.308,0,0,1,.194-.055.258.258,0,0,1,.157.068.262.262,0,0,1,.088.178.526.526,0,0,1-.03.182l-.027.079a1.473,1.473,0,0,0,.38,1.558l.2-.026a.486.486,0,0,1,.356.09.548.548,0,0,1,.183.281l.03.119a1.3,1.3,0,0,0,.308.628l.1.091a.868.868,0,0,1,.292.469l.031.111c.015.057.029.114.047.164l.027.056a.347.347,0,0,0,.1.022l.058.005a2.554,2.554,0,0,1,.331.046.562.562,0,0,1,.412.314l.033.095a.413.413,0,0,0,.142.239l.078.062.082.08a.909.909,0,0,1,.2.589l.007.153a.505.505,0,0,0,.093,0,.912.912,0,0,0,.142-.029,4.208,4.208,0,0,0,1.065-.521l.011-.119.008-.158v-.168l-.01-.391-.021-.44-.044-.691-.093-1.151-.02-.213-.3-.352-.206-.26-.223-.3c-.15-.2-.3-.424-.428-.637a2.615,2.615,0,0,1-.358-.858l-.01-.114a1.49,1.49,0,0,0-.459-1.039l-.349-.364a2.049,2.049,0,0,1-.316-.421c-.056-.1-.117-.235-.183-.384l-.436-1.028a7.224,7.224,0,0,0-.594-1.172.993.993,0,0,1-.148-.393Zm-47.4,8.888.089.009a.612.612,0,0,1,.441.395l.021.079.007.079.125.166.1.116.108.1c.137.14.115.265,0,.481l-.1.173-.054.113a.841.841,0,0,1-1.083.072l-.1-.1-.038-.033-.213-.15a.625.625,0,0,1-.239-.344.441.441,0,0,1,.035-.367l.057-.075.111-.117a.365.365,0,0,0,.042-.073l.064-.163a.517.517,0,0,1,.481-.36Zm-.126.516a.025.025,0,0,0-.025.016l-.038.115a.932.932,0,0,1-.137.262l-.045.054-.067.07a.156.156,0,0,0,.041.049l.035.028.2.139a.908.908,0,0,1,.137.131.111.111,0,0,0,.056.026l.044.009.142.021a.206.206,0,0,1,.059.016l.006.011.036-.086.028-.054.054-.09c.007-.007.012-.01.019-.008l.011.007.027.022-.035-.033a1.577,1.577,0,0,1-.369-.579l-.012-.079-.048-.043Zm-1.418-.707a1.022,1.022,0,0,1,.21.688,1.067,1.067,0,0,1-.365.66c-.329.256-1.023.145-1.114-.266l0-.033-.09-.047a.455.455,0,0,1-.225-.424.555.555,0,0,1,.267-.5l.1-.064.082-.051.04-.031.061-.069A.714.714,0,0,1,122.726,164.146Zm-.688.245a.59.59,0,0,1-.156.145l-.2.126a.083.083,0,0,0-.028.039l0,.02.1.049a.383.383,0,0,1,.21.367c0-.01.011-.015.029-.019l.032,0,.124,0a.207.207,0,0,0,.1-.025.429.429,0,0,0,.046-.646.2.2,0,0,0-.261-.048Zm26.354-12.09.014,2.05.014.066.034.117a1.867,1.867,0,0,0,.476.747,1.232,1.232,0,0,1,.362.921,2.77,2.77,0,0,1-.106.687l-.076.283q-.016.063-.028.115a2.319,2.319,0,0,0-.033.331l-.014.392a2.673,2.673,0,0,1-.034.354.542.542,0,0,1-.3.438l-.022.051.218-.025.484-.069c.082-.012.165-.022.244-.03a2.008,2.008,0,0,1,.783.03,9.829,9.829,0,0,0,1.252.291.617.617,0,0,1,.039-.106.536.536,0,0,1,.336-.31.621.621,0,0,1,.39.022,1.438,1.438,0,0,1,.338.21l.338.265a2.256,2.256,0,0,0,2.5.445.847.847,0,0,1,.135-.218.5.5,0,0,1,.378-.181.564.564,0,0,1,.3.093l.351.237a3.476,3.476,0,0,0,.612.342l.08.028.1.021-.007-.007a1.321,1.321,0,0,0-.159-.108l-.342-.192a1.771,1.771,0,0,1-.315-.215.553.553,0,0,1-.175-.281.721.721,0,0,1,.148-.587l.064-.081a1.294,1.294,0,0,1-.122.044.453.453,0,0,1-.38-.03l-.066-.04c-.118-.066-.3-.116-.829-.017a.337.337,0,0,1-.256-.056.6.6,0,0,1-.221-.358.686.686,0,0,1,.271-.736,1.163,1.163,0,0,1,.921-.079.761.761,0,0,1-.106-.53l.035-.187-3.34.059a.254.254,0,0,1-.22-.116.259.259,0,0,1-.017-.249l.145-.32.1-.241a3.583,3.583,0,0,0,.2-.6l.01-.087a1.47,1.47,0,0,1,.327-.7,3.635,3.635,0,0,1,.554-.579,1.683,1.683,0,0,1-.239-.174.534.534,0,0,1-.195-.512,1.427,1.427,0,0,0-.035-.619Zm10.133-4.654-3.209.1c-.022.029-.045.056-.069.082l-.184.168a.953.953,0,0,0-.132.159,1.866,1.866,0,0,0-.175.578.782.782,0,0,1-.362.482,1.134,1.134,0,0,0-.333.4,3.253,3.253,0,0,0-.377.966,3.491,3.491,0,0,0-.022.969l.031.227.029.15.009.02.028.087.042.156a2.035,2.035,0,0,1,.042.824l.039.044a.785.785,0,0,0,.093.072l.289.183a.521.521,0,0,1,.131.125.3.3,0,0,1-.077.422l-.076.042a2.247,2.247,0,0,0-.614.594.965.965,0,0,0-.224.41,2.628,2.628,0,0,1-.171.642l-.112.291-.054.135,3.262-.059a.256.256,0,0,1,.261.249l-.008.071-.094.481a.352.352,0,0,0,.122.283,1.5,1.5,0,0,0,.313.255l.21-.059a3.144,3.144,0,0,1,1.062-.2l.449.017Zm4.479-.276-3.967.251.111,8.906a.731.731,0,0,1,.5-.114.572.572,0,0,1,.509.351,1.2,1.2,0,0,1,.071.192l.031.111.177-.113.009-.038a.731.731,0,0,0-.06-.523,1.656,1.656,0,0,0-.307-.446l-.035-.035a.256.256,0,0,1,.2-.4l2.266-.132,1.473-.1.67-.055.249-.025a6.046,6.046,0,0,1-.146-1.452l.022-.2a2.317,2.317,0,0,0-.238-1.375l-.084-.159-.085-.136a.231.231,0,0,1-.035-.074Zm4.222-.44-3.711.364,1.294,4.329.1.174a3.055,3.055,0,0,1,.388,1.661l-.023.179a3.917,3.917,0,0,0,.067,1.194l.055.276c.009.039.017.074.023.1l.012.024a1.273,1.273,0,0,0,.3.513l4.623-.208a.264.264,0,0,1,.132.03l.311.165.053-.554a.255.255,0,0,1,.248-.232l.547-.014.011-.16a7.475,7.475,0,0,1,.527-2,2.545,2.545,0,0,1-.273-.365,1.223,1.223,0,0,1-.152-.509l-.02-.175-.015-.091a1.135,1.135,0,0,1-.568-.775.214.214,0,0,0-.083-.1l-.074-.052-.082-.05a2.126,2.126,0,0,1-.534-.385,1.689,1.689,0,0,1-.247-.425l-.062-.148a.317.317,0,0,0-.149-.166l-.18-.1c-.038-.02-.077-.043-.12-.068l-.278-.169a6.054,6.054,0,0,1-.725-.529,1.279,1.279,0,0,1-.409-.547c-.019-.069-.085-.1-.152-.128-.085-.039-.182-.069-.274-.1a1,1,0,0,1-.534-.341.7.7,0,0,1-.028-.633Zm-45.2-4.893-1.914,11.536,1.158.109.043-.648a.258.258,0,0,1,.284-.238l2.653.3-.074-.117a.257.257,0,0,1,.247-.392l6.725.786.9-10.309-1.022-.059-1.169-.078-1.285-.1-.907-.079-.937-.09-.958-.1c-1.127-.127-2.279-.278-3.392-.46Zm-8.582-1.31a5.032,5.032,0,0,1-.052.622,1.828,1.828,0,0,1-.3.824.557.557,0,0,1-.587.212.328.328,0,0,1-.2-.142.51.51,0,0,1-.067-.192l-.009.01a.554.554,0,0,1-.256.134l-.286.066a2.9,2.9,0,0,1-.017.587l-.02.159-.048.333-.181,1.015.04.679a.8.8,0,0,1,.508.775.912.912,0,0,1-.4.707l-.15.108-.188.124-.026.129a1.535,1.535,0,0,1-.67.952l.017.091a.364.364,0,0,0,.013.047c.061.186.158.389.189.534a.679.679,0,0,1-.348.7,1.4,1.4,0,0,1-.152.09l1.605.991,4.516,2.744,3.228.481L121.5,142.12Zm57.738,5.32-.241.008-.462.033-.676.071-.813.1-1.131.576a1.291,1.291,0,0,0-.154.27c-.023.061-.057.124-.023.176a.306.306,0,0,0,.158.093l.376.135a.746.746,0,0,1,.49.489.434.434,0,0,0,.117.168l.135.124a6.568,6.568,0,0,0,1.186.785.8.8,0,0,1,.367.375,2.333,2.333,0,0,0,.259.491,2.262,2.262,0,0,0,.511.344.807.807,0,0,1,.364.435,1.126,1.126,0,0,0,.141.323.36.36,0,0,0,.087.1l.054.027a.433.433,0,0,1,.291.341l.017.091.023.211a.753.753,0,0,0,.082.329l.092.137.036-.056a3.424,3.424,0,0,1,.353-.407,1.017,1.017,0,0,1-.145-.159.576.576,0,0,1-.047-.705.512.512,0,0,1,.246-.194,1.252,1.252,0,0,1,.283-.07l.418-.052a1.707,1.707,0,0,0,1.37-.924l.213-.392.174-.334.349-.7.082-.153a1.536,1.536,0,0,1,.135-.2l-1.921-1.492-1.826.177a.577.577,0,0,1-.621-.248l-.048-.09-.069-.176c-.006-.014-.009-.032-.027-.038l-.027-.006Zm-16.381-1.3-7.438.133.191,5.769.59.046a.257.257,0,0,1,.237.254l0,.837,4.788.008a4.152,4.152,0,0,1,0-1.3,3.762,3.762,0,0,1,.44-1.138,1.682,1.682,0,0,1,.513-.582.321.321,0,0,0,.15-.232l.027-.142a1.45,1.45,0,0,1,.195-.525,1.5,1.5,0,0,1,.257-.291c.064-.059.129-.1.159-.176a.466.466,0,0,0,.011-.2,1.4,1.4,0,0,1,.254-.81l.311-.5c.033-.057.062-.114.087-.168l-.432-.012-.409-.022a1.39,1.39,0,0,1-.174-.022.275.275,0,0,1-.23-.34.3.3,0,0,1,.247-.208.184.184,0,0,0,.111-.1l.049-.1a1.5,1.5,0,0,0,.06-.168Zm-22.236-1.658-.069.777,5,.393a.255.255,0,0,1,.229.195l.007.081-.051,2.945v.73l.007.192.007.082c.005.052,0,.094.034.125a.384.384,0,0,0,.192.079l.386.076a1.035,1.035,0,0,1,.8.5.238.238,0,0,0,.129.059,1.709,1.709,0,0,0,.356.046c.271.012.571,0,.815,0a1.535,1.535,0,0,1,.485.072.579.579,0,0,1,.271.22,1.142,1.142,0,0,1,.1.2l.1-.032.054-.022c.209-.094.45-.111.906.3l.119.111a.166.166,0,0,0,.06.044l.041-.029.179-.161a.4.4,0,0,1,.439-.1l.07.04a1.564,1.564,0,0,0,.577.14,1.787,1.787,0,0,0,.609-.02l.123-.044a1.113,1.113,0,0,1,.765-.03l.422.114a.9.9,0,0,1,1.041-.093,1.6,1.6,0,0,1,.267.169l-.181-5.462a.254.254,0,0,1-.052-.15.258.258,0,0,1,.042-.146l-.024-.737-12.993-.608ZM99.727,126.153l-.043.178-.088.423-.165.845-.069.32a.865.865,0,0,1-.132.323l-.175.149c-.023.02-.048.042-.072.066l-.158.161c-.027.03-.054.061-.08.093a.993.993,0,0,0-.237.48.579.579,0,0,0,.07.3l.067.136.147.26a1.522,1.522,0,0,1,.154.348.522.522,0,0,1,0,.3,2.882,2.882,0,0,0-.084,2.329l.08.153.08.139a1.5,1.5,0,0,1,.24.6l0,.1-.012.109-.009.161a1.783,1.783,0,0,0,.027.4.707.707,0,0,0,.052.14l.066-.023a.834.834,0,0,0,.112-.07l.064-.049a.682.682,0,0,1,.718-.174.61.61,0,0,1,.34.6.559.559,0,0,1-.326.5,1.171,1.171,0,0,1,.078.186.508.508,0,0,1-.012.343.72.72,0,0,1-.492.382.4.4,0,0,1-.262,0,.372.372,0,0,1-.144-.088,2.621,2.621,0,0,0,.061.372l.014.049.031.088.135.083a1.877,1.877,0,0,1,.248.194.845.845,0,0,1,.3.576.832.832,0,0,1-.215.537l-.155.187c-.029.038-.066.069-.061.113a.775.775,0,0,0,.07.193l.218.435.289.537.47.829a.262.262,0,0,1,.035.135l-.012.07,0,.009-.017.078a.747.747,0,0,0,.089.514.33.33,0,0,0,.111.091.682.682,0,0,1,.111.094.431.431,0,0,1,.083.464,1.078,1.078,0,0,1-.087.2l-.119.215a.79.79,0,0,0-.077.174.1.1,0,0,0,.017.1,1.782,1.782,0,0,0,.41.279l.289.153.294.151a3.111,3.111,0,0,1,.636.388l.224.265.174.195c.093.1.2.205.3.3a2.166,2.166,0,0,0,.181.15l.087.058c.041.025.074.051.1.048a.5.5,0,0,1,.542.34l.041.107.068.231a.426.426,0,0,0,.064.164.564.564,0,0,0,.123.1l.176.111a3.157,3.157,0,0,1,.9.851,1.818,1.818,0,0,1,.247,1.2l-.012.151c-.01.122-.023.239-.028.345v.151c0,.064,0,.122.037.153a.223.223,0,0,0,.11.026l.079.005c.088.007.189.009.3.009l.566-.009a6.2,6.2,0,0,1,2.812.435,1.583,1.583,0,0,0,.4-.186.443.443,0,0,0,.108-.095.093.093,0,0,0,.027-.076l-.038-.132-.115-.305a1.255,1.255,0,0,1-.079-.3.446.446,0,0,1,.2-.45,1.069,1.069,0,0,0,.494-.68l.03-.158a.352.352,0,0,1,.081-.161.751.751,0,0,1,.118-.1l.082-.056a1.847,1.847,0,0,0,.312-.226.343.343,0,0,0,.122-.24.322.322,0,0,0-.255-.32l-.035-.008a.256.256,0,0,1-.205-.236l-.056-.895L103.815,134.1a.257.257,0,0,1-.035-.22l1.762-5.928-1.042-.3-1.151-.344-1.263-.391-1.377-.44Zm80.126,14.913-.037-.161-.119.023c-.125.024-.265.056-.393.074l-.486.129-1.617.4-1.106.262-.974.221-1.021.221-.554.114c-1.227.247-2.453.461-3.457.568a1.99,1.99,0,0,1-.079.662,1.042,1.042,0,0,1-.8.754,2.054,2.054,0,0,0-1.34.835,1.371,1.371,0,0,1-.485.39,5.255,5.255,0,0,1-.867.326.789.789,0,0,0-.4.365,1.393,1.393,0,0,0-.136.289l1.657-.164,1.16-.59.04-.017.56-.077.59-.069.634-.06.15-.012.271-.012a1.774,1.774,0,0,1,.53.04.539.539,0,0,1,.315.316l.054.14c.008.02.01.043.027.056a.113.113,0,0,0,.077.013l1.985-.192a.254.254,0,0,1,.182.053l2.131,1.655a5.32,5.32,0,0,0,.773-.4.869.869,0,0,0,.355-.362,3.1,3.1,0,0,1,.529-.916,1.45,1.45,0,0,1,.452-.365l.12-.047a2.789,2.789,0,0,0,.639-.372l-.033-.007a.335.335,0,0,1-.256-.235.374.374,0,0,1,.011-.233,1.306,1.306,0,0,1,.306-.418l.024-.028-.109-.1a.442.442,0,0,1-.131-.171.272.272,0,0,1,.006-.215.327.327,0,0,1,.261-.182l.1-.015.257-.016.4-.008a.529.529,0,0,0,.406-.115.329.329,0,0,0,.065-.174,1.539,1.539,0,0,0,.007-.2,1.772,1.772,0,0,0-.151.1.441.441,0,0,1-.286.1.357.357,0,0,1-.27-.135.83.83,0,0,1-.088-.154,1.917,1.917,0,0,1-.613.24.465.465,0,0,1-.412-.1.331.331,0,0,1-.083-.317.93.93,0,0,1,.2-.374,1.847,1.847,0,0,1,.594-.534.924.924,0,0,1,.364-.1l.094,0a1.641,1.641,0,0,0,.03-.236,2.333,2.333,0,0,0-.06-.46Zm-10.271,1.9-.1.007-2.841.38a.248.248,0,0,1-.108-.009l-7.755.691.007.139a.256.256,0,0,1-.222.265l-.385.042-.414.033-.41.025-.474.017-.529.007-.02,0a1.339,1.339,0,0,0-.087.233,2.476,2.476,0,0,0-.078.443l-.01.166v.149a1.891,1.891,0,0,1-.335.809l-.087.14a3.219,3.219,0,0,0-.222.39.537.537,0,0,0-.064.269l0,.077,3.325-.108,4.293-.271a.261.261,0,0,1,.116-.041l2.264-.222a1.815,1.815,0,0,1,.238-.609,1.316,1.316,0,0,1,.685-.586,4.855,4.855,0,0,0,.781-.291.859.859,0,0,0,.307-.236,2.524,2.524,0,0,1,1.647-1.036.614.614,0,0,0,.459-.57,1.844,1.844,0,0,0,.022-.3ZM151.735,136.1l-6.293.012.274.581.1.227a3.092,3.092,0,0,1,.705.326.582.582,0,0,1,.3.508.551.551,0,0,1-.22.383l-.1.074.145.153.323.291a1.9,1.9,0,0,1,.138.136.676.676,0,0,1,.194.385l.016.353.015.663.007.756-.015,2.461.031.962,7.762-.139a.262.262,0,0,1,.2.085.254.254,0,0,1,.062.128v.082l-.014.1a2.359,2.359,0,0,1-.1.388l-.043.11a.7.7,0,0,1-.03.067l.465.02a2.929,2.929,0,0,1,.1-.557,1.2,1.2,0,0,1,.519-.749c.111-.061.177-.115.189-.182l-.023-.108a.474.474,0,0,0-.129-.128,1.078,1.078,0,0,1-.3-.448,3.843,3.843,0,0,1-.131-.386l-.064-.237-.041-.174-.257-.152-.256-.159-.278-.184c-.093-.063-.182-.127-.263-.19a2,2,0,0,1-.51-.54.728.728,0,0,1-.1-.49l.156-.833-.28-.1c-.045-.017-.087-.033-.121-.048a.619.619,0,0,1-.179-.108l-.018-.024-.094-.166-.089-.168a1.327,1.327,0,0,0-.463-.555A1.953,1.953,0,0,1,152,136.393Zm12.541,2.373-.38.027a1.489,1.489,0,0,1-.025.213.891.891,0,0,1-.279.51.851.851,0,0,1-.725.163l-.045.185a1.6,1.6,0,0,1-.261.579l-.333.411a.813.813,0,0,1-.435.272.933.933,0,0,1-.553-.069c-.05-.021-.084-.035-.111-.024l-.025.018-.037.051a1.682,1.682,0,0,1-.13.183.461.461,0,0,1-.216.142.422.422,0,0,1-.218,0l-.087-.029c-.04-.017-.087-.031-.118-.04l-.111.17a.5.5,0,0,1-.44.228.866.866,0,0,1-.521-.2.189.189,0,0,0-.194-.019.9.9,0,0,0-.175.074l-.137.08a.263.263,0,0,1-.072.031l-.025.167-.027.253-.009.163c0,.023,0,.044,0,.063l.007.048a.409.409,0,0,1-.192.459.871.871,0,0,1-.268.108,1.38,1.38,0,0,1,.021.248.519.519,0,0,1-.159.391c-.1.09-.3.158-.626-.005l-.112-.064a1.251,1.251,0,0,0-.257-.129l-.077-.014-.013.108a.809.809,0,0,0,0,.131,1.3,1.3,0,0,0,.019.132.622.622,0,0,1,.029.313.613.613,0,0,1-.092.235l.443-.016.2-.011.354-.023.394-.035-.007-.144a.257.257,0,0,1,.234-.267l8.111-.723.055-.061.153-.164.206-.207.257-.239a7.276,7.276,0,0,1,1.455-1.021.831.831,0,0,0-.629-.573.8.8,0,0,1-.695-.411.85.85,0,0,1,.042-.721c.024-.051-.017-.085-.069-.106l-.04-.013a.8.8,0,0,1-.377-.223.566.566,0,0,1-.466.25,2.076,2.076,0,0,1-.515-.08l-.314-.087-.466-.141-.263-.07a.544.544,0,0,1-.377-.162,2.4,2.4,0,0,1-.276-.321Zm-58.241-10.38-1.73,5.818,6.729,9.72c.047-.268.1-.576.125-.838.012-.1.02-.194.024-.275v-.147l-.005-.048a.391.391,0,0,1,0-.289.4.4,0,0,1,.176-.2.975.975,0,0,1,.278-.093l.153-.03.083-.021.092-.114.359-.475.063-.074a.241.241,0,0,1,.315-.038.25.25,0,0,1,.129.2v.035l-.013.121-.038.234-.016.148a1.844,1.844,0,0,0,.124-.464c.017-.11.027-.229.034-.341l.009-.3v-.154l-.007-.056.009-.074L115,130.034l-4.369-.861-.034-.012-.609-.106-.739-.153-.571-.129-.67-.162-.774-.2Zm33.724,9.115-5-.221-.04.63-.354,5.04,12.434.584.007-.063,0-.007.013-1.41v-.9l-.008-.793-.012-.464c0-.142-.01-.27-.017-.381l-.09-.111c-.014-.017-.029-.032-.043-.046l-.309-.281a2.484,2.484,0,0,1-.285-.3.493.493,0,0,1-.118-.322.4.4,0,0,1,.14-.283l.064-.05.1-.071.043-.033a1.1,1.1,0,0,0-.169-.122,2.713,2.713,0,0,0-.336-.15l-.179-.062-.963-.014-2.231-.067Zm17.992-5.461-3.518.158a1.13,1.13,0,0,1,.312.791,1.4,1.4,0,0,1-.352.932,1.486,1.486,0,0,1-.635.364l-.229.072c-.037.012-.072.025-.106.038a.315.315,0,0,0-.142.09c-.041.056-.02.122,0,.188.041.142.115.287.163.426a.637.637,0,0,1-.1.715l-.084.071a1.547,1.547,0,0,0-.426.521v.009a1.444,1.444,0,0,0,.495,1.874l.127.077a1.935,1.935,0,0,1,.677.78l.113.213.587.207a.257.257,0,0,1,.179.23l-.006.072-.095.477-.1.563c-.017.1.055.186.14.281a2.771,2.771,0,0,0,.511.421l.145.1.28.172.333.2.072.048a.462.462,0,0,1,.137.148l.019.044.06.264.052.2c.009.035.02.069.031.1l.035.106q.028.084.061.161a.471.471,0,0,1,.186-.19.767.767,0,0,1,.738.09l.126.073a.973.973,0,0,0,.111.058l-.014-.116-.043-.177-.014-.043a.257.257,0,0,1,.224-.318l.1-.01.059-.012.129-.038a2.41,2.41,0,0,1,.01-.464,6.642,6.642,0,0,1,.314-1.449l.064-.153a2.41,2.41,0,0,0,.216-1.254l-.027-.166a1.067,1.067,0,0,1,.181-.888l-.323-4.709a2.14,2.14,0,0,1-.768-1.344Zm-34.518,1.884-1.141,7.9.468.078.712.111.719.1.722.1.72.087,1.07.119,1.047.1,1.34.116.947.072,1.69.11,1.144.061,1.181.05.344-4.878.149-2.351.022-.482-2.328-.279Zm-7.73-3.505-2.019,10.088,8.079,1.4,1.164-8.048-2.593-.341a.256.256,0,0,1-.223-.233l-.051-.616-.04-.367a1.125,1.125,0,0,1,0-.184.644.644,0,0,1,.226-.459.493.493,0,0,0,.116-.25.927.927,0,0,0,.014-.2l-.964-.158Zm54.955,5.744a6.235,6.235,0,0,1-.284.814.625.625,0,0,1-.424.357.491.491,0,0,0-.457.316.812.812,0,0,0-.056.2l-.015.1a1.269,1.269,0,0,1-.061.264.478.478,0,0,1-.4.323l-.1.005a.221.221,0,0,0-.158.043.4.4,0,0,0-.088.3.643.643,0,0,1-.177.452l-.127.149a1.06,1.06,0,0,0-.173.354l-.039.1a.353.353,0,0,0-.044.286c.029.061.1.092.2.11l.084.012a1.321,1.321,0,0,1,1.079.958l.023.042.034.12.011.027.149-.03a1.288,1.288,0,0,1,.511-.064l.129.03a.626.626,0,0,0,.523-.1l.3-.171a2.574,2.574,0,0,1,.315-.153l.167-.054a.446.446,0,0,0,.244-.124.51.51,0,0,0,.093-.223l.078-.372.082-.315a6.719,6.719,0,0,1,.441-1.2,1.112,1.112,0,0,1,.273-.354.421.421,0,0,1,.213-.088.569.569,0,0,1,.3.053,1.012,1.012,0,0,1,.587-.732c.088-.047.176-.086.254-.135a.218.218,0,0,0,.119-.161.721.721,0,0,1,.181-.413.855.855,0,0,1,.477-.235l.269-.048.088-.021a.123.123,0,0,0,.067-.049.188.188,0,0,0,.025-.086l-.156.037a2.365,2.365,0,0,1-.5.1,2.849,2.849,0,0,0-1.3.472l-.2.137-.084.061-.127.1-.077.065a.258.258,0,0,1-.273.045.255.255,0,0,1-.155-.228l-.031-.93-1.486.257a.255.255,0,0,1-.194-.045.261.261,0,0,1-.1-.169Zm-7.7-2.984-2.669.07a.9.9,0,0,1-.641.412,1.081,1.081,0,0,1-.4-.02l.31,4.524a.257.257,0,0,1-.041.158l-.04.048a.561.561,0,0,0-.117.5,2.87,2.87,0,0,1-.14,1.539l-.088.209a2.734,2.734,0,0,0-.159.469,1.067,1.067,0,0,1,.237-.068.653.653,0,0,1,.557.159.305.305,0,0,0,.146.06h.045l.118-.182a.734.734,0,0,1,.05-.065.436.436,0,0,1,.231-.145.69.69,0,0,1,.414.061l.038-.054a1.42,1.42,0,0,1,.1-.142.566.566,0,0,1,.3-.184.635.635,0,0,1,.32.012l.1.035a.308.308,0,0,0,.442-.1c.07-.083.134-.174.2-.253a1.1,1.1,0,0,0,.252-.5l.018-.084a1.284,1.284,0,0,1,.073-.251.4.4,0,0,1,.19-.2.389.389,0,0,1,.2-.037l.085.012a.423.423,0,0,0,.367-.037.377.377,0,0,0,.107-.219,1.006,1.006,0,0,0,.017-.166l0-.124Zm7.089-1.3a1.521,1.521,0,0,0-.553.321,4.893,4.893,0,0,1-1.221.87l-.142.04-.317.069a1.1,1.1,0,0,0-.232.067l-.061.038a.95.95,0,0,1-.386.133,3.461,3.461,0,0,1-1.18-.013.815.815,0,0,1-.377-.184.44.44,0,0,1-.09-.124l-2.016.068.583,5.123.527-.041a.258.258,0,0,1,.226.1l.059.088.089.12.054.064.044.047.08.074a1.857,1.857,0,0,1,.391.083l.448.142.31.09a1.4,1.4,0,0,0,.378.059.1.1,0,0,0,.089-.065l.047-.1a.413.413,0,0,1,.117-.154.277.277,0,0,1,.182-.059.329.329,0,0,1,.209.083c.067.058.121.117.175.173a.369.369,0,0,0,.18.114.775.775,0,0,1,.223.1l.059-.075.129-.146a.171.171,0,0,0,.035-.1.9.9,0,0,1,.257-.671.676.676,0,0,1,.385-.171l.132-.006.011-.032.017-.088a1.83,1.83,0,0,1,.114-.47.921.921,0,0,1,.829-.61l.039-.046a.851.851,0,0,0,.079-.158l.057-.153.15-.475a1.817,1.817,0,0,1,.1-.252.936.936,0,0,0,.055-.325l.011-.243,0-.272,0-.268-.025-.593Zm-37.78-1.238-.379,3.74,2.926.353.061.01.043.014.046.024a.246.246,0,0,1,.111.158l.007.129-.007.285-.068,1.2c-.005.072-.009.145-.014.221l5.115.224,3.539.131.97.027.824.017-.346-.726c-.086-.184-.163-.352-.207-.472a3.213,3.213,0,0,1-.126-.587l-.1-.745a5.345,5.345,0,0,0-.133-.7l-.219-.757-.2-.67a1.351,1.351,0,0,1-.273-.174l-.09-.074a3.78,3.78,0,0,0-1.038-.664.706.706,0,0,0-.344-.064l-.352.079a1.709,1.709,0,0,1-.27.034.7.7,0,0,1-.738-.449.529.529,0,0,0-.331-.092,10.362,10.362,0,0,1-1.143.041l-.582-.012-.633-.023-1.011-.054-1.044-.07-1.026-.08-1.809-.161Zm47.12,4.25.44,2.243.561-.061-.057-.073a4.137,4.137,0,0,1-.6-1.31.545.545,0,0,1,.009-.215,2.1,2.1,0,0,1-.349-.584Zm-34.979-4.7-.037.044a.338.338,0,0,0-.05.274,1.429,1.429,0,0,1-.015.558l-.046.242-.022.163a.05.05,0,0,0,.007.027l.048.076.114.207a1.46,1.46,0,0,1,.158.415v.051l.414,1.4c.017.056.032.109.046.16a5.2,5.2,0,0,1,.129.684l.094.731a3.088,3.088,0,0,0,.122.576l.039.1,6.637-.012a.258.258,0,0,1,.19.084l.16.176a2.079,2.079,0,0,1,.558-.67c.056-.04.033-.1.016-.158l-.037-.108-.09-.221a.809.809,0,0,1,.02-.8,1.037,1.037,0,0,1,.553-.33l.216-.066a.868.868,0,0,0,.408-.244.949.949,0,0,0,.19-.584.806.806,0,0,0-.359-.6,3.782,3.782,0,0,0-.555-.387l-.444-.252c-.025-.015-.046-.028-.061-.04a.489.489,0,0,1-.136-.16,1.708,1.708,0,0,1-.145-.43,8.054,8.054,0,0,1-.137-.9l-.9.059-.889.045-.787.029-.571.014-.911.011h-.316l-.644-.005-.657-.015c-.221-.007-.443-.015-.664-.025l-.665-.038c-.331-.022-.662-.049-.986-.082Zm34.374.329-.3.018-.167.015-.5.059-.58.078-.981.145-1.4.222-2.134.357-1.258.219a.258.258,0,0,1-.3-.234l-.02-.283-.615.517.216,1.708.406,2.682,7.617-1.317.137-.126a2.182,2.182,0,0,1,.278-.208.725.725,0,0,1,.385-.122l.06-.032c.012-.008.025-.016.035-.024a1.284,1.284,0,0,0,.268-.267l.033-.05.053-.1-.089-.077-.05-.039-.3-.217a2.62,2.62,0,0,1-.281-.231.628.628,0,0,1-.229-.542c.011-.06.031-.144.058-.242l.1-.326c.054-.174.117-.36.179-.525l.06-.157c.017-.041.033-.08.049-.116a2.009,2.009,0,0,1-.251-.1.85.85,0,0,1-.416-.406.782.782,0,0,1-.066-.283Zm1.222.952-.062.14-.054.141-.11.312-.1.314c-.045.149-.08.281-.1.369l.043.061a1.743,1.743,0,0,0,.263.225l.252.182c.08.059.153.113.21.163a.688.688,0,0,1,.158.194.429.429,0,0,1,.035.244.978.978,0,0,1-.2.418,1.723,1.723,0,0,1-.5.453,1.309,1.309,0,0,0,.34.522l.1.07.077.035a1.472,1.472,0,0,1,.456.3.9.9,0,0,0,.079-.088,1.9,1.9,0,0,0,.394-.867,2.357,2.357,0,0,1,.166-.82l.074-.171a.3.3,0,0,0-.006-.2.609.609,0,0,0-.25-.327l-.108-.057a.527.527,0,0,1-.355-.4.613.613,0,0,1,.253-.554l-.027-.034a1.574,1.574,0,0,0-.325-.263,4.807,4.807,0,0,0-.709-.361Zm-58.251-6.338L121.449,126l-.009.049-.02.174-.054.394-.113.673-.137.725-.243,1.185-.276,1.3c-.006.028-.01.052-.014.072a.587.587,0,0,1,.109.364,1.214,1.214,0,0,1-.319.815.2.2,0,0,0-.048.169c0,.137.035.284.044.412l.033.4,2.647.348.022.006,8.105.93.8-7.932-.106,0-.675-.031-.695-.044-.354-.027-.715-.061-1.08-.108-1.073-.124-1.045-.134-1-.138-1.5-.225-1.423-.233Zm40.652-.226.035.107a.449.449,0,0,1-.174.552l-.1.049-.22.1a.514.514,0,0,0-.119.077.064.064,0,0,0-.027.053.967.967,0,0,1-.255.733.358.358,0,0,1-.354.074.426.426,0,0,1-.221-.183.659.659,0,0,0-.1.071.8.8,0,0,0-.249.553,5.835,5.835,0,0,1-.054,1.111l-.037.193-.056.226a.693.693,0,0,0-.035.35.537.537,0,0,0,.059.148l.142.278.066.15.063.172a4.71,4.71,0,0,1-.273,3.006l2.606-.066,2.385-.085c.025-.148.058-.294.092-.431l.1-.387a4.155,4.155,0,0,1,.362-.774l.322-.56a.717.717,0,0,0,.056-.321,1.942,1.942,0,0,0-.078-.573l-.045-.121a2.074,2.074,0,0,1-.083-.247l-.14-.506c-.035-.119-.072-.238-.114-.347a1.207,1.207,0,0,0-.135-.267l-.038-.049a.041.041,0,0,0-.022-.012.126.126,0,0,0-.127.045l-.22.26a1.517,1.517,0,0,1-.438.351,1.788,1.788,0,0,1-.684.166.542.542,0,0,1-.375-.137.414.414,0,0,1-.1-.421,1.547,1.547,0,0,1,.315-.557l.106-.129a2.112,2.112,0,0,0,.357-.558.575.575,0,0,0,.052-.351l-.04-.135-.109-.313c-.019-.054-.037-.108-.053-.162a1.547,1.547,0,0,1-.079-.441l-.051-.051a1.374,1.374,0,0,0-.184-.132,3.724,3.724,0,0,0-.869-.384l-.109-.023-.286-.048-.317-.041-.15-.014Zm17.648-1.426-.852.229-.346.1-.072.022a1.514,1.514,0,0,1-.422.053l-.234,0-.081.005c-.033,0-.064,0-.084.017l-.147.135-.731.735-.031.542a.254.254,0,0,1-.1.19l-.153.107-.143.111-.147.129-.084.091.09.122c.018.023.036.046.054.065a2.983,2.983,0,0,1,.233.286.6.6,0,0,1,.1.278.655.655,0,0,1-.223.462,2.8,2.8,0,0,1-.221.2l-.359.291c-.035.03-.068.059-.1.087l-.072.078a.5.5,0,0,1-.194.137,1.527,1.527,0,0,1-.28.08l-.251.043c-.161.022-.342.041-.53.059l-.568.054-.27.028a2.285,2.285,0,0,0-.573.11c-.22.1-.459.228-.644.325l.011.013a.931.931,0,0,1,.242.681.855.855,0,0,1-.312.555l-.792.681-.144.121.026.374,2.18-.372,1.655-.269.989-.153.91-.131.532-.07.451-.051.351-.029.133-.006a1.062,1.062,0,0,1,.226.016.315.315,0,0,1,.14.069.252.252,0,0,1,.095.207l-.008.058a.392.392,0,0,0,0,.239.365.365,0,0,0,.2.176l.11.043.312.091.2.08.236.1a4.2,4.2,0,0,1,.842.488,1.2,1.2,0,0,1,.376.472l-.032-.007a.884.884,0,0,0,.242.025l.233,0,.257-.011.244-.019a1.142,1.142,0,0,0,.834-.382l-.11.051a3.08,3.08,0,0,1-1,.26l-.175.012H181.7l-.034,0a.34.34,0,0,1-.3-.265v-.092l-.307-2.215,0-.041,0-.027.025-1.237a2.046,2.046,0,0,0-.111-.821l-.071-.173a.767.767,0,0,1-.043-.129l-.009-.056a.5.5,0,0,0-.223-.369l-.106-.082a.427.427,0,0,1-.172-.384.618.618,0,0,0-.032-.206,2.951,2.951,0,0,0-.183-.474.678.678,0,0,1-.017-.435l.074-.269a.414.414,0,0,0-.047-.376,1.626,1.626,0,0,1-.289-.828Zm-27.376-.209-.472.216a1.818,1.818,0,0,1-.556.171,1.409,1.409,0,0,1-.52-.065c-.014.159-.035.349-.062.514a1.523,1.523,0,0,1-.121.445.7.7,0,0,1-.142.169l-.083.071-.308.239a1.623,1.623,0,0,0-.182.163l-.06.084a.1.1,0,0,0,.043.051l.145.1a.516.516,0,0,1,.218.482.622.622,0,0,1-.1.341l-.027.035-.059.069a.486.486,0,0,0-.088.283l-.015.232a.572.572,0,0,0,.212.54,1.415,1.415,0,0,0,.421.213l.32.12a.983.983,0,0,1,.526.4.431.431,0,0,0,.127.122c.142.11.329.223.492.346a1.044,1.044,0,0,1,.455.611c.02.143.03.271.035.378l0,.182c0,.025,0,.047,0,.067l.03.33.038.312c.022.165.051.336.085.486l.043.15.056.151.142.085.325.185.255.159,3.606-.155.436-.024-.009-.236a2.43,2.43,0,0,0-.133-.628,1.653,1.653,0,0,1,.013-.6l.032-.185.081-.4.092-.394.126-.479.048-.176.066-.333.142-.806c.011-.059.022-.117.033-.176l-.381.46-.123.144-.227.257a3.347,3.347,0,0,1-.265.265.492.492,0,0,1-.244.123.273.273,0,0,1-.163-.033.287.287,0,0,1-.132-.351,6.134,6.134,0,0,1,.691-1.667l.059-.1.022-.066a.639.639,0,0,0-.048-.645,2.915,2.915,0,0,0-.5-.565,1.152,1.152,0,0,0-.776-.359l-.41-.023a2.907,2.907,0,0,1-.874-.176l-.391-.164-.237-.09-.823-.286a.252.252,0,0,1-.077-.041,1.05,1.05,0,0,1-.386-.014.555.555,0,0,1-.349-.239.5.5,0,0,1-.075-.276Zm-19.789,1.234-.572,5.626,1.982.192,1.281.109,1.368.1.681.042.66.034.625.023.575.012a10.165,10.165,0,0,0,1.129-.04.83.83,0,0,1,.862.4.223.223,0,0,0,.249.135,1.592,1.592,0,0,0,.292-.045l.251-.059a1.19,1.19,0,0,1,.618.088,3.7,3.7,0,0,1,.861.494,1,1,0,0,1,0-.393l.051-.241a.851.851,0,0,0,.017-.36.848.848,0,0,1,.175-.745l.059-3.573a1.716,1.716,0,0,1-.357-.213.773.773,0,0,1-.326-.643,1.192,1.192,0,0,1,.1-.418Zm50.979,4.577-2.063.469.214,1.57.179-.112.106-.063.5-.277.453-.242.241-.12.2-.093.175-.07.08-.027.153-.045.074-.017ZM115.15,114.733l-.7-.153-.071.215-.208.654-.185.613-.164.572-.145.531-.126.491-.157.662-.122.575-.064.335-.093.558-.044.32-.02.168h.008v-.007l.009.06.026.113a2.717,2.717,0,0,0,.278.631.766.766,0,0,1,.069.594,2.16,2.16,0,0,1-.46.781l-.185.21-.579.609c-.059.064-.116.127-.168.187a1.886,1.886,0,0,0-.181.246l-.038.073a.1.1,0,0,0-.007.033.254.254,0,0,0,.058.14.948.948,0,0,1,.085.663l-.03.189-.049.232-.072.281q-.021.077-.046.161l-.111.364-.141.428a8.5,8.5,0,0,0-.236.877l-.1.464-.079.439-.061.384-.043.3,4.348.853,4.753.809.367-1.744.172-.86.106-.568q.025-.139.048-.273l.08-.508c.023-.159.042-.307.055-.438l.008-.108.005-.2v-.135a1.406,1.406,0,0,0-.853-.169l-.15.007-.281.022-.337.034-.08.005h-.06c-.058,0-.145,0-.245,0l-.489.022c-.106,0-.2.005-.27,0a.417.417,0,0,1-.3-.124l-.047-.08-.078-.153-.14-.306c-.016-.037-.031-.073-.046-.109a2.663,2.663,0,0,1-.142-.428l-.009-.064a.736.736,0,0,0-.035-.154l-.1-.306a1.3,1.3,0,0,1-.079-.416l.02-.253a2.705,2.705,0,0,0,0-.359l-.01-.095-.025-.111-.1,0-.054.007-.147.028-.413.095a.755.755,0,0,1-.1.014.347.347,0,0,1-.29-.108.284.284,0,0,1-.067-.208,3.124,3.124,0,0,1,.376-1.2l.257-.483c.03-.056.057-.108.08-.158l.03-.07a.575.575,0,0,0,.018-.057,10.033,10.033,0,0,1-1.341-1.579,1.647,1.647,0,0,1-.292-.6,2.593,2.593,0,0,0-.038-.268l-.182-.916c-.009-.056-.018-.11-.025-.158a2.724,2.724,0,0,1,.021-.51l.043-.366.056-.393Zm69.388,13.809-.376.108.3.94.193-.1.194-.107Zm-38.082-10.589-.034.23a.26.26,0,0,1-.2.246l-.263.017-.5.01-.528,0-.668,0-.8-.014.065-.089a1.246,1.246,0,0,0-.139,1.2l.191.71a3.476,3.476,0,0,1,.135.984v.313a5.811,5.811,0,0,0,.188,1.481l.065.179a2.063,2.063,0,0,1,.127,1.079l-.026.153-.033.133a.256.256,0,0,1-.136.155l0-.005-.018.016a.633.633,0,0,0-.195.434.272.272,0,0,0,.135.213,1.182,1.182,0,0,0,.239.145l.124.051.051.017a.256.256,0,0,1,.138.232l-.059,3.544.142.014.319.027.644.046.647.033.644.022.636.012.623,0,.9-.008.836-.02.988-.039.968-.055.508-.035a3.8,3.8,0,0,0-.033-.388.273.273,0,0,0-.1-.135,1.562,1.562,0,0,0-.186-.155l-.4-.276c-.046-.033-.088-.065-.127-.1a.819.819,0,0,1-.225-.265.13.13,0,0,0-.056-.051l-.131-.069-.208-.085a2.669,2.669,0,0,1-.743-.365c-.384-.333-.419-.577-.374-1.2a.987.987,0,0,1,.122-.451l.062-.091.03-.035a.192.192,0,0,0,.063-.14c0-.047-.031-.059-.058-.077a1.605,1.605,0,0,1-.145-.1.565.565,0,0,1-.2-.351.6.6,0,0,1,.192-.506,2.039,2.039,0,0,1,.237-.214l.258-.2a.663.663,0,0,0,.149-.13.459.459,0,0,0,.034-.111l.029-.165.033-.245.026-.243.03-.366a.28.28,0,0,1,.091-.187l1.94-1.686.385-.326.082-.064.113-.062.3-.153.234-.127.153-.093c-.107-.014-.225-.024-.337-.029l-.3-.009h-.189l-.038-.005-.047-.017a1.092,1.092,0,0,0-.292-.056.488.488,0,0,0-.192.026l-.059.033a.453.453,0,0,1-.263.081,1.691,1.691,0,0,1-.574-.128,9.007,9.007,0,0,1-1.286-.634l-.252-.156-.1-.069-.036-.03-.1-.007-.129,0-.25.014-.591.056h-.048l-.167-.02-.237-.04-.276-.055-.285-.064-.265-.068-.189-.056-.137-.051a.487.487,0,0,1-.129-.08l-.049-.06-.077-.112-.046-.072-.258-.444-.094-.166ZM185,126.5a3.536,3.536,0,0,1-1.23.759,7.549,7.549,0,0,1-1.245.351l-.018.008-.32.084-.255.06-.2.039-.145.023,0,.033-.017.874,2.139-.49.913-.263a.255.255,0,0,1,.312.157l.184.5a.445.445,0,0,1,.145-.027.478.478,0,0,1,.263.072l.061.041.088.074.054-.035a1.793,1.793,0,0,1,1.195-.33l.07.01a.22.22,0,0,0,.27-.2.319.319,0,0,0,0-.069.9.9,0,0,1-.166.12,1.226,1.226,0,0,1-1.064,0l-.161-.064a2.143,2.143,0,0,1-.49-.278.707.707,0,0,1-.281-.47.806.806,0,0,1,.056-.349l.08-.195.029-.081a.091.091,0,0,0,0-.081l-.063-.079-.153-.137Zm-81.535-8.52a.753.753,0,0,1-.344.094l-.194.011-.1.017-.061.166-.11.268-.236.547-.929,2.081-.615,1.352-.027.125a2.52,2.52,0,0,1-.2.538,1.362,1.362,0,0,1-.606.625.231.231,0,0,0-.108.14,1.362,1.362,0,0,0-.074.386c-.026.339-.006.733-.016,1.075l-.014.242,1.164.381,1.158.37,1.076.334,1.615.485.866.249.79.22.941.25,1,.252.954.22.495.1.608.114.051-.348.073-.444a12.463,12.463,0,0,1,.409-1.74l.13-.393.1-.333.111-.4.048-.205.03-.165c0-.025.007-.048.009-.069l.008-.114c0-.017,0-.033,0-.048l-.009-.078c0-.011,0-.022-.007-.032l-.03-.078-.036-.065a.6.6,0,0,1-.078-.308.823.823,0,0,1,.162-.448,3.86,3.86,0,0,1,.378-.453l.485-.51a3.6,3.6,0,0,0,.529-.671c.079-.145.132-.279.064-.4a3.978,3.978,0,0,1-.246-.495l-.4-.073-.383-.078-.242-.057c-.074-.019-.14-.038-.192-.055l-.067-.025a1.948,1.948,0,0,0-.336-.085l-.344-.059-.558-.08-.53-.067-.195-.012-.492-.014-1-.007-.478,0-.107,0a2.694,2.694,0,0,1-.96-.158,1.094,1.094,0,0,1-.5-.341l-.162-.031-.171-.022-.085-.007-.18-.005-.552-.007a2.245,2.245,0,0,1-.568-.059.653.653,0,0,1-.44-.5c-.059-.229-.035-.524-.078-.749a.753.753,0,0,0-.12-.26Zm79.776,4.257-.088-.376.033-.041a1.129,1.129,0,0,0-.161.257l.062.47.025.25.019.131.054.252a.678.678,0,0,1-.062.427.781.781,0,0,1-.4.353.2.2,0,0,0-.113.166,1.175,1.175,0,0,0,0,.276l.046.4a2.245,2.245,0,0,1,.015.565,5.675,5.675,0,0,0-.047,1.048l.022.36.028.282a6.777,6.777,0,0,0,.908-.276,2.479,2.479,0,0,0,1.31-.975,3.02,3.02,0,0,1-.828-1.123,12.086,12.086,0,0,1-.7-1.958Zm-67.592-7.4-.118.689-.073.49-.035.278-.022.24a1.336,1.336,0,0,0,0,.249l.058.339.116.573c.036.184.065.347.074.453l.068.131.088.152.051.079a9,9,0,0,0,1.29,1.51c.154.129.195.362.053.677l-.065.132-.261.477a3.182,3.182,0,0,0-.308.78l.265-.056c.09-.017.178-.031.247-.037a.592.592,0,0,1,.434.108.729.729,0,0,1,.2.426,2.347,2.347,0,0,1,.022.413l-.013.252-.014.171a.43.43,0,0,0,.027.137l.062.182a3.819,3.819,0,0,1,.119.418l.009.073a.433.433,0,0,0,.025.1l.055.145.084.2.153.331.583-.019c.11,0,.215,0,.3,0l.1.005a1.057,1.057,0,0,0,.147-.007l.354-.037a4.425,4.425,0,0,1,.607-.024,1.974,1.974,0,0,1,.694.142l.045-.507a.26.26,0,0,1,.1-.182.257.257,0,0,1,.131-.051l.079.005,1.287.224,1.418.229,1.487.22,1.367.182,1.141.137.579.063c1.159.121,2.321.213,3.377.246l.8-7.9-1.2-.139-1.246-.154-1.29-.17-1.334-.187-1.375-.2-1.417-.223-1.457-.242q-.739-.126-1.5-.262l-1.535-.282q-2.333-.439-4.832-.978Zm70.649,1.633a2.144,2.144,0,0,1-.414.3.958.958,0,0,1-1.079-.066.957.957,0,0,0-.15.178,1.883,1.883,0,0,0-.248.971l.006.654.025,1.115.028.918,0,.127-.015.128a.912.912,0,0,1-.824.8l.088.393.086.347.106.4.127.427a9.672,9.672,0,0,0,.495,1.291,2.624,2.624,0,0,0,.6.888l.138-.289a3.175,3.175,0,0,0,.222-.611l.012-.083a.511.511,0,0,1,.137-.343.556.556,0,0,1,.282-.153l.1-.019.244-.028c.085-.009.145-.088.2-.166a2.7,2.7,0,0,0,.22-.378.693.693,0,0,1,.47-.3c.074-.017.153-.03.229-.044l-.087-.082a1.31,1.31,0,0,1-.212-.252.374.374,0,0,1,0-.418.6.6,0,0,1,.723-.235c.107.025.216.068.32.1a.534.534,0,0,0,.1.022l.042,0,.391-.406a2.81,2.81,0,0,1,.751-.6l.243-.11c.021-.01.04-.02.057-.03a.948.948,0,0,1-.316-.555l-.163.021c-.344.035-.666-.04-.747-.389l-.016-.1a1.105,1.105,0,0,0-.023-.146l-.027-.1-.111,0-.053-.006a.408.408,0,0,1-.344-.28l-.057-.178-.135-.368-.253-.662-.125-.346c-.02-.056-.038-.111-.055-.165a2.514,2.514,0,0,1-.15-.683l-.006-.019-.028-.036a.846.846,0,0,0-.179-.153,3.176,3.176,0,0,0-.622-.286Zm-29.927,5.349-.979.63-.046.023-.29.118-.244.106-.271.124-.265.133-.171.1a.917.917,0,0,0-.127.086l-.05.051.327.116.323.12.138.055.112.048a2.286,2.286,0,0,0,.8.21l.393.022a1.655,1.655,0,0,1,1.218.512l.23.228a2.45,2.45,0,0,1,.351.44,1.524,1.524,0,0,1,.108.218,5.964,5.964,0,0,1,.5-.562,1.67,1.67,0,0,1,.777-.5.762.762,0,0,1,.275.009l.424-.2.293-.142.216-.114.154-.089.106-.07.1-.078.063-.059.021-.018a.647.647,0,0,1,.393-.089,2.069,2.069,0,0,1,.636.133.831.831,0,0,1,.2.113l.17-.121a.512.512,0,0,1,.313-.08l.167.014.09.011a3.547,3.547,0,0,0-.175-.312l-.032-.012-.066-.012-.117-.009-.248,0a.84.84,0,0,1-.609-.212,1.3,1.3,0,0,1-.233-.34,8.922,8.922,0,0,0-1.128.244l-.191.06a1.015,1.015,0,0,0-.377.169.952.952,0,0,1-.438.244,2.613,2.613,0,0,1-.79.086,1.729,1.729,0,0,1-.485-.081.629.629,0,0,1-.274-.173.173.173,0,0,0-.069-.039l-.048-.017a2.586,2.586,0,0,0-.508-.116l-.095-.012-.2-.012-.244,0h-.077a.248.248,0,0,1-.209.009l-.033-.016a.259.259,0,0,1-.127-.31.656.656,0,0,1,.032-.085l.062-.13.1-.18Zm-23.023-4.084-.607,5.955,10.838.542a1.579,1.579,0,0,0-.043-.684l-.048-.133a6.347,6.347,0,0,1-.291-2.193,3.1,3.1,0,0,0-.132-.9l-.124-.438c-.02-.072-.04-.143-.057-.214a2.045,2.045,0,0,1,0-1.247l-.955-.033-1.069-.048-1.18-.065-.848-.054-1.359-.1-.964-.079-1.01-.09-1.054-.1Zm-27.035-5.171-.025.089a.534.534,0,0,1,.121.154.958.958,0,0,1,.082.587.408.408,0,0,1-.121.212l.074.248a2.954,2.954,0,0,1,.09.4.535.535,0,0,1-.128.469l-.4.378c-.1.1-.217.2-.32.278a1.4,1.4,0,0,1-.376.231.339.339,0,0,1-.275-.017.294.294,0,0,1-.151-.192.684.684,0,0,1,.054-.4l.145-.355.131-.289-.1-.077-.652-.423-.448-.3c-.146-.1-.285-.2-.4-.283l-.186-.142c-.054-.044-.1-.084-.137-.118l-.077.1a.655.655,0,0,0-.124.337l.005.045.038.929.007.335v.473a2.791,2.791,0,0,1-.033.44.9.9,0,0,0,.067.469l.043.12.113.3a.664.664,0,0,1,.02.069.309.309,0,0,1-.037.226.319.319,0,0,1-.154.13.637.637,0,0,1-.156.037l-.083.011a.1.1,0,0,0-.039.017l-.01.011.088.02c.094.015.195.03.285.054a.763.763,0,0,1,.21.086l.1.075.143.153.137.166a1.682,1.682,0,0,1,.342.638c.036.187.025.422.054.629l.021.115a.15.15,0,0,0,.1.116.809.809,0,0,0,.179.03l.239.009.5,0c.167,0,.33.005.472.02a1.307,1.307,0,0,1,.367.08.474.474,0,0,1,.223.176.542.542,0,0,0,.267.161,2.143,2.143,0,0,0,.764.125l.419-.006,1.241.009.3.007.239.009.155.012.516.069.553.082.359.061c.168.031.313.062.408.09l.078.027a2.156,2.156,0,0,0,.332.095l.3.063.289.054.043-.364.055-.371.08-.457.108-.544.09-.412.106-.452.124-.492.142-.533.162-.575.184-.615.207-.659q.054-.169.112-.345-3.66-.831-7.632-1.9Z" transform="translate(-13.414 0)" stroke="#000" stroke-width="1" fill-rule="evenodd"/>
    <path id="Path_13188" data-name="Path 13188" d="M519.557,240.8A1.555,1.555,0,1,1,518,242.355,1.555,1.555,0,0,1,519.557,240.8Zm0,.519a1.037,1.037,0,1,0,1.037,1.036A1.036,1.036,0,0,0,519.557,241.319Z" transform="translate(-355.665 -104.953)"/>
    <path id="Path_13189" data-name="Path 13189" d="M522.051,245.156l-.609.32.116-.678-.493-.48.681-.1.3-.618.305.618.681.1-.493.48.116.678Z" transform="translate(-358.162 -107.236)" fill-rule="evenodd"/>
    <path id="Path_13190" data-name="Path 13190" d="M391.965,409.564c.009.012.014.012.016,0l-.007-.149a.806.806,0,0,0-.073-.325.43.43,0,0,0-.27-.224l-.149-.043c-.025-.007-.033-.01,0,.048l-.022-.04-.067-.093-.075-.093.114-.047a3.742,3.742,0,0,0,.553-.333c.14-.046.225-.228.225-.46a.782.782,0,0,0-.022-.186l-.049-.168.126-.036a1.861,1.861,0,0,1,.361-.062l.1.005a4.427,4.427,0,0,1,.962.3.7.7,0,0,0,.519.013l.16-.041a.563.563,0,0,1,.29-.037l.064.027a1.044,1.044,0,0,0,1.055.028,3.484,3.484,0,0,1,1.535.2c.238.084.419.044.5-.137l.039-.114.026-.017a.93.93,0,0,1,.333,0l.289.035.161.024.341.058.171.033.324.07c.153.035.288.072.388.106l.088.033a1.159,1.159,0,0,0,.529.095l.117-.008.109-.02.5-.153a3.622,3.622,0,0,1,1.722.606l.128.064a1.612,1.612,0,0,0,.845.161l.23-.018-.038.166-.033.157a1.311,1.311,0,0,0,.025.67l.025.066-.151.051-.294.085c-.106.028-.218.056-.325.079l-.155.031c-.155.029-.263.119-.415.356l-.124.206-.417.746-.072.118-.056.08-.026.031a.5.5,0,0,1-.338.088l-.166-.006-.409-.049-.1,0a.134.134,0,0,0-.053.013l-.177.094a.226.226,0,0,1-.121.041l-.033-.006a1.059,1.059,0,0,0-.7.118l-.243.11-.331.159c.033-.014.014-.041-.036-.085l-.176-.145a1.16,1.16,0,0,0-.472-.292.533.533,0,0,0-.5.15l-.151.137-.127-.128a1.074,1.074,0,0,0-.521-.279,1.515,1.515,0,0,0-.621.024c-.084.017-.169.038-.26.065l-.244.077-.276.088a.108.108,0,0,1-.046,0l-.057-.017-.114-.052-.075-.039a1.4,1.4,0,0,0-.4-.148.607.607,0,0,0-.632.162l-.09.112h-.007l-.208.079-.582.195-.059.022c-.084.034-.2-.021-.37-.178a1.055,1.055,0,0,0-.767-.217l-.107.009a.609.609,0,0,0-.341.219l-.028.032-.026-.007a.7.7,0,0,0-.227.006l-.207.032a.27.27,0,0,1-.114,0c.008,0,.014-.03.017-.079l.013-.321a.114.114,0,0,1,0-.028.435.435,0,0,0,.09-.355l-.026-.215.025-.018c.152-.125.218-.206.218-.375v-.068c0-.09,0-.113.031-.143l.031-.025a.4.4,0,0,0,.179-.413.388.388,0,0,0-.1-.193Zm-.555.784v.127l0-.012H391.4l-.035.027a.413.413,0,0,0-.2.351v.037l.03.252c0,.02.011.024.03,0-.207.248-.2,1.106.188,1.247a.74.74,0,0,0,.348.031l.283-.041a.368.368,0,0,0,.441-.091l.137-.146.017-.01c.236,0,.357.027.42.084a.86.86,0,0,0,.8.31l.731-.244a1.169,1.169,0,0,0,.407-.2l.076-.09c.035-.046.043-.061.086-.057l.1.017a.706.706,0,0,1,.179.062l.265.132.072.028.04.012a.634.634,0,0,0,.367.011l.4-.127.243-.07.108-.025a1.064,1.064,0,0,1,.409-.024.582.582,0,0,1,.278.155l.145.142a.524.524,0,0,0,.234.147l.059.011.038,0a.433.433,0,0,0,.275-.108l.088-.077.1-.1.071-.059a.231.231,0,0,1,.063.033l.116.087.3.249c.232.181.329.2.514.129l.406-.195.173-.077.087-.035.144-.048a.33.33,0,0,1,.114-.019.659.659,0,0,0,.555-.077l.037-.02a.061.061,0,0,0,.023-.02l.169.025a2.79,2.79,0,0,0,.43.03.922.922,0,0,0,.722-.265l.073-.09.075-.113.094-.158.3-.547.268-.453c0-.005,0-.008,0-.007.668-.124,1.234-.291,1.378-.55l.069-.124-.067-.125a.8.8,0,0,1-.088-.6l.042-.188a2.028,2.028,0,0,0,.077-.521v-.3l-.292.038a1.73,1.73,0,0,1-1.132-.067l-.507-.256-.371-.173a2.053,2.053,0,0,0-1.336-.26l-.417.129-.1.022-.087.006a.639.639,0,0,1-.3-.054,5.906,5.906,0,0,0-2.538-.339.577.577,0,0,0-.192.154l-.043.059.079.027a3.279,3.279,0,0,0-1.958-.17.491.491,0,0,1-.48,0l-.184-.077a.747.747,0,0,0-.495-.02l-.323.08-.094.014a.1.1,0,0,1-.048-.005,4.836,4.836,0,0,0-1.13-.346c-.395-.049-1,.138-1.115.417a.468.468,0,0,0-.033.228l.008.06.038.132a.487.487,0,0,1,.022.09l0,.037c0,.02,0,.026.009.025l.042-.018-.14.092-.237.145a1.265,1.265,0,0,1-.31.137l-.045.005a.317.317,0,0,0-.323.421.691.691,0,0,0,.1.2l.1.13.125.155a.349.349,0,0,0,.254.2l.158.043a.023.023,0,0,0,.02,0l.008.047.015.218a.423.423,0,0,0,.1.281l.031.034-.071.08a.573.573,0,0,0-.113.344Z" transform="translate(-251.907 -240.252)"/>
  </g>
</svg>
