<svg xmlns="http://www.w3.org/2000/svg" width="102.671" height="80.095" viewBox="0 0 102.671 80.095">
  <g id="new_icon" data-name="new icon" transform="translate(-580.329 -222)">
    <g id="noun-nation-3337764" transform="translate(580.329 222)">
      <path id="Path_1" data-name="Path 1" d="M93.956,86.844a5.683,5.683,0,0,0-4.563,2.74,11.8,11.8,0,0,0-1.893,6.6,1.683,1.683,0,0,0,.27.944.81.81,0,0,0,.652.391h22.135a.81.81,0,0,0,.652-.391,1.683,1.683,0,0,0,.27-.944,11.794,11.794,0,0,0-1.893-6.6,5.684,5.684,0,0,0-4.563-2.74h-2.767V67.48l6.533,1.381h0a16.744,16.744,0,0,0,4.513.63,17.763,17.763,0,0,0,8.214-2.074l1.129-.6a15.738,15.738,0,0,1,11.208-1.481l7.91,1.913a.85.85,0,0,0,.933-.608,1.846,1.846,0,0,0-.028-1.48l-7-14.282,7-14.282a1.854,1.854,0,0,0,.1-1.285,1.076,1.076,0,0,0-.7-.8l-7.91-1.914h0a17.015,17.015,0,0,0-12.133,1.6l-1.13.588a15.73,15.73,0,0,1-11.8,1.335l-6.841-1.453v-2.3a8.574,8.574,0,0,0,2.683-5.545,10.727,10.727,0,0,0-1.21-6.538,4.572,4.572,0,0,0-8.479,0,10.727,10.727,0,0,0-1.21,6.538,8.575,8.575,0,0,0,2.683,5.545V86.844ZM108.79,38.749A17.2,17.2,0,0,0,121.518,37.3l1.129-.586a15.754,15.754,0,0,1,11.208-1.485l6.456,1.563-6.526,13.32a1.824,1.824,0,0,0,0,1.543l6.095,12.439-5.718-1.384a17.018,17.018,0,0,0-12.133,1.6l-1.13.586a15.722,15.722,0,0,1-11.8,1.335l-6.844-1.445V37.369ZM95.8,25.446a6.735,6.735,0,0,1,1.08-3.775,2.958,2.958,0,0,1,5.218,0,7.137,7.137,0,0,1,0,7.551,2.958,2.958,0,0,1-5.218,0A6.735,6.735,0,0,1,95.8,25.446Zm4.612,8.008V86.844H98.568V33.455ZM97.645,89.513h7.378a3.866,3.866,0,0,1,2.916,1.506,7.621,7.621,0,0,1,1.6,3.833H89.437a7.621,7.621,0,0,1,1.6-3.833,3.866,3.866,0,0,1,2.916-1.506Z" transform="translate(-87.5 -17.427)" fill="#0193d5"/>
    </g>
    <g id="business_objective" transform="translate(628.982 246.109)">
      <line id="Line_1" data-name="Line 1" x2="37.373" transform="translate(0 9.378)" fill="none" stroke="#bfbfbf" stroke-miterlimit="8" stroke-width="0.5"/>
      <path id="Path_5" data-name="Path 5" d="M57.41,27.458A9.361,9.361,0,1,1,66.753,36.8a9.361,9.361,0,0,1-9.343-9.343" transform="translate(-22.113 -18.08)" fill="#0193d5" fill-rule="evenodd"/>
    </g>
  </g>
</svg>
