<svg xmlns="http://www.w3.org/2000/svg" width="468.609" height="299" viewBox="0 0 468.609 299">
  <g id="new_icon" data-name="new icon" transform="translate(-581.329 -234.5)">
    <g id="noun-nation-3337764" transform="translate(3183.829 472.073)">
      <path id="Path_1" data-name="Path 1" d="M122.378,276.566A34.92,34.92,0,0,0,87.5,311.444a4.982,4.982,0,0,0,4.983,4.983H212.066a4.982,4.982,0,0,0,4.983-4.983,34.92,34.92,0,0,0-34.878-34.878H167.222V204.28l35.292,5.156v0a128.652,128.652,0,0,0,24.379,2.351,131.493,131.493,0,0,0,44.377-7.743l6.1-2.222a119.326,119.326,0,0,1,60.549-5.53l42.735,7.14a4.984,4.984,0,0,0,4.885-7.794l-37.812-53.314,37.812-53.314a4.981,4.981,0,0,0-3.239-7.8l-42.735-7.145,0,0a129.011,129.011,0,0,0-65.549,5.979l-6.1,2.193a119.453,119.453,0,0,1-63.732,4.983L167.22,81.8V73.212a29.9,29.9,0,1,0-29.9,0V276.567Zm80.138-179.54a130.7,130.7,0,0,0,68.76-5.416l6.1-2.187a119.447,119.447,0,0,1,60.549-5.545L372.8,89.712l-35.257,49.726a4.947,4.947,0,0,0,0,5.759l32.925,46.434-30.892-5.167a129.031,129.031,0,0,0-65.549,5.979l-6.1,2.187a119.393,119.393,0,0,1-63.732,4.983l-36.972-5.394V91.872ZM132.344,47.364a19.928,19.928,0,1,1,5.837,14.094A19.938,19.938,0,0,1,132.344,47.364Zm24.913,29.9V276.565h-9.965V77.26ZM142.309,286.53H182.17a24.952,24.952,0,0,1,24.415,19.931H97.964a24.952,24.952,0,0,1,24.415-19.931Z" transform="translate(-2690 -255)" fill="#0193d5"/>
    </g>
    <g id="business_objective" transform="translate(611.901 215.605)">
      <line id="Line_1" data-name="Line 1" x2="139.517" transform="translate(236.383 144.46)" fill="none" stroke="#bfbfbf" stroke-miterlimit="8" stroke-width="0.5"/>
      <path id="Path_5" data-name="Path 5" d="M57.41,53.089A34.944,34.944,0,1,1,92.289,87.968,34.944,34.944,0,0,1,57.41,53.089" transform="translate(310.739 91.37)" fill="#0193d5" fill-rule="evenodd"/>
    </g>
  </g>
</svg>
