<svg class="logo-white" width="126px" height="32px" viewBox="0 0 213 49" version="1.1" xmlns="http://www.w3.org/2000/svg" xmlns:xlink="http://www.w3.org/1999/xlink">
    <title>NielsenIQ Logo</title>
    <g id="9.29" stroke="none" stroke-width="1" fill="none" fill-rule="evenodd">
        <g id="Desktop-About-9_29" transform="translate(-180.000000, -19.000000)" fill-rule="nonzero">
            <g id="Nav-+-Secondary" transform="translate(15.000000, 0.000000)">
                <g id="NielsenIQ-Logo" transform="translate(165.000000, 19.000000)">
                    <path d="M191.850638,31.2965223 C191.850638,26.6800211 195.348413,23.4584495 200.363399,23.4584495 C205.378385,23.4584495 208.87616,26.6800211 208.87616,31.2965223 C208.87616,34.4519269 207.226408,36.9760337 204.586375,38.2375447 L200.29659,33.952963 L200.29659,39.1335107 C195.348413,39.1345951 191.850638,35.9130235 191.850638,31.2965223 M209.634765,48.5997242 L209.634765,43.3182993 L207.357871,41.027404 C210.822242,39.0348023 213,35.5474782 213,31.2954376 C213,24.6527089 207.687606,19.8366221 200.363399,19.8366221 C193.038114,19.8366221 187.726797,24.6527089 187.726797,31.2954376 C187.726797,37.9381663 193.039191,42.7531684 200.363399,42.7531684 C201.451739,42.7531684 202.507752,42.6533756 203.498034,42.4212489 L209.634765,48.5997242 Z M170.73468,42.0904141 L186.241913,42.0904141 L186.241913,38.5369231 L180.599784,38.5369231 L180.599784,24.0561216 L186.241913,24.0561216 L186.241913,20.5026305 L170.73468,20.5026305 L170.73468,24.0561216 L176.375731,24.0561216 L176.375731,38.5369231 L170.73468,38.5369231 L170.73468,42.0904141 Z M151.399936,42.0904141 L155.458045,42.0904141 L155.458045,33.1231642 C155.458045,30.5990575 157.00866,29.170502 159.681021,29.170502 C162.353381,29.170502 163.87167,30.5979728 163.87167,33.1231642 L163.87167,42.0904141 L167.963183,42.0904141 L167.963183,32.9235787 C167.963183,28.638997 165.257418,25.9814716 160.935306,25.9814716 C158.262946,25.9814716 156.250055,26.9783148 155.12831,28.7387897 L155.12831,26.4804355 L151.399936,26.4804355 L151.399936,42.0904141 L151.399936,42.0904141 Z M139.88508,28.9047495 C142.788039,28.9047495 144.405464,30.1337194 144.768603,32.5916592 L134.837767,32.5916592 C135.332369,30.200971 137.080179,28.9047495 139.88508,28.9047495 M140.115679,42.5882934 C144.767525,42.5882934 148.001297,40.5956917 148.62844,37.4066613 L144.372059,37.4066613 C143.909784,38.8015909 142.458304,39.5652227 140.115679,39.5652227 C137.014447,39.5652227 135.133019,38.1377519 134.737553,35.5138524 L148.727576,35.5138524 L148.727576,33.952963 C148.727576,29.1032504 145.263205,25.9814716 139.88508,25.9814716 C134.342087,25.9814716 130.77858,29.236669 130.77858,34.2848825 C130.77858,39.2343879 134.540359,42.5882934 140.115679,42.5882934 M120.979207,42.5882934 C126.027598,42.5882934 128.997366,40.5956917 128.997366,37.2081604 C128.997366,34.0527558 126.424141,33.2554982 123.025502,32.8574117 L118.999721,32.3920736 C117.415701,32.2261138 116.591364,31.8605685 116.591364,30.7975584 C116.591364,29.5349626 117.877976,28.8711237 120.418873,28.8711237 C123.223774,28.8711237 124.476982,29.5685885 124.806717,31.2954376 L128.733363,31.2954376 C128.469359,27.8406546 125.598727,25.9814716 120.484605,25.9814716 C115.53535,25.9814716 112.664718,27.9740733 112.664718,31.3616046 C112.664718,34.5170092 115.237942,35.3142668 118.636581,35.7123532 L122.662363,36.1776914 C124.246383,36.3436511 125.104125,36.7091964 125.104125,37.7722066 C125.104125,39.0011765 123.684972,39.6986413 121.046016,39.6986413 C118.076248,39.6986413 116.756231,38.9013837 116.426496,37.2081604 L112.467523,37.2081604 C112.829585,40.6629433 115.765949,42.5882934 120.979207,42.5882934 M105.505378,42.0904141 L109.563487,42.0904141 L109.563487,20.5026305 L105.505378,20.5026305 L105.505378,42.0904141 Z M93.9905214,28.9047495 C96.8945583,28.9047495 98.5109054,30.1337194 98.8740447,32.5916592 L88.9432083,32.5916592 C89.4378105,30.200971 91.1856205,28.9047495 93.9905214,28.9047495 M94.2211203,42.5882934 C98.8729671,42.5882934 102.106739,40.5956917 102.733881,37.4066613 L98.4775008,37.4066613 C98.0152256,38.8015909 96.5637459,39.5652227 94.2211203,39.5652227 C91.1198891,39.5652227 89.2384611,38.1377519 88.8429948,35.5138524 L102.833017,35.5138524 L102.833017,33.952963 C102.833017,29.1032504 99.3686469,25.9814716 93.9905214,25.9814716 C88.4475286,25.9814716 84.8840221,29.236669 84.8840221,34.2848825 C84.8840221,39.2343879 88.6458005,42.5882934 94.2211203,42.5882934 M78.0878215,42.0904141 L82.1459302,42.0904141 L82.1459302,26.4804355 L78.0878215,26.4804355 L78.0878215,42.0904141 Z M78.0210125,24.5540008 L82.1782571,24.5540008 L82.1782571,20.5026305 L78.0210125,20.5026305 L78.0210125,24.5540008 Z M51,42.0904141 L55.2229761,42.0904141 L55.2229761,26.7125622 L70.4996109,42.0904141 L74.1288488,42.0904141 L74.1288488,20.5026305 L69.9058727,20.5026305 L69.9058727,35.8804824 L54.6292379,20.5026305 L51,20.5026305 L51,42.0904141 Z" id="Shape" fill="#FFFFFF"></path>
                    <path d="M43,42.6487376 L43,21.3249045 L21.5,2.13162821e-14 L21.5,21.3249045 L43,42.6487376 Z M21.5,42.6487376 L21.5,21.3249045 L0,2.13162821e-14 L0,21.3249045 L21.5,42.6487376 Z" id="Shape" fill="#00EF00"></path>
                </g>
            </g>
        </g>
    </g>
</svg>