<svg id="NielsenIQ-Logo" xmlns="http://www.w3.org/2000/svg" width="212.903" height="63.3" viewBox="0 0 212.903 63.3">
  <path id="Shape" d="M191.9,31.3c0-4.6,3.5-7.8,8.5-7.8s8.5,3.2,8.5,7.8a7.244,7.244,0,0,1-4.3,6.9l-4.3-4.3v5.2c-4.9,0-8.4-3.2-8.4-7.8m17.7,17.3V43.3L207.3,41a10.927,10.927,0,0,0,5.6-9.7c0-6.6-5.3-11.5-12.6-11.5s-12.6,4.8-12.6,11.5,5.3,11.5,12.6,11.5a15.526,15.526,0,0,0,3.1-.3Zm-38.9-6.5h15.5V38.5h-5.6V24.1h5.6V20.5H170.7v3.6h5.6V38.6h-5.6Zm-19.3,0h4.1v-9c0-2.5,1.6-4,4.2-4s4.2,1.4,4.2,4v9H168V32.9c0-4.3-2.7-6.9-7-6.9-2.7,0-4.7,1-5.8,2.8V26.5h-3.7l-.1,15.6ZM139.9,28.9c2.9,0,4.5,1.2,4.9,3.7h-9.9c.4-2.4,2.2-3.7,5-3.7m.2,13.7c4.7,0,7.9-2,8.5-5.2h-4.3c-.5,1.4-1.9,2.2-4.3,2.2-3.1,0-5-1.4-5.4-4.1h14V34c0-4.9-3.5-8-8.8-8-5.5,0-9.1,3.3-9.1,8.3.1,4.9,3.8,8.3,9.4,8.3m-19.1,0c5,0,8-2,8-5.4,0-3.2-2.6-4-6-4.4l-4-.5c-1.6-.2-2.4-.5-2.4-1.6,0-1.3,1.3-1.9,3.8-1.9,2.8,0,4.1.7,4.4,2.4h3.9c-.3-3.5-3.1-5.3-8.2-5.3-4.9,0-7.8,2-7.8,5.4,0,3.2,2.6,4,6,4.4l4,.5c1.6.2,2.4.5,2.4,1.6,0,1.2-1.4,1.9-4.1,1.9-3,0-4.3-.8-4.6-2.5h-4c.4,3.5,3.4,5.4,8.6,5.4m-15.5-.5h4.1V20.5h-4.1ZM94,28.9c2.9,0,4.5,1.2,4.9,3.7H89c.4-2.4,2.2-3.7,5-3.7m.2,13.7c4.7,0,7.9-2,8.5-5.2H98.4c-.5,1.4-1.9,2.2-4.3,2.2-3.1,0-5-1.4-5.4-4.1h14V34c0-4.9-3.5-8-8.8-8-5.5,0-9.1,3.3-9.1,8.3.1,4.9,3.8,8.3,9.4,8.3m-16.1-.5h4.1V26.5H78.1ZM78,24.5h4.2v-4H78ZM51,42.1h4.2V26.7L70.5,42.1h3.6V20.5H69.9V35.9L54.6,20.5H51Z" fill="#fbfbfb"/>
  <path id="Shape-2" d="M43,42.6V21.3L21.5,0V21.3Zm-21.5,0V21.3L0,0V21.3Z" fill="#01f001"/>
  <g id="Group_1" data-name="Group 1">
    <path id="Path_1" data-name="Path 1" d="M64.2,56.4a3.986,3.986,0,0,1,.7,2.4,3.473,3.473,0,0,1-1.6,3.1A8.206,8.206,0,0,1,58.7,63h-8V47.6h7.5a7.359,7.359,0,0,1,4.3,1.1A3.388,3.388,0,0,1,64,51.6a4.552,4.552,0,0,1-.5,2A5.018,5.018,0,0,1,62,55,3.842,3.842,0,0,1,64.2,56.4Zm-9.8-6.1v3.6h3.5a3.677,3.677,0,0,0,2-.5,1.75,1.75,0,0,0,0-2.8,3.677,3.677,0,0,0-2-.5H54.4Zm6.2,9.6a1.513,1.513,0,0,0,.7-1.4c0-1.3-.9-1.9-2.8-1.9H54.3v3.8h4.2A4.562,4.562,0,0,0,60.6,59.9Z" fill="#fff"/>
    <path id="Path_2" data-name="Path 2" d="M77.8,59.7H70.7L69.3,63H65.6l6.9-15.4H76L82.9,63H79.2ZM76.7,57l-2.4-5.9L71.8,57Z" fill="#fff"/>
    <path id="Path_3" data-name="Path 3" d="M86,62.8a8.489,8.489,0,0,1-2.7-1.3l1.2-2.7A7.706,7.706,0,0,0,86.9,60a8.423,8.423,0,0,0,2.7.4,3.953,3.953,0,0,0,2.2-.5,1.306,1.306,0,0,0,.7-1.2.975.975,0,0,0-.4-.9,10.907,10.907,0,0,0-1.1-.6c-.4-.1-1.1-.3-1.8-.5-1.2-.3-2.1-.6-2.9-.8a4.968,4.968,0,0,1-1.9-1.3,3.742,3.742,0,0,1-.8-2.5,3.986,3.986,0,0,1,.7-2.4A4.831,4.831,0,0,1,86.5,48a10.925,10.925,0,0,1,6.5-.2,9.336,9.336,0,0,1,2.5,1l-1.1,2.7a8.477,8.477,0,0,0-4.3-1.2,4.2,4.2,0,0,0-2.2.5,1.357,1.357,0,0,0-.7,1.3,1.3,1.3,0,0,0,.8,1.2,12.261,12.261,0,0,0,2.5.8c1.2.3,2.1.6,2.9.8a4.968,4.968,0,0,1,1.9,1.3,3.649,3.649,0,0,1,.8,2.4,3.986,3.986,0,0,1-.7,2.4,4.831,4.831,0,0,1-2.2,1.7,9.689,9.689,0,0,1-3.6.6A14.874,14.874,0,0,1,86,62.8Z" fill="#fff"/>
    <path id="Path_4" data-name="Path 4" d="M110.5,60.1V63h-12V47.6h11.6v2.9H102v3.3h7.1v2.8H102v3.6h8.5Z" fill="#fff"/>
    <path id="Path_5" data-name="Path 5" d="M114.8,62.8a8.489,8.489,0,0,1-2.7-1.3l1.2-2.7a7.706,7.706,0,0,0,2.4,1.2,8.423,8.423,0,0,0,2.7.4,3.953,3.953,0,0,0,2.2-.5,1.306,1.306,0,0,0,.7-1.2.975.975,0,0,0-.4-.9,10.907,10.907,0,0,0-1.1-.6,14.309,14.309,0,0,0-1.8-.5c-1.2-.3-2.1-.6-2.9-.8a4.968,4.968,0,0,1-1.9-1.3,3.742,3.742,0,0,1-.8-2.5,3.986,3.986,0,0,1,.7-2.4,4.831,4.831,0,0,1,2.2-1.7,10.925,10.925,0,0,1,6.5-.2,9.336,9.336,0,0,1,2.5,1l-1.1,2.7a8.477,8.477,0,0,0-4.3-1.2,4.2,4.2,0,0,0-2.2.5,1.357,1.357,0,0,0-.7,1.3,1.3,1.3,0,0,0,.8,1.2,12.261,12.261,0,0,0,2.5.8c1.2.3,2.1.6,2.9.8a4.968,4.968,0,0,1,1.9,1.3,3.649,3.649,0,0,1,.8,2.4,3.986,3.986,0,0,1-.7,2.4,4.831,4.831,0,0,1-2.2,1.7,9.689,9.689,0,0,1-3.6.6A14.219,14.219,0,0,1,114.8,62.8Z" fill="#fff"/>
  </g>
</svg>
