<svg id="NielsenIQ-Logo" xmlns="http://www.w3.org/2000/svg" width="213" height="69" viewBox="0 0 213 69">
  <path id="Shape" d="M191.851,31.3c0-4.616,3.5-7.838,8.512-7.838s8.513,3.222,8.513,7.838a7.452,7.452,0,0,1-4.29,6.941L200.3,33.953v5.181c-4.949,0-8.446-3.221-8.446-7.837m17.784,17.3V43.318l-2.277-2.291A10.986,10.986,0,0,0,213,31.3c0-6.643-5.312-11.459-12.637-11.459S187.727,24.653,187.727,31.3s5.312,11.458,12.636,11.458a13.768,13.768,0,0,0,3.135-.332Zm-38.9-6.509h15.507V38.537H180.6V24.056h5.642V20.5H170.735v3.554h5.641V38.537h-5.641Zm-19.335,0h4.058V33.123c0-2.524,1.551-3.953,4.223-3.953s4.191,1.427,4.191,3.953V42.09h4.091V32.924c0-4.285-2.706-6.942-7.028-6.942-2.672,0-4.685,1-5.807,2.757V26.48H151.4V42.09ZM139.885,28.9c2.9,0,4.52,1.229,4.884,3.687h-9.931c.494-2.391,2.242-3.687,5.047-3.687m.231,13.684c4.652,0,7.885-1.993,8.512-5.182h-4.256c-.462,1.395-1.914,2.159-4.256,2.159-3.1,0-4.983-1.427-5.378-4.051h13.99V33.953c0-4.85-3.465-7.971-8.843-7.971-5.543,0-9.106,3.255-9.106,8.3,0,4.95,3.761,8.3,9.337,8.3m-19.137,0c5.049,0,8.018-1.993,8.018-5.38,0-3.155-2.573-3.953-5.971-4.351L119,32.392c-1.584-.166-2.409-.532-2.409-1.595,0-1.263,1.287-1.927,3.828-1.927,2.805,0,4.058.7,4.388,2.424h3.926c-.264-3.455-3.134-5.314-8.248-5.314-4.95,0-7.82,1.993-7.82,5.38,0,3.155,2.573,3.953,5.972,4.351l4.025.465c1.584.166,2.442.532,2.442,1.595,0,1.229-1.419,1.926-4.058,1.926-2.97,0-4.29-.8-4.62-2.49h-3.958c.362,3.455,3.3,5.38,8.511,5.38m-15.474-.5h4.058V20.5H105.5ZM93.991,28.9c2.9,0,4.52,1.229,4.883,3.687H88.943c.495-2.391,2.242-3.687,5.047-3.687m.231,13.684c4.652,0,7.886-1.993,8.513-5.182H98.478c-.462,1.395-1.914,2.159-4.256,2.159-3.1,0-4.983-1.427-5.378-4.051h13.99V33.953c0-4.85-3.464-7.971-8.842-7.971-5.543,0-9.106,3.255-9.106,8.3,0,4.95,3.762,8.3,9.337,8.3m-16.133-.5h4.058V26.48H78.088Zm-.067-17.536h4.157V20.5H78.021ZM51,42.09h4.223V26.713L70.5,42.09h3.629V20.5H69.906V35.881L54.629,20.5H51Z" fill="#fbfbfb"/>
  <path id="Shape-2" data-name="Shape" d="M43,42.649V21.325L21.5,0V21.325Zm-21.5,0V21.325L0,0V21.325Z" fill="#01f001"/>
  <text id="BASES" transform="translate(49 63)" fill="#fff" font-size="22" font-family="Montserrat-Bold, Montserrat" font-weight="700"><tspan x="0" y="0">BASES</tspan></text>
</svg>
