<svg xmlns="http://www.w3.org/2000/svg" xmlns:xlink="http://www.w3.org/1999/xlink" width="360.84" height="366.566" viewBox="0 0 360.84 366.566">
  <defs>
    <clipPath id="clip-path">
      <rect id="Rectangle_2577" data-name="Rectangle 2577" width="8.477" height="9.727" fill="none"/>
    </clipPath>
    <clipPath id="clip-path-2">
      <rect id="Rectangle_2579" data-name="Rectangle 2579" width="7.163" height="60.62" fill="none"/>
    </clipPath>
    <clipPath id="clip-path-3">
      <rect id="Rectangle_2581" data-name="Rectangle 2581" width="11.719" height="12.235" fill="none"/>
    </clipPath>
    <clipPath id="clip-path-4">
      <rect id="Rectangle_2582" data-name="Rectangle 2582" width="43.296" height="159.939" fill="none"/>
    </clipPath>
    <clipPath id="clip-path-5">
      <rect id="Rectangle_2583" data-name="Rectangle 2583" width="17.707" height="25.436" fill="none"/>
    </clipPath>
  </defs>
  <g id="No_data_found" transform="translate(-127.211 -119.001)">
    <rect id="Rectangle_2521" data-name="Rectangle 2521" width="10.724" height="0.308" transform="translate(397.877 427.149)" fill="#ebebeb"/>
    <path id="Path_13457" data-name="Path 13457" d="M235.757,363.931c0,7.715-40.215,13.968-89.823,13.968s-89.823-6.253-89.823-13.968,40.215-13.968,89.823-13.968,89.823,6.254,89.823,13.968" transform="translate(252.295 107.667)" fill="#dedede"/>
    <rect id="Rectangle_2573" data-name="Rectangle 2573" width="1.233" height="22.809" transform="translate(127.211 181.934) rotate(-4.119)" fill="#1e1e1e"/>
    <rect id="Rectangle_2574" data-name="Rectangle 2574" width="1.234" height="8.58" transform="translate(129.695 216.432) rotate(-4.123)" fill="#1e1e1e"/>
    <g id="Group_4185" data-name="Group 4185">
      <path id="Path_13458" data-name="Path 13458" d="M392.413,298.464H128.222A11.9,11.9,0,0,1,116.576,287.6L103.6,107.329a10,10,0,0,1,10.081-10.863H377.867a11.9,11.9,0,0,1,11.647,10.863L402.5,287.6a10,10,0,0,1-10.082,10.865" transform="translate(24.196 22.537)" fill="#1e1e1e"/>
      <path id="Path_13459" data-name="Path 13459" d="M393.234,298.464H129.043A11.9,11.9,0,0,1,117.4,287.6l-12.98-180.27A10,10,0,0,1,114.5,96.466H378.688a11.9,11.9,0,0,1,11.647,10.863L403.316,287.6a10,10,0,0,1-10.082,10.865" transform="translate(24.388 22.537)" fill="#c5c7cc"/>
      <g id="Group_4220" data-name="Group 4220" transform="translate(128.776 119.001)">
        <path id="Path_13460" data-name="Path 13460" d="M393.234,298.464H129.043A11.9,11.9,0,0,1,117.4,287.6l-12.98-180.27A10,10,0,0,1,114.5,96.466H378.688a11.9,11.9,0,0,1,11.647,10.863L403.316,287.6a10,10,0,0,1-10.082,10.865" transform="translate(-104.388 -96.465)" fill="#dedede"/>
        <rect id="Rectangle_2575" data-name="Rectangle 2575" width="298.957" height="201.999" transform="translate(0.001)" fill="none"/>
      </g>
      <path id="Path_13461" data-name="Path 13461" d="M378.1,100.869H113.905q-.448,0-.885.036c-6.754.556-5.374,10.829,1.442,10.829H379.1c6.816,0,6.716-10.272-.117-10.829q-.442-.035-.891-.036" transform="translate(25.371 23.566)" fill="#1e1e1e"/>
      <path id="Path_13462" data-name="Path 13462" d="M119.423,105.744a2.287,2.287,0,0,1-2.312,2.491,2.719,2.719,0,0,1-2.67-2.491,2.287,2.287,0,0,1,2.312-2.491,2.719,2.719,0,0,1,2.67,2.491" transform="translate(26.735 24.122)" fill="#fafafa"/>
      <path id="Path_13463" data-name="Path 13463" d="M126.291,105.744a2.287,2.287,0,0,1-2.312,2.491,2.719,2.719,0,0,1-2.67-2.491,2.287,2.287,0,0,1,2.312-2.491,2.719,2.719,0,0,1,2.67,2.491" transform="translate(28.339 24.122)" fill="#fafafa"/>
      <path id="Path_13464" data-name="Path 13464" d="M133.159,105.744a2.287,2.287,0,0,1-2.312,2.491,2.719,2.719,0,0,1-2.67-2.491,2.287,2.287,0,0,1,2.312-2.491,2.719,2.719,0,0,1,2.67,2.491" transform="translate(29.944 24.122)" fill="#fafafa"/>
      <path id="Path_13465" data-name="Path 13465" d="M383.548,275.191H130.774a4.3,4.3,0,0,1-4.221-3.939L115.877,123a3.616,3.616,0,0,1,3.655-3.939H372.306A4.3,4.3,0,0,1,376.527,123L387.2,271.252a3.616,3.616,0,0,1-3.655,3.939" transform="translate(27.069 27.817)" fill="#fff"/>
      <path id="Path_13466" data-name="Path 13466" d="M256.166,212.088l-4.114-57.14-12.468-7.505h-34.3l4.656,64.646Z" transform="translate(47.959 34.446)" fill="#fff"/>
      <g id="Group_4221" data-name="Group 4221" transform="translate(221.158 173.889)">
        <path id="Path_13467" data-name="Path 13467" d="M263.214,221.668H210.759a.677.677,0,0,1-.676-.629L204.8,147.686a.68.68,0,0,1,.677-.728H244.4a.687.687,0,0,1,.35.1l14.148,8.515a.678.678,0,0,1,.326.533l4.67,64.837a.678.678,0,0,1-.677.726m-51.823-1.356h51.094l-4.591-63.759-13.684-8.236h-38Z" transform="translate(-204.799 -146.958)" fill="#1e1e1e"/>
        <path id="Path_13468" data-name="Path 13468" d="M247.235,155.959l-14.148-8.515,5.195,11.281Z" transform="translate(-193.489 -146.764)" fill="#ebebeb"/>
        <path id="Path_13470" data-name="Path 13470" d="M222.664,171.9a2.721,2.721,0,0,1-2.751,2.963,3.236,3.236,0,0,1-3.176-2.963,2.72,2.72,0,0,1,2.749-2.963,3.236,3.236,0,0,1,3.178,2.963" transform="translate(-200.029 -138.171)" fill="#d1d2d5" stroke="#d1d2d5" stroke-width="1"/>
        <path id="Path_13471" data-name="Path 13471" d="M236.4,171.9a2.721,2.721,0,0,1-2.751,2.963,3.236,3.236,0,0,1-3.176-2.963,2.721,2.721,0,0,1,2.751-2.963A3.236,3.236,0,0,1,236.4,171.9" transform="translate(-194.537 -138.171)" fill="#d1d2d5" stroke="#d1d2d5" stroke-width="1"/>
        <path id="Path_13472" data-name="Path 13472" d="M248.3,187.818a.679.679,0,0,1-.676-.63c-.343-4.765-7.815-8.641-16.658-8.641-5.858,0-11.117,1.743-13.726,4.547a5.233,5.233,0,0,0-1.6,4,.679.679,0,1,1-1.354.1,6.617,6.617,0,0,1,1.957-5.018c2.857-3.071,8.5-4.979,14.719-4.979,9.7,0,17.611,4.349,18.011,9.9a.68.68,0,0,1-.629.727H248.3" transform="translate(-201.011 -134.871)" fill="#d1d2d5" stroke="#d1d2d5" stroke-width="1"/>
        <path id="Path_13473" data-name="Path 13473" d="M213.361,168.066a.677.677,0,0,1-.5-1.139l2.972-3.2a.679.679,0,1,1,1,.922l-2.973,3.2a.674.674,0,0,1-.5.217" transform="translate(-201.647 -140.342)" fill="#d1d2d5" stroke="#d1d2d5" stroke-width="1"/>
        <path id="Path_13474" data-name="Path 13474" d="M238.758,168.066a.681.681,0,0,1-.463-.182l-3.434-3.2a.678.678,0,0,1,.927-.991l3.434,3.2a.679.679,0,0,1-.463,1.174" transform="translate(-192.866 -140.342)" fill="#d1d2d5" stroke="#d1d2d5" stroke-width="1"/>
        <path id="Path_13469" data-name="Path 13469" d="M238.475,159.6a.679.679,0,0,1-.617-.395l-5.193-11.281a.678.678,0,0,1,.966-.865l14.148,8.516a.678.678,0,0,1-.15,1.229l-8.953,2.766a.715.715,0,0,1-.2.029m-3.656-10.242,4.024,8.74,6.936-2.142Z" transform="translate(-193.683 -146.958)" fill="#1e1e1e"/>
      </g>
      <text id="No_Data_Found-2" data-name="No Data Found" transform="translate(202 277.262)" fill="#c3c3c3" font-size="12" font-family="NunitoSans-Bold, Nunito Sans" font-weight="700"><tspan x="0" y="0">NO DATA FOUND</tspan></text>
    </g>
    <g id="Group_4214" data-name="Group 4214" transform="translate(343.179 176.589)">
      <g id="Group_4218" data-name="Group 4218" transform="translate(0 0)">
        <path id="Path_13481" data-name="Path 13481" d="M353.688,117.023c.87-.436,1.906-1,2.864-1.525.976-.536,1.947-1.1,2.9-1.677,1.906-1.173,3.826-2.333,5.65-3.621a75.031,75.031,0,0,0,10.228-8.418c.406-.372.752-.784,1.128-1.176l.554-.6.278-.3.139-.15c.036-.039.028-.03.011-.008l-.031.048c-.139.259-.023.181.03-.07a5.311,5.311,0,0,0,.137-1.061,29.2,29.2,0,0,0-.709-6.146c-.866-4.364-2.177-8.851-3.474-13.248l3.78-1.658a79.751,79.751,0,0,1,5.946,13.229,31,31,0,0,1,1.672,7.679,11.884,11.884,0,0,1-.081,2.443,7.4,7.4,0,0,1-1.19,3.194l-.161.225-.126.163-.15.183-.3.364-.6.73c-.406.48-.79.987-1.221,1.437a69.212,69.212,0,0,1-11.071,9.876c-1.982,1.449-4.008,2.824-6.112,4.076q-1.572.951-3.188,1.834c-1.093.608-2.132,1.136-3.373,1.718Z" transform="translate(-289.212 -58.57)" fill="#ffda84"/>
        <path id="Path_13482" data-name="Path 13482" d="M344.741,353.168a9.885,9.885,0,0,0,2.151-.292.192.192,0,0,0,.062-.348c-.279-.184-2.754-1.781-3.7-1.352a.658.658,0,0,0-.384.543,1.1,1.1,0,0,0,.32,1.025,2.33,2.33,0,0,0,1.553.424m1.605-.567c-1.418.283-2.486.234-2.9-.142a.728.728,0,0,1-.2-.687.274.274,0,0,1,.161-.244c.5-.226,1.926.463,2.935,1.073" transform="translate(-288.918 -66.001)" fill="#f1ad0f"/>
        <path id="Path_13483" data-name="Path 13483" d="M346.9,352.828a.183.183,0,0,0,.1-.026.192.192,0,0,0,.1-.166c0-.1-.012-2.446-.9-3.23a1,1,0,0,0-.817-.258.672.672,0,0,0-.65.538c-.184.918,1.3,2.676,2.075,3.118a.2.2,0,0,0,.1.024m-1.386-3.3a.623.623,0,0,1,.427.169,4.415,4.415,0,0,1,.755,2.566c-.775-.619-1.7-1.94-1.588-2.5.018-.091.071-.2.318-.231a.675.675,0,0,1,.088-.006" transform="translate(-288.968 -65.948)" fill="#f1ad0f"/>
        <path id="Path_13484" data-name="Path 13484" d="M345.778,93.114c-.948,4.835-2.946,14.629.438,17.856,0,0-1.322,4.905-10.307,4.905-9.879,0-4.721-4.905-4.721-4.905,5.393-1.287,5.253-5.287,4.314-9.045Z" transform="translate(-288.564 -58.996)" fill="#ffda84"/>
        <path id="Path_13485" data-name="Path 13485" d="M329.264,113.318c-1.551.21-.232-3.808.4-4.223,1.455-.962,20.285-2.325,20.162-.04-.078.984-.54,2.9-1.363,3.555s-5.661-1.318-19.2.708" transform="translate(-288.529 -59.395)" fill="#1e1e1e"/>
        <path id="Path_13486" data-name="Path 13486" d="M332.409,111.87c-1.232.416-1.115-3.632-.7-4.119.971-1.127,16.212-5.042,16.665-2.826.174.956.258,2.867-.266,3.608s-5-.485-15.7,3.337" transform="translate(-288.607 -59.298)" fill="#1e1e1e"/>
        <path id="Path_13487" data-name="Path 13487" d="M326.519,84.1a.385.385,0,0,1-.322-.141,3.074,3.074,0,0,0-2.52-1.195.386.386,0,0,1-.084-.768,3.829,3.829,0,0,1,3.2,1.474.386.386,0,0,1-.275.629" transform="translate(-288.385 -58.694)" fill="#263238"/>
        <path id="Path_13488" data-name="Path 13488" d="M324.618,89.049a17.541,17.541,0,0,1-1.921,4.4,2.827,2.827,0,0,0,2.375.208Z" transform="translate(-288.37 -58.886)" fill="#1e1e1e"/>
        <path id="Path_13489" data-name="Path 13489" d="M325.117,87.8c.064.654-.231,1.218-.658,1.261s-.827-.454-.891-1.109.231-1.218.658-1.26.827.454.891,1.108" transform="translate(-288.394 -58.822)" fill="#263238"/>
        <path id="Path_13490" data-name="Path 13490" d="M324.4,86.7l-1.616-.3s.927,1.148,1.616.3" transform="translate(-288.373 -58.814)" fill="#263238"/>
        <path id="Path_13491" data-name="Path 13491" d="M356.473,352.206h-8.149l.639-18.871h8.149Z" transform="translate(-289.066 -65.519)" fill="#ffda84"/>
        <path id="Path_13492" data-name="Path 13492" d="M347.334,351.763h9.154a.645.645,0,0,1,.651.556l1.043,7.244a1.309,1.309,0,0,1-1.307,1.449c-3.192-.054-4.73-.242-8.756-.242-2.477,0-6.1.258-9.516.258-3.345,0-3.6-3.383-2.178-3.689,6.387-1.374,7.395-3.268,9.547-5.074a2.127,2.127,0,0,1,1.362-.5" transform="translate(-288.721 -66.019)" fill="#263238"/>
        <g id="Group_4188" data-name="Group 4188" transform="translate(59.57 267.822)" opacity="0.2">
          <g id="Group_4187" data-name="Group 4187">
            <g id="Group_4186" data-name="Group 4186" clip-path="url(#clip-path)">
              <path id="Path_13493" data-name="Path 13493" d="M357.123,333.341H348.97l-.325,9.727H356.8Z" transform="translate(-348.645 -333.341)"/>
            </g>
          </g>
        </g>
        <path id="Path_13494" data-name="Path 13494" d="M322.4,121.951a159.692,159.692,0,0,1-14.642-6.571,88.243,88.243,0,0,1-14.013-8.536,32.094,32.094,0,0,1-3.329-2.987c-.27-.292-.543-.562-.809-.9a12.7,12.7,0,0,1-.853-1.1,7.764,7.764,0,0,1-1.3-3.511,7.932,7.932,0,0,1,.478-3.522,10.722,10.722,0,0,1,1.369-2.537,18.154,18.154,0,0,1,3.3-3.424,40.721,40.721,0,0,1,7.1-4.539c1.206-.641,2.435-1.218,3.681-1.749s2.473-1.041,3.8-1.5l1.728,3.748c-4.244,2.674-8.639,5.613-11.871,8.91a13.372,13.372,0,0,0-1.9,2.422c-.463.766-.457,1.34-.378,1.295.04,0,.024-.018.138.1l.386.415c.146.173.351.352.536.53a24.782,24.782,0,0,0,2.625,2.11,62.572,62.572,0,0,0,6.259,3.862c2.193,1.218,4.449,2.383,6.747,3.489,4.585,2.2,9.337,4.309,14,6.239Z" transform="translate(-287.412 -58.669)" fill="#ffda84"/>
        <path id="Path_13495" data-name="Path 13495" d="M311.815,82.06l1.347-2.922-6.125-2.127s-1.908,5.742.367,8.392a5.877,5.877,0,0,0,4.411-3.343" transform="translate(-287.925 -58.559)" fill="#ffda84"/>
        <path id="Path_13496" data-name="Path 13496" d="M313.183,72.664l-4.9-1.412-1.229,5.6,6.125,2.127Z" transform="translate(-287.946 -58.402)" fill="#ffda84"/>
        <path id="Path_13497" data-name="Path 13497" d="M378.194,79.3l.714-6.829L372.6,73.953s-.093,6.4,3.246,7.422Z" transform="translate(-289.725 -58.435)" fill="#ffda84"/>
        <path id="Path_13498" data-name="Path 13498" d="M375.843,67.555l-4.112,1.92.841,4.344,6.312-1.484Z" transform="translate(-289.702 -58.302)" fill="#ffda84"/>
        <path id="Path_13499" data-name="Path 13499" d="M346.906,83c.3,8.081.6,11.5-3.057,16.019-5.493,6.8-15.485,5.4-18.19-2.431-2.436-7.047-2.512-19.08,5.037-23.051A11.03,11.03,0,0,1,346.906,83" transform="translate(-288.411 -58.429)" fill="#ffda84"/>
        <path id="Path_13500" data-name="Path 13500" d="M343.364,98.844c7.934-3.428,13.152-10.658,10.949-21.961C352.205,66.069,344.9,65,341.889,67.244s-10.533-1.1-15.044,2.7c-7.816,6.577-.426,13.668,3.422,17.87,2.3,4.726,5.311,14.4,13.1,11.034" transform="translate(-288.389 -58.267)" fill="#404040"/>
        <path id="Path_13501" data-name="Path 13501" d="M340.491,74.822a8.062,8.062,0,1,0,1.775-11.592,8.3,8.3,0,0,0-1.775,11.592" transform="translate(-288.811 -58.148)" fill="#f1ad0f"/>
        <path id="Path_13502" data-name="Path 13502" d="M342.648,67.777c-1.145-6.515,5.021-11.54,13.266-9.112S359.8,68.4,358.107,74.24s2.746,11.4,4.6,6.951-1.263-5.818-1.263-5.818,8.755,2.27.622,12.139-15.495-1.028-13.5-7.46c1.609-5.2-4.831-6.114-5.914-12.275" transform="translate(-288.908 -58.044)" fill="#1e1e1e"/>
        <path id="Path_13503" data-name="Path 13503" d="M333.765,70.532C330,68.569,323.627,66.981,320,73.084c-1.715,2.886-1.051,6.8-1.051,6.8l11.08.737Z" transform="translate(-288.265 -58.335)" fill="#404040"/>
        <path id="Path_13504" data-name="Path 13504" d="M317.605,77.956h-.016a.244.244,0,0,1-.228-.258c.011-.166.278-4.08,2.64-6.535,5.71-5.932,12.4-1.012,14.319.638a.243.243,0,0,1-.317.369c-1.834-1.579-8.238-6.294-13.651-.669-2.238,2.324-2.5,6.188-2.506,6.227a.243.243,0,0,1-.242.228" transform="translate(-288.225 -58.323)" fill="#404040"/>
        <path id="Path_13505" data-name="Path 13505" d="M331.715,88.016a6.743,6.743,0,0,1-1.611,4.161c-1.344,1.572-2.884.8-3.24-.946-.318-1.569,0-4.278,1.7-5.227,1.674-.936,3.167.212,3.154,2.012" transform="translate(-288.48 -58.794)" fill="#e9c061"/>
        <path id="Path_13506" data-name="Path 13506" d="M330.053,164.169s.519,56.565,5.426,88.086c3.963,25.459,11.3,84.335,11.3,84.335H357.89s1.086-56.839-.926-82.019c-5.091-63.719,8.046-75.632-2.555-90.4Z" transform="translate(-288.57 -60.925)" fill="#263238"/>
        <g id="Group_4191" data-name="Group 4191" transform="translate(41.483 103.244)" opacity="0.1">
          <path id="Path_13507" data-name="Path 13507" d="M330.053,164.169s.519,56.565,5.426,88.086c3.963,25.459,11.3,84.335,11.3,84.335H357.89s1.086-56.839-.926-82.019c-5.091-63.719,8.046-75.632-2.555-90.4Z" transform="translate(-330.053 -164.168)" fill="#fff"/>
          <rect id="Rectangle_2578" data-name="Rectangle 2578" width="28.622" height="172.421" fill="#ffb1b1"/>
        </g>
        <g id="Group_4194" data-name="Group 4194" transform="translate(42.022 124.088)" opacity="0.3">
          <g id="Group_4193" data-name="Group 4193">
            <g id="Group_4192" data-name="Group 4192" clip-path="url(#clip-path-2)">
              <path id="Path_13508" data-name="Path 13508" d="M335.909,190.414c3.9,17.073.788,43.963-1.343,55.8-2.257-17.978-3.4-41.278-3.96-58.351,2.014-3.269,3.921-3.483,5.3,2.549" transform="translate(-330.607 -185.595)"/>
            </g>
          </g>
        </g>
        <path id="Path_13509" data-name="Path 13509" d="M345.679,341.477h14.154l.743-4.965L345.6,336Z" transform="translate(-288.992 -65.591)" fill="#f1ad0f"/>
        <path id="Path_13510" data-name="Path 13510" d="M349.8,114.969c1.331-2.647,8.488-4.313,12.4-4.307l2.928,13S357.337,135.231,354.1,134c-3.829-1.447-7.146-13.364-4.293-19.036" transform="translate(-289.077 -59.472)" fill="#7c7d7f"/>
        <g id="Group_4197" data-name="Group 4197" transform="translate(59.652 51.19)" opacity="0.4">
          <g id="Group_4196" data-name="Group 4196" transform="translate(0 0)">
            <path id="Path_13511" data-name="Path 13511" d="M349.8,114.969c1.331-2.647,8.488-4.313,12.4-4.307l2.928,13S357.337,135.231,354.1,134c-3.829-1.447-7.146-13.364-4.293-19.036" transform="translate(-348.73 -110.662)" fill="#7c7d7f"/>
            <rect id="Rectangle_2580" data-name="Rectangle 2580" width="16.401" height="23.433" transform="translate(0.001 0)" fill="none"/>
          </g>
        </g>
        <path id="Path_13512" data-name="Path 13512" d="M341.219,338.353a.192.192,0,0,0,.007-.192.2.2,0,0,0-.2-.1c-.41.061-4.01.633-4.5,1.662a.621.621,0,0,0,.038.608,1.07,1.07,0,0,0,.835.554c1.18.122,2.884-1.516,3.8-2.5a.163.163,0,0,0,.022-.03m-4.319,1.5c.333-.546,2.195-1.049,3.616-1.31-1.283,1.306-2.414,2.032-3.074,1.963a.693.693,0,0,1-.544-.369.241.241,0,0,1-.02-.245.4.4,0,0,1,.021-.039" transform="translate(-288.744 -65.647)" fill="#f1ad0f"/>
        <path id="Path_13513" data-name="Path 13513" d="M341.235,338.3a.175.175,0,0,0,.017-.039.191.191,0,0,0-.036-.188c-.06-.071-1.5-1.734-2.834-1.82a1.4,1.4,0,0,0-1.06.359c-.4.359-.365.67-.266.868.422.835,3.01,1.126,4.053.909a.2.2,0,0,0,.126-.089m-3.809-1.225a.807.807,0,0,1,.154-.175,1.008,1.008,0,0,1,.777-.262,4.465,4.465,0,0,1,2.318,1.421c-1.153.1-3.021-.253-3.275-.754a.216.216,0,0,1,.025-.231" transform="translate(-288.758 -65.598)" fill="#f1ad0f"/>
        <path id="Path_13514" data-name="Path 13514" d="M349.647,334.338l-7.453,3.311-3.321-6.912-4.34-9.051-.509-1.053,7.444-3.315.576,1.184,4.208,8.765Z" transform="translate(-288.678 -65.084)" fill="#ffda84"/>
        <g id="Group_4200" data-name="Group 4200" transform="translate(45.855 253.417)" opacity="0.2">
          <g id="Group_4199" data-name="Group 4199">
            <g id="Group_4198" data-name="Group 4198" clip-path="url(#clip-path-3)">
              <path id="Path_13515" data-name="Path 13515" d="M346.266,327.3l-7.379,3.47-4.34-9.052,7.511-3.183Z" transform="translate(-334.547 -318.534)"/>
            </g>
          </g>
        </g>
        <path id="Path_13516" data-name="Path 13516" d="M320.554,164.169s-23.809,59.183-17.356,87.052c5.832,25.187,31.621,72.887,31.621,72.887l9.972-5.005s-15.944-57.581-17.674-70.09c-3.364-24.34,18.266-58.7,18.266-84.844Z" transform="translate(-287.811 -60.925)" fill="#263238"/>
        <g id="Group_4203" data-name="Group 4203" transform="translate(14.278 103.244)" opacity="0.1">
          <g id="Group_4202" data-name="Group 4202">
            <g id="Group_4201" data-name="Group 4201" clip-path="url(#clip-path-4)">
              <path id="Path_13517" data-name="Path 13517" d="M320.554,164.169s-23.809,59.183-17.356,87.052c5.832,25.187,31.621,72.887,31.621,72.887l9.972-5.005s-15.944-57.581-17.674-70.09c-3.364-24.34,18.266-58.7,18.266-84.844Z" transform="translate(-302.089 -164.169)" fill="#ffb1b1"/>
            </g>
          </g>
        </g>
        <path id="Path_13518" data-name="Path 13518" d="M340.86,337l7.4-5.388a.648.648,0,0,1,.854.067l5.106,5.243a1.31,1.31,0,0,1-.2,1.941c-2.613,1.834-3.967,2.588-7.222,4.957-2,1.457-5.993,4.68-8.758,6.693-2.7,1.968-4.9-.615-3.932-1.7,4.355-4.868,5.273-7.879,5.949-10.606A2.128,2.128,0,0,1,340.86,337" transform="translate(-288.674 -65.468)" fill="#263238"/>
        <path id="Path_13519" data-name="Path 13519" d="M335,330.431l12.871-5.887-1.651-5.246-13.783,6.288Z" transform="translate(-288.635 -65.138)" fill="#f1ad0f"/>
        <path id="Path_13520" data-name="Path 13520" d="M327.087,114.217c-1.068-2.764-10.368-5.8-15.032-6.854L310,122.7s7.619,10.95,10.964,10.044c3.951-1.069,8.407-12.608,6.119-18.53" transform="translate(-288.026 -59.383)" fill="#7c7d7f"/>
        <g id="Group_4206" data-name="Group 4206" transform="translate(21.978 47.98)" opacity="0.4">
          <g id="Group_4205" data-name="Group 4205">
            <g id="Group_4204" data-name="Group 4204" clip-path="url(#clip-path-5)">
              <path id="Path_13521" data-name="Path 13521" d="M327.087,114.217c-1.068-2.764-10.368-5.8-15.032-6.854L310,122.7s7.619,10.95,10.964,10.044c3.951-1.069,8.407-12.608,6.119-18.53" transform="translate(-310.004 -107.363)" fill="#7c7d7f"/>
            </g>
          </g>
        </g>
        <path id="Path_13522" data-name="Path 13522" d="M317.039,113.548s-3.882,1.367,3.894,49.182h33.1c-.556-13.47-.571-21.775,5.867-49.419a97.743,97.743,0,0,0-14.054-1.851,105.3,105.3,0,0,0-15.029,0c-6.455.59-13.774,2.088-13.774,2.088" transform="translate(-288.19 -59.487)" fill="#d1d2d5"/>
        <g id="Group_4209" data-name="Group 4209" transform="translate(27.879 51.702)" opacity="0.4">
          <path id="Path_13523" data-name="Path 13523" d="M317.039,113.548s-3.882,1.367,3.894,49.182h33.1c-.556-13.47-.571-21.775,5.867-49.419a97.743,97.743,0,0,0-14.054-1.851,105.3,105.3,0,0,0-15.029,0c-6.455.59-13.774,2.088-13.774,2.088" transform="translate(-316.07 -111.187)"/>
          <rect id="Rectangle_2584" data-name="Rectangle 2584" width="43.826" height="51.541" transform="translate(0)" fill="rgba(0,0,0,0)"/>
        </g>
        <path id="Path_13524" data-name="Path 13524" d="M354.632,162.166l1.492,2.962c.116.23-.157.464-.539.464H320.877c-.3,0-.545-.146-.564-.334l-.3-2.962c-.02-.205.238-.378.564-.378h33.515a.6.6,0,0,1,.539.248" transform="translate(-288.297 -60.864)" fill="#d1d2d5"/>
        <g id="Group_4212" data-name="Group 4212" transform="translate(31.715 101.054)" opacity="0.3">
          <path id="Path_13525" data-name="Path 13525" d="M354.632,162.166l1.492,2.962c.116.23-.157.464-.539.464H320.877c-.3,0-.545-.146-.564-.334l-.3-2.962c-.02-.205.238-.378.564-.378h33.515a.6.6,0,0,1,.539.248" transform="translate(-320.013 -161.918)" fill="#fff"/>
          <rect id="Rectangle_2585" data-name="Rectangle 2585" width="36.138" height="3.674" transform="translate(0.001)" fill="none"/>
        </g>
        <path id="Path_13526" data-name="Path 13526" d="M350.95,165.906h.9c.178,0,.314-.092.3-.2l-.421-3.85c-.013-.113-.168-.2-.347-.2h-.9c-.179,0-.314.091-.3.2l.421,3.85c.013.112.168.2.347.2" transform="translate(-289.117 -60.857)" fill="#263238"/>
        <path id="Path_13527" data-name="Path 13527" d="M328.587,165.906h.9c.179,0,.314-.092.3-.2l-.42-3.85c-.013-.113-.168-.2-.348-.2h-.9c-.18,0-.315.091-.3.2l.42,3.85c.013.112.168.2.348.2" transform="translate(-288.509 -60.857)" fill="#263238"/>
      </g>
    </g>
  </g>
</svg>
