<svg xmlns="http://www.w3.org/2000/svg" width="16" height="12" viewBox="0 0 25 25">
  <g id="Number" transform="translate(-1113 -8)">
    <g id="path4" transform="translate(1121 8)" fill="rgba(206,0,0,0)">
      <path d="M 1.5 24.5 L 0.5 24.5 L 0.5 0.5 L 1.5 0.5 L 1.5 24.5 Z" stroke="none"/>
      <path d="M 1 1 L 1 24 L 1 1 M 0 0 L 2 0 L 2 25 L 0 25 L 0 0 Z" stroke="none" fill="#bebebe"/>
    </g>
    <g id="path3" transform="translate(1128 8)" fill="rgba(206,0,0,0)">
      <path d="M 1.5 24.5 L 0.5 24.5 L 0.5 0.5 L 1.5 0.5 L 1.5 24.5 Z" stroke="none"/>
      <path d="M 1 1 L 1 24 L 1 1 M 0 0 L 2 0 L 2 25 L 0 25 L 0 0 Z" stroke="none" fill="#bebebe"/>
    </g>
    <path id="path2" d="M0,0H2V25H0Z" transform="translate(1138 23) rotate(90)" fill="#bebebe"/>
    <path id="path1" d="M0,0H2V25H0Z" transform="translate(1138 16) rotate(90)" fill="#bebebe"/>
  </g>
</svg>
