<svg xmlns="http://www.w3.org/2000/svg" width="16.803" height="15.8" viewBox="0 0 16.803 15.8">
  <g id="pdf" transform="translate(-9.88 -7.824)">
    <path id="Path_6152" data-name="Path 6152" d="M10.7,2.256c.318.156.318.312.159,1.406A18.182,18.182,0,0,1,9.59,8.506a26.788,26.788,0,0,1-2.706,5.156A10.281,10.281,0,0,1,4.5,16.475a1.979,1.979,0,0,1-1.274.625c-.318,0-.478,0-.478-.156a.469.469,0,0,1,0-.625c.159-.312.318-.781.637-.937a6.062,6.062,0,0,1,2.07-1.406,11.238,11.238,0,0,1,3.184-1.25,20.109,20.109,0,0,1,2.547-.625c.637-.156,1.274-.156,1.91-.312h1.751a5.75,5.75,0,0,1,1.592.312c.478.156.8.313,1.274.469a1.9,1.9,0,0,1,.8.781.98.98,0,0,1,0,.937c-.159.313-.318.469-.637.469a1.032,1.032,0,0,1-.955,0,9.525,9.525,0,0,1-1.274-.625,7.065,7.065,0,0,1-1.751-1.25,27.314,27.314,0,0,1-2.07-2.344,13.458,13.458,0,0,1-1.592-2.5,5.726,5.726,0,0,1-.8-1.719A6.535,6.535,0,0,1,9.113,4.6V3.194a1.182,1.182,0,0,1,.318-.781c0-.156.159-.156.318-.313h.637A.559.559,0,0,0,10.7,2.256Z" transform="translate(7.655 6.124)" fill="none" stroke="#bebebe" stroke-linejoin="round" stroke-width="0.8"/>
  </g>
</svg>
