<svg xmlns="http://www.w3.org/2000/svg" width="50.114" height="51.971" viewBox="0 0 50.114 51.971">
  <g id="Group_3" data-name="Group 3" transform="translate(-873 -79.014)">
    <g id="_211857_man_icon" data-name="211857_man_icon" transform="translate(873 79.014)">
      <path id="Path_1" data-name="Path 1" d="M220.76,36.121a2.06,2.06,0,1,0-2.06-2.06A2.053,2.053,0,0,0,220.76,36.121Z" transform="translate(-216.12 -32)"/>
      <g id="Group_2" data-name="Group 2" transform="translate(0 4.585)">
        <path id="Path_2" data-name="Path 2" d="M178.706,115h-4.132A2.645,2.645,0,0,0,172,117.674v6.275a.858.858,0,1,0,1.712,0v-5.8h.331v15.777a1.189,1.189,0,1,0,2.375,0v-9.092h.442v9.1a1.188,1.188,0,1,0,2.375-.006V118.149h.276v5.8a.884.884,0,1,0,1.768,0v-6.275A2.652,2.652,0,0,0,178.706,115Z" transform="translate(-172 -115)"/>
      </g>
    </g>
    <g id="_211857_man_icon-2" data-name="211857_man_icon" transform="translate(886.611 79.014)">
      <path id="Path_1-2" data-name="Path 1" d="M220.76,36.121a2.06,2.06,0,1,0-2.06-2.06A2.053,2.053,0,0,0,220.76,36.121Z" transform="translate(-216.12 -32)"/>
      <g id="Group_2-2" data-name="Group 2" transform="translate(0 4.585)">
        <path id="Path_2-2" data-name="Path 2" d="M178.706,115h-4.132A2.645,2.645,0,0,0,172,117.674v6.275a.858.858,0,1,0,1.712,0v-5.8h.331v15.777a1.189,1.189,0,1,0,2.375,0v-9.092h.442v9.1a1.188,1.188,0,1,0,2.375-.006V118.149h.276v5.8a.884.884,0,1,0,1.768,0v-6.275A2.652,2.652,0,0,0,178.706,115Z" transform="translate(-172 -115)"/>
      </g>
    </g>
    <g id="_211857_man_icon-3" data-name="211857_man_icon" transform="translate(900.222 79.014)">
      <path id="Path_1-3" data-name="Path 1" d="M220.76,36.121a2.06,2.06,0,1,0-2.06-2.06A2.053,2.053,0,0,0,220.76,36.121Z" transform="translate(-216.12 -32)"/>
      <g id="Group_2-3" data-name="Group 2" transform="translate(0 4.585)">
        <path id="Path_2-3" data-name="Path 2" d="M178.706,115h-4.132A2.645,2.645,0,0,0,172,117.674v6.275a.858.858,0,1,0,1.712,0v-5.8h.331v15.777a1.189,1.189,0,1,0,2.375,0v-9.092h.442v9.1a1.188,1.188,0,1,0,2.375-.006V118.149h.276v5.8a.884.884,0,1,0,1.768,0v-6.275A2.652,2.652,0,0,0,178.706,115Z" transform="translate(-172 -115)"/>
      </g>
    </g>
    <g id="_211857_man_icon-4" data-name="211857_man_icon" transform="translate(913.833 79.014)">
      <path id="Path_1-4" data-name="Path 1" d="M220.76,36.121a2.06,2.06,0,1,0-2.06-2.06A2.053,2.053,0,0,0,220.76,36.121Z" transform="translate(-216.12 -32)"/>
      <g id="Group_2-4" data-name="Group 2" transform="translate(0 4.585)">
        <path id="Path_2-4" data-name="Path 2" d="M178.706,115h-4.132A2.645,2.645,0,0,0,172,117.674v6.275a.858.858,0,1,0,1.712,0v-5.8h.331v15.777a1.189,1.189,0,1,0,2.375,0v-9.092h.442v9.1a1.188,1.188,0,1,0,2.375-.006V118.149h.276v5.8a.884.884,0,1,0,1.768,0v-6.275A2.652,2.652,0,0,0,178.706,115Z" transform="translate(-172 -115)"/>
      </g>
    </g>
    <g id="_211857_man_icon-5" data-name="211857_man_icon" transform="translate(913.833 106.236)">
      <path id="Path_1-5" data-name="Path 1" d="M220.76,36.121a2.06,2.06,0,1,0-2.06-2.06A2.053,2.053,0,0,0,220.76,36.121Z" transform="translate(-216.12 -32)"/>
      <g id="Group_2-5" data-name="Group 2" transform="translate(0 4.585)">
        <path id="Path_2-5" data-name="Path 2" d="M178.706,115h-4.132A2.645,2.645,0,0,0,172,117.674v6.275a.858.858,0,1,0,1.712,0v-5.8h.331v15.777a1.189,1.189,0,1,0,2.375,0v-9.092h.442v9.1a1.188,1.188,0,1,0,2.375-.006V118.149h.276v5.8a.884.884,0,1,0,1.768,0v-6.275A2.652,2.652,0,0,0,178.706,115Z" transform="translate(-172 -115)"/>
      </g>
    </g>
    <g id="_211857_man_icon-6" data-name="211857_man_icon" transform="translate(900.222 106.236)">
      <path id="Path_1-6" data-name="Path 1" d="M220.76,36.121a2.06,2.06,0,1,0-2.06-2.06A2.053,2.053,0,0,0,220.76,36.121Z" transform="translate(-216.12 -32)"/>
      <g id="Group_2-6" data-name="Group 2" transform="translate(0 4.585)">
        <path id="Path_2-6" data-name="Path 2" d="M178.706,115h-4.132A2.645,2.645,0,0,0,172,117.674v6.275a.858.858,0,1,0,1.712,0v-5.8h.331v15.777a1.189,1.189,0,1,0,2.375,0v-9.092h.442v9.1a1.188,1.188,0,1,0,2.375-.006V118.149h.276v5.8a.884.884,0,1,0,1.768,0v-6.275A2.652,2.652,0,0,0,178.706,115Z" transform="translate(-172 -115)"/>
      </g>
    </g>
    <g id="_211857_man_icon-7" data-name="211857_man_icon" transform="translate(886.611 106.236)">
      <path id="Path_1-7" data-name="Path 1" d="M220.76,36.121a2.06,2.06,0,1,0-2.06-2.06A2.053,2.053,0,0,0,220.76,36.121Z" transform="translate(-216.12 -32)"/>
      <g id="Group_2-7" data-name="Group 2" transform="translate(0 4.585)">
        <path id="Path_2-7" data-name="Path 2" d="M178.706,115h-4.132A2.645,2.645,0,0,0,172,117.674v6.275a.858.858,0,1,0,1.712,0v-5.8h.331v15.777a1.189,1.189,0,1,0,2.375,0v-9.092h.442v9.1a1.188,1.188,0,1,0,2.375-.006V118.149h.276v5.8a.884.884,0,1,0,1.768,0v-6.275A2.652,2.652,0,0,0,178.706,115Z" transform="translate(-172 -115)"/>
      </g>
    </g>
    <g id="_211857_man_icon-8" data-name="211857_man_icon" transform="translate(873 106.236)">
      <path id="Path_1-8" data-name="Path 1" d="M220.76,36.121a2.06,2.06,0,1,0-2.06-2.06A2.053,2.053,0,0,0,220.76,36.121Z" transform="translate(-216.12 -32)"/>
      <g id="Group_2-8" data-name="Group 2" transform="translate(0 4.585)">
        <path id="Path_2-8" data-name="Path 2" d="M178.706,115h-4.132A2.645,2.645,0,0,0,172,117.674v6.275a.858.858,0,1,0,1.712,0v-5.8h.331v15.777a1.189,1.189,0,1,0,2.375,0v-9.092h.442v9.1a1.188,1.188,0,1,0,2.375-.006V118.149h.276v5.8a.884.884,0,1,0,1.768,0v-6.275A2.652,2.652,0,0,0,178.706,115Z" transform="translate(-172 -115)"/>
      </g>
    </g>
  </g>
</svg>
