<svg id="ppt" xmlns="http://www.w3.org/2000/svg" width="16" height="15" viewBox="0 0 16 15">
  <path id="Path_6153" data-name="Path 6153" d="M5.4,6.6h-1V8.8h1a1.063,1.063,0,0,0,1-1.1,1.063,1.063,0,0,0-1-1.1" transform="translate(-0.412 -0.692)" fill="#bebebe"/>
  <path id="Path_6154" data-name="Path 6154" d="M15.525,2H9.041V.545A.472.472,0,0,0,8.859.182C8.767,0,8.585,0,8.4,0L.365,1.545A.416.416,0,0,0,0,2V13a.416.416,0,0,0,.365.455L8.4,15h.091c.274,0,.457-.182.457-.545V12.909h6.575c.274,0,.457-.182.457-.545v-10C16.073,2.273,15.8,2,15.525,2M5.023,9h-1v1.545c0,.273-.183.455-.548.455a.43.43,0,0,1-.457-.455v-5A.51.51,0,0,1,3.47,5H4.932A2.022,2.022,0,0,1,6.941,7,1.945,1.945,0,0,1,5.023,9M9.041,5A2.429,2.429,0,0,1,11.05,4V6.455h2.466A2.59,2.59,0,0,1,11.05,9,2.429,2.429,0,0,1,9.041,8Zm4.475,6H9.041V10h4.475a.51.51,0,0,1,.457.545.43.43,0,0,1-.457.455M12.055,5.545V3a2.471,2.471,0,0,1,2.466,2.545Z" fill="#bebebe"/>
</svg>
