<svg xmlns="http://www.w3.org/2000/svg" xmlns:xlink="http://www.w3.org/1999/xlink" width="118.892" height="40.5" viewBox="0 0 118.892 40.5">
  <defs>
    <clipPath id="clip-path">
      <rect id="Rectangle_2254" data-name="Rectangle 2254" width="118.892" height="40.5" fill="none"/>
    </clipPath>
  </defs>
  <g id="Group_3790" data-name="Group 3790" clip-path="url(#clip-path)">
    <path id="Path_13072" data-name="Path 13072" d="M47.052,35.431s-8.472,4.516-14.12,7.81c-4.322,2.521-11.37,7.1-11.37,7.1s-3.525,1.9-8.135-.813-6.779-5.695-7.593-6.237a4.449,4.449,0,0,0-2.495-.567.263.263,0,0,0-.1-.032c-.217-.014-.434-.016-.651-.022H2.58c-.2,0-.393-.008-.591-.022-.1-.006-.2-.014-.3-.014a.419.419,0,0,1,.022-.049l.065-.1A6.6,6.6,0,0,1,3.125,41C3.995,40.293,5,39.1,6.1,39c1.98-.162,3.794,1.925,5.394,2.9,1.47.9,2.643,1.8,4.49,1.8a12.6,12.6,0,0,0,5.177-.941c.587-.294,2.238-1.115,2.824-1.412,4.581-2.319,4.292-2.281,5.648-2.824a17.634,17.634,0,0,1,1.883-.941l15.489-2.184a.145.145,0,0,1,.043.022" transform="translate(-0.895 -18.743)" fill="#070707"/>
    <path id="Path_13073" data-name="Path 13073" d="M1.637,48.95a4.788,4.788,0,0,1,1.03-.131c.037-.2.067-.4.1-.594-.009-.059-.018-.118-.029-.175a2.72,2.72,0,0,0-.128-.495.535.535,0,0,0-.221-.256c-.036-.022-.069-.034-.1-.051-.188.06-.375.124-.561.186a.23.23,0,0,0-.01.054.127.127,0,0,1-.075.12c-.022.011-.041.027-.063.039-.1.051-.193.1-.29.15a1.981,1.981,0,0,0-.194.111c-.141.1-.272.206-.408.307a.341.341,0,0,0-.028.024c-.1.09-.207.178-.307.27a2.781,2.781,0,0,0-.271.281.209.209,0,0,0-.063.158A.159.159,0,0,1,0,49a.044.044,0,0,0,0,.035.033.033,0,0,0,.041.011c.019-.009.036-.024.055-.035a.3.3,0,0,1,.137-.05,1.277,1.277,0,0,1,.185-.007A1.547,1.547,0,0,0,.6,48.952c.05,0,.1-.006.149,0s.117,0,.176,0h.25a.387.387,0,0,0,.074,0,.505.505,0,0,1,.148,0,.8.8,0,0,0,.158,0,.635.635,0,0,1,.085,0" transform="translate(0 -25.011)" fill="#070707"/>
    <path id="Path_13074" data-name="Path 13074" d="M52.519,17.132l.028,10.678-4.909,2.678V17.132Z" transform="translate(-25.217 -9.069)" fill="#f1ad0f"/>
    <path id="Path_13075" data-name="Path 13075" d="M69.7,16.859l-4.707.471L64.923,0H69.8Z" transform="translate(-34.366 0)" fill="#f1ad0f"/>
    <path id="Path_13076" data-name="Path 13076" d="M30.354,29.608l4.881-.354.161,9.209s-1.412.941-4.707.471Z" transform="translate(-16.067 -15.485)" fill="#f1ad0f"/>
    <g id="Group_3968" data-name="Group 3968" transform="translate(52.713 16.245)">
      <path id="Path_13077" data-name="Path 13077" d="M11.485,80.673v4.417H10.142V74.422H13a12.3,12.3,0,0,1,1.23.051,6.078,6.078,0,0,1,.927.163,3.3,3.3,0,0,1,1.761,1.033,2.744,2.744,0,0,1,.61,1.821,2.951,2.951,0,0,1-.215,1.156,2.619,2.619,0,0,1-.6.885,3.162,3.162,0,0,1-.927.614,5,5,0,0,1-1.2.351v.032l3.264,4.561H16.505l-3.4-4.417Zm0-5.08V79.5h1.327q.619,0,1.055-.039a3.966,3.966,0,0,0,.784-.144,2.151,2.151,0,0,0,1.079-.662,1.791,1.791,0,0,0,.38-1.188,1.681,1.681,0,0,0-.363-1.1,1.966,1.966,0,0,0-.981-.6,3.884,3.884,0,0,0-.708-.128q-.413-.04-1.047-.039Z" transform="translate(-10.142 -74.421)" fill="#070707"/>
      <path id="Path_13078" data-name="Path 13078" d="M22.883,85.091l4.492-10.67h1.163l4.492,10.67H31.571l-1.318-3.213H25.643l-1.318,3.213Zm5.061-9.011q-.738,1.992-1.409,3.62l-.412,1h3.656l-.419-1q-.677-1.659-1.382-3.622Z" transform="translate(-11.192 -74.421)" fill="#070707"/>
      <path id="Path_13079" data-name="Path 13079" d="M41.483,83.433q.6-1.747,1.287-3.524l2.117-5.486H46.23l-4.181,10.67H40.875l-4.181-10.67h1.343l2.117,5.486q.7,1.778,1.3,3.524Z" transform="translate(-12.331 -74.421)" fill="#070707"/>
      <path id="Path_13080" data-name="Path 13080" d="M53.438,83.919h5.655V85.09h-7V74.422h6.693v1.173H53.438v3.445h4.756v1.172H53.438Z" transform="translate(-13.6 -74.421)" fill="#070707"/>
      <path id="Path_13081" data-name="Path 13081" d="M70.966,80.371q1.014,1.411,2,2.9h.05q-.107-1.555-.107-3.173V74.422h1.352v10.67H72.92l-4.327-5.949q-1.122-1.555-2-2.9h-.05q.107,1.459.107,3.4v5.447H65.3V74.422h1.336Z" transform="translate(-14.689 -74.421)" fill="#070707"/>
    </g>
    <path id="Path_13082" data-name="Path 13082" d="M63.423,52.929c3.393-2.071,8.956-5.466,10.49-6.395l-9.626,6.722Z" transform="translate(-33.572 -24.632)" fill="#f1ad0f"/>
    <path id="Path_13083" data-name="Path 13083" d="M67,49.628l-3.343,2.334-.3-.112L67,49.628m7.636-5.038a3.784,3.784,0,0,0-1.035.469c-.213.116-11.309,6.89-11.309,6.89l1.43.542,10.115-7.064s1.063-.837.8-.837" transform="translate(-32.973 -23.603)" fill="#f1ad0f"/>
  </g>
</svg>
