<svg xmlns="http://www.w3.org/2000/svg" width="438" height="170" viewBox="0 0 438 170">
  <g id="SHF_Financial_Logo" transform="translate(21 5)">
    <g id="Rectangle_2369" data-name="Rectangle 2369" transform="translate(-21 -5)" fill="#fff" stroke="#707070" stroke-width="1" opacity="0">
      <rect width="438" height="170" stroke="none"/>
      <rect x="0.5" y="0.5" width="437" height="169" fill="none"/>
    </g>
    <path id="Path_13181" data-name="Path 13181" d="M240.45,53.242a53.254,53.254,0,1,1-.249-5.13c.168,1.683.249,3.4.249,5.13" transform="translate(7.955 7.768)" fill="#0e4566"/>
    <path id="Path_13182" data-name="Path 13182" d="M220.306,33.778v5.114l-2.525-5.5Z" transform="translate(-1.64 3.944)" fill="#f4640e"/>
    <path id="Path_13183" data-name="Path 13183" d="M128.923,95.379c24.942,1.879,65.545-.768,99.4-29.765l5.986,11.779,14.6-31.025-32-4.923,6.267,13.651s-30.43,35.83-94.2,37.561a1.363,1.363,0,0,0-.058,2.723" transform="translate(8.678 3.023)" fill="#94b734"/>
    <path id="Path_13184" data-name="Path 13184" d="M165.328,53.723V83.346A144.978,144.978,0,0,1,148.1,86.688V53.723a3.564,3.564,0,0,1,3.567-3.567h10.1a3.564,3.564,0,0,1,3.567,3.567" transform="translate(6.338 2.025)" fill="#daeaa2"/>
    <path id="Path_13185" data-name="Path 13185" d="M191.866,38.182v35a133.635,133.635,0,0,1-17.232,6.612V38.182a3.564,3.564,0,0,1,3.567-3.567h10.1a3.564,3.564,0,0,1,3.567,3.567" transform="translate(3.3 3.805)" fill="#daeaa2"/>
    <path id="Path_13186" data-name="Path 13186" d="M218.4,24.153V57.214a116.036,116.036,0,0,1-17.232,11.228V24.153a3.569,3.569,0,0,1,3.567-3.567h10.1a3.574,3.574,0,0,1,3.567,3.567" transform="translate(0.261 5.411)" fill="#daeaa2"/>
    <text id="SHF_Financial_Investments_Ltd." data-name="SHF Financial Investments Ltd." transform="translate(24 147.605)" fill="#0e4566" font-size="23" font-family="Metropolis-Bold, Metropolis" font-weight="700"><tspan x="0" y="0">SHF Financial In</tspan><tspan y="0" letter-spacing="-0.031em">v</tspan><tspan y="0">estments Ltd.</tspan></text>
  </g>
</svg>
