<svg id="table_icon" xmlns="http://www.w3.org/2000/svg" width="16" height="15" viewBox="0 0 16 15">
  <path id="Path_6155" data-name="Path 6155" d="M4.906,13.371V11.314a.343.343,0,0,0-.075-.257.257.257,0,0,0-.226-.086H1.509a.257.257,0,0,0-.226.086.343.343,0,0,0-.075.257v2.057a.343.343,0,0,0,.075.257.257.257,0,0,0,.226.086H4.6a.257.257,0,0,0,.226-.086.343.343,0,0,0,.075-.257m0-4.114V7.2a.343.343,0,0,0-.075-.257A.257.257,0,0,0,4.6,6.857H1.509a.257.257,0,0,0-.226.086.343.343,0,0,0-.075.257V9.257a.343.343,0,0,0,.075.257.257.257,0,0,0,.226.086H4.6a.257.257,0,0,0,.226-.086.343.343,0,0,0,.075-.257m4.906,4.114V11.314a.343.343,0,0,0-.075-.257.257.257,0,0,0-.226-.086H6.415a.257.257,0,0,0-.226.086.343.343,0,0,0-.075.257v2.057a.343.343,0,0,0,.075.257.257.257,0,0,0,.226.086H9.509a.257.257,0,0,0,.226-.086.343.343,0,0,0,.075-.257M4.906,5.143V3.086a.343.343,0,0,0-.075-.257A.257.257,0,0,0,4.6,2.743H1.509a.257.257,0,0,0-.226.086.343.343,0,0,0-.075.257V5.143a.343.343,0,0,0,.075.257.257.257,0,0,0,.226.086H4.6A.257.257,0,0,0,4.83,5.4a.343.343,0,0,0,.075-.257M9.811,9.257V7.2a.343.343,0,0,0-.075-.257.257.257,0,0,0-.226-.086H6.415a.257.257,0,0,0-.226.086.343.343,0,0,0-.075.257V9.257a.343.343,0,0,0,.075.257.257.257,0,0,0,.226.086H9.509a.257.257,0,0,0,.226-.086.343.343,0,0,0,.075-.257m4.906,4.114V11.314a.343.343,0,0,0-.075-.257.257.257,0,0,0-.226-.086H11.321a.257.257,0,0,0-.226.086.343.343,0,0,0-.075.257v2.057a.343.343,0,0,0,.075.257.257.257,0,0,0,.226.086h3.094a.257.257,0,0,0,.226-.086.343.343,0,0,0,.075-.257M9.811,5.143V3.086a.343.343,0,0,0-.075-.257.257.257,0,0,0-.226-.086H6.415a.257.257,0,0,0-.226.086.343.343,0,0,0-.075.257V5.143a.343.343,0,0,0,.075.257.257.257,0,0,0,.226.086H9.509A.257.257,0,0,0,9.736,5.4a.343.343,0,0,0,.075-.257m4.906,4.114V7.2a.343.343,0,0,0-.075-.257.257.257,0,0,0-.226-.086H11.321a.257.257,0,0,0-.226.086.343.343,0,0,0-.075.257V9.257a.343.343,0,0,0,.075.257.257.257,0,0,0,.226.086h3.094a.257.257,0,0,0,.226-.086.343.343,0,0,0,.075-.257m0-4.114V3.086a.343.343,0,0,0-.075-.257.257.257,0,0,0-.226-.086H11.321a.257.257,0,0,0-.226.086.343.343,0,0,0-.075.257V5.143a.343.343,0,0,0,.075.257.257.257,0,0,0,.226.086h3.094a.257.257,0,0,0,.226-.086.343.343,0,0,0,.075-.257M16,1.714V13.286a1.812,1.812,0,0,1-.453,1.2A1.409,1.409,0,0,1,14.491,15H1.509a1.3,1.3,0,0,1-1.057-.514A1.812,1.812,0,0,1,0,13.286V1.714A1.812,1.812,0,0,1,.453.514,1.409,1.409,0,0,1,1.509,0H14.415a1.3,1.3,0,0,1,1.057.514A1.9,1.9,0,0,1,16,1.714" fill="#bebebe"/>
</svg>
