<svg xmlns="http://www.w3.org/2000/svg" width="120" height="120" viewBox="0 0 120 120">
  <g id="total_RB" transform="translate(-1309 -669)">
    <path id="Path_65" data-name="Path 65" d="M60,0c30,0,60,26.863,60,60A60,60,0,0,1,0,60C0,26.863,30,0,60,0Z" transform="translate(1309 669)" fill="#fff"/>
    <path id="total_RB-2" data-name="total_RB" d="M265.317,180.466a60,60,0,1,0,0,84.853A60,60,0,0,0,265.317,180.466Zm-82.176,2.676A56.117,56.117,0,0,1,229.9,167.115q-.8,2.608-1.76,5.179l-3.484-1.863a2.07,2.07,0,0,0-1.952,3.65l3.9,2.084q-1.635,3.862-3.625,7.6l-3.281-2.576a2.07,2.07,0,0,0-2.556,3.256l3.785,2.972q-1.561,2.639-3.3,5.2l-2.385-2.663a2.07,2.07,0,0,0-3.083,2.763l3,3.346q-1.231,1.638-2.538,3.233l-1.511-2.43a2.069,2.069,0,0,0-3.515,2.185l2.2,3.535q-1.105,1.227-2.261,2.428l-1.28-3.19a2.07,2.07,0,0,0-3.842,1.541l1.929,4.809q-1.364,1.29-2.765,2.515l-.576-2.738a2.069,2.069,0,0,0-4.051.85l1.025,4.883q-2.065,1.635-4.2,3.138l-.111-3.386a2.07,2.07,0,0,0-4.137.134l.194,5.954q-2.3,1.448-4.653,2.752l.419-2.931a2.07,2.07,0,0,0-4.1-.585l-.837,5.857q-2.45,1.188-4.951,2.227l.287-.874a2.069,2.069,0,0,0-3.933-1.288l-1.333,4.069q-1.739.61-3.5,1.15a56.121,56.121,0,0,1,16.027-46.755Zm28.113,91.348,2.271-.744q-.757,2.148-1.414,4.322a56.245,56.245,0,0,1-44.4-44.4q1.359-.411,2.71-.861l2.666,4.984a2.07,2.07,0,0,0,3.65-1.952l-2.374-4.44q3.925-1.5,7.74-3.34l2.68,3.414a2.07,2.07,0,0,0,3.256-2.556l-2.178-2.774q3.055-1.641,6.015-3.516l3.2,2.869a2.07,2.07,0,0,0,2.763-3.083l-2.4-2.153q2.352-1.638,4.629-3.427l4.418,2.745a2.069,2.069,0,0,0,2.185-3.515l-3.227-2q1.834-1.575,3.606-3.259l4.656,1.869a2.07,2.07,0,0,0,1.541-3.842l-3-1.2q1.089-1.13,2.135-2.285l5.982,1.256a2.069,2.069,0,0,0,.85-4.05l-3.741-.785q1.488-1.81,2.877-3.672l5.728.187a2.07,2.07,0,0,0,.134-4.137l-3-.1q1.793-2.676,3.4-5.442l5.24-.749a2.07,2.07,0,0,0-.585-4.1l-2.183.312q1.773-3.469,3.257-7.045l5.475-1.794a2.069,2.069,0,0,0-1.288-3.933l-2.274.746q.757-2.148,1.414-4.324a56.245,56.245,0,0,1,44.4,44.4q-1.359.411-2.71.86L272.7,207.99a2.069,2.069,0,0,0-3.649,1.952l2.374,4.441q-3.925,1.5-7.74,3.34L261,214.309a2.07,2.07,0,0,0-3.256,2.556l2.178,2.775q-3.055,1.641-6.015,3.516l-3.2-2.869a2.07,2.07,0,0,0-2.763,3.083l2.4,2.152q-2.352,1.638-4.629,3.427L241.3,226.2a2.069,2.069,0,0,0-2.185,3.515l3.227,2q-1.834,1.575-3.606,3.259l-4.656-1.868a2.07,2.07,0,0,0-1.541,3.842l3,1.2q-1.09,1.13-2.136,2.285l-5.979-1.256a2.069,2.069,0,0,0-.85,4.05l3.741.786q-1.488,1.81-2.877,3.672l-5.728-.187a2.07,2.07,0,0,0-.134,4.137l3,.1q-1.8,2.677-3.4,5.443l-5.238.749a2.07,2.07,0,0,0,.585,4.1l2.181-.312q-1.773,3.469-3.259,7.046l-5.473,1.792a2.068,2.068,0,0,0,1.286,3.932Zm51.387-11.848a56.117,56.117,0,0,1-46.755,16.027q.8-2.608,1.76-5.179l3.484,1.863a2.07,2.07,0,0,0,1.952-3.65l-3.9-2.084q1.635-3.862,3.625-7.6l3.282,2.576a2.07,2.07,0,0,0,2.556-3.256l-3.785-2.972q1.561-2.639,3.3-5.2l2.385,2.661a2.07,2.07,0,0,0,3.083-2.763l-3-3.346q1.231-1.638,2.538-3.233l1.511,2.431a2.069,2.069,0,0,0,3.515-2.185L236,243.2q1.105-1.227,2.261-2.428l1.28,3.19a2.07,2.07,0,0,0,3.842-1.541l-1.929-4.809q1.364-1.29,2.765-2.515l.576,2.74a2.069,2.069,0,0,0,4.051-.85l-1.025-4.883q2.064-1.635,4.2-3.138l.111,3.386a2.07,2.07,0,0,0,4.137-.134l-.194-5.954q2.3-1.448,4.653-2.752l-.419,2.931a2.07,2.07,0,0,0,4.1.585l.837-5.857q2.45-1.188,4.951-2.227l-.287.874a2.069,2.069,0,0,0,3.933,1.288l1.333-4.069q1.739-.61,3.5-1.15a56.129,56.129,0,0,1-16.028,46.755Z" transform="translate(1146.11 506.107)"/>
  </g>
</svg>
