<svg xmlns="http://www.w3.org/2000/svg" width="8.387" height="6.75" viewBox="0 0 8.387 6.75">
  <g id="transfer_data" transform="translate(-80.266 -93.369)">
    <path id="Path_13249" data-name="Path 13249" d="M116.876,95.916h7.866a.207.207,0,0,0,.146-.353l-2.07-2.07h0a.207.207,0,0,0-.293.293l1.717,1.717h-7.366a.207.207,0,0,0,0,.414Z" transform="translate(-36.35 0)" fill="#9b9b9b" stroke="#9b9b9b" stroke-width="0.1"/>
    <path id="Path_13250" data-name="Path 13250" d="M124.738,326.67h-7.866a.207.207,0,0,0-.146.353l2.07,2.07h0a.207.207,0,0,0,.293-.293l-1.717-1.717h7.366a.207.207,0,0,0,0-.414Z" transform="translate(-36.347 -229.098)" fill="#9b9b9b" stroke="#9b9b9b" stroke-width="0.1"/>
  </g>
</svg>