<svg xmlns="http://www.w3.org/2000/svg" width="18.824" height="16" viewBox="0 0 18.824 16">
  <path id="user-plus" d="M19.882,10.088h-.941V9.147a.941.941,0,1,0-1.882,0v.941h-.941a.941.941,0,0,0,0,1.882h.941v.941a.941.941,0,0,0,1.882,0v-.941h.941a.941.941,0,0,0,0-1.882Zm-7.247,1.619a4.631,4.631,0,0,0,1.6-3.5,4.706,4.706,0,0,0-9.412,0,4.631,4.631,0,0,0,1.6,3.5A7.529,7.529,0,0,0,2,18.559a.941.941,0,0,0,1.882,0,5.647,5.647,0,0,1,11.294,0,.941.941,0,0,0,1.882,0,7.529,7.529,0,0,0-4.424-6.852Zm-3.106-.678a2.824,2.824,0,1,1,2.824-2.824A2.824,2.824,0,0,1,9.529,11.029Z" transform="translate(-2 -3.5)" fill="#343434"/>
</svg>
