<svg xmlns="http://www.w3.org/2000/svg" width="20.678" height="16" viewBox="0 0 20.678 16">
  <path id="users-alt" d="M11.635,11.707a4.631,4.631,0,0,0,1.6-3.5,4.706,4.706,0,1,0-9.412,0,4.631,4.631,0,0,0,1.6,3.5A7.529,7.529,0,0,0,1,18.559a.941.941,0,1,0,1.882,0,5.647,5.647,0,0,1,11.294,0,.941.941,0,1,0,1.882,0,7.529,7.529,0,0,0-4.424-6.852Zm-3.106-.678a2.824,2.824,0,1,1,2.824-2.824A2.824,2.824,0,0,1,8.529,11.029Zm9.167.3A4.706,4.706,0,0,0,14.176,3.5a.941.941,0,0,0,0,1.882,2.819,2.819,0,0,1,1.412,5.261.94.94,0,0,0-.047,1.6l.367.245.122.066a6.588,6.588,0,0,1,3.765,6,.941.941,0,1,0,1.882,0A8.471,8.471,0,0,0,17.7,11.331Z" transform="translate(-1 -3.5)" fill="#343434"/>
</svg>
