<svg xmlns="http://www.w3.org/2000/svg" xmlns:xlink="http://www.w3.org/1999/xlink" width="63" height="44" viewBox="0 0 63 44">
  <defs>
    <clipPath id="clip-Login_1">
      <rect width="63" height="44"/>
    </clipPath>
  </defs>
  <g id="Login_1" data-name="Login – 1" clip-path="url(#clip-Login_1)">
    <rect width="63" height="44" fill="#fff"/>
    <g id="us" transform="translate(-1 2)">
      <g id="Group_4279" data-name="Group 4279">
        <path id="Path_13558" data-name="Path 13558" d="M0,0H75V3.038H0ZM0,6.075H75V9.113H0Zm0,6.068H75v3.045H0Zm0,6.075H75v3.038H0Zm0,6.075H75v3.038H0Zm0,6.068H75V33.4H0Zm0,6.075H75v3.038H0Z" fill="#bd3d44" fill-rule="evenodd"/>
        <path id="Path_13559" data-name="Path 13559" d="M0,36.938H75v3.038H0Zm0,6.075H75v3.03H0ZM0,49.08H75v3.038H0Zm0,6.075H75v3.038H0Zm0,6.075H75v3.038H0ZM0,67.3H75v3.038H0Z" transform="translate(0 -33.9)" fill="#fff" fill-rule="evenodd"/>
      </g>
      <path id="Path_13560" data-name="Path 13560" d="M0,0H30V21.256H0Z" fill="#192f5d" fill-rule="evenodd"/>
      <path id="Path_13561" data-name="Path 13561" d="M17.469,11.063l.278.84h.879l-.709.517.27.848-.717-.524-.709.517.27-.84-.717-.517h.894Zm5,0,.27.84h.887l-.717.517.27.848-.709-.524-.717.517.27-.84-.709-.517H22.2Zm5,0,.278.84h.871l-.709.517.27.848-.717-.524-.709.517.27-.84L26.3,11.9h.887Zm5,0,.27.84h.887l-.717.517.278.848-.717-.524-.717.517.278-.84-.717-.517h.879Zm5,0,.278.84h.879l-.709.517.27.848-.717-.524-.709.517.27-.84-.709-.517H37.2Zm5,0,.27.84h.887l-.717.517.278.848-.717-.524-.717.517.278-.84-.717-.517H42.2Zm-22.5,2.128.27.84h.887l-.717.517.262.84-.694-.517-.717.517.254-.84-.694-.517H19.7Zm5,0,.278.84h.879l-.717.517.278.84-.717-.517-.717.517.278-.84-.717-.517H24.7Zm5,0,.27.84h.887l-.717.517.27.84-.709-.517-.717.517.27-.84-.709-.517H29.7Zm5,0,.278.84h.879l-.717.517.278.84-.717-.517-.709.517.27-.84-.717-.517h.894Zm5,0,.27.84h.887l-.717.517.27.84-.709-.517-.717.517.27-.84-.709-.517H39.7Zm-22.5,2.12.278.856h.879l-.709.517.27.84L17.469,17l-.709.524.27-.848-.717-.517h.894Zm5,0,.27.848h.887l-.717.517.27.84-.709-.524-.717.524.27-.848-.709-.517H22.2Zm5,0,.278.848h.871l-.709.517.27.84-.717-.524-.709.524.27-.848-.717-.517h.887Zm5,0,.27.848h.887l-.717.517.278.84-.717-.524-.717.524.278-.848-.717-.517h.879Zm5,0,.278.848h.879l-.709.517.27.84-.717-.524-.709.524.27-.848-.709-.517H37.2Zm5,0,.27.848h.887l-.717.517.278.84-.717-.524-.717.524.278-.848-.717-.517H42.2Zm-22.5,2.128.27.84h.887l-.717.517.27.848-.709-.524-.717.517.27-.84-.709-.517H19.7Zm5,0,.278.84h.879l-.717.517.278.848-.717-.524-.717.517.278-.84-.717-.517H24.7Zm5,0,.27.84h.887l-.717.517.27.848-.709-.524-.717.517.27-.84-.709-.517H29.7Zm5,0,.278.84h.879l-.709.517.27.848-.717-.524-.709.517.27-.84-.717-.517h.894Zm5,0,.27.84h.887l-.717.517.27.848-.709-.524-.717.517.27-.84-.709-.517H39.7Zm-22.5,2.128.278.84h.879l-.709.517.27.848-.717-.524-.709.517.27-.84-.717-.517h.894Zm5,0,.27.84h.887l-.717.517.27.84-.709-.517-.717.517.27-.84-.709-.517H22.2Zm5,0,.278.84h.871l-.709.517.27.848-.717-.524-.709.517.27-.84-.717-.517h.887Zm5,0,.27.84h.887l-.717.517.278.848-.717-.524-.717.517.278-.84-.717-.517h.879Zm5,0,.278.84h.879l-.709.517.27.848-.717-.524-.709.517.27-.84-.709-.517H37.2Zm5,0,.27.84h.887l-.717.517.278.848-.717-.524-.717.517.278-.84-.717-.517H42.2Zm-22.5,2.128.27.84h.887l-.717.517.27.84-.709-.524-.717.524.27-.848-.709-.517H19.7Zm5,0,.278.84h.879l-.717.517.278.84-.717-.524-.717.524.278-.848-.717-.517H24.7Zm5,0,.27.84h.887l-.717.517.27.84-.709-.524-.717.524.27-.848-.709-.517H29.7Zm5,0,.278.84h.879l-.709.517.27.84-.717-.524-.709.524.27-.848-.717-.517h.894Zm5,0,.27.84h.887l-.717.517.27.84-.709-.524-.717.524.27-.848-.709-.517H39.7Zm-22.5,2.12.278.848h.879l-.709.517.27.833-.717-.517-.709.517.27-.84-.717-.517h.894Zm5,0,.27.848h.887l-.717.517.278.833-.717-.517-.717.517.278-.84-.717-.517H22.2Zm5,0,.278.848h.871l-.709.517.27.833-.717-.517-.709.517.27-.84-.717-.517h.887Zm5,0,.27.848h.887l-.717.517.278.833-.717-.517-.717.517.278-.84-.717-.517h.879Zm5,0,.278.848h.879l-.709.517.27.833-.717-.517-.709.517.27-.84-.709-.517H37.2Zm5,0,.27.848h.887l-.717.517.278.833-.717-.517-.717.517.278-.84-.717-.517H42.2Zm-22.5,2.128.27.84h.887l-.717.517.27.848-.709-.524-.717.517.27-.84-.709-.517H19.7Zm5,0,.278.84h.879l-.717.517.278.848-.717-.524-.717.517.278-.84-.717-.517H24.7Zm5,0,.27.84h.887l-.717.517.27.848-.709-.524-.717.517.27-.84-.709-.517H29.7Zm5,0,.278.84h.879l-.709.517.27.848-.717-.524-.709.517.27-.84-.717-.517h.894Zm5,0,.27.84h.887l-.717.517.27.848-.709-.524-.717.517.27-.84-.709-.517H39.7Zm-22.5,2.128.278.84h.879l-.709.517.27.84-.717-.517-.709.517.27-.848-.717-.517h.894Zm5,0,.27.84h.887l-.717.517.278.84-.717-.517-.717.517.278-.848-.717-.517H22.2Zm5,0,.278.84h.871l-.694.517.27.84-.717-.517-.709.517.27-.848L26.32,28.9h.887Zm5,0,.27.84h.887l-.717.517.278.84-.717-.517-.717.517.278-.848-.717-.517h.879Zm5,0,.278.84h.879l-.709.517.27.84-.717-.517-.709.517.27-.848-.709-.517H37.2Zm5,0,.27.84h.887l-.717.517.278.84-.717-.517-.717.517.278-.848-.717-.517H42.2Z" transform="translate(-14.971 -10.153)" fill="#fff" fill-rule="evenodd"/>
    </g>
  </g>
</svg>
