<svg id="Layer_1" data-name="Layer 1" xmlns="http://www.w3.org/2000/svg" viewBox="0 0 58 34.67"><defs><style>.cls-1,.cls-3{fill:#0193d5;}.cls-2{fill:none;stroke:#bfbfbf;stroke-miterlimit:8;stroke-width:0.5px;}.cls-3{fill-rule:evenodd;}</style></defs><path class="cls-1" d="M12.78,38.28H34.39V8.81H12.78ZM10.19,6.21H37V40.88H10.19Z" transform="translate(-10.19 -6.21)"/><rect class="cls-1" x="5.67" y="5.6" width="3.46" height="3.47"/><rect class="cls-1" x="5.67" y="11.6" width="3.46" height="3.47"/><rect class="cls-1" x="5.67" y="17.6" width="3.46" height="3.47"/><rect class="cls-1" x="12.97" y="6.55" width="8.64" height="1.73"/><rect class="cls-1" x="5.55" y="24.38" width="3.46" height="3.47"/><rect class="cls-1" x="12.72" y="12.47" width="8.64" height="1.73"/><rect class="cls-1" x="12.72" y="18.47" width="8.64" height="1.73"/><rect class="cls-1" x="12.72" y="25.47" width="8.64" height="1.73"/><line class="cls-2" x1="26.8" y1="17.34" x2="48.39" y2="17.34"/><path class="cls-3" d="M57.38,23.54a5.4,5.4,0,1,1,5.4,5.4,5.4,5.4,0,0,1-5.4-5.4" transform="translate(-10.19 -6.21)"/></svg>