<svg xmlns="http://www.w3.org/2000/svg" width="40" height="40" viewBox="0 0 40 40">
  <g id="address" transform="translate(-108.79 -33.603)">
    <path id="Path_21" data-name="Path 21" d="M298.341,114.2a4.976,4.976,0,0,0-1.521-3.544,5.214,5.214,0,0,0-7.257.026,4.952,4.952,0,0,0,.013,7.1,5.2,5.2,0,0,0,7.264-.018,4.992,4.992,0,0,0,1.5-3.567Zm-8.414,0a3.176,3.176,0,0,1,.977-2.258,3.329,3.329,0,0,1,4.63.025,3.161,3.161,0,0,1-.013,4.532,3.315,3.315,0,0,1-4.637-.018A3.191,3.191,0,0,1,289.926,114.2Z" transform="translate(-164.413 -69.46)"/>
    <path id="Path_22" data-name="Path 22" d="M148.731,69.308l-1.779-9.659A3.621,3.621,0,0,0,145.68,57.5a3.764,3.764,0,0,0-2.381-.847h-7.323l2.419-3.182a12.347,12.347,0,1,0-19.438.014l2.419,3.182h-7.091a3.764,3.764,0,0,0-2.381.847,3.621,3.621,0,0,0-1.273,2.144l-1.779,9.645a3.581,3.581,0,0,0,.8,2.986,3.748,3.748,0,0,0,2.856,1.309h32.57a3.747,3.747,0,0,0,2.849-1.3,3.581,3.581,0,0,0,.805-2.977Zm-30.537-24A10.5,10.5,0,1,1,136.9,52.389l-8.228,10.792L120.432,52.4a10.571,10.571,0,0,1-2.238-7.091Zm28.326,25.81a1.873,1.873,0,0,1-1.444.664h-32.57a1.873,1.873,0,0,1-1.429-.658,1.789,1.789,0,0,1-.4-1.5l1.778-9.664a1.812,1.812,0,0,1,.637-1.073,1.881,1.881,0,0,1,1.192-.423h8.465l5.178,6.773a.941.941,0,0,0,1.491,0l5.164-6.768H143.3a1.882,1.882,0,0,1,1.188.422,1.811,1.811,0,0,1,.637,1.069l1.778,9.664a1.79,1.79,0,0,1-.4,1.486Z"/>
  </g>
</svg>
