<svg xmlns="http://www.w3.org/2000/svg" xmlns:xlink="http://www.w3.org/1999/xlink" width="119" height="47" viewBox="0 0 119 47">
  <defs>
    <clipPath id="clip-Web_1920_1">
      <rect width="119" height="47"/>
    </clipPath>
  </defs>
  <g id="Web_1920_1" data-name="Web 1920 – 1" clip-path="url(#clip-Web_1920_1)">
    <rect width="119" height="47" fill="#fff"/>
    <g id="brand-logo" transform="translate(6.2 -0.7)">
      <g id="Group_4" data-name="Group 4">
        <path id="Path_1" data-name="Path 1" d="M63.9,25.1s-11.4,6.1-19,10.5c-5.8,3.4-15.3,9.6-15.3,9.6s-4.7,2.6-10.9-1.1c-6.2-3.6-9.1-7.7-10.2-8.4a5.905,5.905,0,0,0-3.4-.8H2.9v-.1l.1-.1a11.233,11.233,0,0,1,1.8-2c1.2-1,2.5-2.6,4-2.7,2.7-.2,5.1,2.6,7.3,3.9,2,1.2,3.6,2.4,6,2.4a15.982,15.982,0,0,0,7-1.3l3.8-1.9c6.2-3.1,5.8-3.1,7.6-3.8.3-.1,1.9-1.1,2.5-1.3l20.9-2.9Z" fill="#fff"/>
        <g id="Group_3" data-name="Group 3">
          <g id="Group_2" data-name="Group 2">
            <g id="Group_1" data-name="Group 1">
              <path id="Path_2" data-name="Path 2" d="M3.9,34.9H4a6.753,6.753,0,0,1,1.4-.2c0-.3.1-.5.1-.8v-.2a1.854,1.854,0,0,0-.2-.7q-.15-.3-.3-.3a.1.1,0,0,1-.1-.1,2.354,2.354,0,0,1-.8.2v.1c0,.1,0,.1-.1.2a.1.1,0,0,0-.1.1c-.1.1-.3.1-.4.2-.1,0-.2.1-.3.1a2.181,2.181,0,0,0-.5.4h0c-.1.1-.3.2-.4.4-.1.1-.3.2-.4.4-.1.1-.1.1-.1.2V35H2c.1,0,.1-.1.2-.1H3.9Z" fill="none"/>
              <path id="Path_3" data-name="Path 3" d="M4,34.9a6.753,6.753,0,0,1,1.4-.2c0-.3.1-.5.1-.8v-.2a1.854,1.854,0,0,0-.2-.7q-.15-.3-.3-.3a.1.1,0,0,1-.1-.1c-.3.1-.5.2-.8.3V33c0,.1,0,.1-.1.2a.1.1,0,0,0-.1.1c-.1.1-.3.1-.4.2-.1,0-.2.1-.3.1a2.181,2.181,0,0,0-.5.4h0c-.1.1-.3.2-.4.4-.1.1-.3.2-.4.4-.1.1-.1.1-.1.2v.1H2c.1,0,.1-.1.2-.1H3.8A.31.31,0,0,1,4,34.9Z" fill="#fff"/>
            </g>
          </g>
        </g>
      </g>
      <path id="Path_4" data-name="Path 4" d="M38.5,13.5l.1,14.4L32,31.5v-18Z" fill="#f1ad0f"/>
      <path id="Path_5" data-name="Path 5" d="M49.4,25.4,43,26,42.9,2.7h6.6Z" fill="#f1ad0f"/>
      <path id="Path_6" data-name="Path 6" d="M21,21.7l6.6-.5.2,12.4s-1.9,1.3-6.3.6Z" fill="#f1ad0f"/>
      <g id="Group_5" data-name="Group 5">
        <path id="Path_7" data-name="Path 7" d="M70.7,29.4v3h-.9V25h2.8c.2,0,.4.1.6.1a2.4,2.4,0,0,1,1.2.7,1.844,1.844,0,0,1,.4,1.3,1.949,1.949,0,0,1-.1.8,1.838,1.838,0,0,1-1,1,1.884,1.884,0,0,1-.8.2h0l2.3,3.1h-.9l-2.3-3H70.7Zm0-3.5v2.7h1.6a4.331,4.331,0,0,0,.5-.1c.3-.1.6-.2.7-.5a1.217,1.217,0,0,0,0-1.6,1.612,1.612,0,0,0-.7-.4,4.331,4.331,0,0,0-.5-.1H70.7Z" fill="#fff"/>
        <path id="Path_8" data-name="Path 8" d="M77.8,32.5l3.1-7.4h.8l3.1,7.4h-1l-.9-2.2H79.7l-.9,2.2Zm3.5-6.3c-.3.9-.7,1.7-1,2.5l-.3.7h2.5l-.3-.7a19.462,19.462,0,0,0-.9-2.5Z" fill="#fff"/>
        <path id="Path_9" data-name="Path 9" d="M89.9,31.3l.9-2.4,1.5-3.8h.9l-2.9,7.4h-.8l-2.9-7.4h.9L89,28.9l.9,2.4Z" fill="#fff"/>
        <path id="Path_10" data-name="Path 10" d="M97.3,31.7h3.9v.8H96.4V25.1H101v.8H97.3v2.4h3.3v.8H97.3Z" fill="#fff"/>
        <path id="Path_11" data-name="Path 11" d="M108.6,29.2c.5.6.9,1.3,1.4,2h0c0-.7-.1-1.4-.1-2.2V25.1h.9v7.4H110l-3-4.1c-.5-.7-1-1.4-1.4-2h0c0,.7.1,1.5.1,2.4v3.8h-.9V25.2h.9Z" fill="#fff"/>
      </g>
      <g id="Group_6" data-name="Group 6">
        <path id="Path_12" data-name="Path 12" d="M42.4,40.7c2.6-1.6,6-3.6,8.8-5.4L43.1,41Z" fill="#fff"/>
        <path id="Path_13" data-name="Path 13" d="M57.9,30.9a11.893,11.893,0,0,0-1.4.6c-.3.2-15.2,9.3-15.2,9.3l1.9.7L56.8,32s1.4-1.1,1.1-1.1Z" fill="#fff"/>
      </g>
    </g>
  </g>
</svg>
