<svg id="Layer_1" data-name="Layer 1" xmlns="http://www.w3.org/2000/svg" viewBox="0 0 109.08 43.39"><defs><style>.cls-1{fill:#fff;}.cls-2{fill:none;}.cls-3{fill:#f1ad0f;}</style></defs><path class="cls-1" d="M63.92,25.13s-11.4,6.07-19,10.51C39.1,39,29.62,45.2,29.62,45.2s-4.75,2.55-10.95-1.1S9.55,36.44,8.45,35.71A6,6,0,0,0,5.1,35,.34.34,0,0,0,5,34.9c-.29,0-.58,0-.88,0h0c-.27,0-.53,0-.8,0h-.4l0-.07L3,34.63a8.82,8.82,0,0,1,1.81-2c1.17-.95,2.52-2.56,4-2.68,2.66-.22,5.1,2.59,7.26,3.9,2,1.21,3.55,2.43,6,2.43a16.79,16.79,0,0,0,7-1.27l3.8-1.9c6.17-3.12,5.78-3.07,7.6-3.8A25.06,25.06,0,0,1,43,28L63.86,25.1Z" transform="translate(-1.81 -2.67)"/><path class="cls-2" d="M3.9,34.88H4a6.43,6.43,0,0,1,1.38-.17c0-.27.09-.53.14-.8a2.23,2.23,0,0,1,0-.23A4.37,4.37,0,0,0,5.32,33,.66.66,0,0,0,5,32.67l-.14-.07-.75.25a.14.14,0,0,0,0,.07.16.16,0,0,1-.1.16l-.08.05-.39.2-.26.15c-.19.13-.37.28-.55.42l0,0-.41.36a3.32,3.32,0,0,0-.37.38.28.28,0,0,0-.08.21s0,0,0,.07a0,0,0,0,0,0,0,0,0,0,0,0,.05,0L2,35a.4.4,0,0,1,.18-.07H3.49a.45.45,0,0,1,.2,0Z" transform="translate(-1.81 -2.67)"/><path class="cls-1" d="M4,34.89a6,6,0,0,1,1.39-.18c0-.27.09-.53.14-.8a2.23,2.23,0,0,1,0-.23A4.37,4.37,0,0,0,5.32,33,.66.66,0,0,0,5,32.67l-.14-.07-.76.25s0,0,0,.07a.16.16,0,0,1-.1.16l-.08.05-.4.21-.26.15c-.19.12-.36.27-.55.41l0,0-.42.36c-.12.12-.25.25-.36.38a.36.36,0,0,0-.09.21s0,0,0,.08v0s0,0,.06,0A.18.18,0,0,0,1.94,35a.44.44,0,0,1,.19-.07H3.49a.67.67,0,0,1,.2,0H4Z" transform="translate(-1.81 -2.67)"/><polygon class="cls-3" points="36.74 10.85 36.77 25.22 30.17 28.82 30.17 10.85 36.74 10.85"/><polygon class="cls-3" points="47.54 22.68 41.21 23.32 41.12 0 47.68 0 47.54 22.68"/><path class="cls-3" d="M21,21.68l6.57-.48.22,12.39s-1.9,1.27-6.34.63Z" transform="translate(-1.81 -2.67)"/><path class="cls-1" d="M70.7,29.41v3.05h-.93V25.1h2c.33,0,.61,0,.85,0a5,5,0,0,1,.63.12,2.24,2.24,0,0,1,1.22.71,1.9,1.9,0,0,1,.42,1.26,2.07,2.07,0,0,1-.15.8,1.77,1.77,0,0,1-.41.61,2.22,2.22,0,0,1-.64.42,3.49,3.49,0,0,1-.83.24v0l2.25,3.15h-.92l-2.35-3.05Zm0-3.5V28.6h.92c.28,0,.52,0,.73,0a2.73,2.73,0,0,0,.54-.1,1.49,1.49,0,0,0,.74-.46,1.21,1.21,0,0,0,.26-.82,1.11,1.11,0,0,0-.25-.76A1.43,1.43,0,0,0,73,26a2.18,2.18,0,0,0-.49-.08,7.18,7.18,0,0,0-.73,0Z" transform="translate(-1.81 -2.67)"/><path class="cls-1" d="M77.84,32.46l3.1-7.36h.81l3.1,7.36h-1l-.91-2.22H79.75l-.91,2.22Zm3.5-6.22c-.34.92-.67,1.75-1,2.5l-.28.7H82.6l-.29-.7c-.31-.76-.63-1.59-1-2.5Z" transform="translate(-1.81 -2.67)"/><path class="cls-1" d="M89.9,31.32c.27-.81.57-1.62.88-2.43l1.46-3.79h.93l-2.88,7.36h-.81L86.59,25.1h.93L89,28.89c.32.81.62,1.62.89,2.43Z" transform="translate(-1.81 -2.67)"/><path class="cls-1" d="M97.27,31.65h3.9v.81H96.34V25.1H101v.81H97.27v2.38h3.28v.8H97.27Z" transform="translate(-1.81 -2.67)"/><path class="cls-1" d="M108.62,29.2q.69,1,1.38,2h0c0-.72-.07-1.45-.07-2.19V25.1h.93v7.36H110l-3-4.1q-.78-1.08-1.38-2h0c0,.67.08,1.46.08,2.35v3.76h-.93V25.1h.92Z" transform="translate(-1.81 -2.67)"/><path class="cls-1" d="M42.39,40.71l8.81-5.38L43.11,41Z" transform="translate(-1.81 -2.67)"/><path class="cls-1" d="M57.87,30.91a5.29,5.29,0,0,0-1.4.63c-.28.16-15.21,9.28-15.21,9.28l1.92.72L56.79,32s1.43-1.13,1.08-1.13Z" transform="translate(-1.81 -2.67)"/></svg>