<svg xmlns="http://www.w3.org/2000/svg" xmlns:xlink="http://www.w3.org/1999/xlink" width="63" height="44" viewBox="0 0 63 44">
  <defs>
    <clipPath id="clip-path">
      <circle id="Ellipse_38" data-name="Ellipse 38" cx="11.025" cy="11.025" r="11.025" transform="translate(0)"/>
    </clipPath>
    <clipPath id="clip-path-2">
      <path id="Path_13572" data-name="Path 13572" d="M0,1.05V0H.945V1.05Zm.472-.7v.18H.945V.345Z" transform="translate(0 0)"/>
    </clipPath>
    <clipPath id="clip-Login_1">
      <rect width="63" height="44"/>
    </clipPath>
  </defs>
  <g id="Login_1" data-name="Login – 1" clip-path="url(#clip-Login_1)">
    <rect width="63" height="44" fill="#fff"/>
    <g id="Group_4395" data-name="Group 4395" transform="translate(1379.412 1019.5)">
      <g id="Group_4394" data-name="Group 4394" transform="translate(-1379.412 -1019.5)">
        <rect id="Rectangle_2619" data-name="Rectangle 2619" width="63" height="44.1" fill="#009b3a"/>
        <path id="Path_13558" data-name="Path 13558" d="M-1743-1096.3l26.145,16.695,26.145-16.695-26.145-16.7Z" transform="translate(1748.355 1118.355)" fill="#fedf00"/>
        <circle id="Ellipse_37" data-name="Ellipse 37" cx="11.025" cy="11.025" r="11.025" transform="translate(20.475 11.025)" fill="#002776"/>
        <g id="Group_4279" data-name="Group 4279" transform="translate(20.475 11.025)" clip-path="url(#clip-path)">
          <path id="Path_13559" data-name="Path 13559" d="M-2205-288.225A26.775,26.775,0,0,1-2178.225-315a26.775,26.775,0,0,1,26.775,26.775h-1.575a25.2,25.2,0,0,0-25.2-25.2,25.2,25.2,0,0,0-25.2,25.2Z" transform="translate(2182.95 321.3)" fill="#fff"/>
        </g>
        <g id="Group_4285" data-name="Group 4285" transform="translate(21.5 17.583)">
          <path id="Path_13560" data-name="Path 13560" d="M.472,1.05A.5.5,0,0,0,.945.525.5.5,0,0,0,.472,0,.5.5,0,0,0,0,.525a.5.5,0,0,0,.472.525m0-.195A.307.307,0,0,0,.75.525.307.307,0,0,0,.472.195a.307.307,0,0,0-.277.33.307.307,0,0,0,.277.33" transform="translate(0 0.259) rotate(-7)" fill="#009b3a" fill-rule="evenodd"/>
          <g id="Group_4280" data-name="Group 4280" transform="translate(1.379 0.102) rotate(-4)">
            <path id="Path_13561" data-name="Path 13561" d="M0,1.05H.195V.66h.42a.33.33,0,1,0,0-.66h-.6ZM.195.465H.6a.135.135,0,1,0,0-.27h-.4Z" transform="translate(0 0)" fill-rule="evenodd"/>
            <path id="Path_13562" data-name="Path 13562" d="M.51.48C.51.33.51,0,.285,0H0C.33,0,.33.33.33.48" transform="translate(0.382 0.57)"/>
          </g>
          <path id="Path_13563" data-name="Path 13563" d="M0,1.05H.495A.45.45,0,0,0,.945.6V.45A.45.45,0,0,0,.495,0H0ZM.195.855H.48A.285.285,0,0,0,.765.57V.48A.285.285,0,0,0,.48.195H.195Z" transform="translate(2.765 0.016) rotate(-1)" fill="#009b3a" fill-rule="evenodd"/>
          <path id="Path_13564" data-name="Path 13564" d="M0,1.05H.945V.855H.18V.585h.6V.4H.18V.195H.9V0H0Z" transform="translate(4.153 0.004) rotate(2)" fill="#009b3a"/>
          <path id="Path_13565" data-name="Path 13565" d="M0,1.05H.18V.33l.21.72H.555L.765.33v.72h.18V0H.682L.472.72.262,0H0Z" transform="translate(5.54 0.064) rotate(5)" fill="#009b3a"/>
          <path id="Path_13566" data-name="Path 13566" d="M0,.945H.787V.765H.18V.525H.675V.345H.18V.18H.769V0H0Z" transform="translate(7.784 0.424) rotate(9.75)" fill="#009b3a"/>
          <path id="Path_13567" data-name="Path 13567" d="M0,1.05H.195V.66h.42a.33.33,0,1,0,0-.66h-.6ZM.195.465H.6a.135.135,0,1,0,0-.27h-.4Z" transform="matrix(0.968, 0.25, -0.25, 0.968, 9.881, 0.73)" fill="#009b3a" fill-rule="evenodd"/>
          <g id="Group_4281" data-name="Group 4281" transform="translate(11.222 1.089) rotate(17.5)">
            <path id="Path_13568" data-name="Path 13568" d="M0,1.05H.195V.66h.42a.33.33,0,1,0,0-.66h-.6ZM.195.465H.6a.135.135,0,1,0,0-.27h-.4Z" transform="translate(0 0)" fill-rule="evenodd"/>
            <path id="Path_13569" data-name="Path 13569" d="M.51.48C.51.33.51,0,.285,0H0C.33,0,.33.33.33.48" transform="translate(0.382 0.57)"/>
          </g>
          <path id="Path_13570" data-name="Path 13570" d="M.472,1.05A.5.5,0,0,0,.945.525.5.5,0,0,0,.472,0,.5.5,0,0,0,0,.525a.5.5,0,0,0,.472.525m0-.195A.307.307,0,0,0,.75.525.307.307,0,0,0,.472.195a.307.307,0,0,0-.277.33.307.307,0,0,0,.277.33" transform="translate(12.542 1.518) rotate(20.5)" fill="#009b3a" fill-rule="evenodd"/>
          <g id="Group_4283" data-name="Group 4283" transform="translate(13.839 2.015) rotate(23.5)">
            <g id="Group_4282" data-name="Group 4282" transform="translate(0 0)" clip-path="url(#clip-path-2)">
              <path id="Path_13571" data-name="Path 13571" d="M.472,1.05A.5.5,0,0,0,.945.525.5.5,0,0,0,.472,0,.5.5,0,0,0,0,.525a.5.5,0,0,0,.472.525m0-.195A.307.307,0,0,0,.75.525.307.307,0,0,0,.472.195a.307.307,0,0,0-.277.33.307.307,0,0,0,.277.33" transform="translate(0 0)" fill-rule="evenodd"/>
            </g>
            <rect id="Rectangle_2620" data-name="Rectangle 2620" width="0.397" height="0.15" transform="translate(0.547 0.525)"/>
            <rect id="Rectangle_2621" data-name="Rectangle 2621" width="0.15" height="0.525" transform="translate(0.795 0.525)"/>
          </g>
          <g id="Group_4284" data-name="Group 4284" transform="translate(15.107 2.579) rotate(26.5)">
            <path id="Path_13573" data-name="Path 13573" d="M0,1.05H.195V.66h.42a.33.33,0,1,0,0-.66h-.6ZM.195.465H.6a.135.135,0,1,0,0-.27h-.4Z" transform="translate(0 0)" fill-rule="evenodd"/>
            <path id="Path_13574" data-name="Path 13574" d="M.51.48C.51.33.51,0,.285,0H0C.33,0,.33.33.33.48" transform="translate(0.382 0.57)"/>
          </g>
          <path id="Path_13575" data-name="Path 13575" d="M0,1.05H.945V.855H.18V.585h.6V.4H.18V.195H.9V0H0Z" transform="translate(16.344 3.209) rotate(29.5)" fill="#009b3a"/>
          <path id="Path_13576" data-name="Path 13576" d="M.236.72c0,.1.1.157.251.157S.709.829.709.761c0-.214-.7-.079-.7-.454C.015-.015.383,0,.518,0S.908.06.9.319H.675C.675.206.57.165.45.165s-.2.019-.2.127c0,.176.694.06.694.431,0,.274-.27.326-.472.326C.3,1.05,0,.983,0,.72Z" transform="translate(17.547 3.902) rotate(32.5)" fill="#009b3a"/>
          <path id="Path_13577" data-name="Path 13577" d="M.236.72c0,.1.1.157.251.157S.709.829.709.761c0-.214-.7-.079-.7-.454C.015-.015.383,0,.518,0S.908.06.9.319H.675C.675.206.57.165.45.165s-.2.019-.2.127c0,.176.694.06.694.431,0,.274-.27.326-.472.326C.3,1.05,0,.983,0,.72Z" transform="matrix(0.814, 0.581, -0.581, 0.814, 18.711, 4.658)" fill="#009b3a"/>
          <path id="Path_13578" data-name="Path 13578" d="M.472,1.05A.5.5,0,0,0,.945.525.5.5,0,0,0,.472,0,.5.5,0,0,0,0,.525a.5.5,0,0,0,.472.525m0-.195A.307.307,0,0,0,.75.525.307.307,0,0,0,.472.195a.307.307,0,0,0-.277.33.307.307,0,0,0,.277.33" transform="translate(19.835 5.474) rotate(38.5)" fill="#009b3a" fill-rule="evenodd"/>
        </g>
      </g>
    </g>
  </g>
</svg>
