<svg xmlns="http://www.w3.org/2000/svg" width="25.025" height="13.287" viewBox="0 0 25.025 13.287">
  <g id="business_objective_final" transform="translate(0.061)">
    <g id="Group_4217" data-name="Group 4217" transform="translate(4.656)">
      <path id="Path_13311" data-name="Path 13311" d="M23.013,6.115,22.846,4.6,21.02,6.449l.1.874-2.7,2.688a1.783,1.783,0,0,0-.777-.2A1.682,1.682,0,1,0,19.314,11.5a1.659,1.659,0,0,0-.186-.777L21.8,8.034l.874.1,1.845-1.849Z" transform="translate(-15.95 -4.6)" fill="#0e4566"/>
    </g>
    <g id="Group_4216" data-name="Group 4216" transform="translate(-0.06 0.505)">
      <path id="Path_13312" data-name="Path 13312" d="M15.729,9.4l-.221.237L15.189,9.6l-.354-.051A5.365,5.365,0,1,1,10.22,6.91a5.245,5.245,0,0,1,2.72.758L12.9,7.33l-.051-.338.237-.237.117-.117a6.473,6.473,0,0,0-3-.738,6.391,6.391,0,1,0,6.391,6.391,6.189,6.189,0,0,0-.75-2.992Z" transform="translate(-3.81 -5.9)" fill="#0e4566"/>
    </g>
    <g id="Group_4215" data-name="Group 4215" transform="translate(2.322 2.86)">
      <path id="Path_13313" data-name="Path 13313" d="M16.77,14.856A2.809,2.809,0,0,1,16.988,16a3.023,3.023,0,1,1-3.023-3.026,3.263,3.263,0,0,1,1.142.218l.754-.758A4.026,4.026,0,1,0,17.528,14.1Z" transform="translate(-9.94 -11.962)" fill="#0e4566"/>
    </g>
    <line id="Line_132" data-name="Line 132" x2="8.392" transform="translate(12.838 7.343)" fill="none" stroke="#bfbfbf" stroke-miterlimit="8" stroke-width="0.5"/>
    <path id="Path_13314" data-name="Path 13314" d="M57.41,20.186a2.1,2.1,0,1,1,2.1,2.1,2.1,2.1,0,0,1-2.1-2.1" transform="translate(-36.646 -12.843)" fill="#0e4566" fill-rule="evenodd"/>
  </g>
</svg>
