<svg xmlns="http://www.w3.org/2000/svg" width="12.189" height="12.193" viewBox="0 0 12.189 12.193">
  <g id="business_objective_final" transform="translate(0.06 0)">
    <path id="Path_13311" data-name="Path 13311" d="M22.431,5.99,22.278,4.6,20.6,6.3l.093.8L18.214,9.566a1.636,1.636,0,0,0-.713-.185,1.544,1.544,0,1,0,1.537,1.547,1.522,1.522,0,0,0-.171-.713l2.449-2.464.8.093,1.693-1.7Z" transform="translate(-11.682 -4.6)" fill="#0193d5"/>
    <path id="Path_13312" data-name="Path 13312" d="M14.748,9.112l-.2.217L14.252,9.3l-.324-.046A4.923,4.923,0,1,1,9.692,6.827a4.813,4.813,0,0,1,2.5.7l-.032-.31L12.11,6.9l.217-.217.107-.107A5.94,5.94,0,0,0,9.675,5.9a5.865,5.865,0,1,0,5.865,5.865,5.679,5.679,0,0,0-.688-2.745Z" transform="translate(-3.87 -5.437)" fill="#0193d5"/>
    <path id="Path_13313" data-name="Path 13313" d="M16.208,14.617a2.578,2.578,0,0,1,.2,1.048,2.774,2.774,0,1,1-2.774-2.777,3,3,0,0,1,1.048.2l.692-.7A3.695,3.695,0,1,0,16.9,13.922Z" transform="translate(-7.814 -9.337)" fill="#0193d5"/>
  </g>
</svg>
