<svg id="Layer_1" data-name="Layer 1" xmlns="http://www.w3.org/2000/svg" xmlns:xlink="http://www.w3.org/1999/xlink" viewBox="0 0 64.34 34.2"><defs><style>.cls-1,.cls-4{fill:none;}.cls-3,.cls-5{fill:#0193d5;}.cls-4{stroke:#bfbfbf;stroke-miterlimit:8;stroke-width:0.5px;}.cls-5{fill-rule:evenodd;}</style><clipPath id="clip-path" transform="translate(-3.87 -4.6)"><rect class="cls-1" x="-0.22" y="0.5" width="42.06" height="42"/></clipPath></defs><g class="cls-2"><path class="cls-3" d="M34.13,8.5,33.7,4.6,29,9.36l.26,2.25L22.3,18.53a4.59,4.59,0,0,0-2-.52,4.33,4.33,0,1,0,4.31,4.34,4.27,4.27,0,0,0-.48-2L31,13.44l2.25.26L38,8.94Z" transform="translate(-3.87 -4.6)"/></g><g class="cls-2"><path class="cls-3" d="M34.49,14.91l-.57.61-.82-.09-.91-.13A13.81,13.81,0,1,1,20.31,8.5a13.5,13.5,0,0,1,7,1.95l-.09-.87-.13-.87.61-.61L28,7.8a16.66,16.66,0,0,0-7.74-1.9A16.45,16.45,0,1,0,36.71,22.35a15.93,15.93,0,0,0-1.93-7.7Z" transform="translate(-3.87 -4.6)"/></g><g class="cls-2"><path class="cls-3" d="M27.52,19.41a7.23,7.23,0,0,1,.56,2.94,7.78,7.78,0,1,1-7.78-7.79,8.4,8.4,0,0,1,2.94.56l1.94-1.95A10.38,10.38,0,0,0,9.94,22.35a10.37,10.37,0,1,0,19.53-4.89Z" transform="translate(-3.87 -4.6)"/></g><line class="cls-4" x1="33.14" y1="18.9" x2="54.74" y2="18.9"/><path class="cls-5" d="M57.41,23.5a5.41,5.41,0,1,1,5.4,5.4,5.4,5.4,0,0,1-5.4-5.4" transform="translate(-3.87 -4.6)"/></svg>