<svg xmlns="http://www.w3.org/2000/svg" width="160" height="145.001" viewBox="0 0 160 145.001">
  <g id="calendar_icon" transform="translate(-830 -632)">
    <path id="Subtraction_1" data-name="Subtraction 1" d="M-1830,163h-160V40h25.124A16.013,16.013,0,0,0-1949,54a16.014,16.014,0,0,0,15.876-14h47.247A16.014,16.014,0,0,0-1870,54a16.014,16.014,0,0,0,15.876-14H-1830V163Zm-151-98v88h142V65Z" transform="translate(2820 614)"/>
    <rect id="Rectangle_9" data-name="Rectangle 9" width="24" height="31" rx="12" transform="translate(859 632)"/>
    <rect id="Rectangle_10" data-name="Rectangle 10" width="24" height="31" rx="12" transform="translate(938 632)"/>
    <rect id="Rectangle_11" data-name="Rectangle 11" width="20" height="18" transform="translate(861 687)"/>
    <rect id="Rectangle_16" data-name="Rectangle 16" width="20" height="18" transform="translate(861 715)"/>
    <rect id="Rectangle_19" data-name="Rectangle 19" width="20" height="18" transform="translate(861 743)"/>
    <rect id="Rectangle_12" data-name="Rectangle 12" width="20" height="18" transform="translate(940 687)"/>
    <rect id="Rectangle_15" data-name="Rectangle 15" width="20" height="18" transform="translate(940 715)"/>
    <rect id="Rectangle_13" data-name="Rectangle 13" width="20" height="18" transform="translate(901 687)"/>
    <rect id="Rectangle_14" data-name="Rectangle 14" width="20" height="18" transform="translate(901 715)"/>
    <rect id="Rectangle_17" data-name="Rectangle 17" width="20" height="18" transform="translate(901 743)"/>
  </g>
</svg>
