<svg xmlns="http://www.w3.org/2000/svg" xmlns:xlink="http://www.w3.org/1999/xlink" width="449" height="427" viewBox="0 0 449 427">
  <defs>
    <style>
      .cls-1, .cls-7 {
        fill: none;
      }

      .cls-1 {
        stroke: #323c4e;
      }

      .cls-1, .cls-2, .cls-3 {
        stroke-width: 4px;
      }

      .cls-2 {
        fill: #ff7322;
      }

      .cls-2, .cls-3 {
        stroke: #fff;
      }

      .cls-3 {
        fill: #323c4e;
      }

      .cls-4, .cls-5 {
        fill: #fff;
        font-family: NunitoSans-Regular, Nunito Sans;
      }

      .cls-4 {
        font-size: 15px;
      }

      .cls-5 {
        font-size: 12px;
      }

      .cls-6 {
        stroke: none;
      }

      .cls-8 {
        filter: url(#Ellipse_66);
      }

      .cls-9 {
        filter: url(#Ellipse_65);
      }

      .cls-10 {
        filter: url(#Ellipse_64);
      }

      .cls-11 {
        filter: url(#Ellipse_63);
      }

      .cls-12 {
        filter: url(#Ellipse_62);
      }

      .cls-13 {
        filter: url(#Ellipse_61);
      }
    </style>
    <filter id="Ellipse_61" x="153" y="161" width="138" height="138" filterUnits="userSpaceOnUse">
      <feOffset dy="3" input="SourceAlpha"/>
      <feGaussianBlur stdDeviation="3" result="blur"/>
      <feFlood flood-opacity="0.161"/>
      <feComposite operator="in" in2="blur"/>
      <feComposite in="SourceGraphic"/>
    </filter>
    <filter id="Ellipse_62" x="152" y="0" width="140" height="140" filterUnits="userSpaceOnUse">
      <feOffset dy="3" input="SourceAlpha"/>
      <feGaussianBlur stdDeviation="3" result="blur-2"/>
      <feFlood flood-opacity="0.161"/>
      <feComposite operator="in" in2="blur-2"/>
      <feComposite in="SourceGraphic"/>
    </filter>
    <filter id="Ellipse_63" x="0" y="114" width="138" height="138" filterUnits="userSpaceOnUse">
      <feOffset dy="3" input="SourceAlpha"/>
      <feGaussianBlur stdDeviation="3" result="blur-3"/>
      <feFlood flood-opacity="0.161"/>
      <feComposite operator="in" in2="blur-3"/>
      <feComposite in="SourceGraphic"/>
    </filter>
    <filter id="Ellipse_64" x="55" y="284" width="138" height="138" filterUnits="userSpaceOnUse">
      <feOffset dy="3" input="SourceAlpha"/>
      <feGaussianBlur stdDeviation="3" result="blur-4"/>
      <feFlood flood-opacity="0.161"/>
      <feComposite operator="in" in2="blur-4"/>
      <feComposite in="SourceGraphic"/>
    </filter>
    <filter id="Ellipse_65" x="251" y="289" width="138" height="138" filterUnits="userSpaceOnUse">
      <feOffset dy="3" input="SourceAlpha"/>
      <feGaussianBlur stdDeviation="3" result="blur-5"/>
      <feFlood flood-opacity="0.161"/>
      <feComposite operator="in" in2="blur-5"/>
      <feComposite in="SourceGraphic"/>
    </filter>
    <filter id="Ellipse_66" x="309" y="122" width="140" height="140" filterUnits="userSpaceOnUse">
      <feOffset dy="3" input="SourceAlpha"/>
      <feGaussianBlur stdDeviation="3" result="blur-6"/>
      <feFlood flood-opacity="0.161"/>
      <feComposite operator="in" in2="blur-6"/>
      <feComposite in="SourceGraphic"/>
    </filter>
  </defs>
  <g id="Group_3799" data-name="Group 3799" transform="translate(-202 -130)">
    <line id="Line_124" data-name="Line 124" class="cls-1" x2="61" y2="17.5" transform="translate(309.5 323.75)"/>
    <line id="Line_125" data-name="Line 125" class="cls-1" y1="49" x2="36.5" transform="translate(356 398.5)"/>
    <line id="Line_126" data-name="Line 126" class="cls-1" x1="38" y1="51" transform="translate(458 407.5)"/>
    <line id="Line_127" data-name="Line 127" class="cls-1" x1="64" y2="15.25" transform="translate(477.5 332.5)"/>
    <line id="Line_128" data-name="Line 128" class="cls-1" y2="43.5" transform="translate(423.5 253.5)"/>
    <g class="cls-13" transform="matrix(1, 0, 0, 1, 202, 130)">
      <g id="Ellipse_61-2" data-name="Ellipse 61" class="cls-2" transform="translate(162 167)">
        <circle class="cls-6" cx="60" cy="60" r="60"/>
        <circle class="cls-7" cx="60" cy="60" r="58"/>
      </g>
    </g>
    <g class="cls-12" transform="matrix(1, 0, 0, 1, 202, 130)">
      <g id="Ellipse_62-2" data-name="Ellipse 62" class="cls-3" transform="translate(161 6)">
        <circle class="cls-6" cx="61" cy="61" r="61"/>
        <circle class="cls-7" cx="61" cy="61" r="59"/>
      </g>
    </g>
    <g class="cls-11" transform="matrix(1, 0, 0, 1, 202, 130)">
      <g id="Ellipse_63-2" data-name="Ellipse 63" class="cls-3" transform="translate(9 120)">
        <circle class="cls-6" cx="60" cy="60" r="60"/>
        <circle class="cls-7" cx="60" cy="60" r="58"/>
      </g>
    </g>
    <g class="cls-10" transform="matrix(1, 0, 0, 1, 202, 130)">
      <g id="Ellipse_64-2" data-name="Ellipse 64" class="cls-3" transform="translate(64 290)">
        <circle class="cls-6" cx="60" cy="60" r="60"/>
        <circle class="cls-7" cx="60" cy="60" r="58"/>
      </g>
    </g>
    <g class="cls-9" transform="matrix(1, 0, 0, 1, 202, 130)">
      <g id="Ellipse_65-2" data-name="Ellipse 65" class="cls-3" transform="translate(260 295)">
        <circle class="cls-6" cx="60" cy="60" r="60"/>
        <circle class="cls-7" cx="60" cy="60" r="58"/>
      </g>
    </g>
    <g class="cls-8" transform="matrix(1, 0, 0, 1, 202, 130)">
      <g id="Ellipse_66-2" data-name="Ellipse 66" class="cls-3" transform="translate(318 128)">
        <circle class="cls-6" cx="61" cy="61" r="61"/>
        <circle class="cls-7" cx="61" cy="61" r="59"/>
      </g>
    </g>
    <text id="HFS_OneOffice_Pulse" data-name="HFS
OneOffice
Pulse" class="cls-4" transform="translate(424 344)"><tspan x="-14.325" y="0">HFS</tspan><tspan x="-33.87" y="18">OneOffice</tspan><tspan x="-18.292" y="36">Pulse</tspan></text>
    <text id="_1._Digital_strategy_and_emerging_tech._adoption" data-name="1. Digital
strategy and
emerging
tech.
adoption" class="cls-5" transform="translate(424 169)"><tspan x="-23.868" y="0">1. Digital</tspan><tspan x="-33.594" y="16">strategy and</tspan><tspan x="-25.326" y="32">emerging</tspan><tspan x="-12.858" y="48">tech.</tspan><tspan x="-23.658" y="64">adoption</tspan></text>
    <text id="_5._Voice_of_the_customer" data-name="5. Voice of
the customer" class="cls-5" transform="translate(271 306)"><tspan x="-27.93" y="0">5. Voice of</tspan><tspan x="-35.01" y="16">the customer</tspan></text>
    <text id="_2._Shared_services_and_outsourcing" data-name="2. Shared
services and
outsourcing" class="cls-5" transform="translate(581 307)"><tspan x="-25.524" y="0">2. Shared</tspan><tspan x="-33.36" y="16">services and</tspan><tspan x="-31.56" y="32">outsourcing</tspan></text>
    <text id="_3._Deep-dive_on_cloud" data-name="3. Deep-dive
on cloud" class="cls-5" transform="translate(522 481)"><tspan x="-34.596" y="0">3. Deep-dive</tspan><tspan x="-22.74" y="16">on cloud</tspan></text>
    <text id="_4._Industry_value_chain" data-name="4. Industry
value chain" class="cls-5" transform="translate(326 476)"><tspan x="-28.596" y="0">4. Industry</tspan><tspan x="-29.94" y="16">value chain</tspan></text>
  </g>
</svg>
