<svg xmlns="http://www.w3.org/2000/svg" width="59.854" height="73.859" viewBox="0 0 59.854 73.859">
  <g id="Demographic" transform="translate(-83.961 -21.175)">
    <g id="Group_3984" data-name="Group 3984" transform="translate(83.961 21.175)">
      <path id="Path_13207" data-name="Path 13207" d="M124.478,183.606a2.964,2.964,0,0,1-2.28-1c0,.091-.091.091-.182.091a3.03,3.03,0,0,1-2.463.821,3.178,3.178,0,0,1-2.828-3.192V168.83a3.548,3.548,0,0,1-1.368.182,2.931,2.931,0,0,1-2.28-2.827V153.507a2.687,2.687,0,0,1,2.736-2.736h12.769a2.687,2.687,0,0,1,2.736,2.736v12.678a2.931,2.931,0,0,1-2.28,2.827,3.473,3.473,0,0,1-1.368-.091V180.5a3.216,3.216,0,0,1-3.193,3.1Zm-1.368-3.192a1.368,1.368,0,1,0,2.736,0V166.276a.912.912,0,0,1,1.824,0,.83.83,0,0,0,.365.73.709.709,0,0,0,.73.182.989.989,0,0,0,.73-1V153.507a.862.862,0,0,0-.912-.912H115.813a.862.862,0,0,0-.912.912v12.678a1.1,1.1,0,0,0,.73,1,.984.984,0,0,0,.73-.182.83.83,0,0,0,.365-.73.912.912,0,0,1,1.824,0v14.047a1.408,1.408,0,0,0,1.186,1.459,1.752,1.752,0,0,0,1.094-.365,1.465,1.465,0,0,0,.456-1v-8.665a.912.912,0,0,1,1.824,0Z" transform="translate(-113.077 -139.826)"/>
      <path id="Path_13208" data-name="Path 13208" d="M264.762,206.619a.862.862,0,0,1-.912-.912V194.762a.912.912,0,1,1,1.824,0v10.945A.862.862,0,0,1,264.762,206.619Z" transform="translate(-251.081 -179.255)"/>
      <path id="Path_13209" data-name="Path 13209" d="M157.062,206.619a.862.862,0,0,1-.912-.912V194.762a.912.912,0,1,1,1.824,0v10.945A.862.862,0,0,1,157.062,206.619Z" transform="translate(-152.502 -179.255)"/>
      <path id="Path_13210" data-name="Path 13210" d="M171.483,30.655a4.561,4.561,0,1,1,4.561-4.561A4.516,4.516,0,0,1,171.483,30.655Zm0-7.3a2.736,2.736,0,1,0,2.736,2.736A2.687,2.687,0,0,0,171.483,23.359Z" transform="translate(-162.363 -21.534)"/>
    </g>
    <g id="Group_3991" data-name="Group 3991" transform="translate(104.961 51.253)">
      <path id="Path_13207-2" data-name="Path 13207" d="M124.478,183.606a2.964,2.964,0,0,1-2.28-1c0,.091-.091.091-.182.091a3.03,3.03,0,0,1-2.463.821,3.178,3.178,0,0,1-2.828-3.192V168.83a3.548,3.548,0,0,1-1.368.182,2.931,2.931,0,0,1-2.28-2.827V153.507a2.687,2.687,0,0,1,2.736-2.736h12.769a2.687,2.687,0,0,1,2.736,2.736v12.678a2.931,2.931,0,0,1-2.28,2.827,3.473,3.473,0,0,1-1.368-.091V180.5a3.216,3.216,0,0,1-3.193,3.1Zm-1.368-3.192a1.368,1.368,0,1,0,2.736,0V166.276a.912.912,0,0,1,1.824,0,.83.83,0,0,0,.365.73.709.709,0,0,0,.73.182.989.989,0,0,0,.73-1V153.507a.862.862,0,0,0-.912-.912H115.813a.862.862,0,0,0-.912.912v12.678a1.1,1.1,0,0,0,.73,1,.984.984,0,0,0,.73-.182.83.83,0,0,0,.365-.73.912.912,0,0,1,1.824,0v14.047a1.408,1.408,0,0,0,1.186,1.459,1.752,1.752,0,0,0,1.094-.365,1.465,1.465,0,0,0,.456-1v-8.665a.912.912,0,0,1,1.824,0Z" transform="translate(-113.077 -139.826)"/>
      <path id="Path_13208-2" data-name="Path 13208" d="M264.762,206.619a.862.862,0,0,1-.912-.912V194.762a.912.912,0,1,1,1.824,0v10.945A.862.862,0,0,1,264.762,206.619Z" transform="translate(-251.081 -179.255)"/>
      <path id="Path_13209-2" data-name="Path 13209" d="M157.062,206.619a.862.862,0,0,1-.912-.912V194.762a.912.912,0,1,1,1.824,0v10.945A.862.862,0,0,1,157.062,206.619Z" transform="translate(-152.502 -179.255)"/>
      <path id="Path_13210-2" data-name="Path 13210" d="M171.483,30.655a4.561,4.561,0,1,1,4.561-4.561A4.516,4.516,0,0,1,171.483,30.655Zm0-7.3a2.736,2.736,0,1,0,2.736,2.736A2.687,2.687,0,0,0,171.483,23.359Z" transform="translate(-162.363 -21.534)"/>
    </g>
    <g id="Group_3986" data-name="Group 3986" transform="translate(125.573 21.175)">
      <path id="Path_13207-3" data-name="Path 13207" d="M124.478,183.606a2.964,2.964,0,0,1-2.28-1c0,.091-.091.091-.182.091a3.03,3.03,0,0,1-2.463.821,3.178,3.178,0,0,1-2.828-3.192V168.83a3.548,3.548,0,0,1-1.368.182,2.931,2.931,0,0,1-2.28-2.827V153.507a2.687,2.687,0,0,1,2.736-2.736h12.769a2.687,2.687,0,0,1,2.736,2.736v12.678a2.931,2.931,0,0,1-2.28,2.827,3.473,3.473,0,0,1-1.368-.091V180.5a3.216,3.216,0,0,1-3.193,3.1Zm-1.368-3.192a1.368,1.368,0,1,0,2.736,0V166.276a.912.912,0,0,1,1.824,0,.83.83,0,0,0,.365.73.709.709,0,0,0,.73.182.989.989,0,0,0,.73-1V153.507a.862.862,0,0,0-.912-.912H115.813a.862.862,0,0,0-.912.912v12.678a1.1,1.1,0,0,0,.73,1,.984.984,0,0,0,.73-.182.83.83,0,0,0,.365-.73.912.912,0,0,1,1.824,0v14.047a1.408,1.408,0,0,0,1.186,1.459,1.752,1.752,0,0,0,1.094-.365,1.465,1.465,0,0,0,.456-1v-8.665a.912.912,0,0,1,1.824,0Z" transform="translate(-113.077 -139.826)"/>
      <path id="Path_13208-3" data-name="Path 13208" d="M264.762,206.619a.862.862,0,0,1-.912-.912V194.762a.912.912,0,1,1,1.824,0v10.945A.862.862,0,0,1,264.762,206.619Z" transform="translate(-251.081 -179.255)"/>
      <path id="Path_13209-3" data-name="Path 13209" d="M157.062,206.619a.862.862,0,0,1-.912-.912V194.762a.912.912,0,1,1,1.824,0v10.945A.862.862,0,0,1,157.062,206.619Z" transform="translate(-152.502 -179.255)"/>
      <path id="Path_13210-3" data-name="Path 13210" d="M171.483,30.655a4.561,4.561,0,1,1,4.561-4.561A4.516,4.516,0,0,1,171.483,30.655Zm0-7.3a2.736,2.736,0,1,0,2.736,2.736A2.687,2.687,0,0,0,171.483,23.359Z" transform="translate(-162.363 -21.534)"/>
    </g>
  </g>
</svg>
