<svg xmlns="http://www.w3.org/2000/svg" xmlns:xlink="http://www.w3.org/1999/xlink" width="705" height="900" viewBox="0 0 705 900">
  <defs>
    <clipPath id="clip-Account_activation_1">
      <rect width="705" height="900"/>
    </clipPath>
  </defs>
  <g id="Account_activation_1" data-name="Account activation – 1" clip-path="url(#clip-Account_activation_1)">
    <rect width="705" height="900" fill="#fff"/>
    <g id="Group_3783" data-name="Group 3783" transform="translate(-735)">
      <rect id="Rectangle_14" data-name="Rectangle 14" width="705" height="900" transform="translate(735)" fill="#f47c3c"/>
      <g id="Group_67" data-name="Group 67" transform="translate(22 -27)">
        <g id="Group_40" data-name="Group 40" transform="translate(1449.071 204.015) rotate(180)" opacity="0.85">
          <g id="Group_32" data-name="Group 32" transform="translate(189.746)">
            <path id="Path_100" data-name="Path 100" d="M321.083,138.275a4.488,4.488,0,1,1-4.486,4.486A4.487,4.487,0,0,1,321.083,138.275Z" transform="translate(-316.597 62.763)" fill="#fff"/>
            <path id="Path_101" data-name="Path 101" d="M321.083,132.385a4.488,4.488,0,1,1-4.486,4.486A4.487,4.487,0,0,1,321.083,132.385Z" transform="translate(-316.597 39.934)" fill="#fff"/>
            <path id="Path_102" data-name="Path 102" d="M321.083,126.5a4.488,4.488,0,1,1-4.486,4.486A4.487,4.487,0,0,1,321.083,126.5Z" transform="translate(-316.597 17.105)" fill="#fff"/>
            <path id="Path_103" data-name="Path 103" d="M321.083,120.6a4.486,4.486,0,1,1-4.486,4.486A4.487,4.487,0,0,1,321.083,120.6Z" transform="translate(-316.597 -5.724)" fill="#fff"/>
            <path id="Path_104" data-name="Path 104" d="M321.083,114.714A4.488,4.488,0,1,1,316.6,119.2,4.488,4.488,0,0,1,321.083,114.714Z" transform="translate(-316.597 -28.557)" fill="#fff"/>
            <path id="Path_105" data-name="Path 105" d="M321.083,108.824a4.488,4.488,0,1,1-4.486,4.486A4.487,4.487,0,0,1,321.083,108.824Z" transform="translate(-316.597 -51.386)" fill="#fff"/>
            <path id="Path_106" data-name="Path 106" d="M321.083,102.934a4.488,4.488,0,1,1-4.486,4.486A4.487,4.487,0,0,1,321.083,102.934Z" transform="translate(-316.597 -74.215)" fill="#fff"/>
            <path id="Path_107" data-name="Path 107" d="M321.083,97.044a4.488,4.488,0,1,1-4.486,4.486A4.487,4.487,0,0,1,321.083,97.044Z" transform="translate(-316.597 -97.044)" fill="#fff"/>
          </g>
          <g id="Group_33" data-name="Group 33" transform="translate(162.64)">
            <path id="Path_108" data-name="Path 108" d="M315.524,138.275a4.488,4.488,0,1,1-4.486,4.486A4.488,4.488,0,0,1,315.524,138.275Z" transform="translate(-311.038 62.763)" fill="#fff"/>
            <path id="Path_109" data-name="Path 109" d="M315.524,132.385a4.488,4.488,0,1,1-4.486,4.486A4.488,4.488,0,0,1,315.524,132.385Z" transform="translate(-311.038 39.934)" fill="#fff"/>
            <path id="Path_110" data-name="Path 110" d="M315.524,126.5a4.488,4.488,0,1,1-4.486,4.486A4.487,4.487,0,0,1,315.524,126.5Z" transform="translate(-311.038 17.105)" fill="#fff"/>
            <path id="Path_111" data-name="Path 111" d="M315.524,120.6a4.486,4.486,0,1,1-4.486,4.486A4.487,4.487,0,0,1,315.524,120.6Z" transform="translate(-311.038 -5.724)" fill="#fff"/>
            <path id="Path_112" data-name="Path 112" d="M315.524,114.714a4.488,4.488,0,1,1-4.486,4.491A4.488,4.488,0,0,1,315.524,114.714Z" transform="translate(-311.038 -28.557)" fill="#fff"/>
            <path id="Path_113" data-name="Path 113" d="M315.524,108.824a4.488,4.488,0,1,1-4.486,4.486A4.487,4.487,0,0,1,315.524,108.824Z" transform="translate(-311.038 -51.386)" fill="#fff"/>
            <path id="Path_114" data-name="Path 114" d="M315.524,102.934a4.488,4.488,0,1,1-4.486,4.486A4.488,4.488,0,0,1,315.524,102.934Z" transform="translate(-311.038 -74.215)" fill="#fff"/>
            <path id="Path_115" data-name="Path 115" d="M315.524,97.044a4.488,4.488,0,1,1-4.486,4.486A4.487,4.487,0,0,1,315.524,97.044Z" transform="translate(-311.038 -97.044)" fill="#fff"/>
          </g>
          <g id="Group_34" data-name="Group 34" transform="translate(135.535)">
            <path id="Path_116" data-name="Path 116" d="M309.965,138.275a4.488,4.488,0,1,1-4.486,4.486A4.487,4.487,0,0,1,309.965,138.275Z" transform="translate(-305.479 62.763)" fill="#fff"/>
            <path id="Path_117" data-name="Path 117" d="M309.965,132.385a4.488,4.488,0,1,1-4.486,4.486A4.487,4.487,0,0,1,309.965,132.385Z" transform="translate(-305.479 39.934)" fill="#fff"/>
            <path id="Path_118" data-name="Path 118" d="M309.965,126.5a4.488,4.488,0,1,1-4.486,4.486A4.486,4.486,0,0,1,309.965,126.5Z" transform="translate(-305.479 17.105)" fill="#fff"/>
            <path id="Path_119" data-name="Path 119" d="M309.965,120.6a4.486,4.486,0,1,1-4.486,4.486A4.487,4.487,0,0,1,309.965,120.6Z" transform="translate(-305.479 -5.724)" fill="#fff"/>
            <path id="Path_120" data-name="Path 120" d="M309.965,114.714a4.488,4.488,0,1,1-4.486,4.491A4.488,4.488,0,0,1,309.965,114.714Z" transform="translate(-305.479 -28.557)" fill="#fff"/>
            <path id="Path_121" data-name="Path 121" d="M309.965,108.824a4.488,4.488,0,1,1-4.486,4.486A4.487,4.487,0,0,1,309.965,108.824Z" transform="translate(-305.479 -51.386)" fill="#fff"/>
            <path id="Path_122" data-name="Path 122" d="M309.965,102.934a4.488,4.488,0,1,1-4.486,4.486A4.487,4.487,0,0,1,309.965,102.934Z" transform="translate(-305.479 -74.215)" fill="#fff"/>
            <path id="Path_123" data-name="Path 123" d="M309.965,97.044a4.488,4.488,0,1,1-4.486,4.486A4.487,4.487,0,0,1,309.965,97.044Z" transform="translate(-305.479 -97.044)" fill="#fff"/>
          </g>
          <g id="Group_35" data-name="Group 35" transform="translate(108.425)">
            <path id="Path_124" data-name="Path 124" d="M304.41,138.275a4.488,4.488,0,1,1-4.491,4.486A4.487,4.487,0,0,1,304.41,138.275Z" transform="translate(-299.919 62.763)" fill="#fff"/>
            <path id="Path_125" data-name="Path 125" d="M304.41,132.385a4.488,4.488,0,1,1-4.491,4.486A4.487,4.487,0,0,1,304.41,132.385Z" transform="translate(-299.919 39.934)" fill="#fff"/>
            <path id="Path_126" data-name="Path 126" d="M304.41,126.5a4.488,4.488,0,1,1-4.491,4.486A4.487,4.487,0,0,1,304.41,126.5Z" transform="translate(-299.919 17.105)" fill="#fff"/>
            <path id="Path_127" data-name="Path 127" d="M304.41,120.6a4.486,4.486,0,1,1-4.491,4.486A4.487,4.487,0,0,1,304.41,120.6Z" transform="translate(-299.919 -5.724)" fill="#fff"/>
            <path id="Path_128" data-name="Path 128" d="M304.41,114.714a4.488,4.488,0,1,1-4.491,4.491A4.488,4.488,0,0,1,304.41,114.714Z" transform="translate(-299.919 -28.557)" fill="#fff"/>
            <path id="Path_129" data-name="Path 129" d="M304.41,108.824a4.488,4.488,0,1,1-4.491,4.486A4.487,4.487,0,0,1,304.41,108.824Z" transform="translate(-299.919 -51.386)" fill="#fff"/>
            <path id="Path_130" data-name="Path 130" d="M304.41,102.934a4.488,4.488,0,1,1-4.491,4.486A4.487,4.487,0,0,1,304.41,102.934Z" transform="translate(-299.919 -74.215)" fill="#fff"/>
            <path id="Path_131" data-name="Path 131" d="M304.41,97.044a4.488,4.488,0,1,1-4.491,4.486A4.487,4.487,0,0,1,304.41,97.044Z" transform="translate(-299.919 -97.044)" fill="#fff"/>
          </g>
          <g id="Group_36" data-name="Group 36" transform="translate(81.32)">
            <path id="Path_132" data-name="Path 132" d="M298.846,138.275a4.488,4.488,0,1,1-4.486,4.486A4.488,4.488,0,0,1,298.846,138.275Z" transform="translate(-294.36 62.763)" fill="#fff"/>
            <path id="Path_133" data-name="Path 133" d="M298.846,132.385a4.488,4.488,0,1,1-4.486,4.486A4.488,4.488,0,0,1,298.846,132.385Z" transform="translate(-294.36 39.934)" fill="#fff"/>
            <path id="Path_134" data-name="Path 134" d="M298.846,126.5a4.488,4.488,0,1,1-4.486,4.486A4.487,4.487,0,0,1,298.846,126.5Z" transform="translate(-294.36 17.105)" fill="#fff"/>
            <path id="Path_135" data-name="Path 135" d="M298.846,120.6a4.486,4.486,0,1,1-4.486,4.486A4.487,4.487,0,0,1,298.846,120.6Z" transform="translate(-294.36 -5.724)" fill="#fff"/>
            <path id="Path_136" data-name="Path 136" d="M298.846,114.714a4.488,4.488,0,1,1-4.486,4.491A4.489,4.489,0,0,1,298.846,114.714Z" transform="translate(-294.36 -28.557)" fill="#fff"/>
            <path id="Path_137" data-name="Path 137" d="M298.846,108.824a4.488,4.488,0,1,1-4.486,4.486A4.488,4.488,0,0,1,298.846,108.824Z" transform="translate(-294.36 -51.386)" fill="#fff"/>
            <path id="Path_138" data-name="Path 138" d="M298.846,102.934a4.488,4.488,0,1,1-4.486,4.486A4.488,4.488,0,0,1,298.846,102.934Z" transform="translate(-294.36 -74.215)" fill="#fff"/>
            <path id="Path_139" data-name="Path 139" d="M298.846,97.044a4.488,4.488,0,1,1-4.486,4.486A4.487,4.487,0,0,1,298.846,97.044Z" transform="translate(-294.36 -97.044)" fill="#fff"/>
          </g>
          <g id="Group_37" data-name="Group 37" transform="translate(54.215)">
            <path id="Path_140" data-name="Path 140" d="M293.287,138.275a4.488,4.488,0,1,1-4.486,4.486A4.487,4.487,0,0,1,293.287,138.275Z" transform="translate(-288.801 62.763)" fill="#fff"/>
            <path id="Path_141" data-name="Path 141" d="M293.287,132.385a4.488,4.488,0,1,1-4.486,4.486A4.487,4.487,0,0,1,293.287,132.385Z" transform="translate(-288.801 39.934)" fill="#fff"/>
            <path id="Path_142" data-name="Path 142" d="M293.287,126.5a4.488,4.488,0,1,1-4.486,4.486A4.487,4.487,0,0,1,293.287,126.5Z" transform="translate(-288.801 17.105)" fill="#fff"/>
            <path id="Path_143" data-name="Path 143" d="M293.287,120.6a4.486,4.486,0,1,1-4.486,4.486A4.487,4.487,0,0,1,293.287,120.6Z" transform="translate(-288.801 -5.724)" fill="#fff"/>
            <path id="Path_144" data-name="Path 144" d="M293.287,114.714A4.488,4.488,0,1,1,288.8,119.2,4.488,4.488,0,0,1,293.287,114.714Z" transform="translate(-288.801 -28.557)" fill="#fff"/>
            <path id="Path_145" data-name="Path 145" d="M293.287,108.824a4.488,4.488,0,1,1-4.486,4.486A4.487,4.487,0,0,1,293.287,108.824Z" transform="translate(-288.801 -51.386)" fill="#fff"/>
            <path id="Path_146" data-name="Path 146" d="M293.287,102.934a4.488,4.488,0,1,1-4.486,4.486A4.487,4.487,0,0,1,293.287,102.934Z" transform="translate(-288.801 -74.215)" fill="#fff"/>
            <path id="Path_147" data-name="Path 147" d="M293.287,97.044a4.488,4.488,0,1,1-4.486,4.486A4.487,4.487,0,0,1,293.287,97.044Z" transform="translate(-288.801 -97.044)" fill="#fff"/>
          </g>
          <g id="Group_38" data-name="Group 38" transform="translate(27.11)">
            <path id="Path_148" data-name="Path 148" d="M287.728,138.275a4.488,4.488,0,1,1-4.486,4.486A4.486,4.486,0,0,1,287.728,138.275Z" transform="translate(-283.242 62.763)" fill="#fff"/>
            <path id="Path_149" data-name="Path 149" d="M287.728,132.385a4.488,4.488,0,1,1-4.486,4.486A4.486,4.486,0,0,1,287.728,132.385Z" transform="translate(-283.242 39.934)" fill="#fff"/>
            <path id="Path_150" data-name="Path 150" d="M287.728,126.5a4.488,4.488,0,1,1-4.486,4.486A4.486,4.486,0,0,1,287.728,126.5Z" transform="translate(-283.242 17.105)" fill="#fff"/>
            <path id="Path_151" data-name="Path 151" d="M287.728,120.6a4.486,4.486,0,1,1-4.486,4.486A4.486,4.486,0,0,1,287.728,120.6Z" transform="translate(-283.242 -5.724)" fill="#fff"/>
            <path id="Path_152" data-name="Path 152" d="M287.728,114.714a4.488,4.488,0,1,1-4.486,4.491A4.487,4.487,0,0,1,287.728,114.714Z" transform="translate(-283.242 -28.557)" fill="#fff"/>
            <path id="Path_153" data-name="Path 153" d="M287.728,108.824a4.488,4.488,0,1,1-4.486,4.486A4.486,4.486,0,0,1,287.728,108.824Z" transform="translate(-283.242 -51.386)" fill="#fff"/>
            <path id="Path_154" data-name="Path 154" d="M287.728,102.934a4.488,4.488,0,1,1-4.486,4.486A4.486,4.486,0,0,1,287.728,102.934Z" transform="translate(-283.242 -74.215)" fill="#fff"/>
            <path id="Path_155" data-name="Path 155" d="M287.728,97.044a4.488,4.488,0,1,1-4.486,4.486A4.486,4.486,0,0,1,287.728,97.044Z" transform="translate(-283.242 -97.044)" fill="#fff"/>
          </g>
          <g id="Group_39" data-name="Group 39">
            <path id="Path_156" data-name="Path 156" d="M282.173,138.275a4.488,4.488,0,1,1-4.491,4.486A4.487,4.487,0,0,1,282.173,138.275Z" transform="translate(-277.682 62.763)" fill="#fff"/>
            <path id="Path_157" data-name="Path 157" d="M282.173,132.385a4.488,4.488,0,1,1-4.491,4.486A4.487,4.487,0,0,1,282.173,132.385Z" transform="translate(-277.682 39.934)" fill="#fff"/>
            <path id="Path_158" data-name="Path 158" d="M282.173,126.5a4.488,4.488,0,1,1-4.491,4.486A4.486,4.486,0,0,1,282.173,126.5Z" transform="translate(-277.682 17.105)" fill="#fff"/>
            <path id="Path_159" data-name="Path 159" d="M282.173,120.6a4.486,4.486,0,1,1-4.491,4.486A4.487,4.487,0,0,1,282.173,120.6Z" transform="translate(-277.682 -5.724)" fill="#fff"/>
            <path id="Path_160" data-name="Path 160" d="M282.173,114.714a4.488,4.488,0,1,1-4.491,4.491A4.488,4.488,0,0,1,282.173,114.714Z" transform="translate(-277.682 -28.557)" fill="#fff"/>
            <path id="Path_161" data-name="Path 161" d="M282.173,108.824a4.488,4.488,0,1,1-4.491,4.486A4.487,4.487,0,0,1,282.173,108.824Z" transform="translate(-277.682 -51.386)" fill="#fff"/>
            <path id="Path_162" data-name="Path 162" d="M282.173,102.934a4.488,4.488,0,1,1-4.491,4.486A4.487,4.487,0,0,1,282.173,102.934Z" transform="translate(-277.682 -74.215)" fill="#fff"/>
            <path id="Path_163" data-name="Path 163" d="M282.173,97.044a4.488,4.488,0,1,1-4.491,4.486A4.487,4.487,0,0,1,282.173,97.044Z" transform="translate(-277.682 -97.044)" fill="#fff"/>
          </g>
        </g>
        <rect id="Rectangle_27" data-name="Rectangle 27" width="199.4" height="199.401" rx="99.7" transform="translate(1354.4 94.5) rotate(90)" fill="none" stroke="#ffcbaf" stroke-miterlimit="10" stroke-width="0.889"/>
        <rect id="Rectangle_28" data-name="Rectangle 28" width="161.4" height="161.401" rx="80.7" transform="translate(1335.401 114) rotate(90)" fill="#fe8849"/>
        <path id="graph-bar" d="M22.5,52.6H5.3A4.3,4.3,0,0,0,1,56.9V91.3a4.3,4.3,0,0,0,4.3,4.3H22.5a4.3,4.3,0,0,0,4.3-4.3V56.9A4.3,4.3,0,0,0,22.5,52.6ZM18.2,87H9.6V61.2h8.6ZM91.3,35.4H74.1a4.3,4.3,0,0,0-4.3,4.3V91.3a4.3,4.3,0,0,0,4.3,4.3H91.3a4.3,4.3,0,0,0,4.3-4.3V39.7A4.3,4.3,0,0,0,91.3,35.4ZM87,87H78.4V44H87ZM56.9,1H39.7a4.3,4.3,0,0,0-4.3,4.3v86a4.3,4.3,0,0,0,4.3,4.3H56.9a4.3,4.3,0,0,0,4.3-4.3V5.3A4.3,4.3,0,0,0,56.9,1ZM52.6,87H44V9.6h8.6Z" transform="translate(1206.401 146.401)" fill="#ffa678" opacity="0"/>
        <g id="download" transform="translate(1191.5 134.84)">
          <path id="Path_245" data-name="Path 245" d="M19.609,53.318a5.579,5.579,0,1,1,5.579-5.579,5.579,5.579,0,0,1-5.579,5.579Zm0-8.558a2.966,2.966,0,1,0,2.966,2.966,2.966,2.966,0,0,0-2.966-2.966Z" transform="translate(2.615 7.665)" fill="#fff"/>
          <path id="Path_246" data-name="Path 246" d="M120.481,83.613H6.807a1.307,1.307,0,1,1,0-2.613H120.481a1.307,1.307,0,1,1,0,2.613Z" transform="translate(0 19.573)" fill="#fff"/>
          <path id="Path_247" data-name="Path 247" d="M26.673,90.723H13.607A1.307,1.307,0,0,1,12.3,89.417V58.307A1.307,1.307,0,0,1,13.607,57H26.673a1.307,1.307,0,0,1,1.307,1.307v31.11A1.307,1.307,0,0,1,26.673,90.723ZM14.913,88.11H25.366v-28.5H14.913Z" transform="translate(2.085 12.215)" fill="#fff"/>
          <path id="Path_248" data-name="Path 248" d="M35.6,40.318a5.579,5.579,0,1,1,5.579-5.579A5.579,5.579,0,0,1,35.6,40.318Zm0-8.558a2.966,2.966,0,1,0,2.966,2.966A2.966,2.966,0,0,0,35.6,31.76Z" transform="translate(7.518 3.679)" fill="#fff"/>
          <path id="Path_249" data-name="Path 249" d="M42.663,94.709H29.6A1.307,1.307,0,0,1,28.29,93.4v-48.1A1.307,1.307,0,0,1,29.6,44H42.663a1.307,1.307,0,0,1,1.307,1.307V93.4A1.307,1.307,0,0,1,42.663,94.709ZM30.9,92.1H41.356V46.613H30.9Z" transform="translate(6.987 8.229)" fill="#fff"/>
          <path id="Path_250" data-name="Path 250" d="M51.629,49.318a5.579,5.579,0,1,1,5.579-5.579,5.579,5.579,0,0,1-5.579,5.579Zm0-8.558A2.966,2.966,0,1,0,54.6,43.726a2.966,2.966,0,0,0-2.966-2.966Z" transform="translate(12.433 6.439)" fill="#fff"/>
          <path id="Path_251" data-name="Path 251" d="M58.693,91.95H45.627a1.307,1.307,0,0,1-1.307-1.307V54.307A1.307,1.307,0,0,1,45.627,53H58.693A1.307,1.307,0,0,1,60,54.307V90.643A1.307,1.307,0,0,1,58.693,91.95ZM46.933,89.337H57.386V55.613H46.933Z" transform="translate(11.902 10.989)" fill="#fff"/>
          <path id="Path_252" data-name="Path 252" d="M67.619,34.318A5.579,5.579,0,1,1,73.2,28.739a5.579,5.579,0,0,1-5.579,5.579Zm0-8.558a2.966,2.966,0,1,0,2.966,2.966,2.966,2.966,0,0,0-2.966-2.966Z" transform="translate(17.335 1.84)" fill="#fff"/>
          <path id="Path_253" data-name="Path 253" d="M74.683,96.549H61.617a1.307,1.307,0,0,1-1.307-1.307V39.307A1.307,1.307,0,0,1,61.617,38H74.683a1.307,1.307,0,0,1,1.307,1.307V95.242A1.307,1.307,0,0,1,74.683,96.549ZM62.923,93.936H73.376V40.613H62.923Z" transform="translate(16.805 6.39)" fill="#fff"/>
          <path id="Path_254" data-name="Path 254" d="M83.619,28.318A5.579,5.579,0,1,1,89.2,22.739,5.579,5.579,0,0,1,83.619,28.318Zm0-8.558a2.966,2.966,0,1,0,2.966,2.966,2.966,2.966,0,0,0-2.966-2.966Z" transform="translate(22.241 0)" fill="#fff"/>
          <path id="Path_255" data-name="Path 255" d="M90.683,98.388H77.617a1.307,1.307,0,0,1-1.307-1.307V33.307A1.307,1.307,0,0,1,77.617,32H90.683a1.307,1.307,0,0,1,1.307,1.307V97.082A1.307,1.307,0,0,1,90.683,98.388ZM78.923,95.775H89.376V34.613H78.923Z" transform="translate(21.71 4.55)" fill="#fff"/>
          <path id="Path_256" data-name="Path 256" d="M69.789,28.971a1.307,1.307,0,0,1-.457-2.535l12.752-4.782A1.307,1.307,0,0,1,83,24.1L70.247,28.879A1.307,1.307,0,0,1,69.789,28.971Z" transform="translate(19.307 1.36)" fill="#fff"/>
          <path id="Path_257" data-name="Path 257" d="M53.012,45.032a1.307,1.307,0,0,1-.915-2.26L66.783,29.013a1.308,1.308,0,0,1,1.79,1.908L53.913,44.679A1.307,1.307,0,0,1,53.012,45.032Z" transform="translate(14.16 3.526)" fill="#fff"/>
          <path id="Path_258" data-name="Path 258" d="M50.926,44.21a1.307,1.307,0,0,1-.6-.17l-13.51-7.565A1.311,1.311,0,0,1,38.121,34.2l13.51,7.565a1.307,1.307,0,0,1-.706,2.443Z" transform="translate(9.399 5.171)" fill="#fff"/>
          <path id="Path_259" data-name="Path 259" d="M21.148,48.685a1.307,1.307,0,0,1-.823-2.326l14.268-11.59a1.307,1.307,0,0,1,1.646,2.025L21.971,48.4A1.307,1.307,0,0,1,21.148,48.685Z" transform="translate(4.395 5.321)" fill="#fff"/>
        </g>
      </g>
      <g id="Group_70" data-name="Group 70" transform="translate(847.58 932.443) rotate(180)" opacity="0.7">
        <g id="Group_32-2" data-name="Group 32" transform="translate(189.746)">
          <path id="Path_100-2" data-name="Path 100" d="M321.083,138.275a4.488,4.488,0,1,1-4.486,4.486A4.487,4.487,0,0,1,321.083,138.275Z" transform="translate(-316.597 62.763)" fill="#fff"/>
          <path id="Path_101-2" data-name="Path 101" d="M321.083,132.385a4.488,4.488,0,1,1-4.486,4.486A4.487,4.487,0,0,1,321.083,132.385Z" transform="translate(-316.597 39.934)" fill="#fff"/>
          <path id="Path_102-2" data-name="Path 102" d="M321.083,126.5a4.488,4.488,0,1,1-4.486,4.486A4.487,4.487,0,0,1,321.083,126.5Z" transform="translate(-316.597 17.105)" fill="#fff"/>
          <path id="Path_103-2" data-name="Path 103" d="M321.083,120.6a4.486,4.486,0,1,1-4.486,4.486A4.487,4.487,0,0,1,321.083,120.6Z" transform="translate(-316.597 -5.724)" fill="#fff"/>
          <path id="Path_104-2" data-name="Path 104" d="M321.083,114.714A4.488,4.488,0,1,1,316.6,119.2,4.488,4.488,0,0,1,321.083,114.714Z" transform="translate(-316.597 -28.557)" fill="#fff"/>
          <path id="Path_105-2" data-name="Path 105" d="M321.083,108.824a4.488,4.488,0,1,1-4.486,4.486A4.487,4.487,0,0,1,321.083,108.824Z" transform="translate(-316.597 -51.386)" fill="#fff"/>
          <path id="Path_106-2" data-name="Path 106" d="M321.083,102.934a4.488,4.488,0,1,1-4.486,4.486A4.487,4.487,0,0,1,321.083,102.934Z" transform="translate(-316.597 -74.215)" fill="#fff"/>
          <path id="Path_107-2" data-name="Path 107" d="M321.083,97.044a4.488,4.488,0,1,1-4.486,4.486A4.487,4.487,0,0,1,321.083,97.044Z" transform="translate(-316.597 -97.044)" fill="#fff"/>
        </g>
        <g id="Group_33-2" data-name="Group 33" transform="translate(162.64)">
          <path id="Path_108-2" data-name="Path 108" d="M315.524,138.275a4.488,4.488,0,1,1-4.486,4.486A4.488,4.488,0,0,1,315.524,138.275Z" transform="translate(-311.038 62.763)" fill="#fff"/>
          <path id="Path_109-2" data-name="Path 109" d="M315.524,132.385a4.488,4.488,0,1,1-4.486,4.486A4.488,4.488,0,0,1,315.524,132.385Z" transform="translate(-311.038 39.934)" fill="#fff"/>
          <path id="Path_110-2" data-name="Path 110" d="M315.524,126.5a4.488,4.488,0,1,1-4.486,4.486A4.487,4.487,0,0,1,315.524,126.5Z" transform="translate(-311.038 17.105)" fill="#fff"/>
          <path id="Path_111-2" data-name="Path 111" d="M315.524,120.6a4.486,4.486,0,1,1-4.486,4.486A4.487,4.487,0,0,1,315.524,120.6Z" transform="translate(-311.038 -5.724)" fill="#fff"/>
          <path id="Path_112-2" data-name="Path 112" d="M315.524,114.714a4.488,4.488,0,1,1-4.486,4.491A4.488,4.488,0,0,1,315.524,114.714Z" transform="translate(-311.038 -28.557)" fill="#fff"/>
          <path id="Path_113-2" data-name="Path 113" d="M315.524,108.824a4.488,4.488,0,1,1-4.486,4.486A4.487,4.487,0,0,1,315.524,108.824Z" transform="translate(-311.038 -51.386)" fill="#fff"/>
          <path id="Path_114-2" data-name="Path 114" d="M315.524,102.934a4.488,4.488,0,1,1-4.486,4.486A4.488,4.488,0,0,1,315.524,102.934Z" transform="translate(-311.038 -74.215)" fill="#fff"/>
          <path id="Path_115-2" data-name="Path 115" d="M315.524,97.044a4.488,4.488,0,1,1-4.486,4.486A4.487,4.487,0,0,1,315.524,97.044Z" transform="translate(-311.038 -97.044)" fill="#fff"/>
        </g>
        <g id="Group_34-2" data-name="Group 34" transform="translate(135.535)">
          <path id="Path_116-2" data-name="Path 116" d="M309.965,138.275a4.488,4.488,0,1,1-4.486,4.486A4.487,4.487,0,0,1,309.965,138.275Z" transform="translate(-305.479 62.763)" fill="#fff"/>
          <path id="Path_117-2" data-name="Path 117" d="M309.965,132.385a4.488,4.488,0,1,1-4.486,4.486A4.487,4.487,0,0,1,309.965,132.385Z" transform="translate(-305.479 39.934)" fill="#fff"/>
          <path id="Path_118-2" data-name="Path 118" d="M309.965,126.5a4.488,4.488,0,1,1-4.486,4.486A4.486,4.486,0,0,1,309.965,126.5Z" transform="translate(-305.479 17.105)" fill="#fff"/>
          <path id="Path_119-2" data-name="Path 119" d="M309.965,120.6a4.486,4.486,0,1,1-4.486,4.486A4.487,4.487,0,0,1,309.965,120.6Z" transform="translate(-305.479 -5.724)" fill="#fff"/>
          <path id="Path_120-2" data-name="Path 120" d="M309.965,114.714a4.488,4.488,0,1,1-4.486,4.491A4.488,4.488,0,0,1,309.965,114.714Z" transform="translate(-305.479 -28.557)" fill="#fff"/>
          <path id="Path_121-2" data-name="Path 121" d="M309.965,108.824a4.488,4.488,0,1,1-4.486,4.486A4.487,4.487,0,0,1,309.965,108.824Z" transform="translate(-305.479 -51.386)" fill="#fff"/>
          <path id="Path_122-2" data-name="Path 122" d="M309.965,102.934a4.488,4.488,0,1,1-4.486,4.486A4.487,4.487,0,0,1,309.965,102.934Z" transform="translate(-305.479 -74.215)" fill="#fff"/>
          <path id="Path_123-2" data-name="Path 123" d="M309.965,97.044a4.488,4.488,0,1,1-4.486,4.486A4.487,4.487,0,0,1,309.965,97.044Z" transform="translate(-305.479 -97.044)" fill="#fff"/>
        </g>
        <g id="Group_35-2" data-name="Group 35" transform="translate(108.425)">
          <path id="Path_124-2" data-name="Path 124" d="M304.41,138.275a4.488,4.488,0,1,1-4.491,4.486A4.487,4.487,0,0,1,304.41,138.275Z" transform="translate(-299.919 62.763)" fill="#fff"/>
          <path id="Path_125-2" data-name="Path 125" d="M304.41,132.385a4.488,4.488,0,1,1-4.491,4.486A4.487,4.487,0,0,1,304.41,132.385Z" transform="translate(-299.919 39.934)" fill="#fff"/>
          <path id="Path_126-2" data-name="Path 126" d="M304.41,126.5a4.488,4.488,0,1,1-4.491,4.486A4.487,4.487,0,0,1,304.41,126.5Z" transform="translate(-299.919 17.105)" fill="#fff"/>
          <path id="Path_127-2" data-name="Path 127" d="M304.41,120.6a4.486,4.486,0,1,1-4.491,4.486A4.487,4.487,0,0,1,304.41,120.6Z" transform="translate(-299.919 -5.724)" fill="#fff"/>
          <path id="Path_128-2" data-name="Path 128" d="M304.41,114.714a4.488,4.488,0,1,1-4.491,4.491A4.488,4.488,0,0,1,304.41,114.714Z" transform="translate(-299.919 -28.557)" fill="#fff"/>
          <path id="Path_129-2" data-name="Path 129" d="M304.41,108.824a4.488,4.488,0,1,1-4.491,4.486A4.487,4.487,0,0,1,304.41,108.824Z" transform="translate(-299.919 -51.386)" fill="#fff"/>
          <path id="Path_130-2" data-name="Path 130" d="M304.41,102.934a4.488,4.488,0,1,1-4.491,4.486A4.487,4.487,0,0,1,304.41,102.934Z" transform="translate(-299.919 -74.215)" fill="#fff"/>
          <path id="Path_131-2" data-name="Path 131" d="M304.41,97.044a4.488,4.488,0,1,1-4.491,4.486A4.487,4.487,0,0,1,304.41,97.044Z" transform="translate(-299.919 -97.044)" fill="#fff"/>
        </g>
        <g id="Group_36-2" data-name="Group 36" transform="translate(81.32)">
          <path id="Path_132-2" data-name="Path 132" d="M298.846,138.275a4.488,4.488,0,1,1-4.486,4.486A4.488,4.488,0,0,1,298.846,138.275Z" transform="translate(-294.36 62.763)" fill="#fff"/>
          <path id="Path_133-2" data-name="Path 133" d="M298.846,132.385a4.488,4.488,0,1,1-4.486,4.486A4.488,4.488,0,0,1,298.846,132.385Z" transform="translate(-294.36 39.934)" fill="#fff"/>
          <path id="Path_134-2" data-name="Path 134" d="M298.846,126.5a4.488,4.488,0,1,1-4.486,4.486A4.487,4.487,0,0,1,298.846,126.5Z" transform="translate(-294.36 17.105)" fill="#fff"/>
          <path id="Path_135-2" data-name="Path 135" d="M298.846,120.6a4.486,4.486,0,1,1-4.486,4.486A4.487,4.487,0,0,1,298.846,120.6Z" transform="translate(-294.36 -5.724)" fill="#fff"/>
          <path id="Path_136-2" data-name="Path 136" d="M298.846,114.714a4.488,4.488,0,1,1-4.486,4.491A4.489,4.489,0,0,1,298.846,114.714Z" transform="translate(-294.36 -28.557)" fill="#fff"/>
          <path id="Path_137-2" data-name="Path 137" d="M298.846,108.824a4.488,4.488,0,1,1-4.486,4.486A4.488,4.488,0,0,1,298.846,108.824Z" transform="translate(-294.36 -51.386)" fill="#fff"/>
          <path id="Path_138-2" data-name="Path 138" d="M298.846,102.934a4.488,4.488,0,1,1-4.486,4.486A4.488,4.488,0,0,1,298.846,102.934Z" transform="translate(-294.36 -74.215)" fill="#fff"/>
          <path id="Path_139-2" data-name="Path 139" d="M298.846,97.044a4.488,4.488,0,1,1-4.486,4.486A4.487,4.487,0,0,1,298.846,97.044Z" transform="translate(-294.36 -97.044)" fill="#fff"/>
        </g>
        <g id="Group_37-2" data-name="Group 37" transform="translate(54.215)">
          <path id="Path_140-2" data-name="Path 140" d="M293.287,138.275a4.488,4.488,0,1,1-4.486,4.486A4.487,4.487,0,0,1,293.287,138.275Z" transform="translate(-288.801 62.763)" fill="#fff"/>
          <path id="Path_141-2" data-name="Path 141" d="M293.287,132.385a4.488,4.488,0,1,1-4.486,4.486A4.487,4.487,0,0,1,293.287,132.385Z" transform="translate(-288.801 39.934)" fill="#fff"/>
          <path id="Path_142-2" data-name="Path 142" d="M293.287,126.5a4.488,4.488,0,1,1-4.486,4.486A4.487,4.487,0,0,1,293.287,126.5Z" transform="translate(-288.801 17.105)" fill="#fff"/>
          <path id="Path_143-2" data-name="Path 143" d="M293.287,120.6a4.486,4.486,0,1,1-4.486,4.486A4.487,4.487,0,0,1,293.287,120.6Z" transform="translate(-288.801 -5.724)" fill="#fff"/>
          <path id="Path_144-2" data-name="Path 144" d="M293.287,114.714A4.488,4.488,0,1,1,288.8,119.2,4.488,4.488,0,0,1,293.287,114.714Z" transform="translate(-288.801 -28.557)" fill="#fff"/>
          <path id="Path_145-2" data-name="Path 145" d="M293.287,108.824a4.488,4.488,0,1,1-4.486,4.486A4.487,4.487,0,0,1,293.287,108.824Z" transform="translate(-288.801 -51.386)" fill="#fff"/>
          <path id="Path_146-2" data-name="Path 146" d="M293.287,102.934a4.488,4.488,0,1,1-4.486,4.486A4.487,4.487,0,0,1,293.287,102.934Z" transform="translate(-288.801 -74.215)" fill="#fff"/>
          <path id="Path_147-2" data-name="Path 147" d="M293.287,97.044a4.488,4.488,0,1,1-4.486,4.486A4.487,4.487,0,0,1,293.287,97.044Z" transform="translate(-288.801 -97.044)" fill="#fff"/>
        </g>
        <g id="Group_38-2" data-name="Group 38" transform="translate(27.11)">
          <path id="Path_148-2" data-name="Path 148" d="M287.728,138.275a4.488,4.488,0,1,1-4.486,4.486A4.486,4.486,0,0,1,287.728,138.275Z" transform="translate(-283.242 62.763)" fill="#fff"/>
          <path id="Path_149-2" data-name="Path 149" d="M287.728,132.385a4.488,4.488,0,1,1-4.486,4.486A4.486,4.486,0,0,1,287.728,132.385Z" transform="translate(-283.242 39.934)" fill="#fff"/>
          <path id="Path_150-2" data-name="Path 150" d="M287.728,126.5a4.488,4.488,0,1,1-4.486,4.486A4.486,4.486,0,0,1,287.728,126.5Z" transform="translate(-283.242 17.105)" fill="#fff"/>
          <path id="Path_151-2" data-name="Path 151" d="M287.728,120.6a4.486,4.486,0,1,1-4.486,4.486A4.486,4.486,0,0,1,287.728,120.6Z" transform="translate(-283.242 -5.724)" fill="#fff"/>
          <path id="Path_152-2" data-name="Path 152" d="M287.728,114.714a4.488,4.488,0,1,1-4.486,4.491A4.487,4.487,0,0,1,287.728,114.714Z" transform="translate(-283.242 -28.557)" fill="#fff"/>
          <path id="Path_153-2" data-name="Path 153" d="M287.728,108.824a4.488,4.488,0,1,1-4.486,4.486A4.486,4.486,0,0,1,287.728,108.824Z" transform="translate(-283.242 -51.386)" fill="#fff"/>
          <path id="Path_154-2" data-name="Path 154" d="M287.728,102.934a4.488,4.488,0,1,1-4.486,4.486A4.486,4.486,0,0,1,287.728,102.934Z" transform="translate(-283.242 -74.215)" fill="#fff"/>
          <path id="Path_155-2" data-name="Path 155" d="M287.728,97.044a4.488,4.488,0,1,1-4.486,4.486A4.486,4.486,0,0,1,287.728,97.044Z" transform="translate(-283.242 -97.044)" fill="#fff"/>
        </g>
        <g id="Group_39-2" data-name="Group 39">
          <path id="Path_156-2" data-name="Path 156" d="M282.173,138.275a4.488,4.488,0,1,1-4.491,4.486A4.487,4.487,0,0,1,282.173,138.275Z" transform="translate(-277.682 62.763)" fill="#fff"/>
          <path id="Path_157-2" data-name="Path 157" d="M282.173,132.385a4.488,4.488,0,1,1-4.491,4.486A4.487,4.487,0,0,1,282.173,132.385Z" transform="translate(-277.682 39.934)" fill="#fff"/>
          <path id="Path_158-2" data-name="Path 158" d="M282.173,126.5a4.488,4.488,0,1,1-4.491,4.486A4.486,4.486,0,0,1,282.173,126.5Z" transform="translate(-277.682 17.105)" fill="#fff"/>
          <path id="Path_159-2" data-name="Path 159" d="M282.173,120.6a4.486,4.486,0,1,1-4.491,4.486A4.487,4.487,0,0,1,282.173,120.6Z" transform="translate(-277.682 -5.724)" fill="#fff"/>
          <path id="Path_160-2" data-name="Path 160" d="M282.173,114.714a4.488,4.488,0,1,1-4.491,4.491A4.488,4.488,0,0,1,282.173,114.714Z" transform="translate(-277.682 -28.557)" fill="#fff"/>
          <path id="Path_161-2" data-name="Path 161" d="M282.173,108.824a4.488,4.488,0,1,1-4.491,4.486A4.487,4.487,0,0,1,282.173,108.824Z" transform="translate(-277.682 -51.386)" fill="#fff"/>
          <path id="Path_162-2" data-name="Path 162" d="M282.173,102.934a4.488,4.488,0,1,1-4.491,4.486A4.487,4.487,0,0,1,282.173,102.934Z" transform="translate(-277.682 -74.215)" fill="#fff"/>
          <path id="Path_163-2" data-name="Path 163" d="M282.173,97.044a4.488,4.488,0,1,1-4.491,4.486A4.487,4.487,0,0,1,282.173,97.044Z" transform="translate(-277.682 -97.044)" fill="#fff"/>
        </g>
      </g>
    </g>
  </g>
</svg>
