<svg xmlns="http://www.w3.org/2000/svg" width="67.405" height="69.442" viewBox="0 0 67.405 69.442">
  <g id="Industry_target" transform="translate(-722.069 -178.748)">
    <g id="industry" transform="translate(749.266 213.469)">
      <path id="Path_13221" data-name="Path 13221" d="M104.858,459.584H91.823a.283.283,0,0,1-.283-.283v-.81a.824.824,0,0,1,.823-.823h11.955a.824.824,0,0,1,.823.823v.81a.283.283,0,0,1-.283.283Zm-12.751-.567h12.468v-.526a.257.257,0,0,0-.257-.257H92.363a.257.257,0,0,0-.256.257Z" transform="translate(-91.54 -446.402)"/>
      <path id="Path_13222" data-name="Path 13222" d="M131.5,193.257h-2.344a.283.283,0,0,1-.283-.283v-7.161a.283.283,0,0,1,.283-.283H131.5a.283.283,0,0,1,.283.283v7.161a.283.283,0,0,1-.283.283Zm-2.061-.567h1.777V186.1h-1.777Z" transform="translate(-127.888 -181.424)"/>
      <path id="Path_13223" data-name="Path 13223" d="M131.5,136.157h-2.344a.283.283,0,0,1-.283-.283v-1.35a.283.283,0,0,1,.283-.283H131.5a.283.283,0,0,1,.283.283v1.35a.283.283,0,0,1-.283.283Zm-2.061-.567h1.777v-.783h-1.777Z" transform="translate(-127.888 -131.485)"/>
      <path id="Path_13224" data-name="Path 13224" d="M226.97,249.17h-8.726a.283.283,0,0,1-.283-.283v-3.727a.283.283,0,0,1,.1-.213l2.193-1.923a.283.283,0,0,1,.47.213v1.07l1.724-1.3a.283.283,0,0,1,.454.226v1.07l1.724-1.3a.283.283,0,0,1,.454.226v1.07l1.724-1.3a.283.283,0,0,1,.454.226v5.65a.284.284,0,0,1-.284.283Zm-8.443-.567h8.159v-4.8l-1.724,1.3a.283.283,0,0,1-.454-.226V243.8l-1.724,1.3a.283.283,0,0,1-.454-.226V243.8l-1.724,1.3a.283.283,0,0,1-.454-.226v-1.012l-1.626,1.426Z" transform="translate(-214.634 -237.337)"/>
      <path id="Path_13225" data-name="Path 13225" d="M173.693,31.733a.283.283,0,0,1-.283-.283V30.313a.824.824,0,0,1,.823-.823h4.67a.283.283,0,1,1,0,.567h-4.67a.257.257,0,0,0-.257.257V31.45a.283.283,0,0,1-.283.283Z" transform="translate(-171.256 -29.49)"/>
      <path id="Path_13226" data-name="Path 13226" d="M356.86,353.28h.567v.567h-.567Z" transform="translate(-349.879 -344.76)"/>
      <path id="Path_13227" data-name="Path 13227" d="M303.01,353.28h.567v.567h-.567Z" transform="translate(-297.446 -344.76)"/>
      <path id="Path_13228" data-name="Path 13228" d="M410.7,353.28h.567v.567H410.7Z" transform="translate(-402.302 -344.76)"/>
      <path id="Path_13229" data-name="Path 13229" d="M464.55,353.28h.567v.567h-.567Z" transform="translate(-454.735 -344.76)"/>
      <path id="Path_13230" data-name="Path 13230" d="M356.86,407.12h.567v.567h-.567Z" transform="translate(-349.879 -397.184)"/>
      <path id="Path_13231" data-name="Path 13231" d="M303.01,407.12h.567v.567h-.567Z" transform="translate(-297.446 -397.184)"/>
      <path id="Path_13232" data-name="Path 13232" d="M410.7,407.12h.567v.567H410.7Z" transform="translate(-402.302 -397.184)"/>
      <path id="Path_13233" data-name="Path 13233" d="M464.55,407.12h.567v.567h-.567Z" transform="translate(-454.735 -397.184)"/>
    </g>
    <g id="user" transform="translate(722.069 178.748)">
      <path id="Path_13234" data-name="Path 13234" d="M88.014,67.536l1.643,1.921,1.648-1.921L90.2,58.163H89.182l-1.168,9.373ZM101.1,66.351a62.488,62.488,0,0,0-.326-6.338c-.326-2.523-5.2-3.537-7.015-4.247a1.811,1.811,0,0,1-1.259-1.537c-1.7,2.091-3.975,2.1-5.7-.016,0,0,.139,1.014-1.248,1.553-1.819.71-6.69,1.723-7.015,4.247a62.488,62.488,0,0,0-.326,6.338h8.893l1.275-8.344c.053-.379.4-.512.784-.512H90.26c.389,0,.688.139.742.517l1.072,8.338h9.032ZM84.876,47.274a9.268,9.268,0,0,0,1.76,5.676c1.04,1.339,2.043,1.947,3.02,1.867.981.08,1.979-.528,3.025-1.867a9.3,9.3,0,0,0,1.755-5.676c0-6.53-9.56-6.524-9.56,0Zm47.65,20.261,1.643,1.921,1.648-1.921-1.11-9.373h-1.019l-1.163,9.373Zm13.091-1.184a62.485,62.485,0,0,0-.326-6.338c-.326-2.523-5.2-3.537-7.015-4.247a1.823,1.823,0,0,1-1.264-1.537c-1.7,2.091-3.969,2.1-5.7-.016,0,0,.139,1.014-1.248,1.553-1.819.71-6.69,1.723-7.015,4.247a62.491,62.491,0,0,0-.326,6.338h8.893l1.275-8.344c.053-.379.4-.512.784-.512h1.094c.389,0,.688.139.736.517l1.078,8.338h9.032ZM129.389,47.274a9.268,9.268,0,0,0,1.76,5.676c1.04,1.339,2.043,1.947,3.02,1.867.981.08,1.979-.528,3.025-1.867a9.3,9.3,0,0,0,1.755-5.676C138.949,40.745,129.389,40.75,129.389,47.274Zm-19.12-22.1,1.643,1.915,1.648-1.915-1.11-9.378h-1.014l-1.168,9.378Zm13.091-1.184a62.488,62.488,0,0,0-.326-6.338c-.326-2.523-5.2-3.537-7.015-4.247a1.823,1.823,0,0,1-1.264-1.537c-1.7,2.086-3.969,2.1-5.7-.016,0,0,.139,1.014-1.248,1.553-1.819.71-6.69,1.723-7.015,4.247a62.491,62.491,0,0,0-.326,6.338h8.893l1.275-8.344c.053-.379.4-.512.784-.512h1.094c.389,0,.688.133.742.517l1.072,8.338h9.032ZM107.132,4.905a9.283,9.283,0,0,0,1.76,5.681c1.04,1.334,2.043,1.947,3.02,1.862.981.085,1.979-.528,3.025-1.862a9.312,9.312,0,0,0,1.755-5.681C116.692-1.619,107.132-1.614,107.132,4.905Zm4.876,23.436A13.889,13.889,0,1,1,98.121,42.233,13.888,13.888,0,0,1,112.007,28.341Zm0,2.139a11.752,11.752,0,1,1-11.752,11.752A11.75,11.75,0,0,1,112.007,30.48Z" transform="translate(-78.214 -0.014)" fill-rule="evenodd"/>
    </g>
  </g>
</svg>
