<svg id="logo" xmlns="http://www.w3.org/2000/svg" width="132.013" height="32.999" viewBox="0 0 132.013 32.999">
  <path id="Path_13555" data-name="Path 13555" d="M8.638,24.382H33.087V33H0V0H8.638ZM8.638,0,33.087,24.382V0H8.639Z" fill="#fff200"/>
  <path id="Path_13556" data-name="Path 13556" d="M55.568,23.711h8.2v2.206h-10.7V9.133h2.5Zm31.239-10.07a4.136,4.136,0,0,0-3.941,2.469c-.481-1.582-1.947-2.469-3.919-2.469a3.657,3.657,0,0,0-3.581,2.349V13.833H73.022v6.546a3.338,3.338,0,0,1-3.246,3.644c-1.707,0-2.837-1.3-2.837-3.214V13.833H64.607v7.436c0,2.872,1.78,4.843,4.521,4.843a3.981,3.981,0,0,0,3.894-2.326V25.92h2.343V18.9a2.885,2.885,0,0,1,2.956-3.212c1.586,0,2.548,1.294,2.548,3.212v7.026H83.2V18.9a2.885,2.885,0,0,1,2.956-3.212c1.61,0,2.572,1.294,2.572,3.212v7.026h2.332V18.244c0-2.805-1.635-4.6-4.256-4.6Zm14.832.191h2.331V25.917h-2.331V24.286a4.447,4.447,0,0,1-3.823,1.823c-3.727,0-5.818-2.637-5.818-6.233s2.091-6.234,5.794-6.234a4.813,4.813,0,0,1,3.846,1.8V13.832Zm.172,6.043c0-2.517-1.466-4.2-3.727-4.2-2.234,0-3.7,1.679-3.7,4.2s1.468,4.2,3.7,4.2C100.34,24.071,101.81,22.392,101.81,19.876Zm9.731-6.234a3.98,3.98,0,0,0-3.894,2.325V13.833h-2.331V25.917h2.331V19.371a3.338,3.338,0,0,1,3.246-3.644c1.706,0,2.837,1.3,2.837,3.213v6.978h2.332V18.484c0-2.878-1.783-4.843-4.524-4.843h0ZM117.21,11.7h2.6V8.78h-2.6V11.7Zm.144,14.218h2.331V13.833h-2.33V25.918Zm8.461-15.873h-2.33v3.787h-2.77v2.015h2.772v6.12a3.7,3.7,0,0,0,4.014,3.956h1.9V23.9h-1.709a1.775,1.775,0,0,1-1.879-2.015V15.847H129.4V13.833h-3.579l0-3.788Zm13.072,3.787-3.195,9.059-3.173-9.059h-2.405l4.5,12.206-1.638,4.771h2.236l1.827-5.323L141.3,13.833h-2.408Z" transform="translate(-9.283 -1.536)" fill="#041d2b"/>
</svg>
