<svg id="NielsenIQ-Logo-Small" xmlns="http://www.w3.org/2000/svg" width="128.488" height="40.974" viewBox="0 0 128.488 40.974">
  <path id="Shape" d="M135.966,26.75c0-2.785,2.109-4.728,5.135-4.728s5.135,1.943,5.135,4.728a4.5,4.5,0,0,1-2.588,4.187l-2.587-2.585v3.125c-2.985,0-5.095-1.943-5.095-4.728m10.728,10.438V34L145.32,32.62a6.627,6.627,0,0,0,3.4-5.871c0-4.007-3.2-6.912-7.623-6.912s-7.622,2.905-7.622,6.912,3.2,6.912,7.622,6.912a8.305,8.305,0,0,0,1.891-.2Zm-23.466-3.927h9.354V31.117h-3.4V22.382h3.4V20.238h-9.354v2.144h3.4v8.735h-3.4Zm-11.663,0h2.448V27.851a2.543,2.543,0,0,1,5.076,0v5.409h2.468v-5.53a4.332,4.332,0,0,0-7.742-2.524V23.844h-2.249v9.416Zm-6.946-7.954c1.751,0,2.727.741,2.946,2.224h-5.991a2.752,2.752,0,0,1,3.045-2.224m.139,8.254c2.806,0,4.756-1.2,5.135-3.126h-2.567c-.279.841-1.155,1.3-2.567,1.3-1.871,0-3.006-.861-3.244-2.444h8.439v-.942c0-2.925-2.09-4.809-5.334-4.809-3.344,0-5.493,1.964-5.493,5.009,0,2.986,2.269,5.009,5.632,5.009m-11.544,0c3.046,0,4.837-1.2,4.837-3.245,0-1.9-1.552-2.384-3.6-2.625L92.02,27.41c-.956-.1-1.453-.321-1.453-.962,0-.762.776-1.162,2.309-1.162,1.692,0,2.448.421,2.647,1.462h2.368c-.159-2.084-1.891-3.206-4.975-3.206-2.986,0-4.717,1.2-4.717,3.245,0,1.9,1.552,2.384,3.6,2.625l2.428.281c.956.1,1.473.321,1.473.962,0,.741-.856,1.162-2.448,1.162-1.792,0-2.588-.481-2.787-1.5H88.079c.218,2.084,1.989,3.245,5.134,3.245m-9.334-.3h2.448V20.238H83.879Zm-6.946-7.954c1.752,0,2.727.741,2.946,2.224H73.889a2.753,2.753,0,0,1,3.045-2.224m.139,8.254c2.806,0,4.757-1.2,5.135-3.126H79.64c-.279.841-1.154,1.3-2.568,1.3-1.871,0-3.006-.861-3.244-2.444h8.439v-.942c0-2.925-2.09-4.809-5.334-4.809-3.344,0-5.493,1.964-5.493,5.009,0,2.986,2.269,5.009,5.632,5.009m-9.732-.3h2.448V23.844H67.34ZM67.3,22.682h2.508V20.238H67.3ZM51,33.261h2.547V23.984l9.215,9.276h2.189V20.238H62.4v9.276l-9.215-9.276H51Z" transform="translate(-20.235 -7.871)" fill="#fbfbfb"/>
  <path id="Shape-2" data-name="Shape" d="M25.939,25.727V12.864L12.969,0V12.864Zm-12.969,0V12.864L0,0V12.864Z" fill="#01f001"/>
  <text id="BASES" transform="translate(29.634 37.974)" fill="#fff" font-size="13" font-family="Montserrat-Bold, Montserrat" font-weight="700"><tspan x="0" y="0">BASES</tspan></text>
</svg>
