<svg xmlns="http://www.w3.org/2000/svg" width="40.2" height="40.2" viewBox="0 0 40.2 40.2">
  <g id="nj_rtesidents" transform="translate(-181.915 -145.494)">
    <path id="Path_101" data-name="Path 101" d="M221.939,167.745l.013-.008L216.4,153.095h1.613c.454,0,.775-.559.632-1.1l-.667-2.5a.7.7,0,0,0-.632-.569H204.015v-2.5a.765.765,0,0,0-.667-.834h-2.667a.765.765,0,0,0-.667.834v2.5H186.68a.7.7,0,0,0-.632.57l-.667,2.5c-.143.537.177,1.1.633,1.1h1.613l-5.549,14.643.013.008a1,1,0,0,0-.07.469l.339,2.971c.233,2.038,1.652,3.577,3.3,3.577H191.7c1.648,0,3.067-1.538,3.3-3.577l.339-2.971a1,1,0,0,0-.07-.469l.013-.008-5.55-14.643h10.281v24.166h-4a2.3,2.3,0,0,0-2,2.5v.834a2.3,2.3,0,0,0-2,2.5v1.666a.765.765,0,0,0,.667.834h18.668a.765.765,0,0,0,.667-.834v-1.666a2.3,2.3,0,0,0-2-2.5v-.834a2.3,2.3,0,0,0-2-2.5h-4V153.095H214.3l-5.548,14.643.013.008a.982.982,0,0,0-.069.469l.339,2.971c.233,2.038,1.651,3.577,3.3,3.577h6.042c1.648,0,3.067-1.538,3.3-3.577l.34-2.971a1,1,0,0,0-.072-.469ZM188.68,154.208l4.947,13.053h-9.894Zm5,16.739a2.218,2.218,0,0,1-1.98,2.147h-6.043a2.218,2.218,0,0,1-1.98-2.147l-.23-2.02h10.463Zm-6.743-19.519.222-.834h12.854v.834Zm23.743,31.666v.834H193.347v-.834a.766.766,0,0,1,.667-.834h16a.767.767,0,0,1,.667.834Zm-2-3.334v.834H195.347v-.834a.766.766,0,0,1,.667-.834h12a.766.766,0,0,1,.666.834Zm-7.334-2.5v-30h1.333v30Zm2.667-26.666h12.853l.221.834H204.014ZM220.3,167.26H210.4l4.947-13.053Zm.054,3.686a2.218,2.218,0,0,1-1.98,2.147h-6.043a2.218,2.218,0,0,1-1.98-2.147l-.231-2.02H220.58Z" stroke="#000" stroke-width="0.2"/>
  </g>
</svg>
