<svg xmlns="http://www.w3.org/2000/svg" width="358" height="347.33" viewBox="0 0 358 347.33">
  <g id="No_question_Selected" transform="translate(-73.936 -0.536)">
    <path id="Path_13296" data-name="Path 13296" d="M186-29c88,8,196,150.187,196,238S298.815,318,192.5,318,24,277.813,24,190,98-37,186-29Z" transform="translate(49.936 29.866)" fill="#f2f2f2"/>
    <g id="no__quesion" data-name="no _quesion" transform="translate(244.884 163.063)">
      <path id="Path_13281" data-name="Path 13281" d="M199.057,83.453H94.671a.87.87,0,0,0-.87.87V164a.87.87,0,0,0,.87.87H199.057a.87.87,0,0,0,.87-.87V84.323A.869.869,0,0,0,199.057,83.453Zm-.87,1.739V98.206H95.541V85.192ZM95.541,163.13V99.945H198.187v63.187H95.541Z" transform="translate(-93.801 -83.453)" fill="#6e6e6e"/>
      <path id="Path_13282" data-name="Path 13282" d="M553.043,113.71l2.224-2.225,2.225,2.225,1.229-1.231-2.224-2.225,2.224-2.224-1.229-1.23-2.225,2.225-2.224-2.225-1.232,1.23,2.225,2.224-2.225,2.225Z" transform="translate(-456.95 -101.965)" fill="#6e6e6e"/>
      <path id="Path_13283" data-name="Path 13283" d="M122.47,119.06h59.585V120.8H122.47Z" transform="translate(-116.532 -111.685)" fill="#6e6e6e"/>
      <path id="Path_13284" data-name="Path 13284" d="M279.71,218.47h42.571v1.739H279.71Z" transform="translate(-241.205 -190.506)" fill="#6e6e6e"/>
      <path id="Path_13285" data-name="Path 13285" d="M215.235,201.08a4.69,4.69,0,1,0,4.689,4.689A4.7,4.7,0,0,0,215.235,201.08Zm0,7.64a2.95,2.95,0,1,1,2.95-2.951A2.955,2.955,0,0,1,215.235,208.72Z" transform="translate(-186.365 -176.718)" fill="#6e6e6e"/>
      <path id="Path_13286" data-name="Path 13286" d="M279.71,274.75h42.571v1.739H279.71Z" transform="translate(-241.205 -235.129)" fill="#6e6e6e"/>
      <path id="Path_13287" data-name="Path 13287" d="M215.235,257.36a4.69,4.69,0,1,0,4.689,4.689A4.7,4.7,0,0,0,215.235,257.36Zm0,7.639a2.95,2.95,0,1,1,2.95-2.951A2.956,2.956,0,0,1,215.235,265Z" transform="translate(-186.365 -221.341)" fill="#6e6e6e"/>
      <path id="Path_13288" data-name="Path 13288" d="M279.71,331.02h42.571v1.739H279.71Z" transform="translate(-241.205 -279.745)" fill="#6e6e6e"/>
      <path id="Path_13289" data-name="Path 13289" d="M215.235,313.63a4.69,4.69,0,1,0,4.689,4.69A4.7,4.7,0,0,0,215.235,313.63Zm0,7.641a2.951,2.951,0,1,1,2.95-2.951A2.955,2.955,0,0,1,215.235,321.271Z" transform="translate(-186.365 -265.957)" fill="#6e6e6e"/>
      <path id="Path_13290" data-name="Path 13290" d="M279.71,387.31h42.571v1.739H279.71Z" transform="translate(-241.205 -324.376)" fill="#6e6e6e"/>
      <path id="Path_13291" data-name="Path 13291" d="M215.235,369.91a4.69,4.69,0,1,0,4.689,4.692A4.7,4.7,0,0,0,215.235,369.91Zm0,7.642a2.951,2.951,0,1,1,2.95-2.95A2.955,2.955,0,0,1,215.235,377.552Z" transform="translate(-186.365 -310.58)" fill="#6e6e6e"/>
    </g>
    <path id="Path_13292" data-name="Path 13292" d="M84.973,95.866H312.5c7.056,0,12.793,4.581,12.793,10.213V236.606c0,5.632-5.737,10.213-12.793,10.213H84.973c-7.056,0-12.793-4.581-12.793-10.213V106.079C72.18,100.447,77.917,95.866,84.973,95.866Zm227.531,7H84.973c-2.205,0-4.029,1.458-4.029,3.216V236.606c0,1.761,1.826,3.216,4.029,3.216H312.5c2.205,0,4.029-1.458,4.029-3.216V106.079C316.533,104.318,314.708,102.863,312.5,102.863Z" transform="translate(48.219 34)" fill="#6e6e6e" stroke="#bbb" stroke-width="5.602"/>
    <path id="Path_13295" data-name="Path 13295" d="M329.942,199.538a138.182,138.182,0,0,0-3.044-17.87c-.354-1.981-3.792-1.2-3.342.782-1.52-3.559-5.768-2.329-5.364.975-1.447-5.056-6.416-3.745-5.3,1.2l-1.214-5.368a8.721,8.721,0,0,0,2.846-2.741,8.471,8.471,0,0,0-2.685-11.861,9.006,9.006,0,0,0-12.148,2.75,8.47,8.47,0,0,0,2.683,11.861,8.826,8.826,0,0,0,4.6,1.289l2.781,12.285-3.464-3.713c-2.483-.464-4.244-.053-3.563,3.322l9.185,9.845c5.3,8.024,17.334,2.74,18.026-2.753Zm-18.51-21.379-.5-2.2a5.443,5.443,0,0,0-.8-8.678,5.754,5.754,0,0,0-7.767,1.758,5.426,5.426,0,0,0,1.72,7.6,5.64,5.64,0,0,0,2.18.773l.47,2.08a7.724,7.724,0,0,1-3.806-1.129,7.413,7.413,0,0,1-2.349-10.379,7.95,7.95,0,0,1,10.712-2.425,7.417,7.417,0,0,1,2.349,10.379,7.713,7.713,0,0,1-2.209,2.224Zm-.777-3.435-.4-1.783c-2.1-2.107-3.692-1.678-4.755,1.077l.514,2.27a4.5,4.5,0,0,1-1.374-.557,4.374,4.374,0,0,1-1.384-6.117,4.7,4.7,0,0,1,6.331-1.433,4.374,4.374,0,0,1,1.384,6.117,4.81,4.81,0,0,1-.313.425Z" transform="translate(-33.219 54.991)" fill="#01f001" fill-rule="evenodd"/>
    <text id="No_Question_Selected-2" data-name="No QuestionSelected" transform="translate(185.936 203.866)" fill="#6e6e6e" font-size="12" font-family="Montserrat-SemiBold, Montserrat" font-weight="600"><tspan x="-38.604" y="0">No Question</tspan><tspan x="-26.79" y="18">Selected</tspan></text>
  </g>
</svg>
