<svg xmlns="http://www.w3.org/2000/svg" width="16" height="12" viewBox="0 0 25 25">
  <g id="Number" transform="translate(-99.436 -58.361)">
    <path id="Path_17751" data-name="Path 17751" d="M0,0H5.3V11.1H0Z" transform="translate(99.436 72.264)" fill="#4b4b4b"/>
    <path id="Path_17752" data-name="Path 17752" d="M0,0H5.3V18H0Z" transform="translate(109.285 65.361)" fill="#4b4b4b"/>
    <path id="Path_17753" data-name="Path 17753" d="M0,0H5.3V7H0Z" transform="translate(119.136 76.361)" fill="#4b4b4b"/>
    <path id="Path_17756" data-name="Path 17756" d="M-1.889-1.512l.7-.094a1.549,1.549,0,0,0,.412.861A1.018,1.018,0,0,0-.064-.48,1.136,1.136,0,0,0,.773-.824a1.16,1.16,0,0,0,.342-.852,1.079,1.079,0,0,0-.316-.8,1.094,1.094,0,0,0-.8-.314,2.019,2.019,0,0,0-.5.078l.078-.617a1.075,1.075,0,0,0,.113.008A1.448,1.448,0,0,0,.5-3.555a.8.8,0,0,0,.359-.723A.855.855,0,0,0,.6-4.918.93.93,0,0,0-.08-5.172a.958.958,0,0,0-.684.258,1.294,1.294,0,0,0-.352.773l-.7-.125a1.807,1.807,0,0,1,.586-1.1A1.694,1.694,0,0,1-.1-5.75a1.873,1.873,0,0,1,.863.2,1.455,1.455,0,0,1,.6.549,1.41,1.41,0,0,1,.209.738,1.209,1.209,0,0,1-.2.676,1.36,1.36,0,0,1-.59.484,1.329,1.329,0,0,1,.789.486,1.48,1.48,0,0,1,.281.924A1.69,1.69,0,0,1,1.314-.42,1.923,1.923,0,0,1-.068.1,1.8,1.8,0,0,1-1.32-.348,1.737,1.737,0,0,1-1.889-1.512Z" transform="translate(111.436 64.111)" fill="#4b4b4b"/>
    <path id="Path_17755" data-name="Path 17755" d="M1.8-.676V0H-1.982A1.244,1.244,0,0,1-1.9-.488a2.583,2.583,0,0,1,.463-.762,7.252,7.252,0,0,1,.92-.867A7.8,7.8,0,0,0,.744-3.33a1.452,1.452,0,0,0,.328-.846.94.94,0,0,0-.3-.705,1.078,1.078,0,0,0-.779-.287,1.1,1.1,0,0,0-.812.3,1.153,1.153,0,0,0-.309.844l-.723-.074a1.779,1.779,0,0,1,.559-1.232A1.905,1.905,0,0,1,.01-5.75a1.815,1.815,0,0,1,1.3.457,1.5,1.5,0,0,1,.48,1.133,1.718,1.718,0,0,1-.141.676,2.623,2.623,0,0,1-.467.7A11.372,11.372,0,0,1,.1-1.777q-.633.531-.812.721a2.312,2.312,0,0,0-.3.381Z" transform="translate(102.176 71.111)" fill="#4b4b4b"/>
    <path id="Path_17754" data-name="Path 17754" d="M.756,0h-.7V-4.48A3.634,3.634,0,0,1-.613-4a4.721,4.721,0,0,1-.74.363v-.68A4.246,4.246,0,0,0-.322-4.984,2.643,2.643,0,0,0,.3-5.75H.756Z" transform="translate(121.786 75.14)" fill="#4b4b4b"/>
  </g>
</svg>
