<svg id="online-survey-final" xmlns="http://www.w3.org/2000/svg" width="80.58" height="45.109" viewBox="0 0 80.58 45.109">
  <path id="Path_13315" data-name="Path 13315" d="M11.67,3.8a.831.831,0,0,0,.808.838H28.852a.882.882,0,0,0,.9-.778.882.882,0,0,0-.778-.9H12.508a.837.837,0,0,0-.838.838Z" transform="translate(23.262 5.9)" fill="#0c0c0c"/>
  <path id="Path_13316" data-name="Path 13316" d="M14.119,2.585a2.383,2.383,0,0,1-.239.359,9.83,9.83,0,0,0-.6.928c-.239.359-.479.748-.748,1.108-.21.329-.449.659-.659.988l-.359.539a.734.734,0,0,1-.748.269,1.172,1.172,0,0,1-.3-.239v-.06c0-.06-.06-.06-.06-.12a.2.2,0,0,0-.12-.15L10.138,6a1.13,1.13,0,0,1-.15-.239c-.06-.09-.09-.15-.15-.239a.652.652,0,0,1-.15-.239l-.15-.21a.418.418,0,0,0-.12-.15c0-.06-.06-.09-.09-.15h0a.506.506,0,0,0-.06-.15.253.253,0,0,1,.06-.21.259.259,0,0,1,.18-.09.323.323,0,0,1,.239.06l1.257,1.048a3.283,3.283,0,0,1,.239-.3c.21-.239.419-.479.659-.718.239-.3.539-.6.778-.9a9.231,9.231,0,0,1,.718-.808,1.6,1.6,0,0,1,.449-.449.273.273,0,0,1,.359.03h0c-.06-.09.09.06-.06.269h0Z" transform="translate(18.478 4.389)" fill="#0c0c0c"/>
  <path id="Path_13317" data-name="Path 13317" d="M14.947,4.72h0a.86.86,0,0,0-.06.359,1.752,1.752,0,0,0,.06.389A2.73,2.73,0,0,1,9.5,5.828a2.915,2.915,0,0,1,.06-.718,2.667,2.667,0,0,1,3.113-2.185,3.123,3.123,0,0,1,.748.239.374.374,0,0,0,.479-.09.424.424,0,0,0-.03-.6.431.431,0,0,1-.09-.06,3.592,3.592,0,1,0-.958,6.735h0a3.655,3.655,0,0,0,2.933-3.113,4.839,4.839,0,0,0-.06-1.137.394.394,0,0,0-.479-.329.344.344,0,0,0-.269.18h0Z" transform="translate(17.082 4.08)" fill="#141414"/>
  <path id="Path_13318" data-name="Path 13318" d="M11.67,7.188a.831.831,0,0,0,.808.838h16.4a.882.882,0,0,0,.9-.778A.859.859,0,0,0,29,6.35H12.538a.831.831,0,0,0-.838.808v.03Z" transform="translate(23.262 12.658)" fill="#0c0c0c"/>
  <path id="Path_13319" data-name="Path 13319" d="M11.67,10.578a.831.831,0,0,0,.808.838h16.4a.882.882,0,0,0,.9-.778A.859.859,0,0,0,29,9.74H12.538a.831.831,0,0,0-.838.808v.03Z" transform="translate(23.262 19.415)" fill="#0c0c0c"/>
  <path id="Path_13320" data-name="Path 13320" d="M14.119,6a2.383,2.383,0,0,1-.239.359,9.83,9.83,0,0,0-.6.928c-.239.359-.479.748-.748,1.108-.21.329-.449.659-.659.988l-.359.539a.667.667,0,0,1-.748.239,1.172,1.172,0,0,1-.3-.239v-.06c0-.06-.06-.06-.06-.12a.2.2,0,0,0-.12-.15l-.15-.21a1.13,1.13,0,0,1-.15-.239c-.06-.09-.09-.15-.15-.239a.652.652,0,0,1-.15-.239l-.15-.21a.418.418,0,0,0-.12-.15c0-.06-.06-.09-.09-.15h0A.506.506,0,0,0,9.27,8a.253.253,0,0,1,.06-.21.259.259,0,0,1,.18-.09.323.323,0,0,1,.239.06l1.257,1.048a3.283,3.283,0,0,1,.239-.3c.21-.239.419-.479.659-.718.239-.3.539-.6.778-.9a9.231,9.231,0,0,1,.718-.808,1.6,1.6,0,0,1,.449-.449.273.273,0,0,1,.359.03h0c-.06-.09.09.06-.06.269h0Z" transform="translate(18.478 11.126)" fill="#141414"/>
  <path id="Path_13321" data-name="Path 13321" d="M14.947,8.11a.86.86,0,0,0-.06.359,1.752,1.752,0,0,0,.06.389A2.73,2.73,0,0,1,9.5,9.218a2.915,2.915,0,0,1,.06-.718,2.667,2.667,0,0,1,3.113-2.185,3.123,3.123,0,0,1,.748.239.374.374,0,0,0,.479-.09.424.424,0,0,0-.03-.6.431.431,0,0,1-.09-.06,3.592,3.592,0,1,0-.958,6.735,3.655,3.655,0,0,0,2.933-3.113,4.839,4.839,0,0,0-.06-1.137.379.379,0,0,0-.419-.359.36.36,0,0,0-.3.21h0Z" transform="translate(17.082 10.837)" fill="#0c0c0c"/>
  <path id="Path_13322" data-name="Path 13322" d="M8.915,11.315s.06-.239.09-.389v-.06a1.476,1.476,0,0,1,.12-.269.106.106,0,0,1,.06-.09,1.213,1.213,0,0,0,.15-.269s.06-.06.06-.09a.911.911,0,0,1,.239-.239A2.84,2.84,0,0,1,11.01,9.16a2.267,2.267,0,0,1,.9,0h.06l.359.09h.06s.269.09.389.15a2.673,2.673,0,0,1,1.467,2.933,1.828,1.828,0,0,1-.09.389v.06a1.476,1.476,0,0,1-.12.269.106.106,0,0,1-.06.09,1.213,1.213,0,0,0-.15.269s-.06.06-.06.09a.911.911,0,0,1-.239.239,2.84,2.84,0,0,1-1.377.748,2.267,2.267,0,0,1-.9,0h-.06l-.359-.09h-.06s-.239-.09-.359-.15a2.673,2.673,0,0,1-1.467-2.933h0Z" transform="translate(17.726 18.169)" fill="#fff" stroke="#141414" stroke-miterlimit="10" stroke-width="0.3"/>
  <path id="Path_13323" data-name="Path 13323" d="M45.977,13.73v.808a.8.8,0,0,1-.808.808H35.5a.8.8,0,0,1-.808-.808V13.73H0v1.616a2.345,2.345,0,0,0,2.3,2.395H78.185a2.345,2.345,0,0,0,2.395-2.3V13.73Z" transform="translate(0 27.368)" fill="#0c0c0c"/>
  <path id="Path_13324" data-name="Path 13324" d="M61.28,35.471H6.473V3.233H61.28ZM62.089,0H5.635A2.376,2.376,0,0,0,3.24,2.365V36.279A2.376,2.376,0,0,0,5.6,38.674H62.089a2.376,2.376,0,0,0,2.395-2.365V2.425A2.4,2.4,0,0,0,62.089.03" transform="translate(6.458)" fill="#0c0c0c"/>
</svg>
