<svg xmlns="http://www.w3.org/2000/svg" width="162.917" height="91.249" viewBox="0 0 162.917 91.249">
  <g id="online-survey" transform="translate(-106.394 -154.139)">
    <path id="Path_13315" data-name="Path 13315" d="M317.38,209.307a1.676,1.676,0,0,0,1.688,1.688h33.117a1.688,1.688,0,1,0,0-3.37H319.068a1.707,1.707,0,0,0-1.688,1.682Z" transform="translate(-140.389 -35.587)"/>
    <path id="Path_13316" data-name="Path 13316" d="M283.714,194.709c-.139.236-.327.514-.466.75a21.151,21.151,0,0,0-1.21,1.876c-.514.75-.986,1.5-1.5,2.251-.423.654-.889,1.313-1.313,2.015a8.743,8.743,0,0,1-.75,1.077,1.355,1.355,0,0,1-1.5.514,1.959,1.959,0,0,1-.605-.466c0-.048-.048-.048-.048-.1s-.1-.139-.139-.236a1.145,1.145,0,0,0-.236-.327l-.278-.424c-.1-.139-.236-.327-.327-.466a4.063,4.063,0,0,0-.327-.466c-.1-.139-.236-.327-.327-.466l-.278-.424a1.462,1.462,0,0,0-.236-.327c-.048-.1-.139-.188-.188-.278a.048.048,0,0,0-.048-.048.669.669,0,0,1-.1-.278.655.655,0,0,1,.139-.423.6.6,0,0,1,.375-.188.635.635,0,0,1,.466.139l2.53,2.106c.188-.188.327-.424.514-.605.424-.466.841-.986,1.313-1.452.514-.605,1.077-1.21,1.591-1.815s.938-1.077,1.452-1.64a8.331,8.331,0,0,1,.889-.938.526.526,0,0,1,.75.1c-.139-.188.188.139-.139.563Z" transform="translate(-111.406 -26.471)"/>
    <path id="Path_13317" data-name="Path 13317" d="M274.4,196.519h0a.968.968,0,0,0-.139.7,5.134,5.134,0,0,1,.1.8,5.506,5.506,0,1,1-10.892-.75,5.446,5.446,0,0,1,7.824-3.933.793.793,0,0,0,.986-.188.847.847,0,0,0-.236-1.313,7.079,7.079,0,0,0-4.635-.605,7.227,7.227,0,0,0,2.717,14.2,7.309,7.309,0,0,0,5.9-6.275,7.4,7.4,0,0,0-.1-2.293.823.823,0,0,0-1.5-.327Z" transform="translate(-103.271 -24.578)"/>
    <path id="Path_13318" data-name="Path 13318" d="M317.38,270.627a1.676,1.676,0,0,0,1.688,1.688h33.117a1.688,1.688,0,1,0,0-3.37H319.068a1.652,1.652,0,0,0-1.688,1.682Z" transform="translate(-140.389 -76.388)"/>
    <path id="Path_13319" data-name="Path 13319" d="M317.38,331.947a1.676,1.676,0,0,0,1.688,1.688h33.117a1.688,1.688,0,1,0,0-3.37H319.068a1.651,1.651,0,0,0-1.688,1.682Z" transform="translate(-140.389 -117.196)"/>
    <path id="Path_13320" data-name="Path 13320" d="M283.714,256.026c-.139.236-.327.514-.466.75a21.149,21.149,0,0,0-1.21,1.876c-.514.75-.986,1.5-1.5,2.251-.423.654-.889,1.313-1.313,2.015a8.728,8.728,0,0,1-.75,1.077,1.356,1.356,0,0,1-1.5.514,1.956,1.956,0,0,1-.6-.466c0-.049-.048-.049-.048-.1s-.1-.139-.139-.236a1.145,1.145,0,0,0-.236-.327l-.278-.424c-.1-.139-.236-.327-.327-.466a4.027,4.027,0,0,0-.327-.466c-.1-.139-.236-.327-.327-.466l-.278-.424a1.459,1.459,0,0,0-.236-.326c-.048-.1-.139-.188-.188-.278a.048.048,0,0,0-.048-.048.663.663,0,0,1-.1-.278.653.653,0,0,1,.139-.424.6.6,0,0,1,.375-.188.635.635,0,0,1,.466.139l2.53,2.105c.188-.188.327-.424.514-.605.424-.466.841-.986,1.313-1.452.514-.605,1.077-1.21,1.591-1.815s.938-1.077,1.452-1.64a8.384,8.384,0,0,1,.889-.938.527.527,0,0,1,.751.1c-.139-.188.187.139-.139.563Z" transform="translate(-111.407 -67.282)"/>
    <path id="Path_13321" data-name="Path 13321" d="M274.4,257.84a.968.968,0,0,0-.139.7,5.136,5.136,0,0,1,.1.8,5.506,5.506,0,1,1-10.892-.75,5.446,5.446,0,0,1,7.824-3.933.793.793,0,0,0,.986-.188.847.847,0,0,0-.236-1.313,7.079,7.079,0,0,0-4.635-.605,7.227,7.227,0,0,0,2.717,14.2,7.31,7.31,0,0,0,5.9-6.275,7.4,7.4,0,0,0-.1-2.293.8.8,0,0,0-1.5-.327Z" transform="translate(-103.271 -65.381)"/>
    <path id="Path_13322" data-name="Path 13322" d="M276.5,321.566c0-.236.048-.514.048-.75v-.327a5.139,5.139,0,0,0-.1-.841v-.139a7.327,7.327,0,0,0-3.794-4.968l-.049-.048c-.048-.048-.1-.048-.188-.1a.164.164,0,0,1-.1-.048l-.7-.278h-.048a4.269,4.269,0,0,0-.75-.188.175.175,0,0,1-.139-.048,3.646,3.646,0,0,0-.7-.1h-1.125c-.188,0-.424.048-.605.048h-.327l-.466.139-.563.139c-.139.048-.278.139-.424.188a4.409,4.409,0,0,0-1.029.563,2.787,2.787,0,0,0-.466.327l-.278.278a5.647,5.647,0,0,0-.562.514c-.1.1-.139.188-.236.278a3.017,3.017,0,0,0-.466.605c-.048.1-.139.188-.188.278a4.637,4.637,0,0,0-.375.654c-.048.139-.1.236-.139.375a5.538,5.538,0,0,0-.236.654l-.188.938v.188a.177.177,0,0,1-.048.139v.236c0,.236-.048.514-.048.75v.357a5.187,5.187,0,0,0,.1.841v.139a7.328,7.328,0,0,0,3.794,4.968l.048.048c.048.048.1.048.188.1a.162.162,0,0,1,.1.048l.7.278h.048a4.237,4.237,0,0,0,.75.188.169.169,0,0,1,.139.048,3.624,3.624,0,0,0,.654.1h1.125c.188,0,.424-.048.605-.048h.327l.466-.139.563-.139c.139-.048.278-.139.424-.188a4.426,4.426,0,0,0,1.029-.563,2.767,2.767,0,0,0,.466-.327l.278-.278a5.829,5.829,0,0,0,.563-.514c.1-.1.139-.187.236-.278a3.017,3.017,0,0,0,.466-.605c.048-.1.139-.188.188-.278a4.64,4.64,0,0,0,.375-.653c.048-.14.1-.236.139-.375a3.624,3.624,0,0,0,.236-.654l.187-.938v-.187a.169.169,0,0,1,.048-.139.508.508,0,0,0,.049-.236Zm-12.6-1.64c.048-.278.139-.514.188-.8,0-.048,0-.048.048-.1.1-.188.139-.375.236-.563.048-.048.048-.1.1-.187.1-.188.236-.375.327-.563a.651.651,0,0,0,.139-.187,2.475,2.475,0,0,1,.466-.514,5.324,5.324,0,0,1,2.808-1.5,4.787,4.787,0,0,1,1.815-.048h.1a4.527,4.527,0,0,1,.75.188c.048,0,.048,0,.1.048a5.694,5.694,0,0,1,.8.327,5.446,5.446,0,0,1,2.953,5.948c-.048.278-.139.514-.188.793,0,.048,0,.048-.048.1-.1.188-.139.375-.236.563-.048.048-.048.1-.1.188-.1.188-.236.375-.327.563a.652.652,0,0,0-.139.188,2.465,2.465,0,0,1-.466.514,5.319,5.319,0,0,1-2.808,1.5,4.776,4.776,0,0,1-1.815.048h-.1a4.505,4.505,0,0,1-.75-.187c-.049,0-.049,0-.1-.049a3.616,3.616,0,0,1-.75-.326,5.446,5.446,0,0,1-2.977-5.942Z" transform="translate(-103.681 -106.203)"/>
    <path id="Path_13323" data-name="Path 13323" d="M199.331,402.5v1.64a1.658,1.658,0,0,1-1.64,1.639H178.159a1.658,1.658,0,0,1-1.64-1.64V402.5H106.395v3.279a4.768,4.768,0,0,0,4.871,4.871H264.439a4.768,4.768,0,0,0,4.871-4.871V402.5Z" transform="translate(0 -165.264)"/>
    <path id="Path_13324" data-name="Path 13324" d="M282.259,225.855H171.46v-65.2H282.289Zm1.64-71.715H169.79a4.841,4.841,0,0,0-4.871,4.871v68.436a4.841,4.841,0,0,0,4.871,4.871H283.9a4.841,4.841,0,0,0,4.871-4.871V159.01a4.9,4.9,0,0,0-4.871-4.871" transform="translate(-38.943 0)"/>
  </g>
</svg>
