<svg xmlns="http://www.w3.org/2000/svg" width="41" height="41" viewBox="0 0 41 41">
  <g id="online_survey" transform="translate(-91.89 -54.881)">
    <path id="Path_7" data-name="Path 7" d="M389.753,527.326a.466.466,0,0,0,0-.929H386.4v.929Z" transform="translate(-271.179 -431.945)" stroke="#000" stroke-width="1"/>
    <path id="Path_8" data-name="Path 8" d="M265.2,526.4a.466.466,0,0,0,0,.929h3.356V526.4Z" transform="translate(-158.995 -431.948)" stroke="#000" stroke-width="1"/>
    <path id="Path_9" data-name="Path 9" d="M318.818,526.863h-4.783V526.4H313.6v.929h5.652V526.4h-.435Z" transform="translate(-204.036 -431.947)" stroke="#000" stroke-width="1"/>
    <path id="Path_10" data-name="Path 10" d="M319.633,526.4H319.2v.465h4.783V526.4Z" transform="translate(-209.199 -431.948)" stroke="#000" stroke-width="1"/>
    <path id="Path_11" data-name="Path 11" d="M122.373,62.214V55.381H102.408v6.828H92.39V88.915h17.174v5.537h.87V88.919h3.913v5.532h.87V88.919H132.39V62.214ZM131.52,87.99H93.26V86.6H131.52ZM93.26,85.667v-20.2h9.148V83.54a.436.436,0,1,0,.87,0V56.31H121.5V83.535a.436.436,0,1,0,.87,0V65.465h9.148v20.2Zm0-22.524h9.148v1.394H93.26Zm38.261,1.394h-9.148V63.143h9.148Z" stroke="#000" stroke-width="1"/>
    <path id="Path_12" data-name="Path 12" d="M264.87,82.32,261.744,88.1H268Zm-1.483,4.6,1.478-2.741,1.478,2.741.139.26h-3.234Z" transform="translate(-156.205 -24.704)" stroke="#000" stroke-width="1"/>
    <path id="Path_13" data-name="Path 13" d="M272.411,195.83a2.668,2.668,0,1,0,2.491,2.662A2.584,2.584,0,0,0,272.411,195.83Zm0,4.394a1.736,1.736,0,1,1,1.622-1.733A1.683,1.683,0,0,1,272.411,200.224Z" transform="translate(-163.747 -128.799)" stroke="#000" stroke-width="1"/>
    <path id="Path_14" data-name="Path 14" d="M269.92,309.118H274.9V303.8H269.92Zm.869-4.39h3.239v3.461h-3.239Z" transform="translate(-163.747 -227.812)" stroke="#000" stroke-width="1"/>
    <path id="Path_15" data-name="Path 15" d="M363.073,125.61h-5.639a.466.466,0,0,0,0,.929h5.639a.466.466,0,0,0,0-.929Z" transform="translate(-244.065 -63.404)" stroke="#000" stroke-width="1"/>
    <path id="Path_16" data-name="Path 16" d="M363.073,103.21h-5.639a.466.466,0,0,0,0,.929h5.639a.466.466,0,0,0,0-.929Z" transform="translate(-244.065 -44.862)" stroke="#000" stroke-width="1"/>
    <path id="Path_17" data-name="Path 17" d="M363.073,233.52h-5.639a.466.466,0,0,0,0,.929h5.639a.466.466,0,0,0,0-.929Z" transform="translate(-244.065 -162.363)" stroke="#000" stroke-width="1"/>
    <path id="Path_18" data-name="Path 18" d="M363.073,211.12h-5.639a.466.466,0,0,0,0,.929h5.639a.466.466,0,0,0,0-.929Z" transform="translate(-244.065 -143.821)" stroke="#000" stroke-width="1"/>
    <path id="Path_19" data-name="Path 19" d="M363.073,341.43h-5.639a.466.466,0,0,0,0,.929h5.639a.466.466,0,0,0,0-.929Z" transform="translate(-244.065 -261.321)" stroke="#000" stroke-width="1"/>
    <path id="Path_20" data-name="Path 20" d="M363.073,319.03h-5.639a.466.466,0,0,0,0,.929h5.639a.466.466,0,0,0,0-.929Z" transform="translate(-244.065 -242.779)" stroke="#000" stroke-width="1"/>
  </g>
</svg>
