<svg xmlns="http://www.w3.org/2000/svg" width="88.896" height="49.79" viewBox="0 0 88.896 49.79">
  <g id="online-survey" transform="translate(-106.394 -154.139)">
    <path id="Path_13196" data-name="Path 13196" d="M317.38,208.541a.916.916,0,0,0,.92.92h18.071a.92.92,0,0,0,0-1.84H318.3A.932.932,0,0,0,317.38,208.541Z" transform="translate(-172.466 -43.718)"/>
    <path id="Path_13197" data-name="Path 13197" d="M279.231,194.378c-.077.128-.179.281-.255.409-.23.332-.46.665-.665,1.023-.281.409-.537.818-.818,1.227-.23.358-.486.716-.716,1.1a4.789,4.789,0,0,1-.409.588.74.74,0,0,1-.818.281,1.068,1.068,0,0,1-.332-.255c0-.026-.026-.026-.026-.051-.026-.051-.051-.077-.077-.128-.051-.051-.077-.128-.128-.179l-.153-.23c-.051-.077-.128-.179-.179-.255a2.2,2.2,0,0,0-.179-.255c-.051-.077-.128-.179-.179-.255l-.153-.23a.8.8,0,0,0-.128-.179c-.026-.051-.077-.1-.1-.153a.025.025,0,0,0-.026-.026.362.362,0,0,1-.051-.153.357.357,0,0,1,.077-.23.315.315,0,0,1,.2-.1.347.347,0,0,1,.255.077l1.38,1.15c.1-.1.179-.23.281-.332.23-.255.46-.537.716-.792.281-.332.588-.665.869-1,.255-.307.511-.588.792-.894a4.573,4.573,0,0,1,.486-.511.287.287,0,0,1,.409.051c-.076-.1.1.076-.076.307Z" transform="translate(-136.873 -32.545)"/>
    <path id="Path_13198" data-name="Path 13198" d="M268.544,194.048h0a.528.528,0,0,0-.077.384,2.834,2.834,0,0,1,.051.434,3.006,3.006,0,1,1-5.956-.409,2.983,2.983,0,0,1,4.268-2.147.431.431,0,0,0,.537-.1.463.463,0,0,0-.128-.716,3.863,3.863,0,0,0-2.53-.332,3.943,3.943,0,0,0,1.483,7.745,3.99,3.99,0,0,0,3.221-3.425,4.038,4.038,0,0,0-.051-1.252.449.449,0,0,0-.818-.178Z" transform="translate(-126.826 -30.197)"/>
    <path id="Path_13199" data-name="Path 13199" d="M317.38,269.861a.916.916,0,0,0,.92.92h18.071a.92.92,0,0,0,0-1.84H318.3A.9.9,0,0,0,317.38,269.861Z" transform="translate(-172.466 -93.843)"/>
    <path id="Path_13200" data-name="Path 13200" d="M317.38,331.181a.916.916,0,0,0,.92.92h18.071a.92.92,0,0,0,0-1.84H318.3A.9.9,0,0,0,317.38,331.181Z" transform="translate(-172.466 -143.968)"/>
    <path id="Path_13201" data-name="Path 13201" d="M279.231,255.7c-.077.128-.179.281-.255.409-.23.332-.46.665-.665,1.023-.281.409-.537.818-.818,1.227-.23.358-.486.716-.716,1.1a4.788,4.788,0,0,1-.409.588.74.74,0,0,1-.818.281,1.067,1.067,0,0,1-.332-.255c0-.026-.026-.026-.026-.051-.026-.051-.051-.077-.077-.128-.051-.051-.077-.128-.128-.179l-.153-.23c-.051-.077-.128-.179-.179-.255a2.2,2.2,0,0,0-.179-.255c-.051-.077-.128-.179-.179-.255l-.153-.23a.8.8,0,0,0-.128-.179c-.026-.051-.077-.1-.1-.153a.025.025,0,0,0-.026-.026.362.362,0,0,1-.051-.153.356.356,0,0,1,.077-.23.314.314,0,0,1,.2-.1.347.347,0,0,1,.255.077l1.38,1.15c.1-.1.179-.23.281-.332.23-.255.46-.537.716-.792.281-.332.588-.665.869-1,.255-.307.511-.588.792-.894a4.571,4.571,0,0,1,.486-.511.287.287,0,0,1,.409.051c-.076-.1.1.076-.076.307Z" transform="translate(-136.873 -82.67)"/>
    <path id="Path_13202" data-name="Path 13202" d="M268.544,255.368a.528.528,0,0,0-.077.384,2.835,2.835,0,0,1,.051.434,3.006,3.006,0,1,1-5.956-.409,2.983,2.983,0,0,1,4.268-2.147.431.431,0,0,0,.537-.1.463.463,0,0,0-.128-.716,3.863,3.863,0,0,0-2.53-.332,3.943,3.943,0,0,0,1.483,7.745,3.99,3.99,0,0,0,3.221-3.425,4.038,4.038,0,0,0-.051-1.252.44.44,0,0,0-.818-.178Z" transform="translate(-126.826 -80.322)"/>
    <path id="Path_13203" data-name="Path 13203" d="M270.013,318.006c0-.128.026-.281.026-.409v-.179a2.8,2.8,0,0,0-.051-.46v-.077a4,4,0,0,0-2.07-2.709l-.026-.026c-.026-.026-.051-.026-.1-.051a.09.09,0,0,1-.051-.026l-.384-.153h-.026a2.319,2.319,0,0,0-.409-.1.094.094,0,0,1-.077-.026,1.961,1.961,0,0,0-.384-.051h-.613c-.1,0-.23.026-.332.026h-.179c-.077.026-.179.051-.255.077l-.307.077c-.077.026-.153.077-.23.1a2.4,2.4,0,0,0-.562.307,1.513,1.513,0,0,0-.255.179l-.153.153a3.133,3.133,0,0,0-.307.281c-.051.051-.077.1-.128.153a1.632,1.632,0,0,0-.255.332c-.026.051-.077.1-.1.153a2.545,2.545,0,0,0-.2.358c-.026.077-.051.128-.077.2a3.055,3.055,0,0,0-.128.358.908.908,0,0,0-.051.255.908.908,0,0,0-.051.255v.1a.094.094,0,0,1-.026.077v.128c0,.128-.026.281-.026.409v.179a2.8,2.8,0,0,0,.051.46v.077a4,4,0,0,0,2.07,2.709l.026.026c.026.026.051.026.1.051a.09.09,0,0,1,.051.026l.384.153h.026a2.313,2.313,0,0,0,.409.1.094.094,0,0,1,.077.026,1.991,1.991,0,0,0,.358.051h.613c.1,0,.23-.026.332-.026h.179c.077-.026.179-.051.255-.077l.307-.077c.077-.026.153-.077.23-.1a2.4,2.4,0,0,0,.562-.307,1.514,1.514,0,0,0,.255-.179l.153-.153a3.134,3.134,0,0,0,.307-.281c.051-.051.077-.1.128-.153a1.633,1.633,0,0,0,.255-.332c.026-.051.077-.1.1-.153a2.55,2.55,0,0,0,.2-.358c.026-.077.051-.128.077-.2a2,2,0,0,0,.128-.358,3792.067,3792.067,0,0,1,.1-.511v-.1a.094.094,0,0,1,.026-.077A.276.276,0,0,0,270.013,318.006Zm-6.876-.9c.026-.153.077-.281.1-.434,0-.026,0-.026.026-.051.051-.1.077-.2.128-.307.026-.026.026-.051.051-.1.051-.1.128-.2.179-.307a.36.36,0,0,0,.077-.1,1.35,1.35,0,0,1,.255-.281,2.9,2.9,0,0,1,1.533-.818,2.607,2.607,0,0,1,1-.026h.051a2.445,2.445,0,0,1,.409.1c.026,0,.026,0,.051.026a3.1,3.1,0,0,1,.434.179,2.983,2.983,0,0,1,1.61,3.246c-.026.153-.077.281-.1.434,0,.026,0,.026-.026.051-.051.1-.077.2-.128.307-.026.026-.026.051-.051.1-.051.1-.128.2-.179.307a.36.36,0,0,0-.077.1,1.35,1.35,0,0,1-.255.281,2.9,2.9,0,0,1-1.533.818,2.607,2.607,0,0,1-1,.026h-.051a2.445,2.445,0,0,1-.409-.1c-.026,0-.026,0-.051-.026a1.967,1.967,0,0,1-.409-.179A2.965,2.965,0,0,1,263.138,317.111Z" transform="translate(-127.374 -130.461)"/>
    <path id="Path_13204" data-name="Path 13204" d="M157.105,402.5v.894a.905.905,0,0,1-.894.894H145.553a.905.905,0,0,1-.894-.894V402.5H106.394v1.789a2.6,2.6,0,0,0,2.658,2.658h83.58a2.6,2.6,0,0,0,2.658-2.658V402.5Z" transform="translate(0 -203.018)"/>
    <path id="Path_13205" data-name="Path 13205" d="M228.946,193.271H168.472V157.692h60.474Zm.894-39.132H167.577a2.656,2.656,0,0,0-2.658,2.658v37.343a2.656,2.656,0,0,0,2.658,2.658h62.263a2.656,2.656,0,0,0,2.658-2.658V156.8a2.672,2.672,0,0,0-2.658-2.659" transform="translate(-47.84 0)"/>
  </g>
</svg>
