<svg xmlns="http://www.w3.org/2000/svg" width="30" height="24" viewBox="0 0 30 24">
  <g id="Group_3971" data-name="Group 3971" transform="translate(-1340 -83)">
    <g id="Group_3966" data-name="Group 3966" transform="translate(223 -227)">
      <g id="Rectangle_2253" data-name="Rectangle 2253" transform="translate(1117 310)" fill="none" stroke="#bebebe" class="clStroke" stroke-width="1">
        <rect width="30" height="24" rx="3" stroke="none"/>
        <rect x="0.5" y="0.5" width="29" height="23" rx="2.5" fill="none"/>
      </g>
    </g>
    <g id="_272705_pdf_icon" data-name="272705_pdf_icon" transform="translate(1347 88)">
      <path id="Path_13104" data-name="Path 13104" d="M15,14.326H0V0H15V14.326M1.441,12.885H13.557V1.442H1.441" fill="#bebebe" class="clFill" fill-rule="evenodd"/>
      <path id="Path_13105" data-name="Path 13105" d="M10.326,4.277c.21.091.163.23.094.881a13.527,13.527,0,0,1-.767,3.107A16.747,16.747,0,0,1,7.92,11.534,8.963,8.963,0,0,1,6.434,13.31a1.736,1.736,0,0,1-.832.446c-.174.03-.253,0-.3-.087a.612.612,0,0,1-.023-.409,1.274,1.274,0,0,1,.4-.643,5.2,5.2,0,0,1,1.33-.886,14.084,14.084,0,0,1,2.056-.767,14.628,14.628,0,0,1,1.6-.372,11.84,11.84,0,0,1,1.194-.168,6.644,6.644,0,0,1,1.092,0,6.761,6.761,0,0,1,1,.159,2.57,2.57,0,0,1,.775.3,1.307,1.307,0,0,1,.506.541.753.753,0,0,1,.016.614.658.658,0,0,1-.419.328,1.034,1.034,0,0,1-.633,0,3.035,3.035,0,0,1-.831-.446,7.775,7.775,0,0,1-1.028-.884A18.042,18.042,0,0,1,11,9.531,10.564,10.564,0,0,1,9.985,8.018,5.641,5.641,0,0,1,9.518,6.84,6.2,6.2,0,0,1,9.305,5.78a3.719,3.719,0,0,1,.015-.855A1.269,1.269,0,0,1,9.479,4.4a.548.548,0,0,1,.269-.2.629.629,0,0,1,.174-.036.32.32,0,0,1,.166,0A1.337,1.337,0,0,1,10.326,4.277Z" transform="translate(-2.629 -2.074)" fill="none" stroke="#bebebe" class="clFill" stroke-linejoin="round" stroke-miterlimit="10" stroke-width="0.7"/>
    </g>
  </g>
</svg>
