<?xml version="1.0" encoding="utf-8"?>
<!-- Generator: Adobe Illustrator 25.4.1, SVG Export Plug-In . SVG Version: 6.00 Build 0)  -->
<svg version="1.1" id="Layer_1" xmlns="http://www.w3.org/2000/svg" xmlns:xlink="http://www.w3.org/1999/xlink" x="0px" y="0px"
	 viewBox="0 0 30 24" style="enable-background:new 0 0 30 24;" xml:space="preserve">
<style type="text/css">
	.st0{fill-rule:evenodd;clip-rule:evenodd;fill:#BEBEBE;}
	.st1{fill:none;stroke:#BEBEBE;stroke-width:0.7;stroke-linejoin:round;stroke-miterlimit:10;}
</style>
<g id="Group_3971" transform="translate(-1340 -83)">
	<g id="_272705_pdf_icon" transform="translate(1347 88)">
		<path id="Path_13104" class="st0" d="M15,14.3H0V0h15V14.3 M1.4,12.9h12.1V1.4H1.4"/>
		<path id="Path_13105" class="st1" d="M7.7,2.2c0.2,0.1,0.2,0.2,0.1,0.9C7.7,4.1,7.4,5.2,7,6.2C6.6,7.3,6,8.4,5.3,9.5
			c-0.4,0.7-0.9,1.3-1.5,1.8c-0.2,0.2-0.5,0.4-0.8,0.4c-0.2,0-0.3,0-0.3-0.1c-0.1-0.1-0.1-0.3,0-0.4c0.1-0.2,0.2-0.5,0.4-0.6
			c0.4-0.4,0.8-0.7,1.3-0.9C5,9.3,5.7,9.1,6.4,8.9C7,8.7,7.5,8.6,8,8.5c0.4-0.1,0.8-0.1,1.2-0.2c0.4,0,0.7,0,1.1,0
			c0.3,0,0.7,0.1,1,0.2c0.3,0.1,0.5,0.2,0.8,0.3c0.2,0.1,0.4,0.3,0.5,0.5c0.1,0.2,0.1,0.4,0,0.6c-0.1,0.2-0.2,0.3-0.4,0.3
			c-0.2,0.1-0.4,0.1-0.6,0c-0.3-0.1-0.6-0.3-0.8-0.4C10.4,9.6,10,9.3,9.7,9C9.2,8.5,8.8,8,8.4,7.5C8,7,7.7,6.5,7.4,5.9
			C7.2,5.6,7,5.2,6.9,4.8C6.8,4.4,6.7,4.1,6.7,3.7c0-0.3,0-0.6,0-0.9c0-0.2,0.1-0.4,0.2-0.5C6.9,2.2,7,2.2,7.1,2.1
			c0.1,0,0.1,0,0.2,0c0.1,0,0.1,0,0.2,0C7.5,2.1,7.6,2.2,7.7,2.2z"/>
	</g>
</g>
</svg>
