<svg xmlns="http://www.w3.org/2000/svg" width="16" height="12" viewBox="0 0 25 25">
  <g id="Percentage" transform="translate(-99.436 -58.311)">
    <path id="Path_13196" data-name="Path 13196" d="M126.808,60.958a1.29,1.29,0,0,0,.924-.388,1.336,1.336,0,0,0,0-1.872,1.3,1.3,0,0,0-1.849,0,1.335,1.335,0,0,0,0,1.872,1.29,1.29,0,0,0,.924.388Zm-.575-1.906a.806.806,0,0,1,1.15,0,.831.831,0,0,1,0,1.164.806.806,0,0,1-1.15,0A.83.83,0,0,1,126.233,59.052Zm4.17,2.283a1.3,1.3,0,0,0-1.849,0,1.335,1.335,0,0,0,0,1.872,1.3,1.3,0,0,0,1.849,0,1.335,1.335,0,0,0,0-1.872Zm-.349,1.518a.806.806,0,0,1-1.15,0,.831.831,0,0,1,0-1.164.806.806,0,0,1,1.15,0,.83.83,0,0,1,0,1.164Zm.158-4.316-4.419,4.475.349.354,4.418-4.475Z" transform="translate(-26.064)" fill="#4b4b4b"/>
    <path id="Path_17751" data-name="Path 17751" d="M0,0H5.3V18H0Z" transform="translate(99.436 65.311)" fill="#4b4b4b"/>
    <path id="Path_13196-2" data-name="Path 13196" d="M126.808,60.958a1.29,1.29,0,0,0,.924-.388,1.336,1.336,0,0,0,0-1.872,1.3,1.3,0,0,0-1.849,0,1.335,1.335,0,0,0,0,1.872,1.29,1.29,0,0,0,.924.388Zm-.575-1.906a.806.806,0,0,1,1.15,0,.831.831,0,0,1,0,1.164.806.806,0,0,1-1.15,0A.83.83,0,0,1,126.233,59.052Zm4.17,2.283a1.3,1.3,0,0,0-1.849,0,1.335,1.335,0,0,0,0,1.872,1.3,1.3,0,0,0,1.849,0,1.335,1.335,0,0,0,0-1.872Zm-.349,1.518a.806.806,0,0,1-1.15,0,.831.831,0,0,1,0-1.164.806.806,0,0,1,1.15,0,.83.83,0,0,1,0,1.164Zm.158-4.316-4.419,4.475.349.354,4.418-4.475Z" transform="translate(-16.215 5)" fill="#4b4b4b"/>
    <path id="Path_17752" data-name="Path 17752" d="M0,0H5.3V13H0Z" transform="translate(109.285 70.311)" fill="#4b4b4b"/>
    <path id="Path_13196-3" data-name="Path 13196" d="M126.808,60.958a1.29,1.29,0,0,0,.924-.388,1.336,1.336,0,0,0,0-1.872,1.3,1.3,0,0,0-1.849,0,1.335,1.335,0,0,0,0,1.872,1.29,1.29,0,0,0,.924.388Zm-.575-1.906a.806.806,0,0,1,1.15,0,.831.831,0,0,1,0,1.164.806.806,0,0,1-1.15,0A.83.83,0,0,1,126.233,59.052Zm4.17,2.283a1.3,1.3,0,0,0-1.849,0,1.335,1.335,0,0,0,0,1.872,1.3,1.3,0,0,0,1.849,0,1.335,1.335,0,0,0,0-1.872Zm-.349,1.518a.806.806,0,0,1-1.15,0,.831.831,0,0,1,0-1.164.806.806,0,0,1,1.15,0,.83.83,0,0,1,0,1.164Zm.158-4.316-4.419,4.475.349.354,4.418-4.475Z" transform="translate(-6.364 11)" fill="#4b4b4b"/>
    <path id="Path_17753" data-name="Path 17753" d="M0,0H5.3V7H0Z" transform="translate(119.136 76.311)" fill="#4b4b4b"/>
  </g>
</svg>
