<svg xmlns="http://www.w3.org/2000/svg" width="16" height="12" viewBox="0 0 25 25">
  <g id="Percentage" transform="translate(-99.435 -58.31)">
    <path id="Path_13196" data-name="Path 13196" d="M131.684,70.834A6.1,6.1,0,0,0,136.056,69a6.317,6.317,0,0,0,0-8.855,6.127,6.127,0,0,0-8.744,0,6.316,6.316,0,0,0,0,8.855A6.1,6.1,0,0,0,131.684,70.834Zm-2.719-9.016a3.811,3.811,0,0,1,5.438,0,3.93,3.93,0,0,1,0,5.507,3.811,3.811,0,0,1-5.438,0,3.928,3.928,0,0,1,0-5.507Zm19.723,10.8a6.128,6.128,0,0,0-8.745,0,6.317,6.317,0,0,0,0,8.855,6.128,6.128,0,0,0,8.745,0,6.316,6.316,0,0,0,0-8.855ZM147.035,79.8a3.811,3.811,0,0,1-5.438,0,3.929,3.929,0,0,1,0-5.507,3.812,3.812,0,0,1,5.438,0,3.928,3.928,0,0,1,0,5.507Zm.746-20.413-20.9,21.168,1.653,1.674,20.9-21.168Z" transform="translate(-26.065 0)" fill="#bebebe"/>
  </g>
</svg>
