<svg xmlns="http://www.w3.org/2000/svg" width="16" height="15" viewBox="0 0 16 15">
  <path id="Icon_awesome-chart-pie" data-name="Icon awesome-chart-pie" d="M15.523,8.438H8.544l4.648,4.63a.473.473,0,0,0,.653.02A7.008,7.008,0,0,0,16,8.961a.47.47,0,0,0-.472-.523Zm-.466-1.9A7.062,7.062,0,0,0,8.494,0,.472.472,0,0,0,8,.476V7.031h6.581a.472.472,0,0,0,.476-.492Zm-8.469,1.9V1.486a.471.471,0,0,0-.525-.471A7.034,7.034,0,0,0,0,8.214,7.134,7.134,0,0,0,7.148,15a7.022,7.022,0,0,0,3.978-1.29A.464.464,0,0,0,11.172,13Z" transform="translate(0 0)" fill="#bebebe"/>
</svg>
