<svg xmlns="http://www.w3.org/2000/svg" width="164" height="159.853" viewBox="0 0 164 159.853">
  <g id="population" transform="translate(-371 -633.075)">
    <path id="Path_1" data-name="Path 1" d="M198.949,151.46a6.623,6.623,0,1,1-6.638,6.623A6.633,6.633,0,0,1,198.949,151.46Zm9.293,15.9q7.966,0,7.966,7.948V196.5c0,5.3-5.311,5.3-5.311,0V177.952c0-2.649-2.655-2.649-2.655,0v42.387c0,5.3-7.966,5.3-7.966,0V196.5c0-2.649-2.655-2.649-2.655,0v23.842c0,5.3-7.966,5.3-7.966,0V177.952c0-2.649-2.655-2.649-2.655,0V196.5c0,5.3-5.311,5.3-5.311,0V175.3q0-7.948,7.966-7.948Zm-51.776-15.9a6.623,6.623,0,1,1-6.638,6.623A6.633,6.633,0,0,1,156.467,151.46Zm9.293,15.9q7.966,0,7.966,7.948V196.5c0,5.3-5.311,5.3-5.311,0V177.952c0-2.649-2.655-2.649-2.655,0v42.387c0,5.3-7.966,5.3-7.966,0V196.5c0-2.649-2.655-2.649-2.655,0v23.842c0,5.3-7.966,5.3-7.966,0V177.952c0-2.649-2.655-2.649-2.655,0V196.5c0,5.3-5.311,5.3-5.311,0V175.3q0-7.948,7.966-7.948Z" transform="translate(231.792 481.615)"/>
    <path id="Path_7" data-name="Path 7" d="M198.949,151.46a6.623,6.623,0,1,1-6.638,6.623A6.633,6.633,0,0,1,198.949,151.46Zm9.293,15.9q7.966,0,7.966,7.948V196.5c0,5.3-5.311,5.3-5.311,0V177.952c0-2.649-2.655-2.649-2.655,0v42.387c0,5.3-7.966,5.3-7.966,0V196.5c0-2.649-2.655-2.649-2.655,0v23.842c0,5.3-7.966,5.3-7.966,0V177.952c0-2.649-2.655-2.649-2.655,0V196.5c0,5.3-5.311,5.3-5.311,0V175.3q0-7.948,7.966-7.948Zm-51.776-15.9a6.623,6.623,0,1,1-6.638,6.623A6.633,6.633,0,0,1,156.467,151.46Zm9.293,15.9q7.966,0,7.966,7.948V196.5c0,5.3-5.311,5.3-5.311,0V177.952c0-2.649-2.655-2.649-2.655,0v42.387c0,5.3-7.966,5.3-7.966,0V196.5c0-2.649-2.655-2.649-2.655,0v23.842c0,5.3-7.966,5.3-7.966,0V177.952c0-2.649-2.655-2.649-2.655,0V196.5c0,5.3-5.311,5.3-5.311,0V175.3q0-7.948,7.966-7.948Z" transform="translate(231.792 568.615)"/>
    <path id="Path_3" data-name="Path 3" d="M198.949,151.46a6.623,6.623,0,1,1-6.638,6.623A6.633,6.633,0,0,1,198.949,151.46Zm9.293,15.9q7.966,0,7.966,7.948V196.5c0,5.3-5.311,5.3-5.311,0V177.952c0-2.649-2.655-2.649-2.655,0v42.387c0,5.3-7.966,5.3-7.966,0V196.5c0-2.649-2.655-2.649-2.655,0v23.842c0,5.3-7.966,5.3-7.966,0V177.952c0-2.649-2.655-2.649-2.655,0V196.5c0,5.3-5.311,5.3-5.311,0V175.3q0-7.948,7.966-7.948Zm-51.776-15.9a6.623,6.623,0,1,1-6.638,6.623A6.633,6.633,0,0,1,156.467,151.46Zm9.293,15.9q7.966,0,7.966,7.948V196.5c0,5.3-5.311,5.3-5.311,0V177.952c0-2.649-2.655-2.649-2.655,0v42.387c0,5.3-7.966,5.3-7.966,0V196.5c0-2.649-2.655-2.649-2.655,0v23.842c0,5.3-7.966,5.3-7.966,0V177.952c0-2.649-2.655-2.649-2.655,0V196.5c0,5.3-5.311,5.3-5.311,0V175.3q0-7.948,7.966-7.948Z" transform="translate(318.792 481.615)"/>
    <path id="Path_5" data-name="Path 5" d="M198.949,151.46a6.623,6.623,0,1,1-6.638,6.623A6.633,6.633,0,0,1,198.949,151.46Zm9.293,15.9q7.966,0,7.966,7.948V196.5c0,5.3-5.311,5.3-5.311,0V177.952c0-2.649-2.655-2.649-2.655,0v42.387c0,5.3-7.966,5.3-7.966,0V196.5c0-2.649-2.655-2.649-2.655,0v23.842c0,5.3-7.966,5.3-7.966,0V177.952c0-2.649-2.655-2.649-2.655,0V196.5c0,5.3-5.311,5.3-5.311,0V175.3q0-7.948,7.966-7.948Zm-51.776-15.9a6.623,6.623,0,1,1-6.638,6.623A6.633,6.633,0,0,1,156.467,151.46Zm9.293,15.9q7.966,0,7.966,7.948V196.5c0,5.3-5.311,5.3-5.311,0V177.952c0-2.649-2.655-2.649-2.655,0v42.387c0,5.3-7.966,5.3-7.966,0V196.5c0-2.649-2.655-2.649-2.655,0v23.842c0,5.3-7.966,5.3-7.966,0V177.952c0-2.649-2.655-2.649-2.655,0V196.5c0,5.3-5.311,5.3-5.311,0V175.3q0-7.948,7.966-7.948Z" transform="translate(318.792 568.615)"/>
  </g>
</svg>
