<?xml version="1.0" encoding="utf-8"?>
<!-- Generator: Adobe Illustrator 25.4.1, SVG Export Plug-In . SVG Version: 6.00 Build 0)  -->
<svg version="1.1" id="Layer_1" xmlns="http://www.w3.org/2000/svg" xmlns:xlink="http://www.w3.org/1999/xlink" x="0px" y="0px"
	 viewBox="0 0 30 24" style="enable-background:new 0 0 30 24;" xml:space="preserve">
<style type="text/css">
	.st0{fill:#BEBEBE;}
</style>
<g id="Group_3972" transform="translate(-1380 -83)">
	<g id="_x32_65-powerpoint" transform="translate(1359.999 47.219)">
		<g id="Group_3969" transform="translate(26.001 39.781)">
			<g id="Group_3968">
				<path id="Path_13106" class="st0" d="M5.5,6.6H4.4v2.2h1.1c0.6,0,1.1-0.5,1.1-1.1C6.6,7.1,6.1,6.6,5.5,6.6z"/>
				<path id="Path_13107" class="st0" d="M17,2.2H9.9V0.6c0-0.2-0.1-0.3-0.2-0.4C9.6,0,9.4,0,9.2,0L0.4,1.7C0.2,1.7,0,1.9,0,2.2
					v12.1c0,0.3,0.2,0.5,0.4,0.5l8.8,1.7c0,0,0.1,0,0.1,0c0.3,0,0.5-0.2,0.5-0.6l0,0v-1.7H17c0.3,0,0.5-0.2,0.5-0.6l0,0v-11
					C17.6,2.5,17.3,2.2,17,2.2z M5.5,9.9H4.4v1.7c0,0.3-0.2,0.5-0.6,0.5c-0.3,0-0.5-0.2-0.5-0.5V6.1c0-0.3,0.2-0.6,0.5-0.6l0,0h1.6
					c1.2,0,2.2,1,2.2,2.2S6.7,9.9,5.5,9.9L5.5,9.9z M9.9,5.5c0.5-0.7,1.3-1.1,2.2-1.1v2.7h2.7c0,1.5-1.2,2.7-2.7,2.8
					c-0.9,0-1.7-0.4-2.2-1.1L9.9,5.5z M14.8,12.1H9.9V11h4.9c0.3,0,0.5,0.3,0.5,0.6C15.3,11.9,15.1,12.1,14.8,12.1z M13.2,6.1V3.3
					c1.5,0,2.7,1.2,2.7,2.8c0,0,0,0,0,0L13.2,6.1z"/>
			</g>
		</g>
	</g>
</g>
</svg>
