<svg xmlns="http://www.w3.org/2000/svg" width="30" height="24" viewBox="0 0 30 24">
  <g id="Group_3972" data-name="Group 3972" transform="translate(-1380 -83)">
    <g id="Group_3967" data-name="Group 3967" transform="translate(262.83 -227)">
      <g id="Group_3970" data-name="Group 3970">
        <g id="Rectangle_2253" data-name="Rectangle 2253" transform="translate(1117.17 310)" fill="none" stroke="#bebebe"  class="clStroke"  stroke-width="1">
          <rect width="30" height="24" rx="3" stroke="none"/>
          <rect x="0.5" y="0.5" width="29" height="23" rx="2.5" fill="none"/>
        </g>
      </g>
    </g>
    <g id="_x32_65-powerpoint" transform="translate(1359.999 47.219)">
      <g id="Group_3969" data-name="Group 3969" transform="translate(26.001 39.781)">
        <g id="Group_3968" data-name="Group 3968">
          <path id="Path_13106" data-name="Path 13106" d="M142.1,212.771H141v2.2h1.1a1.1,1.1,0,0,0,0-2.2Z" transform="translate(-136.608 -206.163)" fill="#bebebe" class="clFill"/>
          <path id="Path_13107" data-name="Path 13107" d="M43.023,41.984H35.885V40.333a.55.55,0,0,0-.2-.424.538.538,0,0,0-.451-.117l-8.786,1.652a.549.549,0,0,0-.448.541V54.1a.55.55,0,0,0,.448.541l8.786,1.652a.524.524,0,0,0,.1.01.55.55,0,0,0,.549-.551V54.1h7.139a.55.55,0,0,0,.549-.551V42.535A.55.55,0,0,0,43.023,41.984ZM31.492,49.693h-1.1v1.652a.549.549,0,1,1-1.1,0V45.838a.55.55,0,0,1,.549-.551h1.647a2.2,2.2,0,0,1,0,4.4Zm4.393-4.4a2.739,2.739,0,0,1,2.2-1.1V46.94h2.746a2.744,2.744,0,0,1-4.942,1.652ZM40.827,51.9H35.885v-1.1h4.942a.551.551,0,0,1,0,1.1Zm-1.647-6.057V43.085a2.749,2.749,0,0,1,2.746,2.753Z" transform="translate(-26.001 -39.781)" fill="#bebebe" class="clFill"/>
        </g>
      </g>
    </g>
  </g>
</svg>
