<svg xmlns="http://www.w3.org/2000/svg" width="47.789" height="48" viewBox="0 0 47.789 48">
  <path id="hfs-logo-vector" d="M-91.853,196.179a5.992,5.992,0,0,1-4.232-1.663l1.2-1.663a4.921,4.921,0,0,0,3.032,1.368c.905,0,1.811-.463,1.811-1.516,0-2.126-5.747-1.832-5.747-5.621,0-1.979,1.663-3.495,4.084-3.495a5.233,5.233,0,0,1,3.621,1.221l-.905,1.811a4.612,4.612,0,0,0-2.716-1.053,1.609,1.609,0,0,0-1.811,1.516c0,2.126,5.747,1.663,5.747,5.621,0,1.811-1.516,3.474-4.084,3.474m-6.358-10.484h-4.842v3.495h4.084v1.832h-4.084v5.01h-2.274V183.737h7.116Zm-10.442,10.337h-2.274v-5.158h-5.6v5.158H-118.8V183.737h2.274v5.158h5.6v-5.158h2.274Zm5.747-30.232a23.9,23.9,0,0,0-23.895,24,23.994,23.994,0,0,0,23.895,24,23.9,23.9,0,0,0,23.895-24,23.807,23.807,0,0,0-23.895-24" transform="translate(126.8 -165.8)" fill="#f47c3c"/>
</svg>
