<svg xmlns="http://www.w3.org/2000/svg" xmlns:xlink="http://www.w3.org/1999/xlink" width="143.844" height="49" viewBox="0 0 143.844 49" class="public-form-screen__brand-logo"><defs><clipPath id="clip-path"><rect id="Rectangle_2254" data-name="Rectangle 2254" width="143.844" height="49" fill="none"></rect></clipPath></defs><g id="Raven_logo-white" transform="translate(0 0)"><g id="Group_3790" data-name="Group 3790" transform="translate(0 0)" clip-path="url(#clip-path)"><path id="Path_13072" data-name="Path 13072" d="M56.572,35.435S46.322,40.9,39.489,44.885c-5.229,3.051-13.757,8.6-13.757,8.6s-4.265,2.3-9.842-.984-8.2-6.89-9.187-7.546a5.383,5.383,0,0,0-3.018-.686.318.318,0,0,0-.125-.039c-.263-.017-.525-.02-.788-.026H2.766c-.24,0-.476-.01-.715-.026-.118-.007-.24-.017-.361-.017a.507.507,0,0,1,.026-.059c.026-.039.052-.082.079-.121a7.981,7.981,0,0,1,1.631-1.8c1.053-.856,2.266-2.3,3.6-2.414,2.4-.2,4.591,2.329,6.526,3.513,1.778,1.086,3.2,2.181,5.432,2.181a15.238,15.238,0,0,0,6.264-1.139c.711-.355,2.707-1.349,3.417-1.708,5.543-2.806,5.193-2.76,6.833-3.417a21.336,21.336,0,0,1,2.278-1.139l18.739-2.642a.176.176,0,0,1,.052.026" transform="translate(-0.728 -15.246)" fill="#fff"></path><path id="Path_13073" data-name="Path 13073" d="M1.981,49.306a5.793,5.793,0,0,1,1.246-.158c.044-.239.081-.478.124-.718-.011-.071-.022-.143-.035-.211a3.291,3.291,0,0,0-.154-.6.647.647,0,0,0-.267-.309c-.044-.027-.083-.042-.124-.062-.227.072-.453.15-.679.225a.278.278,0,0,0-.013.065.154.154,0,0,1-.091.145c-.027.013-.05.033-.076.047-.117.062-.234.12-.351.181a2.4,2.4,0,0,0-.235.134c-.171.116-.329.249-.494.372a.413.413,0,0,0-.034.028c-.124.109-.251.215-.371.327a3.365,3.365,0,0,0-.328.34.253.253,0,0,0-.076.191A.193.193,0,0,1,0,49.371a.053.053,0,0,0,0,.043.04.04,0,0,0,.05.013c.023-.011.044-.028.066-.042a.366.366,0,0,1,.166-.06,1.545,1.545,0,0,1,.224-.009,1.872,1.872,0,0,0,.212-.006c.06,0,.12-.007.18-.006s.142,0,.213,0h.3a.468.468,0,0,0,.089,0,.611.611,0,0,1,.179,0,.974.974,0,0,0,.191,0,.768.768,0,0,1,.1,0" transform="translate(0 -20.343)" fill="#fff"></path><path id="Path_13074" data-name="Path 13074" d="M53.544,17.132l.034,12.918-5.939,3.24V17.132Z" transform="translate(-20.511 -7.376)" fill="#f1ad0f"></path><path id="Path_13075" data-name="Path 13075" d="M70.7,20.4l-5.694.569L64.923,0h5.906Z" transform="translate(-27.953 0)" fill="#f1ad0f"></path><path id="Path_13076" data-name="Path 13076" d="M30.354,29.682l5.906-.428.2,11.141s-1.708,1.139-5.694.569Z" transform="translate(-13.069 -12.596)" fill="#f1ad0f"></path><g id="Group_3968" data-name="Group 3968" transform="translate(-5 2)"><path id="Path_13077" data-name="Path 13077" d="M11.767,81.985V87.33H10.142V74.422H13.6a14.879,14.879,0,0,1,1.489.062,7.354,7.354,0,0,1,1.121.2,4,4,0,0,1,2.13,1.25,3.32,3.32,0,0,1,.738,2.2,3.571,3.571,0,0,1-.26,1.4,3.169,3.169,0,0,1-.728,1.071,3.826,3.826,0,0,1-1.121.743,6.053,6.053,0,0,1-1.451.424v.039l3.949,5.519H17.841l-4.109-5.344Zm0-6.146v4.727h1.605q.749,0,1.277-.048a4.8,4.8,0,0,0,.948-.174,2.6,2.6,0,0,0,1.306-.8,2.167,2.167,0,0,0,.46-1.438,2.034,2.034,0,0,0-.44-1.336,2.379,2.379,0,0,0-1.187-.729,4.7,4.7,0,0,0-.857-.154q-.5-.048-1.267-.048Z" transform="translate(58.633 -56.766)" fill="#fff"></path><path id="Path_13078" data-name="Path 13078" d="M22.883,87.33l5.435-12.909h1.407L35.16,87.33H33.395L31.8,83.442H26.222L24.628,87.33Zm6.124-10.9q-.893,2.41-1.705,4.38l-.5,1.216h4.423l-.507-1.213Q29.9,78.8,29.047,76.428Z" transform="translate(60.036 -56.766)" fill="#fff"></path><path id="Path_13079" data-name="Path 13079" d="M42.488,85.324q.723-2.113,1.558-4.264l2.561-6.638h1.625L43.173,87.331h-1.42L36.694,74.422h1.625L40.88,81.06q.843,2.151,1.568,4.264Z" transform="translate(61.558 -56.766)" fill="#fff"></path><path id="Path_13080" data-name="Path 13080" d="M53.72,85.912h6.842v1.418H52.095V74.422h8.1V75.84H53.72v4.167h5.754v1.418H53.72Z" transform="translate(63.254 -56.766)" fill="#fff"></path><path id="Path_13081" data-name="Path 13081" d="M72.155,81.619q1.227,1.707,2.423,3.511h.06q-.13-1.882-.13-3.839v-6.87h1.635V87.331H74.518l-5.235-7.2q-1.357-1.882-2.423-3.511H66.8q.13,1.765.13,4.119v6.59H65.3V74.422h1.616Z" transform="translate(64.709 -56.766)" fill="#fff"></path></g><path id="Path_13082" data-name="Path 13082" d="M63.423,54.271c4.1-2.506,10.835-6.613,12.691-7.737L64.468,54.666Z" transform="translate(-27.307 -20.036)" fill="#f1ad0f"></path><path id="Path_13083" data-name="Path 13083" d="M67.986,50.685,63.941,53.51l-.36-.136,4.405-2.688m9.239-6.1a4.579,4.579,0,0,0-1.252.568c-.258.14-13.682,8.336-13.682,8.336l1.73.655L76.259,45.6s1.286-1.013.966-1.013" transform="translate(-26.82 -19.199)" fill="#f1ad0f"></path></g></g></svg>