<?xml version="1.0" encoding="UTF-8"?>
<svg id="a" data-name="Layer 1" xmlns="http://www.w3.org/2000/svg" width="15.03" height="11.11" xmlns:xlink="http://www.w3.org/1999/xlink" viewBox="0 0 15.03 11.11">
  <defs>
    <clipPath id="b">
      <rect width="15.03" height="11.11" style="fill: none;"/>
    </clipPath>
  </defs>
  <g style="clip-path: url(#b);">
    <g id="c" data-name="Group 4099">
      <path id="d" data-name="Path 13265" d="M10.45,3.5l1.53-1.21h2.21c.21,0,.38-.13,.38-.3s-.17-.3-.38-.3h-2.37c-.1,0-.2,.03-.27,.09l-1.41,1.11h0l-2.13,1.69c-.09,.45-.18,.87-.27,1.26l2.77-2.19c-.02-.06-.04-.11-.06-.16" style="fill: #bebebe;"/>
      <path id="e" data-name="Path 13266" d="M9.4,2.36h-.06s-.72-.01-1.17,1.53l1.68-1.33c-.25-.21-.45-.21-.45-.21" style="fill: #bebebe;"/>
      <path id="f" data-name="Path 13267" d="M10.73,4.51c-.03-.14-.06-.28-.09-.4l-3.08,2.44c-.14,.52-.29,.99-.43,1.39l3.7-2.93c-.03-.16-.07-.33-.09-.5" style="fill: #bebebe;"/>
      <path id="g" data-name="Path 13268" d="M12.3,2.73c-.21,0-.38,.13-.38,.3s.17,.3,.38,.3h1.27c.21,0,.38-.13,.38-.3s-.17-.3-.38-.3h-1.27Z" style="fill: #bebebe;"/>
      <path id="h" data-name="Path 13269" d="M11.53,7.68c-.09-.26-.18-.54-.26-.84l-3.25,2.57c.15,.22,.33,.43,.54,.62l2.98-2.35Z" style="fill: #bebebe;"/>
      <path id="i" data-name="Path 13270" d="M7.41,8.27c.12,.28,.24,.53,.37,.76l3.36-2.66c-.07-.28-.14-.57-.21-.88l-3.52,2.78Z" style="fill: #bebebe;"/>
      <path id="j" data-name="Path 13271" d="M14.65,10.51h-1.49c-.39-.36-.71-.77-.93-1.21l-1.53,1.21h-.71l2.04-1.61c-.11-.24-.22-.49-.33-.78l-2.77,2.19h0l-.25,.2h-.19c-.67-.54-1.17-1.2-1.46-1.93h0c-.08-.18-.15-.36-.22-.55-.02-.04-.03-.09-.05-.13-.07-.19-.14-.39-.2-.6-.37-1.18-1.15-1.19-1.21-1.19s-.86,0-1.22,1.19c-.06,.18-.11,.35-.17,.53-.02,.04-.03,.08-.05,.13-.05,.13-.1,.26-.15,.38-.01,.03-.03,.07-.04,.1-.06,.15-.13,.29-.2,.43-.28,.62-.73,1.19-1.32,1.66H.76V.3C.76,.13,.59,0,.38,0S0,.13,0,.3V10.81c0,.17,.17,.3,.38,.3H14.65c.21,0,.38-.13,.38-.3s-.17-.3-.38-.3h0Z" style="fill: #bebebe;"/>
    </g>
  </g>
</svg>