<?xml version="1.0" encoding="utf-8"?>
<svg version="1.1" id="Layer_1" xmlns="http://www.w3.org/2000/svg" xmlns:xlink="http://www.w3.org/1999/xlink" x="25px" y="25px"
	 viewBox="0 0 16 12" style="enable-background:new 0 0 16 12;" xml:space="preserve">

	<g id="Group_4099" fill="#BEBEBE">
		<path id="Path_13265" class="st1" d="M11,3.9l1.5-1.2h2.2c0.2,0,0.4-0.1,0.4-0.3c0-0.2-0.2-0.3-0.4-0.3h-2.4c-0.1,0-0.2,0-0.3,0.1
			l-1.4,1.1l0,0L8.6,5C8.5,5.4,8.4,5.8,8.3,6.2L11.1,4C11.1,4,11,3.9,11,3.9"/>
		<path id="Path_13266" class="st1" d="M10,2.7L10,2.7L10,2.7c-0.1,0-0.8,0-1.2,1.5l1.7-1.3C10.2,2.7,10,2.7,10,2.7"/>
		<path id="Path_13267" class="st1" d="M11.3,4.9c0-0.1-0.1-0.3-0.1-0.4L8.1,6.9C8,7.4,7.8,7.9,7.7,8.3l3.7-2.9
			C11.4,5.2,11.3,5.1,11.3,4.9"/>
		<path id="Path_13268" class="st1" d="M12.9,3.1c-0.2,0-0.4,0.1-0.4,0.3s0.2,0.3,0.4,0.3l0,0h1.3c0.2,0,0.4-0.1,0.4-0.3
			s-0.2-0.3-0.4-0.3H12.9z"/>
		<path id="Path_13269" class="st1" d="M12.1,8.1c-0.1-0.3-0.2-0.5-0.3-0.8L8.6,9.8c0.1,0.2,0.3,0.4,0.5,0.6L12.1,8.1z"/>
		<path id="Path_13270" class="st1" d="M8,8.6c0.1,0.3,0.2,0.5,0.4,0.8l3.4-2.7c-0.1-0.3-0.1-0.6-0.2-0.9L8,8.6z"/>
		<path id="Path_13271" class="st1" d="M15.2,10.9h-1.5c-0.4-0.4-0.7-0.8-0.9-1.2l-1.5,1.2h-0.7l2-1.6c-0.1-0.2-0.2-0.5-0.3-0.8
			l-2.8,2.2l0,0l-0.3,0.2H9.1C8.4,10.3,7.9,9.7,7.6,9c0,0,0,0,0,0C7.5,8.8,7.4,8.6,7.4,8.4c0,0,0-0.1,0-0.1C7.3,8.1,7.2,7.9,7.1,7.7
			C6.7,6.5,6,6.5,5.9,6.5c-0.1,0-0.9,0-1.2,1.2C4.6,7.9,4.6,8,4.5,8.2c0,0,0,0.1,0,0.1c0,0.1-0.1,0.3-0.1,0.4c0,0,0,0.1,0,0.1
			C4.2,9,4.1,9.1,4.1,9.2c-0.3,0.6-0.7,1.2-1.3,1.7H1.3V0.7c0-0.2-0.2-0.3-0.4-0.3c-0.2,0-0.4,0.1-0.4,0.3v10.5
			c0,0.2,0.2,0.3,0.4,0.3h14.3c0.2,0,0.4-0.1,0.4-0.3S15.4,10.9,15.2,10.9L15.2,10.9z"/>
	</g>

</svg>
