<svg xmlns="http://www.w3.org/2000/svg" width="40.5" height="40.5" viewBox="0 0 40.5 40.5">
  <g id="surveyed" transform="translate(-70.482 -24.658)">
    <path id="Path_143" data-name="Path 143" d="M110.731,64.158V30.484a.7.7,0,0,0-.668-.732H102.4V27.312a2.535,2.535,0,0,0-.657-1.714,2.116,2.116,0,0,0-3.135.007,2.559,2.559,0,0,0-.643,1.709v2.44H92.988V27.312a2.541,2.541,0,0,0-.662-1.72,2.122,2.122,0,0,0-3.13.013,2.559,2.559,0,0,0-.643,1.709v2.44H83.365V27.312a2.53,2.53,0,0,0-.65-1.714,2.119,2.119,0,0,0-3.133.006,2.551,2.551,0,0,0-.645,1.709v2.44H71.4a.7.7,0,0,0-.668.732V58.033a.747.747,0,0,0,.351.644l10.392,6.141a.621.621,0,0,0,.317.09l28.271-.018a.7.7,0,0,0,.669-.731ZM99.3,27.312a1.026,1.026,0,0,1,.246-.669.872.872,0,0,1,.628-.289.846.846,0,0,1,.62.278,1.008,1.008,0,0,1,.262.68v6.163a1,1,0,0,1-.266.682.912.912,0,0,1-1.235,0,1,1,0,0,1-.256-.679Zm-9.409,0a1.029,1.029,0,0,1,.249-.673.828.828,0,0,1,1.245-.007,1.008,1.008,0,0,1,.262.68v6.163a.986.986,0,0,1-.262.677.9.9,0,0,1-1.238,0,1,1,0,0,1-.256-.679Zm-9.618,3.172V27.312a1.021,1.021,0,0,1,.251-.673.842.842,0,0,1,1.243-.006,1,1,0,0,1,.257.679v6.163a1,1,0,0,1-.262.684.825.825,0,0,1-1.231-.007.994.994,0,0,1-.257-.677Zm29.119,32.939-27.434.018L72.069,57.6V31.219h6.866v2.257a2.533,2.533,0,0,0,.65,1.714,2.123,2.123,0,0,0,3.126,0,2.508,2.508,0,0,0,.655-1.716V31.219h5.188v2.257A2.539,2.539,0,0,0,89.2,35.19a2.067,2.067,0,0,0,3.13,0,2.508,2.508,0,0,0,.658-1.716V31.219h4.978v2.257a2.527,2.527,0,0,0,.653,1.716,2.114,2.114,0,0,0,3.123,0,2.508,2.508,0,0,0,.658-1.716V31.218h7V63.424Z" stroke="#000" stroke-width="0.5"/>
    <path id="Path_144" data-name="Path 144" d="M173.055,331.87H166.73a.7.7,0,0,0-.668.732v4.456a.7.7,0,0,0,.668.732h6.325a.7.7,0,0,0,.668-.732V332.6A.7.7,0,0,0,173.055,331.87Zm-.669,4.454H167.4v-2.991h4.986v2.991Z" transform="translate(-88.503 -282.896)" stroke="#000" stroke-width="0.5"/>
    <path id="Path_145" data-name="Path 145" d="M173.055,236.93H166.73a.7.7,0,0,0-.668.732v4.456a.7.7,0,0,0,.668.732h6.325a.7.7,0,0,0,.668-.732v-4.456A.7.7,0,0,0,173.055,236.93Zm-.669,4.454H167.4v-2.991h4.986v2.991Z" transform="translate(-88.503 -195.4)" stroke="#000" stroke-width="0.5"/>
    <path id="Path_146" data-name="Path 146" d="M424.41,237.66v4.456a.7.7,0,0,0,.668.732H431.4a.7.7,0,0,0,.668-.732V237.66a.7.7,0,0,0-.668-.732h-6.325A.7.7,0,0,0,424.41,237.66Zm1.339.732h4.986v2.991h-4.986Z" transform="translate(-328.35 -195.398)" stroke="#000" stroke-width="0.5"/>
    <path id="Path_147" data-name="Path 147" d="M302.235,331.87H295.91a.7.7,0,0,0-.668.732v4.456a.7.7,0,0,0,.668.732h6.325a.7.7,0,0,0,.668-.732V332.6A.7.7,0,0,0,302.235,331.87Zm-.668,4.454h-4.986v-2.991h4.986Z" transform="translate(-208.432 -282.896)" stroke="#000" stroke-width="0.5"/>
    <path id="Path_148" data-name="Path 148" d="M431.425,331.87H425.1a.7.7,0,0,0-.668.732v4.456a.7.7,0,0,0,.668.732h6.325a.7.7,0,0,0,.668-.732V332.6A.7.7,0,0,0,431.425,331.87Zm-.67,4.454h-4.986v-2.991h4.986Z" transform="translate(-328.37 -282.896)" stroke="#000" stroke-width="0.5"/>
    <path id="Path_149" data-name="Path 149" d="M302.235,236.93H295.91a.7.7,0,0,0-.668.732v4.456a.7.7,0,0,0,.668.732h6.325a.7.7,0,0,0,.668-.732v-4.456A.7.7,0,0,0,302.235,236.93Zm-.668,4.454h-4.986v-2.991h4.986Z" transform="translate(-208.432 -195.4)" stroke="#000" stroke-width="0.5"/>
  </g>
</svg>
