<?xml version="1.0" encoding="utf-8"?>
<!-- Generator: Adobe Illustrator 25.4.1, SVG Export Plug-In . SVG Version: 6.00 Build 0)  -->
<svg version="1.1" id="Layer_1" xmlns="http://www.w3.org/2000/svg" xmlns:xlink="http://www.w3.org/1999/xlink" x="0px" y="0px"
	 viewBox="0 0 30 24" style="enable-background:new 0 0 30 24;" xml:space="preserve">
<style type="text/css">
	.st0{fill:#BEBEBE;}
</style>
<path class="st0" d="M11.2,18.8v-2.4c0-0.1,0-0.2-0.1-0.3C11,16,10.9,16,10.8,16H6.7c-0.1,0-0.2,0-0.3,0.1c-0.1,0.1-0.1,0.2-0.1,0.3
	v2.4c0,0.1,0,0.2,0.1,0.3c0.1,0.1,0.2,0.1,0.3,0.1h4.1c0.1,0,0.2,0,0.3-0.1C11.2,19,11.2,18.9,11.2,18.8z M11.2,14v-2.4
	c0-0.1,0-0.2-0.1-0.3s-0.2-0.1-0.3-0.1H6.7c-0.1,0-0.2,0-0.3,0.1c-0.1,0.1-0.1,0.2-0.1,0.3V14c0,0.1,0,0.2,0.1,0.3
	c0.1,0.1,0.2,0.1,0.3,0.1h4.1c0.1,0,0.2,0,0.3-0.1S11.2,14.1,11.2,14z M17.7,18.8v-2.4c0-0.1,0-0.2-0.1-0.3C17.5,16,17.4,16,17.3,16
	h-4.1c-0.1,0-0.2,0-0.3,0.1c-0.1,0.1-0.1,0.2-0.1,0.3v2.4c0,0.1,0,0.2,0.1,0.3c0.1,0.1,0.2,0.1,0.3,0.1h4.1c0.1,0,0.2,0,0.3-0.1
	C17.7,19,17.7,18.9,17.7,18.8z M11.2,9.2V6.8c0-0.1,0-0.2-0.1-0.3c-0.1-0.1-0.2-0.1-0.3-0.1H6.7c-0.1,0-0.2,0-0.3,0.1
	C6.3,6.6,6.3,6.7,6.3,6.8v2.4c0,0.1,0,0.2,0.1,0.3c0.1,0.1,0.2,0.1,0.3,0.1h4.1c0.1,0,0.2,0,0.3-0.1C11.2,9.4,11.2,9.3,11.2,9.2z
	 M17.7,14v-2.4c0-0.1,0-0.2-0.1-0.3c-0.1-0.1-0.2-0.1-0.3-0.1h-4.1c-0.1,0-0.2,0-0.3,0.1s-0.1,0.2-0.1,0.3V14c0,0.1,0,0.2,0.1,0.3
	s0.2,0.1,0.3,0.1h4.1c0.1,0,0.2,0,0.3-0.1C17.7,14.2,17.7,14.1,17.7,14z M24.2,18.8v-2.4c0-0.1,0-0.2-0.1-0.3C24,16,23.9,16,23.8,16
	h-4.1c-0.1,0-0.2,0-0.3,0.1c-0.1,0.1-0.1,0.2-0.1,0.3v2.4c0,0.1,0,0.2,0.1,0.3c0.1,0.1,0.2,0.1,0.3,0.1h4.1c0.1,0,0.2,0,0.3-0.1
	C24.2,19,24.2,18.9,24.2,18.8z M17.7,9.2V6.8c0-0.1,0-0.2-0.1-0.3c-0.1-0.1-0.2-0.1-0.3-0.1h-4.1c-0.1,0-0.2,0-0.3,0.1
	c-0.1,0.1-0.1,0.2-0.1,0.3v2.4c0,0.1,0,0.2,0.1,0.3c0.1,0.1,0.2,0.1,0.3,0.1h4.1c0.1,0,0.2,0,0.3-0.1C17.7,9.4,17.7,9.3,17.7,9.2z
	 M24.2,14v-2.4c0-0.1,0-0.2-0.1-0.3c-0.1-0.1-0.2-0.1-0.3-0.1h-4.1c-0.1,0-0.2,0-0.3,0.1c-0.1,0.1-0.1,0.2-0.1,0.3V14
	c0,0.1,0,0.2,0.1,0.3c0.1,0.1,0.2,0.1,0.3,0.1h4.1c0.1,0,0.2,0,0.3-0.1C24.2,14.2,24.2,14.1,24.2,14z M24.2,9.2V6.8
	c0-0.1,0-0.2-0.1-0.3c-0.1-0.1-0.2-0.1-0.3-0.1h-4.1c-0.1,0-0.2,0-0.3,0.1c-0.1,0.1-0.1,0.2-0.1,0.3v2.4c0,0.1,0,0.2,0.1,0.3
	c0.1,0.1,0.2,0.1,0.3,0.1h4.1c0.1,0,0.2,0,0.3-0.1C24.2,9.4,24.2,9.3,24.2,9.2z M25.9,5.2v13.5c0,0.5-0.2,1-0.6,1.4
	s-0.9,0.6-1.4,0.6H6.7c-0.6,0-1-0.2-1.4-0.6c-0.4-0.4-0.6-0.9-0.6-1.4V5.2c0-0.5,0.2-1,0.6-1.4c0.4-0.4,0.9-0.6,1.4-0.6h17.1
	c0.6,0,1,0.2,1.4,0.6S25.9,4.7,25.9,5.2z"/>
</svg>
