<svg xmlns="http://www.w3.org/2000/svg" width="68.821" height="68.939" viewBox="0 0 68.821 68.939">
  <g id="target" transform="translate(-19.186 -7.155)">
    <path id="Path_13191" data-name="Path 13191" d="M69.494,28.646,51.437,46.7a1.417,1.417,0,0,0,0,2.024,1.368,1.368,0,0,0,1.943,0L75.566,26.541l7.206-.081a1.341,1.341,0,0,0,.971-.4l8.826-8.826a1.548,1.548,0,0,0,.324-1.539,1.521,1.521,0,0,0-1.3-.891l-6.316.081.081-6.316a1.313,1.313,0,0,0-.891-1.3,1.361,1.361,0,0,0-1.539.324l-8.744,8.746a1.494,1.494,0,0,0-.4.971L73.7,24.517,69.817,28.4Zm7.044-10.769,5.992-5.992v4.291a1.34,1.34,0,0,0,.4.971,1.494,1.494,0,0,0,.971.4H88.2l-5.992,5.992-5.749.081Z" transform="translate(-4.964)"/>
    <path id="Path_13192" data-name="Path 13192" d="M47.526,78.33a28.405,28.405,0,0,0,28.42-28.42,27.764,27.764,0,0,0-6.154-17.57l-2.024,2.024a25.215,25.215,0,1,1-4.615-4.7l2.024-2.024A28.4,28.4,0,1,0,47.526,78.33Z" transform="translate(0 -2.236)"/>
    <path id="Path_13193" data-name="Path 13193" d="M61.546,33.662a21.265,21.265,0,0,0-12.793-4.211,21.7,21.7,0,1,0,21.7,21.7,21.264,21.264,0,0,0-4.211-12.793l-2.024,2.024a19.105,19.105,0,0,1,3.4,10.769A18.866,18.866,0,1,1,48.753,32.285a18.5,18.5,0,0,1,10.769,3.4Z" transform="translate(-1.227 -3.478)"/>
    <path id="Path_13194" data-name="Path 13194" d="M57.93,39.777a14.932,14.932,0,1,0,7.044,12.631,15.152,15.152,0,0,0-2.267-8.016l-2.024,2.024a12.361,12.361,0,0,1,1.539,5.911A12.154,12.154,0,1,1,55.987,41.72Z" transform="translate(-2.469 -4.734)"/>
    <path id="Path_13195" data-name="Path 13195" d="M51.237,48.21a2.246,2.246,0,0,1,.729.081l2.267-2.348a7.581,7.581,0,0,0-3-.567A8.259,8.259,0,1,0,59.5,53.635a7.316,7.316,0,0,0-.567-3l-2.348,2.267c0,.243.081.486.081.729a5.425,5.425,0,1,1-5.425-5.425Z" transform="translate(-3.711 -5.961)"/>
  </g>
</svg>
