<?xml version="1.0" encoding="utf-8"?>
<!-- Generator: Adobe Illustrator 25.4.1, SVG Export Plug-In . SVG Version: 6.00 Build 0)  -->
<svg version="1.1" id="Layer_1" xmlns="http://www.w3.org/2000/svg" xmlns:xlink="http://www.w3.org/1999/xlink" x="0px" y="0px"
	 viewBox="0 0 269 275" style="enable-background:new 0 0 269 275;" xml:space="preserve">
<style type="text/css">
	.st0{opacity:0.85;}
	.st1{fill:#FFFFFF;}
	.st2{fill:none;stroke:#FFCBAF;stroke-width:0.889;stroke-miterlimit:10;}
	.st3{fill:#FE8849;}
	.st4{fill:#FFA678;fill-opacity:0;}
</style>
<g id="Group_3783" transform="translate(-1176.555 33)">
	<g id="Group_67" transform="translate(22 -27)">
		<g id="Group_40" transform="translate(1449.071 204.015) rotate(180)" class="st0">
			<g id="Group_32" transform="translate(189.746)">
				<path id="Path_100" class="st1" d="M0.19,231.97c2.48,0,4.49,2.01,4.49,4.49c0,2.48-2.01,4.49-4.49,4.49
					c-2.48,0-4.49-2.01-4.49-4.49c0,0,0,0,0,0C-4.3,233.98-2.29,231.97,0.19,231.97z"/>
				<path id="Path_101" class="st1" d="M0.19,203.26c2.48,0,4.49,2.01,4.49,4.49c0,2.48-2.01,4.49-4.49,4.49
					c-2.48,0-4.49-2.01-4.49-4.49c0,0,0,0,0,0C-4.3,205.26-2.29,203.26,0.19,203.26z"/>
				<path id="Path_102" class="st1" d="M0.19,174.54c2.48,0,4.49,2.01,4.49,4.49c0,2.48-2.01,4.49-4.49,4.49
					c-2.48,0-4.49-2.01-4.49-4.49c0,0,0,0,0,0C-4.3,176.55-2.29,174.54,0.19,174.54z"/>
				<path id="Path_103" class="st1" d="M0.19,145.81c2.48,0,4.49,2.01,4.49,4.49c0,2.48-2.01,4.49-4.49,4.49
					c-2.48,0-4.49-2.01-4.49-4.49v0C-4.3,147.82-2.29,145.81,0.19,145.81z"/>
				<path id="Path_104" class="st1" d="M0.19,117.09c2.48,0,4.49,2,4.49,4.48c0,2.48-2,4.49-4.48,4.49c-2.48,0-4.49-2-4.49-4.48
					c0,0,0,0,0-0.01C-4.29,119.1-2.29,117.1,0.19,117.09z"/>
				<path id="Path_105" class="st1" d="M0.19,88.37c2.48,0,4.49,2.01,4.49,4.49c0,2.48-2.01,4.49-4.49,4.49
					c-2.48,0-4.49-2.01-4.49-4.49c0,0,0,0,0,0C-4.3,90.38-2.29,88.37,0.19,88.37z"/>
				<path id="Path_106" class="st1" d="M0.19,59.66c2.48,0,4.49,2.01,4.49,4.49c0,2.48-2.01,4.49-4.49,4.49
					c-2.48,0-4.49-2.01-4.49-4.49c0,0,0,0,0,0C-4.3,61.66-2.29,59.66,0.19,59.66z"/>
				<path id="Path_107" class="st1" d="M0.19,30.94c2.48,0,4.49,2.01,4.49,4.49c0,2.48-2.01,4.49-4.49,4.49
					c-2.48,0-4.49-2.01-4.49-4.49c0,0,0,0,0,0C-4.3,32.94-2.29,30.94,0.19,30.94z"/>
			</g>
			<g id="Group_33" transform="translate(162.64)">
				<path id="Path_108" class="st1" d="M0.19,231.97c2.48,0,4.49,2.01,4.49,4.49c0,2.48-2.01,4.49-4.49,4.49
					c-2.48,0-4.49-2.01-4.49-4.49c0,0,0,0,0,0C-4.29,233.98-2.29,231.98,0.19,231.97z"/>
				<path id="Path_109" class="st1" d="M0.19,203.26c2.48,0,4.49,2.01,4.49,4.49c0,2.48-2.01,4.49-4.49,4.49
					c-2.48,0-4.49-2.01-4.49-4.49c0,0,0,0,0,0C-4.29,205.26-2.29,203.26,0.19,203.26z"/>
				<path id="Path_110" class="st1" d="M0.19,174.54c2.48,0,4.49,2.01,4.49,4.49c0,2.48-2.01,4.49-4.49,4.49
					c-2.48,0-4.49-2.01-4.49-4.49c0,0,0,0,0,0C-4.3,176.55-2.29,174.54,0.19,174.54z"/>
				<path id="Path_111" class="st1" d="M0.19,145.81c2.48,0,4.49,2.01,4.49,4.49c0,2.48-2.01,4.49-4.49,4.49
					c-2.48,0-4.49-2.01-4.49-4.49v0C-4.3,147.82-2.29,145.81,0.19,145.81z"/>
				<path id="Path_112" class="st1" d="M0.19,117.09c2.48,0,4.49,2.01,4.49,4.49c0,2.48-2.01,4.49-4.49,4.49
					c-2.48,0-4.49-2.01-4.49-4.49C-4.3,119.11-2.29,117.09,0.19,117.09C0.19,117.09,0.19,117.09,0.19,117.09z"/>
				<path id="Path_113" class="st1" d="M0.19,88.37c2.48,0,4.49,2.01,4.49,4.49c0,2.48-2.01,4.49-4.49,4.49
					c-2.48,0-4.49-2.01-4.49-4.49c0,0,0,0,0,0C-4.3,90.38-2.29,88.37,0.19,88.37z"/>
				<path id="Path_114" class="st1" d="M0.19,59.66c2.48,0,4.49,2.01,4.49,4.49c0,2.48-2.01,4.49-4.49,4.49
					c-2.48,0-4.49-2.01-4.49-4.49c0,0,0,0,0,0C-4.29,61.66-2.29,59.66,0.19,59.66z"/>
				<path id="Path_115" class="st1" d="M0.19,30.94c2.48,0,4.49,2.01,4.49,4.49c0,2.48-2.01,4.49-4.49,4.49
					c-2.48,0-4.49-2.01-4.49-4.49c0,0,0,0,0,0C-4.3,32.94-2.29,30.94,0.19,30.94z"/>
			</g>
			<g id="Group_34" transform="translate(135.535)">
				<path id="Path_116" class="st1" d="M0.19,231.97c2.48,0,4.49,2.01,4.49,4.49c0,2.48-2.01,4.49-4.49,4.49
					c-2.48,0-4.49-2.01-4.49-4.49c0,0,0,0,0,0C-4.3,233.98-2.29,231.97,0.19,231.97z"/>
				<path id="Path_117" class="st1" d="M0.19,203.26c2.48,0,4.49,2.01,4.49,4.49c0,2.48-2.01,4.49-4.49,4.49
					c-2.48,0-4.49-2.01-4.49-4.49c0,0,0,0,0,0C-4.3,205.26-2.29,203.26,0.19,203.26z"/>
				<path id="Path_118" class="st1" d="M0.19,174.54c2.48,0,4.49,2.01,4.49,4.49c0,2.48-2.01,4.49-4.49,4.49
					c-2.48,0-4.49-2.01-4.49-4.49c0,0,0,0,0,0C-4.3,176.55-2.29,174.54,0.19,174.54z"/>
				<path id="Path_119" class="st1" d="M0.19,145.81c2.48,0,4.49,2.01,4.49,4.49c0,2.48-2.01,4.49-4.49,4.49
					c-2.48,0-4.49-2.01-4.49-4.49v0C-4.3,147.82-2.29,145.81,0.19,145.81z"/>
				<path id="Path_120" class="st1" d="M0.19,117.09c2.48,0,4.49,2.01,4.49,4.49c0,2.48-2.01,4.49-4.49,4.49
					c-2.48,0-4.49-2.01-4.49-4.49C-4.3,119.11-2.29,117.09,0.19,117.09C0.19,117.09,0.19,117.09,0.19,117.09z"/>
				<path id="Path_121" class="st1" d="M0.19,88.37c2.48,0,4.49,2.01,4.49,4.49c0,2.48-2.01,4.49-4.49,4.49
					c-2.48,0-4.49-2.01-4.49-4.49c0,0,0,0,0,0C-4.3,90.38-2.29,88.37,0.19,88.37z"/>
				<path id="Path_122" class="st1" d="M0.19,59.66c2.48,0,4.49,2.01,4.49,4.49c0,2.48-2.01,4.49-4.49,4.49
					c-2.48,0-4.49-2.01-4.49-4.49c0,0,0,0,0,0C-4.3,61.66-2.29,59.66,0.19,59.66z"/>
				<path id="Path_123" class="st1" d="M0.19,30.94c2.48,0,4.49,2.01,4.49,4.49c0,2.48-2.01,4.49-4.49,4.49
					c-2.48,0-4.49-2.01-4.49-4.49c0,0,0,0,0,0C-4.3,32.94-2.29,30.94,0.19,30.94z"/>
			</g>
			<g id="Group_35" transform="translate(108.425)">
				<path id="Path_124" class="st1" d="M0.2,231.97c2.48,0,4.49,2.01,4.49,4.49c0,2.48-2.01,4.49-4.49,4.49
					c-2.48,0-4.49-2.01-4.49-4.49C-4.3,233.98-2.29,231.97,0.2,231.97C0.19,231.97,0.19,231.97,0.2,231.97z"/>
				<path id="Path_125" class="st1" d="M0.2,203.26c2.48,0,4.49,2.01,4.49,4.49c0,2.48-2.01,4.49-4.49,4.49
					c-2.48,0-4.49-2.01-4.49-4.49C-4.3,205.26-2.29,203.25,0.2,203.26C0.19,203.26,0.19,203.26,0.2,203.26z"/>
				<path id="Path_126" class="st1" d="M0.2,174.54c2.48,0,4.49,2.01,4.49,4.49c0,2.48-2.01,4.49-4.49,4.49
					c-2.48,0-4.49-2.01-4.49-4.49C-4.3,176.55-2.29,174.54,0.2,174.54C0.19,174.54,0.19,174.54,0.2,174.54z"/>
				<path id="Path_127" class="st1" d="M0.2,145.81c2.48,0,4.48,2.01,4.48,4.49c0,2.48-2.01,4.48-4.49,4.48
					c-2.48,0-4.48-2.01-4.48-4.49C-4.3,147.82-2.29,145.81,0.2,145.81C0.19,145.81,0.19,145.81,0.2,145.81z"/>
				<path id="Path_128" class="st1" d="M0.2,117.09c2.48,0,4.49,2.01,4.48,4.49c0,2.48-2.01,4.49-4.49,4.49
					c-2.48,0-4.48-2.01-4.48-4.49C-4.3,119.11-2.29,117.09,0.2,117.09C0.19,117.09,0.19,117.09,0.2,117.09z"/>
				<path id="Path_129" class="st1" d="M0.2,88.37c2.48,0,4.49,2.01,4.49,4.49c0,2.48-2.01,4.49-4.49,4.49
					c-2.48,0-4.49-2.01-4.49-4.49C-4.3,90.38-2.29,88.37,0.2,88.37C0.19,88.37,0.19,88.37,0.2,88.37z"/>
				<path id="Path_130" class="st1" d="M0.2,59.66c2.48,0,4.49,2.01,4.49,4.49c0,2.48-2.01,4.49-4.49,4.49
					c-2.48,0-4.49-2.01-4.49-4.49C-4.3,61.66-2.29,59.65,0.2,59.66C0.19,59.66,0.19,59.66,0.2,59.66z"/>
				<path id="Path_131" class="st1" d="M0.2,30.94c2.48,0,4.49,2.01,4.49,4.49c0,2.48-2.01,4.49-4.49,4.49
					c-2.48,0-4.49-2.01-4.49-4.49C-4.3,32.94-2.29,30.94,0.2,30.94C0.19,30.94,0.19,30.94,0.2,30.94z"/>
			</g>
			<g id="Group_36" transform="translate(81.32)">
				<path id="Path_132" class="st1" d="M0.19,231.97c2.48,0,4.49,2.01,4.49,4.49c0,2.48-2.01,4.49-4.49,4.49
					c-2.48,0-4.49-2.01-4.49-4.49c0,0,0,0,0,0C-4.29,233.98-2.29,231.98,0.19,231.97z"/>
				<path id="Path_133" class="st1" d="M0.19,203.26c2.48,0,4.49,2.01,4.49,4.49c0,2.48-2.01,4.49-4.49,4.49
					c-2.48,0-4.49-2.01-4.49-4.49c0,0,0,0,0,0C-4.29,205.26-2.29,203.26,0.19,203.26z"/>
				<path id="Path_134" class="st1" d="M0.19,174.54c2.48,0,4.49,2.01,4.49,4.49c0,2.48-2.01,4.49-4.49,4.49
					c-2.48,0-4.49-2.01-4.49-4.49c0,0,0,0,0,0C-4.3,176.55-2.29,174.54,0.19,174.54z"/>
				<path id="Path_135" class="st1" d="M0.19,145.81c2.48,0,4.49,2.01,4.49,4.49c0,2.48-2.01,4.49-4.49,4.49
					c-2.48,0-4.49-2.01-4.49-4.49v0C-4.3,147.82-2.29,145.81,0.19,145.81z"/>
				<path id="Path_136" class="st1" d="M0.19,117.09c2.48,0,4.49,2.01,4.49,4.49c0,2.48-2.01,4.49-4.49,4.49
					c-2.48,0-4.49-2.01-4.49-4.49C-4.3,119.11-2.29,117.09,0.19,117.09z"/>
				<path id="Path_137" class="st1" d="M0.19,88.37c2.48,0,4.49,2.01,4.49,4.49c0,2.48-2.01,4.49-4.49,4.49
					c-2.48,0-4.49-2.01-4.49-4.49c0,0,0,0,0,0C-4.29,90.38-2.29,88.38,0.19,88.37z"/>
				<path id="Path_138" class="st1" d="M0.19,59.66c2.48,0,4.49,2.01,4.49,4.49c0,2.48-2.01,4.49-4.49,4.49
					c-2.48,0-4.49-2.01-4.49-4.49c0,0,0,0,0,0C-4.29,61.66-2.29,59.66,0.19,59.66z"/>
				<path id="Path_139" class="st1" d="M0.19,30.94c2.48,0,4.49,2.01,4.49,4.49c0,2.48-2.01,4.49-4.49,4.49
					c-2.48,0-4.49-2.01-4.49-4.49c0,0,0,0,0,0C-4.3,32.94-2.29,30.94,0.19,30.94z"/>
			</g>
			<g id="Group_37" transform="translate(54.215)">
				<path id="Path_140" class="st1" d="M0.19,231.97c2.48,0,4.49,2.01,4.49,4.49c0,2.48-2.01,4.49-4.49,4.49
					c-2.48,0-4.49-2.01-4.49-4.49c0,0,0,0,0,0C-4.3,233.98-2.29,231.97,0.19,231.97z"/>
				<path id="Path_141" class="st1" d="M0.19,203.26c2.48,0,4.49,2.01,4.49,4.49c0,2.48-2.01,4.49-4.49,4.49
					c-2.48,0-4.49-2.01-4.49-4.49c0,0,0,0,0,0C-4.3,205.26-2.29,203.26,0.19,203.26z"/>
				<path id="Path_142" class="st1" d="M0.19,174.54c2.48,0,4.49,2.01,4.49,4.49c0,2.48-2.01,4.49-4.49,4.49
					c-2.48,0-4.49-2.01-4.49-4.49c0,0,0,0,0,0C-4.3,176.55-2.29,174.54,0.19,174.54z"/>
				<path id="Path_143" class="st1" d="M0.19,145.81c2.48,0,4.49,2.01,4.49,4.49c0,2.48-2.01,4.49-4.49,4.49
					c-2.48,0-4.49-2.01-4.49-4.49v0C-4.3,147.82-2.29,145.81,0.19,145.81z"/>
				<path id="Path_144" class="st1" d="M0.19,117.09c2.48,0,4.49,2.01,4.49,4.49c0,2.48-2.01,4.49-4.49,4.49
					c-2.48,0-4.49-2.01-4.49-4.49c0,0,0,0,0,0C-4.3,119.1-2.29,117.09,0.19,117.09z"/>
				<path id="Path_145" class="st1" d="M0.19,88.37c2.48,0,4.49,2.01,4.49,4.49c0,2.48-2.01,4.49-4.49,4.49
					c-2.48,0-4.49-2.01-4.49-4.49c0,0,0,0,0,0C-4.3,90.38-2.29,88.37,0.19,88.37z"/>
				<path id="Path_146" class="st1" d="M0.19,59.66c2.48,0,4.49,2.01,4.49,4.49c0,2.48-2.01,4.49-4.49,4.49
					c-2.48,0-4.49-2.01-4.49-4.49c0,0,0,0,0,0C-4.3,61.66-2.29,59.66,0.19,59.66z"/>
				<path id="Path_147" class="st1" d="M0.19,30.94c2.48,0,4.49,2.01,4.49,4.49c0,2.48-2.01,4.49-4.49,4.49
					c-2.48,0-4.49-2.01-4.49-4.49c0,0,0,0,0,0C-4.3,32.94-2.29,30.94,0.19,30.94z"/>
			</g>
			<g id="Group_38" transform="translate(27.11)">
				<path id="Path_148" class="st1" d="M0.19,231.97c2.48,0,4.49,2.01,4.49,4.49c0,2.48-2.01,4.49-4.49,4.49
					c-2.48,0-4.49-2.01-4.49-4.49c0,0,0,0,0,0C-4.3,233.98-2.29,231.97,0.19,231.97z"/>
				<path id="Path_149" class="st1" d="M0.19,203.26c2.48,0,4.49,2.01,4.49,4.49c0,2.48-2.01,4.49-4.49,4.49
					c-2.48,0-4.49-2.01-4.49-4.49c0,0,0,0,0,0C-4.3,205.26-2.29,203.26,0.19,203.26z"/>
				<path id="Path_150" class="st1" d="M0.19,174.54c2.48,0,4.49,2.01,4.49,4.49c0,2.48-2.01,4.49-4.49,4.49
					c-2.48,0-4.49-2.01-4.49-4.49c0,0,0,0,0,0C-4.3,176.55-2.29,174.54,0.19,174.54z"/>
				<path id="Path_151" class="st1" d="M0.19,145.81c2.48,0,4.49,2.01,4.49,4.49c0,2.48-2.01,4.49-4.49,4.49
					c-2.48,0-4.49-2.01-4.49-4.49v0C-4.3,147.82-2.29,145.81,0.19,145.81z"/>
				<path id="Path_152" class="st1" d="M0.19,117.09c2.48,0,4.49,2.01,4.49,4.49c0,2.48-2.01,4.49-4.49,4.49
					c-2.48,0-4.49-2.01-4.49-4.49C-4.3,119.11-2.29,117.1,0.19,117.09C0.19,117.09,0.19,117.09,0.19,117.09z"/>
				<path id="Path_153" class="st1" d="M0.19,88.37c2.48,0,4.49,2.01,4.49,4.49c0,2.48-2.01,4.49-4.49,4.49
					c-2.48,0-4.49-2.01-4.49-4.49c0,0,0,0,0,0C-4.3,90.38-2.29,88.37,0.19,88.37z"/>
				<path id="Path_154" class="st1" d="M0.19,59.66c2.48,0,4.49,2.01,4.49,4.49c0,2.48-2.01,4.49-4.49,4.49
					c-2.48,0-4.49-2.01-4.49-4.49c0,0,0,0,0,0C-4.3,61.66-2.29,59.66,0.19,59.66z"/>
				<path id="Path_155" class="st1" d="M0.19,30.94c2.48,0,4.49,2.01,4.49,4.49c0,2.48-2.01,4.49-4.49,4.49
					c-2.48,0-4.49-2.01-4.49-4.49c0,0,0,0,0,0C-4.3,32.94-2.29,30.94,0.19,30.94z"/>
			</g>
			<g id="Group_39">
				<path id="Path_156" class="st1" d="M0.2,231.97c2.48,0,4.49,2.01,4.49,4.49c0,2.48-2.01,4.49-4.49,4.49
					c-2.48,0-4.49-2.01-4.49-4.49C-4.3,233.98-2.29,231.97,0.2,231.97C0.19,231.97,0.19,231.97,0.2,231.97z"/>
				<path id="Path_157" class="st1" d="M0.2,203.26c2.48,0,4.49,2.01,4.49,4.49c0,2.48-2.01,4.49-4.49,4.49
					c-2.48,0-4.49-2.01-4.49-4.49C-4.3,205.26-2.29,203.25,0.2,203.26C0.19,203.26,0.19,203.26,0.2,203.26z"/>
				<path id="Path_158" class="st1" d="M0.2,174.54c2.48,0,4.49,2.01,4.49,4.49c0,2.48-2.01,4.49-4.49,4.49
					c-2.48,0-4.49-2.01-4.49-4.49C-4.3,176.55-2.29,174.54,0.2,174.54C0.19,174.54,0.19,174.54,0.2,174.54z"/>
				<path id="Path_159" class="st1" d="M0.2,145.81c2.48,0,4.48,2.01,4.48,4.49c0,2.48-2.01,4.48-4.49,4.48
					c-2.48,0-4.48-2.01-4.48-4.49C-4.3,147.82-2.29,145.81,0.2,145.81C0.19,145.81,0.19,145.81,0.2,145.81z"/>
				<path id="Path_160" class="st1" d="M0.2,117.09c2.48,0,4.49,2.01,4.48,4.49c0,2.48-2.01,4.49-4.49,4.49
					c-2.48,0-4.48-2.01-4.48-4.49C-4.3,119.11-2.29,117.09,0.2,117.09C0.19,117.09,0.19,117.09,0.2,117.09z"/>
				<path id="Path_161" class="st1" d="M0.2,88.37c2.48,0,4.49,2.01,4.49,4.49c0,2.48-2.01,4.49-4.49,4.49
					c-2.48,0-4.49-2.01-4.49-4.49C-4.3,90.38-2.29,88.37,0.2,88.37C0.19,88.37,0.19,88.37,0.2,88.37z"/>
				<path id="Path_162" class="st1" d="M0.2,59.66c2.48,0,4.49,2.01,4.49,4.49c0,2.48-2.01,4.49-4.49,4.49
					c-2.48,0-4.49-2.01-4.49-4.49C-4.3,61.66-2.29,59.65,0.2,59.66C0.19,59.66,0.19,59.66,0.2,59.66z"/>
				<path id="Path_163" class="st1" d="M0.2,30.94c2.48,0,4.49,2.01,4.49,4.49c0,2.48-2.01,4.49-4.49,4.49
					c-2.48,0-4.49-2.01-4.49-4.49C-4.3,32.94-2.29,30.94,0.2,30.94C0.19,30.94,0.19,30.94,0.2,30.94z"/>
			</g>
		</g>
		<path id="Rectangle_27" class="st2" d="M1358.7,163.26L1358.7,163.26c0,55.06-44.64,99.7-99.7,99.7h0
			c-55.06,0-99.7-44.64-99.7-99.7l0,0c0-55.06,44.64-99.7,99.7-99.7h0C1314.06,63.56,1358.7,108.2,1358.7,163.26z"/>
		<path id="Rectangle_28" class="st3" d="M1339.7,163.76L1339.7,163.76c0,44.57-36.13,80.7-80.7,80.7h0
			c-44.57,0-80.7-36.13-80.7-80.7l0,0c0-44.57,36.13-80.7,80.7-80.7h0C1303.57,83.06,1339.7,119.19,1339.7,163.76z"/>
		<path id="graph-bar" class="st4" d="M1233.2,168.06H1216c-2.37,0-4.3,1.93-4.3,4.3c0,0,0,0,0,0v34.4c0,2.37,1.93,4.3,4.3,4.3
			c0,0,0,0,0,0h17.2c2.37,0,4.3-1.93,4.3-4.3l0,0v-34.4C1237.5,169.99,1235.57,168.06,1233.2,168.06L1233.2,168.06z M1228.9,202.46
			h-8.6v-25.8h8.6V202.46z M1302,150.86h-17.2c-2.37,0-4.3,1.93-4.3,4.3l0,0v51.6c0,2.37,1.93,4.3,4.3,4.3c0,0,0,0,0,0h17.2
			c2.37,0,4.3-1.93,4.3-4.3c0,0,0,0,0,0v-51.6C1306.3,152.79,1304.37,150.86,1302,150.86L1302,150.86z M1297.7,202.46h-8.6v-43h8.6
			V202.46z M1267.6,116.46h-17.2c-2.37,0-4.3,1.93-4.3,4.3v86c0,2.37,1.93,4.3,4.3,4.3l0,0h17.2c2.37,0,4.3-1.93,4.3-4.3l0,0v-86
			C1271.9,118.39,1269.97,116.46,1267.6,116.46z M1263.3,202.46h-8.6v-77.4h8.6V202.46z"/>
		<g id="download" transform="translate(1191.5 134.84)">
			<path id="Path_245" class="st1" d="M26.52,30.05c-3.08,0-5.58-2.5-5.58-5.58c0-3.08,2.5-5.58,5.58-5.58s5.58,2.5,5.58,5.58l0,0
				C32.1,27.55,29.6,30.05,26.52,30.05z M26.52,21.49c-1.64,0-2.97,1.33-2.97,2.97s1.33,2.97,2.97,2.97s2.97-1.33,2.97-2.97l0,0
				C29.49,22.82,28.16,21.49,26.52,21.49z"/>
			<path id="Path_246" class="st1" d="M124.78,72.25H11.1c-0.72,0.02-1.32-0.55-1.34-1.27c-0.02-0.72,0.55-1.32,1.27-1.34
				c0.02,0,0.05,0,0.07,0h113.67c0.72-0.02,1.32,0.55,1.34,1.27c0.02,0.72-0.55,1.32-1.27,1.34
				C124.82,72.25,124.8,72.25,124.78,72.25z"/>
			<path id="Path_247" class="st1" d="M33.05,72H19.99c-0.72,0-1.31-0.58-1.31-1.31V39.59c0-0.72,0.59-1.31,1.31-1.31h13.07
				c0.72,0,1.31,0.59,1.31,1.31V70.7C34.36,71.42,33.78,72,33.05,72z M21.29,69.39h10.45v-28.5H21.29V69.39z"/>
			<path id="Path_248" class="st1" d="M47.41,13.06c-3.08,0-5.58-2.5-5.58-5.58s2.5-5.58,5.58-5.58c3.08,0,5.58,2.5,5.58,5.58
				c0,0,0,0,0,0C52.99,10.56,50.49,13.06,47.41,13.06z M47.41,4.5c-1.64,0-2.97,1.33-2.97,2.97s1.33,2.97,2.97,2.97
				s2.97-1.33,2.97-2.97l0,0C50.38,5.83,49.05,4.5,47.41,4.5C47.41,4.5,47.41,4.5,47.41,4.5z"/>
			<path id="Path_249" class="st1" d="M53.95,72H40.88c-0.72,0-1.31-0.58-1.31-1.3c0,0,0,0,0-0.01v-48.1c0-0.72,0.59-1.3,1.31-1.3
				h13.06c0.72,0,1.31,0.59,1.31,1.31v48.09C55.25,71.41,54.67,72,53.95,72C53.95,72,53.95,72,53.95,72z M42.18,69.39h10.46V23.91
				H42.18V69.39z"/>
			<path id="Path_250" class="st1" d="M68.36,24.82c-3.08,0-5.58-2.5-5.58-5.58s2.5-5.58,5.58-5.58c3.08,0,5.58,2.5,5.58,5.58
				c0,0,0,0,0,0C73.94,22.32,71.44,24.82,68.36,24.82z M68.36,16.26c-1.64,0-2.96,1.33-2.96,2.97c0,1.64,1.33,2.96,2.97,2.96
				c1.64,0,2.96-1.33,2.96-2.97C71.33,17.59,70,16.26,68.36,16.26L68.36,16.26z"/>
			<path id="Path_251" class="st1" d="M74.89,72H61.82c-0.72,0-1.31-0.59-1.31-1.31V34.36c0-0.72,0.59-1.31,1.31-1.31h13.07
				c0.72,0,1.31,0.59,1.31,1.31V70.7C76.2,71.42,75.61,72,74.89,72z M63.13,69.39h10.45V35.67H63.13V69.39z"/>
			<path id="Path_252" class="st1" d="M89.25,5.22c-3.08,0-5.58-2.5-5.58-5.58s2.5-5.58,5.58-5.58c3.08,0,5.58,2.5,5.58,5.58
				C94.83,2.72,92.33,5.22,89.25,5.22L89.25,5.22L89.25,5.22z M89.25-3.34c-1.64,0-2.97,1.33-2.97,2.97s1.33,2.97,2.97,2.97
				c1.64,0,2.97-1.33,2.97-2.97C92.22-2.01,90.89-3.34,89.25-3.34L89.25-3.34z"/>
			<path id="Path_253" class="st1" d="M95.78,72H82.72c-0.72,0-1.31-0.59-1.31-1.31V14.76c0-0.72,0.59-1.31,1.31-1.31h13.07
				c0.72,0,1.31,0.59,1.31,1.31V70.7C97.09,71.42,96.51,72,95.78,72L95.78,72z M84.02,69.39h10.45V16.07H84.02V69.39z"/>
			<path id="Path_254" class="st1" d="M110.16-2.62c-3.08,0-5.58-2.5-5.58-5.58c0-3.08,2.5-5.58,5.58-5.58
				c3.08,0,5.58,2.5,5.58,5.58C115.74-5.12,113.24-2.62,110.16-2.62C110.16-2.62,110.16-2.62,110.16-2.62z M110.16-11.18
				c-1.64,0-2.97,1.33-2.97,2.97s1.33,2.97,2.97,2.97c1.64,0,2.97-1.33,2.97-2.97C113.12-9.85,111.79-11.18,110.16-11.18
				L110.16-11.18z"/>
			<path id="Path_255" class="st1" d="M116.69,72h-13.07c-0.72,0-1.31-0.59-1.31-1.31V6.92c0-0.72,0.59-1.31,1.31-1.31h13.07
				c0.72,0,1.31,0.59,1.31,1.31V70.7C118,71.42,117.41,72,116.69,72z M104.93,69.39h10.45V8.23h-10.45V69.39z"/>
			<path id="Path_256" class="st1" d="M93.39-0.61c-0.72,0.01-1.31-0.58-1.32-1.3c0-0.55,0.34-1.05,0.86-1.24l12.75-4.78
				c0.69-0.23,1.42,0.15,1.65,0.83c0.21,0.65-0.11,1.35-0.73,1.61L93.85-0.7C93.7-0.64,93.55-0.61,93.39-0.61z"/>
			<path id="Path_257" class="st1" d="M71.47,17.62c-0.72,0.01-1.32-0.56-1.33-1.29c-0.01-0.37,0.14-0.72,0.41-0.97L85.24,1.6
				c0.53-0.49,1.35-0.47,1.85,0.06s0.47,1.35-0.06,1.85l0,0L72.37,17.27C72.12,17.5,71.8,17.62,71.47,17.62z"/>
			<path id="Path_258" class="st1" d="M64.62,18.44c-0.21-0.01-0.42-0.07-0.6-0.17l-13.51-7.56c-0.63-0.36-0.85-1.16-0.49-1.79
				c0.36-0.63,1.16-0.85,1.79-0.49L65.33,16c0.63,0.36,0.85,1.15,0.49,1.78C65.58,18.21,65.11,18.47,64.62,18.44L64.62,18.44z"/>
			<path id="Path_259" class="st1" d="M29.84,23.07c-0.72,0-1.31-0.58-1.31-1.3c0-0.4,0.18-0.77,0.49-1.02L43.28,9.15
				c0.59-0.42,1.4-0.29,1.82,0.3c0.39,0.54,0.31,1.28-0.18,1.73L30.66,22.78C30.43,22.97,30.14,23.07,29.84,23.07z"/>
		</g>
	</g>
</g>
</svg>
