<svg xmlns="http://www.w3.org/2000/svg" width="539.626" height="468" viewBox="0 0 539.626 468">
  <g id="undraw_Add_file_re_s4qf" transform="translate(0 0)" opacity="0.35">
    <path id="Path_334" data-name="Path 334" d="M902.5,720.972l9.931,9.142-7.892-13.243c6.218-11.276,16.387-21.021,16.387-21.021s21.1,20.213,21.1,36.1-9.446,21.437-21.1,21.437-21.1-5.548-21.1-21.437A27.874,27.874,0,0,1,902.5,720.972Z" transform="translate(-402.394 -285.39)" fill="#f2f2f2"/>
    <path id="Path_335" data-name="Path 335" d="M920.942,730.263v.783c.046,9.1,1.582,16.207,4.594,21.208.043.074.089.143.132.217l.337-.205.322-.2c-3.342-5.4-4.525-13.035-4.567-20.976,0-.256-.008-.516,0-.775.012-3.362.217-6.762.547-10.065.023-.256.05-.516.078-.775.458-4.358,1.117-8.522,1.791-12.14.047-.256.1-.512.147-.764,1.167-6.118,2.357-10.55,2.629-11.531.031-.12.05-.186.054-.2l-.368-.1,0,0-.372-.1c0,.015-.07.236-.178.648-.415,1.535-1.493,5.7-2.551,11.2-.047.248-.1.5-.143.76-.551,2.935-1.089,6.215-1.516,9.658q-.163,1.3-.291,2.559c-.031.26-.058.52-.081.776Q920.961,725.581,920.942,730.263Z" transform="translate(-408.354 -285.044)" fill="#fff"/>
    <path id="Path_336" data-name="Path 336" d="M916.217,708.674q-.238.308-.489.628a21.392,21.392,0,0,0,6.184,1.873c.26.039.523.074.787.1a22.1,22.1,0,0,0,2.334.124,21.577,21.577,0,0,0,9.488-2.187l-.492-.621a20.807,20.807,0,0,1-9,2.032,21.327,21.327,0,0,1-2.183-.112c-.271-.028-.534-.062-.794-.1A20.735,20.735,0,0,1,916.217,708.674Z" transform="translate(-406.883 -288.986)" fill="#fff"/>
    <path id="Path_337" data-name="Path 337" d="M906.073,721.753c-.128.229-.252.458-.376.686a21.579,21.579,0,0,0,11.5,4.032c.268.012.535.019.806.023.109,0,.217,0,.326,0a21.693,21.693,0,0,0,17.629-9.053c-.151-.233-.306-.462-.461-.691a20.917,20.917,0,0,1-17.168,8.968c-.082,0-.167,0-.248,0q-.4,0-.8-.023a20.773,20.773,0,0,1-11.2-3.943Z" transform="translate(-404.051 -291.29)" fill="#fff"/>
    <path id="Path_338" data-name="Path 338" d="M901.276,731.314c-.093.287-.186.57-.268.857a21.678,21.678,0,0,0,14.307,6.983c.271.019.543.035.818.043s.578.019.869.019a21.741,21.741,0,0,0,20.623-14.927c-.167-.314-.341-.624-.516-.938A20.974,20.974,0,0,1,917,738.441c-.291,0-.582-.008-.872-.019-.271-.012-.543-.027-.814-.05a20.906,20.906,0,0,1-14.039-7.057Z" transform="translate(-402.728 -293.152)" fill="#fff"/>
    <path id="Path_339" data-name="Path 339" d="M299.815,343.565l-13.227,2.691L300.19,339c.508-12.867-3.159-26.466-3.159-26.466s-28.51,6.394-36.725,19.994-3,23.233,6.976,29.258,20.927,6.159,29.142-7.441a27.872,27.872,0,0,0,3.391-10.781Z" transform="translate(-220.746 -177.201)" fill="#f2f2f2"/>
    <path id="Path_340" data-name="Path 340" d="M288.873,345.111l-.4.67c-4.747,7.768-9.733,13.055-14.9,15.778-.075.041-.15.077-.225.118l-.182-.35-.171-.339c5.653-2.9,10.613-8.818,14.754-15.593.136-.217.273-.437.4-.662,1.728-2.883,3.31-5.9,4.736-8.9.112-.231.223-.467.335-.7,1.862-3.967,3.45-7.872,4.743-11.317.092-.243.182-.488.269-.73,2.164-5.84,3.437-10.249,3.712-11.229.036-.119.053-.185.058-.2l.369.1h.005l.373.1c0,.015-.063.239-.182.646-.439,1.529-1.671,5.654-3.608,10.907-.089.236-.178.482-.27.725-1.046,2.8-2.281,5.883-3.7,9.051q-.531,1.194-1.074,2.341c-.108.238-.219.475-.331.706Q291.277,341.093,288.873,345.111Z" transform="translate(-225.473 -176.952)" fill="#fff"/>
    <path id="Path_341" data-name="Path 341" d="M305.22,324.985c-.24-.1-.484-.211-.727-.326a21.4,21.4,0,0,1-1.93-1.034,20.807,20.807,0,0,1-6.649-6.39l-.742.276a21.576,21.576,0,0,0,6.99,6.777,22.128,22.128,0,0,0,2.062,1.1c.24.113.483.22.726.321a21.4,21.4,0,0,0,6.262,1.594q-.049-.4-.093-.79A20.734,20.734,0,0,1,305.22,324.985Z" transform="translate(-231.733 -178.528)" fill="#fff"/>
    <path id="Path_342" data-name="Path 342" d="M297.539,338.2q-.355-.188-.7-.4c-.072-.039-.145-.083-.214-.125a20.917,20.917,0,0,1-10.059-16.553c-.251.116-.5.231-.752.352a21.694,21.694,0,0,0,10.41,16.864c.093.056.186.112.281.165.234.137.467.269.7.4a21.579,21.579,0,0,0,11.925,2.493c.012-.26.024-.52.033-.782a20.773,20.773,0,0,1-11.627-2.416Z" transform="translate(-229.092 -179.626)" fill="#fff"/>
    <path id="Path_343" data-name="Path 343" d="M290.257,348.78c-.244-.12-.485-.247-.723-.378-.255-.14-.508-.284-.757-.434a20.974,20.974,0,0,1-9.409-23.313c-.312.179-.621.354-.927.537a21.741,21.741,0,0,0,9.935,23.44c.249.15.5.3.753.432s.48.263.722.386a21.678,21.678,0,0,0,15.857,1.42c.079-.288.145-.578.214-.872a20.906,20.906,0,0,1-15.666-1.219Z" transform="translate(-226.856 -180.622)" fill="#fff"/>
    <path id="Path_344" data-name="Path 344" d="M618.975,161.447l-1.077,15.2,6.13-16.285c14.326-2.45,30.082-.336,30.082-.336s-2.985,32.843-17.005,44.027-25.564,6.754-33.765-3.527-9.955-22.521,4.065-33.7A31.446,31.446,0,0,1,618.975,161.447Z" transform="translate(-316.927 -133.916)" fill="#f2f2f2"/>
    <path id="Path_345" data-name="Path 345" d="M621.607,179.119l-.691.551c-8,6.449-13.187,12.8-15.479,18.982-.035.089-.064.18-.1.269l.419.153.4.142c2.413-6.75,8.317-13.167,15.293-18.794.223-.184.45-.37.681-.549,2.974-2.356,6.119-4.568,9.266-6.6.242-.16.49-.318.739-.477,4.167-2.664,8.305-5.013,11.972-6.964.259-.139.52-.275.778-.408,6.22-3.277,10.968-5.346,12.025-5.8.128-.057.2-.087.216-.094l-.167-.4v-.006l-.17-.4c-.016.007-.258.1-.7.3-1.647.715-6.083,2.7-11.679,5.633-.252.134-.513.269-.772.408-2.977,1.58-6.251,3.413-9.589,5.46q-1.259.769-2.463,1.545c-.251.155-.5.314-.742.474Q625.752,175.84,621.607,179.119Z" transform="translate(-319.276 -133.788)" fill="#fff"/>
    <path id="Path_346" data-name="Path 346" d="M655.849,158.1l-.9.011a24.149,24.149,0,0,0,2.7,6.775c.149.256.3.514.465.765a24.982,24.982,0,0,0,1.533,2.147,24.354,24.354,0,0,0,8.607,6.832c.067-.294.134-.583.2-.871a23.485,23.485,0,0,1-8.124-6.507,24.152,24.152,0,0,1-1.44-2.009c-.164-.255-.319-.512-.471-.766A23.4,23.4,0,0,1,655.849,158.1Z" transform="translate(-333.279 -133.613)" fill="#fff"/>
    <path id="Path_347" data-name="Path 347" d="M635.443,159.679c-.292.048-.581.1-.87.151a24.356,24.356,0,0,0,4.534,12.982c.178.244.359.486.547.728.073.1.149.194.226.29a24.486,24.486,0,0,0,20.4,9.183c.1-.3.192-.6.284-.893a23.609,23.609,0,0,1-20-8.836c-.057-.072-.117-.147-.171-.222q-.283-.354-.544-.725A23.447,23.447,0,0,1,635.443,159.679Z" transform="translate(-327.527 -134.058)" fill="#fff"/>
    <path id="Path_348" data-name="Path 348" d="M622.423,162.96c-.319.12-.634.237-.944.367a24.468,24.468,0,0,0,3.909,17.539c.174.253.351.5.538.752.188.264.39.523.594.78a24.54,24.54,0,0,0,27.687,7.69c.16-.368.311-.74.465-1.115a23.673,23.673,0,0,1-27.468-7.12c-.2-.257-.4-.519-.6-.783-.181-.248-.358-.5-.529-.754a23.6,23.6,0,0,1-3.656-17.355Z" transform="translate(-323.747 -134.984)" fill="#fff"/>
    <path id="Path_349" data-name="Path 349" d="M349.817,441.4c-1.442,0-2.9-.023-4.329-.068l.033-1.039c2.053.064,4.149.082,6.212.053l.014,1.04Q350.784,441.4,349.817,441.4Zm8.185-.241-.061-1.038c2.057-.121,4.14-.292,6.191-.507l.109,1.034c-2.067.217-4.166.389-6.239.511ZM339.238,441c-2.074-.159-4.17-.367-6.229-.62l.127-1.032c2.044.25,4.123.457,6.181.615Zm31.211-1.143-.156-1.027c2.043-.31,4.1-.67,6.118-1.071l.2,1.019c-2.032.4-4.106.766-6.165,1.078Zm-43.634-.38c-2.049-.347-4.117-.746-6.146-1.187l.221-1.016c2.014.438,4.066.834,6.1,1.178Zm55.909-2.06-.25-1.009c2.006-.5,4.023-1.044,6-1.629l.3,1c-1.988.589-4.019,1.142-6.041,1.641Zm-68.14-.6c-2.01-.535-4.032-1.122-6.011-1.748l.313-.991c1.964.621,3.971,1.2,5.965,1.734Zm80.14-2.964-.341-.982c1.946-.677,3.9-1.408,5.819-2.175l.386.966C398.659,432.438,396.686,433.176,394.724,433.857Zm-92.09-.814c-1.952-.717-3.916-1.492-5.837-2.3l.4-.958c1.906.8,3.855,1.571,5.792,2.284Zm103.7-3.83-.43-.946c1.869-.849,3.748-1.756,5.584-2.695l.473.926c-1.85.946-3.743,1.86-5.627,2.715Zm11.124-5.686-.515-.9c1.793-1.023,3.582-2.1,5.318-3.2l.555.878c-1.748,1.107-3.551,2.191-5.358,3.221Zm10.565-6.684-.6-.852c1.688-1.179,3.372-2.414,5.007-3.67l.634.824c-1.646,1.266-3.343,2.51-5.045,3.7Zm-158.464-1.464c-1.678-1.219-3.354-2.5-4.983-3.8l.649-.812c1.616,1.29,3.28,2.557,4.945,3.766Zm168.382-6.158-.67-.8c1.573-1.328,3.139-2.711,4.654-4.112l.706.764C441.1,406.489,439.525,407.883,437.939,409.221Zm-178.168-1.656c-1.563-1.369-3.116-2.792-4.615-4.231l.72-.75c1.488,1.429,3.029,2.841,4.58,4.2Zm187.355-6.842-.74-.73c1.45-1.47,2.885-2.991,4.263-4.52l.773.7C450.033,397.71,448.588,399.242,447.126,400.723ZM250.74,398.9c-1.434-1.508-2.85-3.066-4.209-4.632l.785-.681c1.349,1.554,2.754,3.1,4.177,4.6Zm204.767-7.475-.8-.66c1.31-1.595,2.6-3.24,3.835-4.891l.833.622c-1.245,1.664-2.545,3.322-3.866,4.929Zm-212.968-1.974c-1.288-1.627-2.556-3.307-3.769-4.993l.844-.607c1.2,1.673,2.462,3.34,3.74,4.955Zm220.47-8.056-.86-.584c1.16-1.707,2.3-3.464,3.375-5.223l.886.544c-1.09,1.772-2.234,3.543-3.4,5.263ZM235.234,379.3c-1.133-1.737-2.242-3.524-3.3-5.313l.9-.528c1.046,1.775,2.147,3.549,3.271,5.272Zm234.332-8.583-.91-.5c1-1.806,1.968-3.661,2.883-5.514l.932.461c-.923,1.866-1.9,3.735-2.907,5.555Zm5.552-11.24-.952-.417c.828-1.892,1.624-3.83,2.365-5.759l.971.373c-.747,1.945-1.55,3.9-2.384,5.8ZM223.56,357.231c-.8-1.913-1.56-3.87-2.269-5.817l.977-.355c.7,1.933,1.46,3.875,2.251,5.773Zm256.054-9.47-.987-.327c.649-1.955,1.261-3.953,1.82-5.94l1,.281c-.563,2-1.181,4.015-1.834,5.986Zm-260.325-2.278c-.619-1.981-1.2-4.005-1.728-6.017l1.006-.264c.524,2,1.1,4.005,1.714,5.971ZM483,335.712l-1.013-.236c.465-2,.891-4.05,1.265-6.081l1.022.188C483.9,331.631,483.471,333.692,483,335.712Zm-266.89-2.336c-.434-2.031-.826-4.1-1.166-6.15l1.025-.171c.338,2.035.727,4.088,1.157,6.1ZM485.267,323.4l-1.031-.141c.28-2.036.516-4.113.7-6.172l1.036.093c-.188,2.075-.426,4.167-.707,6.219Zm-271.2-2.373c-.245-2.058-.447-4.154-.6-6.23l1.037-.076c.151,2.061.351,4.141.594,6.183ZM486.4,310.939l-1.039-.047c.092-2.06.14-4.15.14-6.21h1.04c0,2.076-.047,4.182-.141,6.257ZM213.15,308.547c-.036-1.275-.054-2.575-.054-3.865q0-1.2.021-2.4l1.04.018q-.021,1.186-.021,2.377c0,1.28.018,2.571.053,3.836ZM214.4,296.1l-1.038-.065c.13-2.077.309-4.176.532-6.236l1.034.112c-.222,2.045-.4,4.128-.528,6.189Zm270.425-6.343c-.208-2.05-.493-3.049-.795-5.09l1.029-.152c.3,2.056.564,3.626.774,5.691ZM215.74,283.75l-1.028-.159c.319-2.057.689-4.13,1.1-6.162l1.019.206c-.408,2.017-.776,4.074-1.092,6.115Zm267.243-5.207c-.4-2.028-.844-4.07-1.33-6.068l1.01-.246c.49,2.013.941,4.071,1.34,6.114ZM218.2,271.577l-1.008-.253c.5-2.014,1.064-4.044,1.662-6.035l1,.3c-.593,1.975-1.147,3.991-1.648,5.989Zm261.843-5.1c-.58-1.98-1.213-3.971-1.883-5.919l.983-.338c.675,1.963,1.314,3.97,1.9,5.965Zm-258.263-6.81-.981-.345c.691-1.965,1.437-3.94,2.217-5.87l.964.39C223.208,255.755,222.468,257.715,221.782,259.665Zm254.226-4.936c-.758-1.913-1.571-3.834-2.414-5.708l.948-.427c.85,1.889,1.669,3.824,2.433,5.751Zm-249.559-6.6-.945-.434c.868-1.891,1.793-3.787,2.747-5.636l.924.477c-.948,1.835-1.865,3.717-2.726,5.594Zm244.471-4.7c-.931-1.835-1.916-3.675-2.93-5.466l.9-.512c1.022,1.805,2.015,3.659,2.953,5.508Zm-238.765-6.358-.9-.519c1.037-1.8,2.131-3.6,3.251-5.358l.876.559c-1.112,1.741-2.2,3.53-3.226,5.317Zm232.656-4.437c-1.1-1.749-2.249-3.491-3.419-5.179l.854-.592c1.179,1.7,2.339,3.456,3.446,5.218Zm-225.964-6.043-.85-.6c1.2-1.7,2.452-3.394,3.726-5.036l.821.637c-1.263,1.629-2.507,3.311-3.7,5Zm218.891-4.155c-1.253-1.641-2.558-3.272-3.879-4.849l.8-.668c1.331,1.589,2.646,3.232,3.909,4.886ZM246.465,216.77l-.791-.674c1.345-1.58,2.747-3.152,4.167-4.674l.76.709C249.191,213.642,247.8,215.2,246.465,216.77Zm203.3-3.851c-1.4-1.52-2.845-3.027-4.306-4.478l.733-.738c1.471,1.462,2.931,2.98,4.338,4.512Zm-194.823-5.232-.727-.743c1.487-1.454,3.025-2.892,4.572-4.274l.692.776c-1.535,1.371-3.062,2.8-4.538,4.241Zm186.013-3.524c-1.531-1.388-3.111-2.757-4.7-4.069l.663-.8c1.6,1.322,3.19,2.7,4.732,4.1ZM264.2,199.416l-.656-.806c1.608-1.31,3.27-2.6,4.94-3.839l.619.835c-1.657,1.229-3.307,2.51-4.9,3.81Zm9.972-7.391-.58-.863c1.721-1.158,3.493-2.292,5.266-3.371l.54.888c-1.76,1.071-3.518,2.2-5.226,3.345Zm10.6-6.447-.5-.912c1.821-1,3.688-1.963,5.549-2.873l.457.934c-1.847.9-3.7,1.863-5.507,2.852Zm125.477-2.409c-1.85-.922-3.745-1.812-5.633-2.646l.42-.951c1.9.841,3.812,1.738,5.676,2.667Zm-114.341-3.038-.413-.954c1.9-.825,3.849-1.616,5.785-2.351l.369.972c-1.921.73-3.852,1.514-5.741,2.333Zm102.958-1.993c-1.925-.747-3.9-1.459-5.856-2.117l.331-.986c1.976.663,3.961,1.381,5.9,2.133Zm-91.361-2.41-.324-.988c1.976-.648,3.992-1.258,5.992-1.812l.278,1c-1.984.55-3.985,1.155-5.945,1.8Zm79.57-1.546c-1.983-.565-4.005-1.092-6.011-1.565l.239-1.012c2.022.476,4.059,1.007,6.058,1.576Zm-67.6-1.776-.232-1.014c2.026-.463,4.089-.884,6.133-1.253l.185,1.023c-2.028.366-4.075.784-6.085,1.244Zm55.514-1.074c-2.025-.38-4.087-.718-6.13-1L369,169.3c2.059.289,4.137.63,6.177,1.013ZM331.7,170.2l-.138-1.031c2.058-.275,4.151-.506,6.221-.686l.09,1.036c-2.053.179-4.13.408-6.172.68Zm30.992-.6c-2.048-.193-4.132-.342-6.2-.441l.051-1.039c2.079.1,4.179.251,6.243.445Zm-18.618-.483-.044-1.039c1.911-.08,3.858-.12,5.789-.121h.471l0,1.04h-.468c-1.915,0-3.848.04-5.744.119Z" transform="translate(-208.568 -136.396)" fill="#e4e4e4"/>
    <path id="Path_350" data-name="Path 350" d="M562.3,131.781v87.233a7.807,7.807,0,0,1-7.8,7.8H428a7.807,7.807,0,0,1-7.8-7.8V131.781a7.807,7.807,0,0,1,7.8-7.8H554.5A7.807,7.807,0,0,1,562.3,131.781Z" transform="translate(-267.021 -123.983)" fill="#e4e4e4"/>
    <path id="Path_351" data-name="Path 351" d="M559.282,133.689v87.54a2.407,2.407,0,0,1-2.4,2.4H429.533a2.407,2.407,0,0,1-2.4-2.4V133.69a2.407,2.407,0,0,1,2.4-2.4H556.878a2.407,2.407,0,0,1,2.4,2.4Z" transform="translate(-268.978 -126.044)" fill="#fff"/>
    <rect id="Rectangle_2161" data-name="Rectangle 2161" width="104.1" height="2.149" transform="translate(172.178 19.133)" fill="#f47c3c"/>
    <rect id="Rectangle_2162" data-name="Rectangle 2162" width="104.1" height="2.149" transform="translate(172.178 25.937)" fill="#f47c3c"/>
    <rect id="Rectangle_2163" data-name="Rectangle 2163" width="104.1" height="2.149" transform="translate(172.178 32.741)" fill="#f47c3c"/>
    <rect id="Rectangle_2164" data-name="Rectangle 2164" width="104.1" height="2.149" transform="translate(172.178 43.536)" fill="#e4e4e4"/>
    <rect id="Rectangle_2165" data-name="Rectangle 2165" width="104.1" height="2.149" transform="translate(172.178 50.341)" fill="#e4e4e4"/>
    <rect id="Rectangle_2166" data-name="Rectangle 2166" width="104.1" height="2.149" transform="translate(172.178 57.145)" fill="#e4e4e4"/>
    <rect id="Rectangle_2167" data-name="Rectangle 2167" width="104.1" height="2.149" transform="translate(172.178 67.94)" fill="#e4e4e4"/>
    <rect id="Rectangle_2168" data-name="Rectangle 2168" width="104.1" height="2.149" transform="translate(172.178 74.744)" fill="#e4e4e4"/>
    <rect id="Rectangle_2169" data-name="Rectangle 2169" width="104.1" height="2.149" transform="translate(172.178 81.548)" fill="#e4e4e4"/>
    <path id="Path_352" data-name="Path 352" d="M301.818,511.744H214.585a7.807,7.807,0,0,1-7.8-7.8V377.437a7.807,7.807,0,0,1,7.8-7.8h87.233a7.807,7.807,0,0,1,7.8,7.8V503.945A7.807,7.807,0,0,1,301.818,511.744Z" transform="translate(-206.787 -193.318)" fill="#e4e4e4"/>
    <path id="Path_353" data-name="Path 353" d="M304.033,508.724h-87.54a2.407,2.407,0,0,1-2.4-2.4V378.976a2.407,2.407,0,0,1,2.4-2.4h87.54a2.407,2.407,0,0,1,2.4,2.4V506.32A2.407,2.407,0,0,1,304.033,508.724Z" transform="translate(-208.848 -195.275)" fill="#fff"/>
    <rect id="Rectangle_2170" data-name="Rectangle 2170" width="57.825" height="2.149" transform="translate(22.502 248.66)" fill="#e4e4e4"/>
    <rect id="Rectangle_2171" data-name="Rectangle 2171" width="57.825" height="2.149" transform="translate(22.502 255.465)" fill="#e4e4e4"/>
    <rect id="Rectangle_2172" data-name="Rectangle 2172" width="57.825" height="2.149" transform="translate(22.502 262.268)" fill="#e4e4e4"/>
    <rect id="Rectangle_2173" data-name="Rectangle 2173" width="57.825" height="2.149" transform="translate(22.502 277.177)" fill="#e4e4e4"/>
    <rect id="Rectangle_2174" data-name="Rectangle 2174" width="57.825" height="2.149" transform="translate(22.502 283.981)" fill="#e4e4e4"/>
    <rect id="Rectangle_2175" data-name="Rectangle 2175" width="57.825" height="2.149" transform="translate(22.502 290.785)" fill="#e4e4e4"/>
    <rect id="Rectangle_2176" data-name="Rectangle 2176" width="24.287" height="23.446" transform="matrix(0.933, -0.361, 0.361, 0.933, 38.728, 208.214)" fill="#f47c3c"/>
    <path id="Path_354" data-name="Path 354" d="M261.27,430.384l-9.162-23.69,24.515-9.482,9.162,23.69Zm-8.23-23.278,8.643,22.347,23.172-8.962-8.643-22.346Z" transform="translate(-219.579 -201.101)" fill="#3f3d56"/>
    <circle id="Ellipse_3" data-name="Ellipse 3" cx="26.743" cy="26.743" r="26.743" transform="translate(114.507 141.544)" fill="#f47c3c"/>
    <path id="Path_355" data-name="Path 355" d="M382.866,349.545a2.382,2.382,0,1,0,0,4.763h8.914a2.9,2.9,0,0,1,2.9,2.9v8.914a2.381,2.381,0,0,0,4.763,0v-8.914a2.9,2.9,0,0,1,2.9-2.9h8.914a2.382,2.382,0,0,0,0-4.763h-8.915a2.9,2.9,0,0,1-2.9-2.9V337.73a2.381,2.381,0,1,0-4.763,0v8.914a2.9,2.9,0,0,1-2.9,2.9Z" transform="translate(-255.812 -183.64)" fill="#fff"/>
    <path id="Path_356" data-name="Path 356" d="M629.725,623.883H620.4l-4.435-35.957h13.759Z" transform="translate(-173.854 -165.939)" fill="#ffb6b6"/>
    <path id="Path_357" data-name="Path 357" d="M833.414,769.845H803.354v-.38a11.7,11.7,0,0,1,11.7-11.7h18.361Z" transform="translate(-375.165 -302.865)" fill="#2f2e41"/>
    <path id="Path_358" data-name="Path 358" d="M552.648,623.883h-9.322l-4.435-35.957H552.65Z" transform="translate(-152.1 -165.939)" fill="#ffb6b6"/>
    <path id="Path_359" data-name="Path 359" d="M756.338,769.845H726.279v-.38a11.7,11.7,0,0,1,11.7-11.7h18.361Z" transform="translate(-353.411 -302.865)" fill="#2f2e41"/>
    <path id="Path_360" data-name="Path 360" d="M753.816,544.45a8.538,8.538,0,0,0,2.292-12.89l9.6-77.169-18.548.858-3.6,75.585a8.584,8.584,0,0,0,10.26,13.616Z" transform="translate(-357.541 -217.239)" fill="#ffb6b6"/>
    <path id="Path_361" data-name="Path 361" d="M766.078,459.224l-19.132-2.791a3.828,3.828,0,0,1-3.114-4.89l5.547-18.461a10.632,10.632,0,0,1,21.032,3.131l.048,19.214a3.828,3.828,0,0,1-4.381,3.8Z" transform="translate(-358.32 -208.665)" fill="#f47c3c"/>
    <path id="Path_362" data-name="Path 362" d="M754,545.344l-6.08,5.626.454,29.536s-5.142,43.133-5.611,44.539-2.359,52.978-2.359,52.978,9.845,4.688,18.753,1.875c0,0,8.908-42.195,8.908-54.384l10.314-42.664,11.736,49.227s5.142,32.349,7.018,43.133,1.875,12.19,1.875,12.19,15,4.219,18.753,0c0,0-1.875-55.322-3.282-60.948L811.2,559.409Z" transform="translate(-357.399 -242.91)" fill="#2f2e41"/>
    <circle id="Ellipse_4" data-name="Ellipse 4" cx="15.471" cy="15.471" r="15.471" transform="translate(408.56 167.176)" fill="#ffb9b9"/>
    <path id="Path_363" data-name="Path 363" d="M801.424,412.044l23.119,9.88L814.7,476.309s.484,28.13,1.875,50.165c1.154,18.272-69.387,0-67.043-15.471s11.721-34.225,11.721-34.225,2.344-20.629-2.813-30.005-1.875-20.16-1.875-20.16L777.2,412.939S777.206,413.017,801.424,412.044Z" transform="translate(-359.958 -205.287)" fill="#f47c3c"/>
    <path id="Path_364" data-name="Path 364" d="M786.287,357.7a61.865,61.865,0,0,1,6.932-.687,10.438,10.438,0,0,1,4.955.664c2.292,1.092,3.576,3.559,4.417,5.955s1.437,4.956,3,6.959c2.6-2.709,3.114-6.736,3.5-10.468.272-2.625.513-5.423-.7-7.766a12.275,12.275,0,0,0-3.23-3.608c-5.963-4.963-13.537-8.869-21.215-7.754l-.18,1.185a21.17,21.17,0,0,0-3.917.246l.274,2.941-4.078.259-.156,3.065-4.125.143a4.779,4.779,0,0,0,1.439,3.107,5.809,5.809,0,0,1-2.118.957c.688,2.662,1.355,5.331,2.066,7.988.523,1.957.43,3.686,2.529,2.731,1.6-.727,2.68-3.039,4.3-3.995A17.7,17.7,0,0,1,786.287,357.7Z" transform="translate(-366.057 -185.181)" fill="#2f2e41"/>
    <path id="Path_365" data-name="Path 365" d="M860.442,541.069a8.538,8.538,0,0,0-.29-13.089l-5.776-77.549-18.016,4.491L847.7,529.739a8.584,8.584,0,0,0,12.739,11.331Z" transform="translate(-384.481 -216.122)" fill="#ffb6b6"/>
    <path id="Path_366" data-name="Path 366" d="M855.4,455.679,836.1,456.708a3.828,3.828,0,0,1-4.015-4.181l1.806-19.192a10.632,10.632,0,1,1,21.237-1.07l3.828,18.829a3.828,3.828,0,0,1-3.548,4.584Z" transform="translate(-383.268 -208.144)" fill="#f47c3c"/>
  </g>
</svg>
