<svg xmlns="http://www.w3.org/2000/svg" width="16.234" height="14.062" viewBox="0 0 16.234 14.062">
  <g id="wishlist" transform="translate(-105.098 -67.895)">
    <path id="Path_13253" data-name="Path 13253" d="M120.052,69.195a4.251,4.251,0,0,0-3.08-1.3,4.338,4.338,0,0,0-3.091,1.293l-.667.667-.667-.667a4.338,4.338,0,0,0-3.091-1.293,4.263,4.263,0,0,0-3.074,1.288,4.356,4.356,0,0,0,0,6.177l6.42,6.426a.58.58,0,0,0,.824,0l1.218-1.224h0a.58.58,0,0,0-.818-.818l-.812.806-6.02-6.015a3.2,3.2,0,0,1,0-4.535,3.155,3.155,0,0,1,2.262-.945,3.2,3.2,0,0,1,2.273.951l1.073,1.079h0a.58.58,0,0,0,.824,0l1.073-1.079h0a3.2,3.2,0,0,1,2.273-.951,3.144,3.144,0,0,1,2.262.957,3.19,3.19,0,0,1,0,4.524.58.58,0,1,0,.812.824,4.338,4.338,0,0,0,0-6.165Z" transform="translate(0 0)" fill="#adadad"/>
    <path id="Path_13254" data-name="Path 13254" d="M398.39,282.03h-1.45v-1.45a.58.58,0,1,0-1.16,0v1.45h-1.45a.58.58,0,1,0,0,1.16h1.45v1.45a.58.58,0,0,0,1.16,0v-1.45h1.45a.58.58,0,0,0,0-1.16Z" transform="translate(-279.086 -205.075)" fill="#adadad"/>
  </g>
</svg>
